G04 #@! TF.GenerationSoftware,KiCad,Pcbnew,7.0.0*
G04 #@! TF.CreationDate,2023-02-17T23:53:31+01:00*
G04 #@! TF.ProjectId,ELController,454c436f-6e74-4726-9f6c-6c65722e6b69,rev?*
G04 #@! TF.SameCoordinates,Original*
G04 #@! TF.FileFunction,Soldermask,Bot*
G04 #@! TF.FilePolarity,Negative*
%FSLAX46Y46*%
G04 Gerber Fmt 4.6, Leading zero omitted, Abs format (unit mm)*
G04 Created by KiCad (PCBNEW 7.0.0) date 2023-02-17 23:53:31*
%MOMM*%
%LPD*%
G01*
G04 APERTURE LIST*
G04 Aperture macros list*
%AMFreePoly0*
4,1,19,0.500000,-0.750000,0.000000,-0.750000,0.000000,-0.744911,-0.071157,-0.744911,-0.207708,-0.704816,-0.327430,-0.627875,-0.420627,-0.520320,-0.479746,-0.390866,-0.500000,-0.250000,-0.500000,0.250000,-0.479746,0.390866,-0.420627,0.520320,-0.327430,0.627875,-0.207708,0.704816,-0.071157,0.744911,0.000000,0.744911,0.000000,0.750000,0.500000,0.750000,0.500000,-0.750000,0.500000,-0.750000,
$1*%
%AMFreePoly1*
4,1,19,0.000000,0.744911,0.071157,0.744911,0.207708,0.704816,0.327430,0.627875,0.420627,0.520320,0.479746,0.390866,0.500000,0.250000,0.500000,-0.250000,0.479746,-0.390866,0.420627,-0.520320,0.327430,-0.627875,0.207708,-0.704816,0.071157,-0.744911,0.000000,-0.744911,0.000000,-0.750000,-0.500000,-0.750000,-0.500000,0.750000,0.000000,0.750000,0.000000,0.744911,0.000000,0.744911,
$1*%
G04 Aperture macros list end*
%ADD10C,2.400000*%
%ADD11R,2.400000X2.400000*%
%ADD12R,1.700000X1.700000*%
%ADD13O,1.700000X1.700000*%
%ADD14C,2.000000*%
%ADD15R,1.600000X1.600000*%
%ADD16O,1.600000X1.600000*%
%ADD17C,1.700000*%
%ADD18C,0.800000*%
%ADD19C,6.400000*%
%ADD20R,1.000000X1.000000*%
%ADD21O,1.000000X1.000000*%
%ADD22O,1.500000X2.000000*%
%ADD23C,1.600000*%
%ADD24C,3.400000*%
%ADD25C,2.900000*%
%ADD26R,1.500000X1.500000*%
%ADD27C,1.500000*%
%ADD28C,0.650000*%
%ADD29O,2.100000X1.000000*%
%ADD30O,1.800000X1.000000*%
%ADD31FreePoly0,90.000000*%
%ADD32FreePoly1,90.000000*%
%ADD33FreePoly0,270.000000*%
%ADD34FreePoly1,270.000000*%
G04 APERTURE END LIST*
D10*
X91022220Y-47400000D03*
D11*
X83522219Y-47399999D03*
X83522219Y-28799999D03*
D10*
X91022220Y-28800000D03*
X272020000Y-71740000D03*
X277020000Y-71740000D03*
D12*
X212274999Y-19499999D03*
D13*
X209734999Y-19499999D03*
D14*
X43095000Y-65845000D03*
X104750000Y-40750000D03*
X173000000Y-29200000D03*
X65400000Y-48300000D03*
X75400000Y-48300000D03*
D15*
X127124999Y-100274999D03*
D16*
X134744999Y-100274999D03*
X134744999Y-92654999D03*
X129664999Y-92654999D03*
D10*
X272020000Y-98740000D03*
X277020000Y-98740000D03*
X265750000Y-86000000D03*
X270750000Y-86000000D03*
X265750000Y-32000000D03*
X270750000Y-32000000D03*
D14*
X35300000Y-51200000D03*
D15*
X66049999Y-71999999D03*
D16*
X68589999Y-71999999D03*
X71129999Y-71999999D03*
X73669999Y-71999999D03*
X76209999Y-71999999D03*
X78749999Y-71999999D03*
X81289999Y-71999999D03*
X83829999Y-71999999D03*
X86369999Y-71999999D03*
X88909999Y-71999999D03*
X91449999Y-71999999D03*
X93989999Y-71999999D03*
X93989999Y-64379999D03*
X91449999Y-64379999D03*
X88909999Y-64379999D03*
X86369999Y-64379999D03*
X83829999Y-64379999D03*
X81289999Y-64379999D03*
X78749999Y-64379999D03*
X76209999Y-64379999D03*
X73669999Y-64379999D03*
X71129999Y-64379999D03*
X68589999Y-64379999D03*
X66049999Y-64379999D03*
D12*
X82749999Y-109749999D03*
D17*
X89250000Y-109750000D03*
X82750000Y-114250000D03*
X89250000Y-114250000D03*
D14*
X34550000Y-26700000D03*
X241600000Y-67600000D03*
X152250000Y-93750000D03*
D12*
X280984999Y-19499999D03*
D13*
X278444999Y-19499999D03*
D14*
X107250000Y-53000000D03*
D12*
X94749999Y-109749999D03*
D17*
X101250000Y-109750000D03*
X94750000Y-114250000D03*
X101250000Y-114250000D03*
D14*
X173200000Y-36750000D03*
X241600000Y-29200000D03*
D12*
X133289999Y-87499999D03*
D13*
X130749999Y-87499999D03*
D10*
X135000000Y-45000000D03*
X140000000Y-45000000D03*
D18*
X168600000Y-52000000D03*
X169302944Y-50302944D03*
X169302944Y-53697056D03*
X171000000Y-49600000D03*
D19*
X171000000Y-52000000D03*
D18*
X171000000Y-54400000D03*
X172697056Y-50302944D03*
X172697056Y-53697056D03*
X173400000Y-52000000D03*
D14*
X117480000Y-79090000D03*
X107480000Y-79090000D03*
X38300000Y-51200000D03*
X173200000Y-67800000D03*
X45500000Y-67800000D03*
D10*
X203509755Y-44870000D03*
X208509755Y-44870000D03*
D14*
X134875000Y-103225000D03*
D20*
X27799999Y-111749999D03*
D21*
X29069999Y-111749999D03*
X27799999Y-113019999D03*
X29069999Y-113019999D03*
X27799999Y-114289999D03*
X29069999Y-114289999D03*
X27799999Y-115559999D03*
X29069999Y-115559999D03*
X27799999Y-116829999D03*
X29069999Y-116829999D03*
D14*
X44700000Y-51800000D03*
X72300000Y-82400000D03*
D10*
X135000000Y-72000000D03*
X140000000Y-72000000D03*
D14*
X244400000Y-51000000D03*
X48800000Y-34700000D03*
D18*
X302600000Y-20000000D03*
X303302944Y-18302944D03*
X303302944Y-21697056D03*
X305000000Y-17600000D03*
D19*
X305000000Y-20000000D03*
D18*
X305000000Y-22400000D03*
X306697056Y-18302944D03*
X306697056Y-21697056D03*
X307400000Y-20000000D03*
D10*
X265750000Y-59000000D03*
X270750000Y-59000000D03*
D12*
X70749999Y-109749999D03*
D17*
X77250000Y-109750000D03*
X70750000Y-114250000D03*
X77250000Y-114250000D03*
D14*
X87200000Y-80300000D03*
D22*
X13899999Y-85655488D03*
D14*
X18300000Y-85655489D03*
X44900000Y-18300000D03*
X173250000Y-93500000D03*
X104500000Y-76750000D03*
D10*
X203510000Y-98870000D03*
X208510000Y-98870000D03*
D14*
X171250000Y-78000000D03*
D12*
X192154999Y-19499999D03*
D13*
X189614999Y-19499999D03*
D15*
X108669999Y-83539999D03*
D16*
X108669999Y-91159999D03*
X116289999Y-91159999D03*
X116289999Y-86079999D03*
D14*
X122600000Y-91465000D03*
X122600000Y-101465000D03*
D10*
X197239755Y-32130000D03*
X202239755Y-32130000D03*
D12*
X144999999Y-81974999D03*
D13*
X144999999Y-84514999D03*
X144999999Y-87054999D03*
D14*
X157240000Y-91550000D03*
X167240000Y-91550000D03*
D12*
X270824999Y-19499999D03*
D13*
X268284999Y-19499999D03*
D12*
X123644999Y-19499999D03*
D13*
X121104999Y-19499999D03*
D14*
X241600000Y-40800000D03*
D23*
X20910000Y-28380000D03*
X15830000Y-36000000D03*
D24*
X24720000Y-36000000D03*
X25355000Y-28380000D03*
D25*
X29170000Y-32190000D03*
X19000000Y-40440000D03*
D10*
X203509755Y-71870000D03*
X208509755Y-71870000D03*
D14*
X244400000Y-78000000D03*
D18*
X168600000Y-109000000D03*
X169302944Y-107302944D03*
X169302944Y-110697056D03*
X171000000Y-106600000D03*
D19*
X171000000Y-109000000D03*
D18*
X171000000Y-111400000D03*
X172697056Y-107302944D03*
X172697056Y-110697056D03*
X173400000Y-109000000D03*
D10*
X272020000Y-44740000D03*
X277020000Y-44740000D03*
D12*
X47349999Y-24999999D03*
D13*
X44809999Y-24999999D03*
X42269999Y-24999999D03*
D12*
X260664999Y-19499999D03*
D13*
X258124999Y-19499999D03*
D26*
X71109999Y-102074999D03*
D27*
X73650000Y-102075000D03*
X76190000Y-102075000D03*
X78730000Y-102075000D03*
X81270000Y-102075000D03*
X83810000Y-102075000D03*
X86350000Y-102075000D03*
X88890000Y-102075000D03*
X88890000Y-89925000D03*
X86350000Y-89925000D03*
X83810000Y-89925000D03*
X81270000Y-89925000D03*
X78730000Y-89925000D03*
X76190000Y-89925000D03*
X73650000Y-89925000D03*
X71110000Y-89925000D03*
D14*
X79100000Y-13900000D03*
D18*
X302600000Y-114000000D03*
X303302944Y-112302944D03*
X303302944Y-115697056D03*
X305000000Y-111600000D03*
D19*
X305000000Y-114000000D03*
D18*
X305000000Y-116400000D03*
X306697056Y-112302944D03*
X306697056Y-115697056D03*
X307400000Y-114000000D03*
D12*
X133804999Y-19499999D03*
D13*
X131264999Y-19499999D03*
D14*
X152345000Y-98690000D03*
X244400000Y-106200000D03*
D18*
X34600000Y-112000000D03*
X35302944Y-110302944D03*
X35302944Y-113697056D03*
X37000000Y-109600000D03*
D19*
X37000000Y-112000000D03*
D18*
X37000000Y-114400000D03*
X38697056Y-110302944D03*
X38697056Y-113697056D03*
X39400000Y-112000000D03*
D15*
X166049999Y-87049999D03*
D16*
X166049999Y-79429999D03*
X158429999Y-79429999D03*
X158429999Y-84509999D03*
D14*
X173250000Y-45000000D03*
D12*
X202114999Y-19499999D03*
D13*
X199574999Y-19499999D03*
D10*
X197239755Y-59130000D03*
X202239755Y-59130000D03*
D12*
X45199999Y-119274999D03*
D13*
X45199999Y-116734999D03*
X45199999Y-114194999D03*
X45199999Y-111654999D03*
X45199999Y-109114999D03*
D14*
X62100000Y-58000000D03*
X17000000Y-94905489D03*
D10*
X128730000Y-32260000D03*
X133730000Y-32260000D03*
D12*
X58749999Y-109749999D03*
D17*
X65250000Y-109750000D03*
X58750000Y-114250000D03*
X65250000Y-114250000D03*
D28*
X17700000Y-104265489D03*
X17700000Y-110045489D03*
D29*
X18199999Y-102835488D03*
D30*
X14019999Y-102835488D03*
D29*
X18199999Y-111475488D03*
D30*
X14019999Y-111475488D03*
D14*
X48100000Y-50900000D03*
D10*
X128730000Y-59260000D03*
X133730000Y-59260000D03*
D14*
X22000000Y-115100000D03*
X56000000Y-58100000D03*
D10*
X197240000Y-86130000D03*
X202240000Y-86130000D03*
D14*
X86300000Y-83300000D03*
D23*
X20910000Y-57155489D03*
X15830000Y-64775489D03*
D24*
X29800000Y-57155489D03*
X29800000Y-64775489D03*
D25*
X29800000Y-60965489D03*
X24720000Y-60965489D03*
D14*
X169500000Y-114000000D03*
X104750000Y-29750000D03*
X84150000Y-80300000D03*
X13750000Y-94905489D03*
X59000000Y-57990000D03*
D18*
X34600000Y-22000000D03*
X35302944Y-20302944D03*
X35302944Y-23697056D03*
X37000000Y-19600000D03*
D19*
X37000000Y-22000000D03*
D18*
X37000000Y-24400000D03*
X38697056Y-20302944D03*
X38697056Y-23697056D03*
X39400000Y-22000000D03*
D14*
X58000000Y-96300000D03*
D31*
X30200000Y-81600000D03*
D32*
X30200000Y-80300000D03*
D33*
X23000000Y-75800000D03*
D34*
X23000000Y-77100000D03*
M02*
