G04 #@! TF.GenerationSoftware,KiCad,Pcbnew,7.0.0*
G04 #@! TF.CreationDate,2023-02-17T23:53:31+01:00*
G04 #@! TF.ProjectId,ELController,454c436f-6e74-4726-9f6c-6c65722e6b69,rev?*
G04 #@! TF.SameCoordinates,Original*
G04 #@! TF.FileFunction,Soldermask,Top*
G04 #@! TF.FilePolarity,Negative*
%FSLAX46Y46*%
G04 Gerber Fmt 4.6, Leading zero omitted, Abs format (unit mm)*
G04 Created by KiCad (PCBNEW 7.0.0) date 2023-02-17 23:53:31*
%MOMM*%
%LPD*%
G01*
G04 APERTURE LIST*
G04 Aperture macros list*
%AMRoundRect*
0 Rectangle with rounded corners*
0 $1 Rounding radius*
0 $2 $3 $4 $5 $6 $7 $8 $9 X,Y pos of 4 corners*
0 Add a 4 corners polygon primitive as box body*
4,1,4,$2,$3,$4,$5,$6,$7,$8,$9,$2,$3,0*
0 Add four circle primitives for the rounded corners*
1,1,$1+$1,$2,$3*
1,1,$1+$1,$4,$5*
1,1,$1+$1,$6,$7*
1,1,$1+$1,$8,$9*
0 Add four rect primitives between the rounded corners*
20,1,$1+$1,$2,$3,$4,$5,0*
20,1,$1+$1,$4,$5,$6,$7,0*
20,1,$1+$1,$6,$7,$8,$9,0*
20,1,$1+$1,$8,$9,$2,$3,0*%
%AMFreePoly0*
4,1,19,0.500000,-0.750000,0.000000,-0.750000,0.000000,-0.744911,-0.071157,-0.744911,-0.207708,-0.704816,-0.327430,-0.627875,-0.420627,-0.520320,-0.479746,-0.390866,-0.500000,-0.250000,-0.500000,0.250000,-0.479746,0.390866,-0.420627,0.520320,-0.327430,0.627875,-0.207708,0.704816,-0.071157,0.744911,0.000000,0.744911,0.000000,0.750000,0.500000,0.750000,0.500000,-0.750000,0.500000,-0.750000,
$1*%
%AMFreePoly1*
4,1,19,0.000000,0.744911,0.071157,0.744911,0.207708,0.704816,0.327430,0.627875,0.420627,0.520320,0.479746,0.390866,0.500000,0.250000,0.500000,-0.250000,0.479746,-0.390866,0.420627,-0.520320,0.327430,-0.627875,0.207708,-0.704816,0.071157,-0.744911,0.000000,-0.744911,0.000000,-0.750000,-0.500000,-0.750000,-0.500000,0.750000,0.000000,0.750000,0.000000,0.744911,0.000000,0.744911,
$1*%
G04 Aperture macros list end*
%ADD10RoundRect,0.250000X0.450000X-0.400000X0.450000X0.400000X-0.450000X0.400000X-0.450000X-0.400000X0*%
%ADD11RoundRect,0.249999X0.387501X0.700001X-0.387501X0.700001X-0.387501X-0.700001X0.387501X-0.700001X0*%
%ADD12R,0.900000X0.600000*%
%ADD13R,5.000000X1.000000*%
%ADD14RoundRect,0.249999X0.450001X1.450001X-0.450001X1.450001X-0.450001X-1.450001X0.450001X-1.450001X0*%
%ADD15C,2.400000*%
%ADD16R,2.400000X2.400000*%
%ADD17R,1.200000X1.200000*%
%ADD18RoundRect,0.218750X-0.218750X-0.381250X0.218750X-0.381250X0.218750X0.381250X-0.218750X0.381250X0*%
%ADD19RoundRect,0.218750X-0.381250X0.218750X-0.381250X-0.218750X0.381250X-0.218750X0.381250X0.218750X0*%
%ADD20RoundRect,0.200000X0.275000X-0.200000X0.275000X0.200000X-0.275000X0.200000X-0.275000X-0.200000X0*%
%ADD21R,2.300000X2.200000*%
%ADD22RoundRect,0.250000X-0.450000X0.262500X-0.450000X-0.262500X0.450000X-0.262500X0.450000X0.262500X0*%
%ADD23RoundRect,0.250000X-0.325000X-0.650000X0.325000X-0.650000X0.325000X0.650000X-0.325000X0.650000X0*%
%ADD24RoundRect,0.249999X-0.450001X-1.450001X0.450001X-1.450001X0.450001X1.450001X-0.450001X1.450001X0*%
%ADD25RoundRect,0.200000X-0.275000X0.200000X-0.275000X-0.200000X0.275000X-0.200000X0.275000X0.200000X0*%
%ADD26RoundRect,0.250000X-0.475000X0.250000X-0.475000X-0.250000X0.475000X-0.250000X0.475000X0.250000X0*%
%ADD27R,1.520000X1.780000*%
%ADD28R,1.700000X1.700000*%
%ADD29O,1.700000X1.700000*%
%ADD30RoundRect,0.200000X0.200000X0.275000X-0.200000X0.275000X-0.200000X-0.275000X0.200000X-0.275000X0*%
%ADD31R,0.400000X0.550000*%
%ADD32R,0.500000X0.550000*%
%ADD33C,2.000000*%
%ADD34FreePoly0,180.000000*%
%ADD35FreePoly1,180.000000*%
%ADD36RoundRect,0.225000X-0.250000X0.225000X-0.250000X-0.225000X0.250000X-0.225000X0.250000X0.225000X0*%
%ADD37R,1.600000X1.600000*%
%ADD38O,1.600000X1.600000*%
%ADD39RoundRect,0.225000X0.250000X-0.225000X0.250000X0.225000X-0.250000X0.225000X-0.250000X-0.225000X0*%
%ADD40RoundRect,0.250000X0.650000X-0.325000X0.650000X0.325000X-0.650000X0.325000X-0.650000X-0.325000X0*%
%ADD41RoundRect,0.250000X0.325000X0.650000X-0.325000X0.650000X-0.325000X-0.650000X0.325000X-0.650000X0*%
%ADD42R,0.990000X0.405000*%
%ADD43R,1.725000X2.235000*%
%ADD44R,0.760000X0.405000*%
%ADD45R,2.100000X1.400000*%
%ADD46RoundRect,0.050000X0.387500X0.050000X-0.387500X0.050000X-0.387500X-0.050000X0.387500X-0.050000X0*%
%ADD47RoundRect,0.050000X0.050000X0.387500X-0.050000X0.387500X-0.050000X-0.387500X0.050000X-0.387500X0*%
%ADD48R,4.700000X4.700000*%
%ADD49RoundRect,0.250000X0.450000X-0.262500X0.450000X0.262500X-0.450000X0.262500X-0.450000X-0.262500X0*%
%ADD50RoundRect,0.250000X-0.650000X0.325000X-0.650000X-0.325000X0.650000X-0.325000X0.650000X0.325000X0*%
%ADD51C,1.700000*%
%ADD52RoundRect,0.250000X0.475000X-0.250000X0.475000X0.250000X-0.475000X0.250000X-0.475000X-0.250000X0*%
%ADD53R,1.500000X2.000000*%
%ADD54R,3.800000X2.000000*%
%ADD55FreePoly0,0.000000*%
%ADD56FreePoly1,0.000000*%
%ADD57R,2.900000X5.400000*%
%ADD58RoundRect,0.250000X0.250000X0.475000X-0.250000X0.475000X-0.250000X-0.475000X0.250000X-0.475000X0*%
%ADD59R,2.000000X2.750000*%
%ADD60RoundRect,0.250000X-0.375000X-1.075000X0.375000X-1.075000X0.375000X1.075000X-0.375000X1.075000X0*%
%ADD61FreePoly0,90.000000*%
%ADD62FreePoly1,90.000000*%
%ADD63RoundRect,0.062500X0.062500X-0.350000X0.062500X0.350000X-0.062500X0.350000X-0.062500X-0.350000X0*%
%ADD64R,2.500000X1.700000*%
%ADD65R,1.350000X0.750000*%
%ADD66R,3.200000X4.900000*%
%ADD67RoundRect,0.150000X-0.587500X-0.150000X0.587500X-0.150000X0.587500X0.150000X-0.587500X0.150000X0*%
%ADD68RoundRect,0.250000X-0.325000X-1.100000X0.325000X-1.100000X0.325000X1.100000X-0.325000X1.100000X0*%
%ADD69R,2.450000X3.500000*%
%ADD70RoundRect,0.250000X1.075000X-0.375000X1.075000X0.375000X-1.075000X0.375000X-1.075000X-0.375000X0*%
%ADD71R,0.450000X0.600000*%
%ADD72R,0.500000X1.100000*%
%ADD73R,2.850000X2.000000*%
%ADD74R,1.200000X0.600000*%
%ADD75R,1.700000X1.300000*%
%ADD76RoundRect,0.249999X1.450001X-0.450001X1.450001X0.450001X-1.450001X0.450001X-1.450001X-0.450001X0*%
%ADD77RoundRect,0.250000X-0.250000X-0.475000X0.250000X-0.475000X0.250000X0.475000X-0.250000X0.475000X0*%
%ADD78R,1.000000X0.700000*%
%ADD79R,0.600000X0.700000*%
%ADD80C,0.800000*%
%ADD81C,6.400000*%
%ADD82RoundRect,0.200000X-0.200000X-0.275000X0.200000X-0.275000X0.200000X0.275000X-0.200000X0.275000X0*%
%ADD83RoundRect,0.225000X-0.225000X-0.250000X0.225000X-0.250000X0.225000X0.250000X-0.225000X0.250000X0*%
%ADD84RoundRect,0.225000X0.225000X0.250000X-0.225000X0.250000X-0.225000X-0.250000X0.225000X-0.250000X0*%
%ADD85R,1.000000X1.000000*%
%ADD86O,1.000000X1.000000*%
%ADD87R,1.400000X2.100000*%
%ADD88RoundRect,0.150000X-0.825000X-0.150000X0.825000X-0.150000X0.825000X0.150000X-0.825000X0.150000X0*%
%ADD89RoundRect,0.250000X-1.100000X0.325000X-1.100000X-0.325000X1.100000X-0.325000X1.100000X0.325000X0*%
%ADD90R,0.550000X0.400000*%
%ADD91R,0.550000X0.500000*%
%ADD92O,1.500000X2.000000*%
%ADD93R,2.000000X2.500000*%
%ADD94RoundRect,0.062500X-0.062500X0.287500X-0.062500X-0.287500X0.062500X-0.287500X0.062500X0.287500X0*%
%ADD95RoundRect,0.062500X-0.287500X-0.062500X0.287500X-0.062500X0.287500X0.062500X-0.287500X0.062500X0*%
%ADD96RoundRect,0.062500X-0.287500X0.062500X-0.287500X-0.062500X0.287500X-0.062500X0.287500X0.062500X0*%
%ADD97R,1.000000X2.000000*%
%ADD98RoundRect,0.062500X-0.062500X-0.287500X0.062500X-0.287500X0.062500X0.287500X-0.062500X0.287500X0*%
%ADD99RoundRect,0.062500X0.287500X0.062500X-0.287500X0.062500X-0.287500X-0.062500X0.287500X-0.062500X0*%
%ADD100RoundRect,0.062500X0.287500X-0.062500X0.287500X0.062500X-0.287500X0.062500X-0.287500X-0.062500X0*%
%ADD101RoundRect,0.175000X-0.175000X-0.625000X0.175000X-0.625000X0.175000X0.625000X-0.175000X0.625000X0*%
%ADD102C,1.600000*%
%ADD103C,3.400000*%
%ADD104C,2.900000*%
%ADD105R,1.500000X1.500000*%
%ADD106C,1.500000*%
%ADD107RoundRect,0.150000X0.150000X-0.587500X0.150000X0.587500X-0.150000X0.587500X-0.150000X-0.587500X0*%
%ADD108RoundRect,0.250000X0.625000X-0.312500X0.625000X0.312500X-0.625000X0.312500X-0.625000X-0.312500X0*%
%ADD109RoundRect,0.062500X0.062500X-0.287500X0.062500X0.287500X-0.062500X0.287500X-0.062500X-0.287500X0*%
%ADD110R,2.000000X1.000000*%
%ADD111RoundRect,0.062500X0.062500X0.287500X-0.062500X0.287500X-0.062500X-0.287500X0.062500X-0.287500X0*%
%ADD112RoundRect,0.150000X0.840000X0.150000X-0.840000X0.150000X-0.840000X-0.150000X0.840000X-0.150000X0*%
%ADD113RoundRect,0.218750X0.218750X0.256250X-0.218750X0.256250X-0.218750X-0.256250X0.218750X-0.256250X0*%
%ADD114RoundRect,0.150000X0.587500X0.150000X-0.587500X0.150000X-0.587500X-0.150000X0.587500X-0.150000X0*%
%ADD115C,0.650000*%
%ADD116R,1.100000X0.600000*%
%ADD117R,1.100000X0.300000*%
%ADD118O,2.100000X1.000000*%
%ADD119O,1.800000X1.000000*%
%ADD120R,1.500000X0.900000*%
%ADD121RoundRect,0.150000X-0.150000X0.587500X-0.150000X-0.587500X0.150000X-0.587500X0.150000X0.587500X0*%
%ADD122RoundRect,0.249999X-1.450001X0.450001X-1.450001X-0.450001X1.450001X-0.450001X1.450001X0.450001X0*%
%ADD123RoundRect,0.250000X-1.075000X0.375000X-1.075000X-0.375000X1.075000X-0.375000X1.075000X0.375000X0*%
G04 APERTURE END LIST*
D10*
X94800000Y-16150000D03*
X94800000Y-13250000D03*
X92300000Y-16150000D03*
X92300000Y-13250000D03*
D11*
X36987500Y-72800000D03*
X41212500Y-72800000D03*
D12*
X26649999Y-85899999D03*
X26649999Y-86899999D03*
X26649999Y-87899999D03*
X26649999Y-88899999D03*
X24749999Y-88899999D03*
X24749999Y-87899999D03*
X24749999Y-86899999D03*
X24749999Y-85899999D03*
D13*
X35899999Y-76099999D03*
X35899999Y-79099999D03*
X26899999Y-79099999D03*
X26899999Y-76099999D03*
D14*
X74150000Y-54700000D03*
X78250000Y-54700000D03*
D15*
X91022220Y-47400000D03*
D16*
X83522219Y-47399999D03*
X83522219Y-28799999D03*
D15*
X91022220Y-28800000D03*
D17*
X39799999Y-70199999D03*
X42599999Y-70199999D03*
D18*
X48262500Y-94600000D03*
X46137500Y-94600000D03*
D19*
X46050000Y-46937500D03*
X46050000Y-49062500D03*
D20*
X64400000Y-53500000D03*
X64400000Y-51850000D03*
D21*
X110599999Y-18749999D03*
X110599999Y-13849999D03*
D22*
X154880000Y-45660000D03*
X154880000Y-47485000D03*
D23*
X196250000Y-23200000D03*
X199200000Y-23200000D03*
D20*
X21250000Y-100905489D03*
X21250000Y-99255489D03*
D24*
X208814275Y-28630000D03*
X212914275Y-28630000D03*
D25*
X237800000Y-88000000D03*
X237800000Y-89650000D03*
X83775480Y-73875000D03*
X83775480Y-75525000D03*
D26*
X44300000Y-94600000D03*
X44300000Y-96500000D03*
D20*
X71750000Y-75525000D03*
X71750000Y-73875000D03*
D25*
X173800000Y-32800000D03*
X173800000Y-34450000D03*
D24*
X277324520Y-55500000D03*
X281424520Y-55500000D03*
D25*
X292000000Y-42175000D03*
X292000000Y-43825000D03*
D15*
X272020000Y-71740000D03*
X277020000Y-71740000D03*
D27*
X235244754Y-47489999D03*
X235244754Y-44949999D03*
X235244754Y-42409999D03*
X235244754Y-39869999D03*
X226294754Y-39869999D03*
X226234754Y-42409999D03*
X226234754Y-44949999D03*
X226234754Y-47489999D03*
D28*
X212274999Y-19499999D03*
D29*
X209734999Y-19499999D03*
D30*
X76575000Y-81100000D03*
X74925000Y-81100000D03*
D31*
X259449999Y-64099999D03*
X258649999Y-64099999D03*
D32*
X259049999Y-64949999D03*
D27*
X303754999Y-47359999D03*
X303754999Y-44819999D03*
X303754999Y-42279999D03*
X303754999Y-39739999D03*
X294804999Y-39739999D03*
X294744999Y-42279999D03*
X294744999Y-44819999D03*
X294744999Y-47359999D03*
D33*
X43095000Y-65845000D03*
D17*
X23099999Y-76799999D03*
X20299999Y-76799999D03*
D20*
X223489755Y-64105000D03*
X223489755Y-62455000D03*
D34*
X90550000Y-86200000D03*
D35*
X89250000Y-86200000D03*
D33*
X104750000Y-40750000D03*
D36*
X256800000Y-90900000D03*
X256800000Y-92450000D03*
D20*
X155095000Y-105015000D03*
X155095000Y-103365000D03*
D33*
X173000000Y-29200000D03*
D24*
X262500000Y-102500000D03*
X266600000Y-102500000D03*
D33*
X65400000Y-48300000D03*
X75400000Y-48300000D03*
D20*
X105400000Y-73850000D03*
X105400000Y-72200000D03*
D30*
X123030000Y-39660000D03*
X121380000Y-39660000D03*
D37*
X34094999Y-58744999D03*
X34094999Y-54764999D03*
X127124999Y-100274999D03*
D38*
X134744999Y-100274999D03*
X134744999Y-92654999D03*
X129664999Y-92654999D03*
D39*
X292000000Y-40575000D03*
X292000000Y-39025000D03*
X79250000Y-84600000D03*
X79250000Y-83050000D03*
D31*
X191239999Y-98204999D03*
X190439999Y-98204999D03*
D32*
X190839999Y-99054999D03*
D15*
X272020000Y-98740000D03*
X277020000Y-98740000D03*
D27*
X245044999Y-82869999D03*
X245044999Y-85409999D03*
X245044999Y-87949999D03*
X245044999Y-90489999D03*
X253994999Y-90489999D03*
X254054999Y-87949999D03*
X254054999Y-85409999D03*
X254054999Y-82869999D03*
D39*
X223490000Y-94705000D03*
X223490000Y-93155000D03*
D25*
X85775480Y-73875000D03*
X85775480Y-75525000D03*
D40*
X212900000Y-25275000D03*
X212900000Y-22325000D03*
D15*
X265750000Y-86000000D03*
X270750000Y-86000000D03*
D41*
X136000000Y-23700000D03*
X133050000Y-23700000D03*
D42*
X125487499Y-69519999D03*
X125487499Y-70179999D03*
X125487499Y-70839999D03*
X125487499Y-71499999D03*
D43*
X127479999Y-70509999D03*
D44*
X128472499Y-69517499D03*
X128472499Y-70177499D03*
X128472499Y-70842499D03*
X128472499Y-71502499D03*
D42*
X257364999Y-28659999D03*
X257364999Y-29319999D03*
X257364999Y-29979999D03*
X257364999Y-30639999D03*
D43*
X259357499Y-29649999D03*
D44*
X260349999Y-28657499D03*
X260349999Y-29317499D03*
X260349999Y-29982499D03*
X260349999Y-30642499D03*
D27*
X176534754Y-28999999D03*
X176534754Y-31539999D03*
X176534754Y-34079999D03*
X176534754Y-36619999D03*
X185484754Y-36619999D03*
X185544754Y-34079999D03*
X185544754Y-31539999D03*
X185544754Y-28999999D03*
D36*
X188289755Y-64030000D03*
X188289755Y-65580000D03*
D15*
X265750000Y-32000000D03*
X270750000Y-32000000D03*
D27*
X235244754Y-74489999D03*
X235244754Y-71949999D03*
X235244754Y-69409999D03*
X235244754Y-66869999D03*
X226294754Y-66869999D03*
X226234754Y-69409999D03*
X226234754Y-71949999D03*
X226234754Y-74489999D03*
D45*
X79199999Y-21099999D03*
X79199999Y-16699999D03*
D46*
X39162500Y-99900000D03*
X39162500Y-99400000D03*
X39162500Y-98900000D03*
X39162500Y-98400000D03*
X39162500Y-97900000D03*
X39162500Y-97400000D03*
X39162500Y-96900000D03*
X39162500Y-96400000D03*
X39162500Y-95900000D03*
X39162500Y-95400000D03*
X39162500Y-94900000D03*
X39162500Y-94400000D03*
X39162500Y-93900000D03*
X39162500Y-93400000D03*
X39162500Y-92900000D03*
X39162500Y-92400000D03*
D47*
X38500000Y-91737500D03*
X38000000Y-91737500D03*
X37500000Y-91737500D03*
X37000000Y-91737500D03*
X36500000Y-91737500D03*
X36000000Y-91737500D03*
X35500000Y-91737500D03*
X35000000Y-91737500D03*
X34500000Y-91737500D03*
X34000000Y-91737500D03*
X33500000Y-91737500D03*
X33000000Y-91737500D03*
X32500000Y-91737500D03*
X32000000Y-91737500D03*
X31500000Y-91737500D03*
X31000000Y-91737500D03*
D46*
X30337500Y-92400000D03*
X30337500Y-92900000D03*
X30337500Y-93400000D03*
X30337500Y-93900000D03*
X30337500Y-94400000D03*
X30337500Y-94900000D03*
X30337500Y-95400000D03*
X30337500Y-95900000D03*
X30337500Y-96400000D03*
X30337500Y-96900000D03*
X30337500Y-97400000D03*
X30337500Y-97900000D03*
X30337500Y-98400000D03*
X30337500Y-98900000D03*
X30337500Y-99400000D03*
X30337500Y-99900000D03*
D47*
X31000000Y-100562500D03*
X31500000Y-100562500D03*
X32000000Y-100562500D03*
X32500000Y-100562500D03*
X33000000Y-100562500D03*
X33500000Y-100562500D03*
X34000000Y-100562500D03*
X34500000Y-100562500D03*
X35000000Y-100562500D03*
X35500000Y-100562500D03*
X36000000Y-100562500D03*
X36500000Y-100562500D03*
X37000000Y-100562500D03*
X37500000Y-100562500D03*
X38000000Y-100562500D03*
X38500000Y-100562500D03*
D48*
X34749999Y-96149999D03*
D49*
X291250000Y-87650000D03*
X291250000Y-85825000D03*
D25*
X292000000Y-96175000D03*
X292000000Y-97825000D03*
D39*
X291250000Y-83950000D03*
X291250000Y-82400000D03*
D30*
X245200000Y-53400000D03*
X243550000Y-53400000D03*
D20*
X15500000Y-99230489D03*
X15500000Y-97580489D03*
D33*
X35300000Y-51200000D03*
D25*
X256800000Y-94000000D03*
X256800000Y-95650000D03*
D20*
X44300000Y-15750000D03*
X44300000Y-14100000D03*
D37*
X66049999Y-71999999D03*
D38*
X68589999Y-71999999D03*
X71129999Y-71999999D03*
X73669999Y-71999999D03*
X76209999Y-71999999D03*
X78749999Y-71999999D03*
X81289999Y-71999999D03*
X83829999Y-71999999D03*
X86369999Y-71999999D03*
X88909999Y-71999999D03*
X91449999Y-71999999D03*
X93989999Y-71999999D03*
X93989999Y-64379999D03*
X91449999Y-64379999D03*
X88909999Y-64379999D03*
X86369999Y-64379999D03*
X83829999Y-64379999D03*
X81289999Y-64379999D03*
X78749999Y-64379999D03*
X76209999Y-64379999D03*
X73669999Y-64379999D03*
X71129999Y-64379999D03*
X68589999Y-64379999D03*
X66049999Y-64379999D03*
D27*
X176534999Y-93969999D03*
X176534999Y-96509999D03*
X176534999Y-99049999D03*
X176534999Y-101589999D03*
X185484999Y-101589999D03*
X185544999Y-99049999D03*
X185544999Y-96509999D03*
X185544999Y-93969999D03*
X235244999Y-101489999D03*
X235244999Y-98949999D03*
X235244999Y-96409999D03*
X235244999Y-93869999D03*
X226294999Y-93869999D03*
X226234999Y-96409999D03*
X226234999Y-98949999D03*
X226234999Y-101489999D03*
D50*
X213809755Y-75495000D03*
X213809755Y-78445000D03*
D28*
X82749999Y-109749999D03*
D51*
X89250000Y-109750000D03*
X82750000Y-114250000D03*
X89250000Y-114250000D03*
D36*
X256750000Y-97200000D03*
X256750000Y-98750000D03*
D50*
X213809755Y-48495000D03*
X213809755Y-51445000D03*
D20*
X54800000Y-55900000D03*
X54800000Y-54250000D03*
D52*
X105000000Y-82150000D03*
X105000000Y-80250000D03*
D36*
X188240000Y-97330000D03*
X188240000Y-98880000D03*
D25*
X119780000Y-67260000D03*
X119780000Y-68910000D03*
D23*
X127525000Y-22600000D03*
X130475000Y-22600000D03*
D24*
X277324520Y-28500000D03*
X281424520Y-28500000D03*
D14*
X33800000Y-105100000D03*
X29700000Y-105100000D03*
D53*
X147879999Y-46159999D03*
X150179999Y-46159999D03*
D54*
X150179999Y-39859999D03*
D53*
X152479999Y-46159999D03*
D55*
X20400000Y-97155489D03*
D56*
X21700000Y-97155489D03*
D20*
X24800000Y-91925000D03*
X24800000Y-90275000D03*
D57*
X34649999Y-34949999D03*
X44549999Y-34949999D03*
D42*
X193997254Y-69389999D03*
X193997254Y-70049999D03*
X193997254Y-70709999D03*
X193997254Y-71369999D03*
D43*
X195989754Y-70379999D03*
D44*
X196982254Y-69387499D03*
X196982254Y-70047499D03*
X196982254Y-70712499D03*
X196982254Y-71372499D03*
D52*
X28600000Y-81950000D03*
X28600000Y-83850000D03*
D39*
X222740000Y-84080000D03*
X222740000Y-82530000D03*
D25*
X223489755Y-42305000D03*
X223489755Y-43955000D03*
D42*
X120344999Y-55919999D03*
X120344999Y-56579999D03*
X120344999Y-57239999D03*
X120344999Y-57899999D03*
D43*
X122337499Y-56909999D03*
D44*
X123329999Y-55917499D03*
X123329999Y-56577499D03*
X123329999Y-57242499D03*
X123329999Y-57902499D03*
D25*
X65775480Y-73875000D03*
X65775480Y-75525000D03*
D23*
X139225000Y-33000000D03*
X142175000Y-33000000D03*
D25*
X105250000Y-43850000D03*
X105250000Y-45500000D03*
D27*
X245044999Y-93839999D03*
X245044999Y-96379999D03*
X245044999Y-98919999D03*
X245044999Y-101459999D03*
X253994999Y-101459999D03*
X254054999Y-98919999D03*
X254054999Y-96379999D03*
X254054999Y-93839999D03*
D26*
X156300000Y-82250000D03*
X156300000Y-84150000D03*
D30*
X245250000Y-103800000D03*
X243600000Y-103800000D03*
D53*
X216389754Y-46029999D03*
X218689754Y-46029999D03*
D54*
X218689754Y-39729999D03*
D53*
X220989754Y-46029999D03*
D52*
X96100000Y-82150000D03*
X96100000Y-80250000D03*
D26*
X64700000Y-55000000D03*
X64700000Y-56900000D03*
D25*
X93775480Y-73875000D03*
X93775480Y-75525000D03*
D58*
X106670000Y-88840000D03*
X104770000Y-88840000D03*
D53*
X147879999Y-73159999D03*
X150179999Y-73159999D03*
D54*
X150179999Y-66859999D03*
D53*
X152479999Y-73159999D03*
D25*
X237800000Y-45400000D03*
X237800000Y-47050000D03*
X237800000Y-99400000D03*
X237800000Y-101050000D03*
D31*
X122729999Y-71334999D03*
X121929999Y-71334999D03*
D32*
X122329999Y-72184999D03*
D59*
X53999999Y-42999999D03*
X57999999Y-42999999D03*
X61999999Y-42999999D03*
X65999999Y-42999999D03*
X73999999Y-42999999D03*
X73999999Y-14799999D03*
X65999999Y-14799999D03*
X61999999Y-14799999D03*
X57999999Y-14799999D03*
X53999999Y-14799999D03*
D20*
X119780000Y-62460000D03*
X119780000Y-60810000D03*
D53*
X284899999Y-45899999D03*
X287199999Y-45899999D03*
D54*
X287199999Y-39599999D03*
D53*
X289499999Y-45899999D03*
D50*
X282320000Y-48365000D03*
X282320000Y-51315000D03*
D20*
X154980000Y-37235000D03*
X154980000Y-35585000D03*
X81775480Y-75525000D03*
X81775480Y-73875000D03*
X256800000Y-48225000D03*
X256800000Y-46575000D03*
D33*
X34550000Y-26700000D03*
D49*
X123280000Y-62985000D03*
X123280000Y-61160000D03*
D23*
X265150000Y-23300000D03*
X268100000Y-23300000D03*
D25*
X169400000Y-34175000D03*
X169400000Y-35825000D03*
D40*
X192800000Y-25275000D03*
X192800000Y-22325000D03*
D30*
X176800000Y-53600000D03*
X175150000Y-53600000D03*
D33*
X241600000Y-67600000D03*
X152250000Y-93750000D03*
D26*
X38800000Y-15600000D03*
X38800000Y-17500000D03*
D60*
X127475000Y-103225000D03*
X130275000Y-103225000D03*
D25*
X77775480Y-73875000D03*
X77775480Y-75525000D03*
X40800000Y-47950000D03*
X40800000Y-49600000D03*
D61*
X40095000Y-66345000D03*
D62*
X40095000Y-65045000D03*
D27*
X303754999Y-101359999D03*
X303754999Y-98819999D03*
X303754999Y-96279999D03*
X303754999Y-93739999D03*
X294804999Y-93739999D03*
X294744999Y-96279999D03*
X294744999Y-98819999D03*
X294744999Y-101359999D03*
X176534999Y-82999999D03*
X176534999Y-85539999D03*
X176534999Y-88079999D03*
X176534999Y-90619999D03*
X185484999Y-90619999D03*
X185544999Y-88079999D03*
X185544999Y-85539999D03*
X185544999Y-82999999D03*
D30*
X191539755Y-66530000D03*
X189889755Y-66530000D03*
X191539755Y-39530000D03*
X189889755Y-39530000D03*
D25*
X242300000Y-32750000D03*
X242300000Y-34400000D03*
D63*
X40675000Y-16987500D03*
X41175000Y-16987500D03*
X41675000Y-16987500D03*
X42175000Y-16987500D03*
X42675000Y-16987500D03*
X42675000Y-14062500D03*
X42175000Y-14062500D03*
X41675000Y-14062500D03*
X41175000Y-14062500D03*
X40675000Y-14062500D03*
D64*
X41674999Y-15524999D03*
D36*
X188290000Y-91030000D03*
X188290000Y-92580000D03*
D65*
X35674999Y-42494999D03*
X35674999Y-43764999D03*
X35674999Y-45034999D03*
X35674999Y-46304999D03*
X40924999Y-46304999D03*
X40924999Y-45034999D03*
X40924999Y-43764999D03*
X40924999Y-42494999D03*
D66*
X38299999Y-44399999D03*
D22*
X291900000Y-99400000D03*
X291900000Y-101225000D03*
X190040000Y-100530000D03*
X190040000Y-102355000D03*
D20*
X119780000Y-48485000D03*
X119780000Y-46835000D03*
D50*
X145300000Y-75625000D03*
X145300000Y-78575000D03*
D25*
X306400000Y-45150000D03*
X306400000Y-46800000D03*
D28*
X280984999Y-19499999D03*
D29*
X278444999Y-19499999D03*
D67*
X30762500Y-81950000D03*
X30762500Y-83850000D03*
X32637500Y-82900000D03*
D68*
X52125000Y-75100000D03*
X55075000Y-75100000D03*
D69*
X43774999Y-75499999D03*
X49624999Y-75499999D03*
D30*
X80025000Y-105300000D03*
X78375000Y-105300000D03*
D27*
X235244999Y-90489999D03*
X235244999Y-87949999D03*
X235244999Y-85409999D03*
X235244999Y-82869999D03*
X226294999Y-82869999D03*
X226234999Y-85409999D03*
X226234999Y-87949999D03*
X226234999Y-90489999D03*
D70*
X169050000Y-86700000D03*
X169050000Y-83900000D03*
D22*
X223390000Y-99530000D03*
X223390000Y-101355000D03*
D33*
X107250000Y-53000000D03*
D55*
X73100000Y-86200000D03*
D56*
X74400000Y-86200000D03*
D53*
X220289999Y-83867499D03*
X217989999Y-83867499D03*
D54*
X217989999Y-90167499D03*
D53*
X215689999Y-83867499D03*
D30*
X260050000Y-66400000D03*
X258400000Y-66400000D03*
D23*
X276245000Y-32740000D03*
X279195000Y-32740000D03*
D22*
X291900000Y-45400000D03*
X291900000Y-47225000D03*
D30*
X83125000Y-105300000D03*
X81475000Y-105300000D03*
D25*
X292000000Y-69175000D03*
X292000000Y-70825000D03*
D71*
X50599999Y-48199999D03*
X50599999Y-46099999D03*
D72*
X52624999Y-49774999D03*
X53274999Y-49774999D03*
X53924999Y-49774999D03*
X54574999Y-49774999D03*
D73*
X53599999Y-47849999D03*
D72*
X52624999Y-46374999D03*
X53274999Y-46374999D03*
X53924999Y-46374999D03*
X54574999Y-46374999D03*
D53*
X288799999Y-56737499D03*
X286499999Y-56737499D03*
D54*
X286499999Y-63037499D03*
D53*
X284199999Y-56737499D03*
D27*
X166734999Y-74619999D03*
X166734999Y-72079999D03*
X166734999Y-69539999D03*
X166734999Y-66999999D03*
X157784999Y-66999999D03*
X157724999Y-69539999D03*
X157724999Y-72079999D03*
X157724999Y-74619999D03*
D37*
X34094999Y-61354999D03*
X34094999Y-65334999D03*
D49*
X222740000Y-87780000D03*
X222740000Y-85955000D03*
X260300000Y-62725000D03*
X260300000Y-60900000D03*
X291250000Y-60650000D03*
X291250000Y-58825000D03*
D22*
X258550000Y-46400000D03*
X258550000Y-48225000D03*
D74*
X40899999Y-100649999D03*
X47199999Y-100649999D03*
X47199999Y-99749999D03*
X40899999Y-99749999D03*
D75*
X46094999Y-65344999D03*
X46094999Y-61844999D03*
D58*
X44300000Y-49200000D03*
X42400000Y-49200000D03*
D24*
X140304520Y-55760000D03*
X144404520Y-55760000D03*
D31*
X122429999Y-37359999D03*
X121629999Y-37359999D03*
D32*
X122029999Y-38209999D03*
D28*
X94749999Y-109749999D03*
D51*
X101250000Y-109750000D03*
X94750000Y-114250000D03*
X101250000Y-114250000D03*
D20*
X73750000Y-75525000D03*
X73750000Y-73875000D03*
D33*
X173200000Y-36750000D03*
D53*
X151779999Y-56997499D03*
X149479999Y-56997499D03*
D54*
X149479999Y-63297499D03*
D53*
X147179999Y-56997499D03*
D39*
X154230000Y-30210000D03*
X154230000Y-28660000D03*
D40*
X277800000Y-25275000D03*
X277800000Y-22325000D03*
D33*
X241600000Y-29200000D03*
D25*
X188290000Y-94130000D03*
X188290000Y-95780000D03*
D28*
X133289999Y-87499999D03*
D29*
X130749999Y-87499999D03*
D31*
X259449999Y-91099999D03*
X258649999Y-91099999D03*
D32*
X259049999Y-91949999D03*
D24*
X193989755Y-48630000D03*
X198089755Y-48630000D03*
D25*
X105250000Y-60000000D03*
X105250000Y-61650000D03*
D49*
X191789755Y-62855000D03*
X191789755Y-61030000D03*
D55*
X20400000Y-94500000D03*
D56*
X21700000Y-94500000D03*
D30*
X86225000Y-105300000D03*
X84575000Y-105300000D03*
D27*
X166849999Y-103689999D03*
X166849999Y-101149999D03*
X166849999Y-98609999D03*
X166849999Y-96069999D03*
X157899999Y-96069999D03*
X157839999Y-98609999D03*
X157839999Y-101149999D03*
X157839999Y-103689999D03*
D25*
X188289755Y-40130000D03*
X188289755Y-41780000D03*
X256800000Y-67000000D03*
X256800000Y-68650000D03*
D40*
X257800000Y-25275000D03*
X257800000Y-22325000D03*
D25*
X122130000Y-68435000D03*
X122130000Y-70085000D03*
D20*
X188290000Y-102355000D03*
X188290000Y-100705000D03*
D50*
X213810000Y-102495000D03*
X213810000Y-105445000D03*
D31*
X190939754Y-64229999D03*
X190139754Y-64229999D03*
D32*
X190539754Y-65079999D03*
D24*
X262500000Y-75500000D03*
X266600000Y-75500000D03*
D76*
X114900000Y-17450000D03*
X114900000Y-13350000D03*
D25*
X119780000Y-40260000D03*
X119780000Y-41910000D03*
D20*
X69775480Y-75525000D03*
X69775480Y-73875000D03*
D15*
X135000000Y-45000000D03*
X140000000Y-45000000D03*
D25*
X258350000Y-34200000D03*
X258350000Y-35850000D03*
D77*
X35400000Y-48200000D03*
X37300000Y-48200000D03*
D78*
X22999999Y-106405488D03*
D79*
X21299999Y-106405488D03*
X21299999Y-108405488D03*
X23199999Y-108405488D03*
D80*
X168600000Y-52000000D03*
X169302944Y-50302944D03*
X169302944Y-53697056D03*
X171000000Y-49600000D03*
D81*
X171000000Y-52000000D03*
D80*
X171000000Y-54400000D03*
X172697056Y-50302944D03*
X172697056Y-53697056D03*
X173400000Y-52000000D03*
D82*
X56295000Y-46340000D03*
X57945000Y-46340000D03*
D49*
X123280000Y-35985000D03*
X123280000Y-34160000D03*
D27*
X245044999Y-55869999D03*
X245044999Y-58409999D03*
X245044999Y-60949999D03*
X245044999Y-63489999D03*
X253994999Y-63489999D03*
X254054999Y-60949999D03*
X254054999Y-58409999D03*
X254054999Y-55869999D03*
D39*
X292000000Y-94575000D03*
X292000000Y-93025000D03*
D82*
X75275000Y-105300000D03*
X76925000Y-105300000D03*
D31*
X191239754Y-71204999D03*
X190439754Y-71204999D03*
D32*
X190839754Y-72054999D03*
D25*
X258350000Y-61200000D03*
X258350000Y-62850000D03*
D33*
X117480000Y-79090000D03*
X107480000Y-79090000D03*
X38300000Y-51200000D03*
D25*
X32000000Y-113000000D03*
X32000000Y-114650000D03*
D36*
X188239755Y-70330000D03*
X188239755Y-71880000D03*
D83*
X42950000Y-98400000D03*
X44500000Y-98400000D03*
D50*
X282320000Y-75365000D03*
X282320000Y-78315000D03*
D26*
X132375000Y-102275000D03*
X132375000Y-104175000D03*
D25*
X173750000Y-98000000D03*
X173750000Y-99650000D03*
D84*
X44350000Y-47450000D03*
X42800000Y-47450000D03*
D33*
X173200000Y-67800000D03*
X45500000Y-67800000D03*
D24*
X208814520Y-82630000D03*
X212914520Y-82630000D03*
D77*
X168100000Y-81800000D03*
X170000000Y-81800000D03*
D34*
X87100000Y-86200000D03*
D35*
X85800000Y-86200000D03*
D34*
X89300000Y-105800000D03*
D35*
X88000000Y-105800000D03*
D53*
X288799999Y-29737499D03*
X286499999Y-29737499D03*
D54*
X286499999Y-36037499D03*
D53*
X284199999Y-29737499D03*
D20*
X188289755Y-75355000D03*
X188289755Y-73705000D03*
D30*
X44450000Y-45950000D03*
X42800000Y-45950000D03*
D25*
X256800000Y-40000000D03*
X256800000Y-41650000D03*
D30*
X77825000Y-86700000D03*
X76175000Y-86700000D03*
D25*
X306400000Y-33975000D03*
X306400000Y-35625000D03*
D39*
X222739755Y-57080000D03*
X222739755Y-55530000D03*
D40*
X204700000Y-25275000D03*
X204700000Y-22325000D03*
D15*
X203509755Y-44870000D03*
X208509755Y-44870000D03*
D25*
X189839755Y-61330000D03*
X189839755Y-62980000D03*
D33*
X134875000Y-103225000D03*
D23*
X276245000Y-59740000D03*
X279195000Y-59740000D03*
D22*
X121530000Y-73660000D03*
X121530000Y-75485000D03*
D85*
X27799999Y-111749999D03*
D86*
X29069999Y-111749999D03*
X27799999Y-113019999D03*
X29069999Y-113019999D03*
X27799999Y-114289999D03*
X29069999Y-114289999D03*
X27799999Y-115559999D03*
X29069999Y-115559999D03*
X27799999Y-116829999D03*
X29069999Y-116829999D03*
D27*
X176534754Y-39969999D03*
X176534754Y-42509999D03*
X176534754Y-45049999D03*
X176534754Y-47589999D03*
X185484754Y-47589999D03*
X185544754Y-45049999D03*
X185544754Y-42509999D03*
X185544754Y-39969999D03*
D39*
X28850000Y-92750000D03*
X28850000Y-91200000D03*
D49*
X154230000Y-60910000D03*
X154230000Y-59085000D03*
D77*
X127400000Y-106000000D03*
X129300000Y-106000000D03*
D25*
X50400000Y-49600000D03*
X50400000Y-51250000D03*
D42*
X257364999Y-82659999D03*
X257364999Y-83319999D03*
X257364999Y-83979999D03*
X257364999Y-84639999D03*
D43*
X259357499Y-83649999D03*
D44*
X260349999Y-82657499D03*
X260349999Y-83317499D03*
X260349999Y-83982499D03*
X260349999Y-84642499D03*
D27*
X303754999Y-90359999D03*
X303754999Y-87819999D03*
X303754999Y-85279999D03*
X303754999Y-82739999D03*
X294804999Y-82739999D03*
X294744999Y-85279999D03*
X294744999Y-87819999D03*
X294744999Y-90359999D03*
D42*
X120344999Y-28919999D03*
X120344999Y-29579999D03*
X120344999Y-30239999D03*
X120344999Y-30899999D03*
D43*
X122337499Y-29909999D03*
D44*
X123329999Y-28917499D03*
X123329999Y-29577499D03*
X123329999Y-30242499D03*
X123329999Y-30902499D03*
D20*
X256800000Y-35200000D03*
X256800000Y-33550000D03*
D33*
X44700000Y-51800000D03*
D40*
X261300000Y-25275000D03*
X261300000Y-22325000D03*
D30*
X260050000Y-93400000D03*
X258400000Y-93400000D03*
D76*
X106300000Y-17450000D03*
X106300000Y-13350000D03*
D39*
X222739755Y-30080000D03*
X222739755Y-28530000D03*
D20*
X23000000Y-100905489D03*
X23000000Y-99255489D03*
D33*
X72300000Y-82400000D03*
D87*
X81899999Y-13899999D03*
X86299999Y-13899999D03*
D15*
X135000000Y-72000000D03*
X140000000Y-72000000D03*
D26*
X47550000Y-38800000D03*
X47550000Y-40700000D03*
D33*
X244400000Y-51000000D03*
D49*
X291250000Y-33650000D03*
X291250000Y-31825000D03*
D82*
X74925000Y-79350000D03*
X76575000Y-79350000D03*
D78*
X22949999Y-102905488D03*
D79*
X21249999Y-102905488D03*
X21249999Y-104905488D03*
X23149999Y-104905488D03*
D20*
X292000000Y-63975000D03*
X292000000Y-62325000D03*
D53*
X216389754Y-73029999D03*
X218689754Y-73029999D03*
D54*
X218689754Y-66729999D03*
D53*
X220989754Y-73029999D03*
D33*
X48800000Y-34700000D03*
D25*
X237800000Y-61000000D03*
X237800000Y-62650000D03*
D80*
X302600000Y-20000000D03*
X303302944Y-18302944D03*
X303302944Y-21697056D03*
X305000000Y-17600000D03*
D81*
X305000000Y-20000000D03*
D80*
X305000000Y-22400000D03*
X306697056Y-18302944D03*
X306697056Y-21697056D03*
X307400000Y-20000000D03*
D40*
X124300000Y-25250000D03*
X124300000Y-22300000D03*
D15*
X265750000Y-59000000D03*
X270750000Y-59000000D03*
D25*
X121330000Y-34460000D03*
X121330000Y-36110000D03*
X190640000Y-95305000D03*
X190640000Y-96955000D03*
D24*
X125480000Y-75760000D03*
X129580000Y-75760000D03*
D76*
X102200000Y-17450000D03*
X102200000Y-13350000D03*
D20*
X169600000Y-99200000D03*
X169600000Y-97550000D03*
D22*
X223389755Y-45530000D03*
X223389755Y-47355000D03*
D88*
X56895000Y-48000000D03*
X56895000Y-49270000D03*
X56895000Y-50540000D03*
X56895000Y-51810000D03*
X56895000Y-53080000D03*
X56895000Y-54350000D03*
X56895000Y-55620000D03*
X61845000Y-55620000D03*
X61845000Y-54350000D03*
X61845000Y-53080000D03*
X61845000Y-51810000D03*
X61845000Y-50540000D03*
X61845000Y-49270000D03*
X61845000Y-48000000D03*
D25*
X237800000Y-34000000D03*
X237800000Y-35650000D03*
D28*
X70749999Y-109749999D03*
D51*
X77250000Y-109750000D03*
X70750000Y-114250000D03*
X77250000Y-114250000D03*
D33*
X87200000Y-80300000D03*
D22*
X258550000Y-73400000D03*
X258550000Y-75225000D03*
D20*
X188289755Y-62330000D03*
X188289755Y-60680000D03*
X292000000Y-36975000D03*
X292000000Y-35325000D03*
D24*
X140304520Y-28760000D03*
X144404520Y-28760000D03*
D53*
X284899999Y-99899999D03*
X287199999Y-99899999D03*
D54*
X287199999Y-93599999D03*
D53*
X289499999Y-99899999D03*
D89*
X48800000Y-13900000D03*
X48800000Y-16850000D03*
D25*
X169400000Y-72375000D03*
X169400000Y-74025000D03*
D22*
X291900000Y-72400000D03*
X291900000Y-74225000D03*
D25*
X259150000Y-68175000D03*
X259150000Y-69825000D03*
D42*
X193997499Y-96389999D03*
X193997499Y-97049999D03*
X193997499Y-97709999D03*
X193997499Y-98369999D03*
D43*
X195989999Y-97379999D03*
D44*
X196982499Y-96387499D03*
X196982499Y-97047499D03*
X196982499Y-97712499D03*
X196982499Y-98372499D03*
D90*
X155519999Y-102089999D03*
X155519999Y-101289999D03*
D91*
X154669999Y-101689999D03*
D39*
X154980000Y-40835000D03*
X154980000Y-39285000D03*
D25*
X105250000Y-32850000D03*
X105250000Y-34500000D03*
D39*
X63300000Y-86100000D03*
X63300000Y-84550000D03*
D92*
X13899999Y-85655488D03*
D33*
X18300000Y-85655489D03*
D93*
X13799999Y-80155488D03*
X19999999Y-80155488D03*
X13799999Y-91155488D03*
X19999999Y-91155488D03*
D20*
X223489755Y-37105000D03*
X223489755Y-35455000D03*
D33*
X44900000Y-18300000D03*
D49*
X222739755Y-33780000D03*
X222739755Y-31955000D03*
X191789755Y-35855000D03*
X191789755Y-34030000D03*
D39*
X155095000Y-97965000D03*
X155095000Y-96415000D03*
D24*
X208814275Y-55630000D03*
X212914275Y-55630000D03*
D33*
X173250000Y-93500000D03*
D30*
X245200000Y-80400000D03*
X243550000Y-80400000D03*
D31*
X122729999Y-44334999D03*
X121929999Y-44334999D03*
D32*
X122329999Y-45184999D03*
D36*
X119730000Y-70460000D03*
X119730000Y-72010000D03*
D25*
X189840000Y-88330000D03*
X189840000Y-89980000D03*
D27*
X108024999Y-29129999D03*
X108024999Y-31669999D03*
X108024999Y-34209999D03*
X108024999Y-36749999D03*
X116974999Y-36749999D03*
X117034999Y-34209999D03*
X117034999Y-31669999D03*
X117034999Y-29129999D03*
D36*
X188239755Y-43330000D03*
X188239755Y-44880000D03*
D53*
X216389999Y-100029999D03*
X218689999Y-100029999D03*
D54*
X218689999Y-93729999D03*
D53*
X220989999Y-100029999D03*
D20*
X256800000Y-102225000D03*
X256800000Y-100575000D03*
D34*
X73450000Y-105800000D03*
D35*
X72150000Y-105800000D03*
D20*
X154980000Y-64235000D03*
X154980000Y-62585000D03*
D52*
X48700000Y-92700000D03*
X48700000Y-90800000D03*
D49*
X191790000Y-89855000D03*
X191790000Y-88030000D03*
D82*
X42270000Y-63345000D03*
X43920000Y-63345000D03*
D53*
X220289754Y-29867499D03*
X217989754Y-29867499D03*
D54*
X217989754Y-36167499D03*
D53*
X215689754Y-29867499D03*
D24*
X277324520Y-82500000D03*
X281424520Y-82500000D03*
D22*
X223389755Y-72530000D03*
X223389755Y-74355000D03*
D49*
X260300000Y-89725000D03*
X260300000Y-87900000D03*
D27*
X235244754Y-63489999D03*
X235244754Y-60949999D03*
X235244754Y-58409999D03*
X235244754Y-55869999D03*
X226294754Y-55869999D03*
X226234754Y-58409999D03*
X226234754Y-60949999D03*
X226234754Y-63489999D03*
D26*
X170000000Y-88500000D03*
X170000000Y-90400000D03*
D33*
X104500000Y-76750000D03*
D15*
X203510000Y-98870000D03*
X208510000Y-98870000D03*
D33*
X171250000Y-78000000D03*
D39*
X97900000Y-82200000D03*
X97900000Y-80650000D03*
D36*
X188289755Y-37030000D03*
X188289755Y-38580000D03*
D25*
X169480000Y-61200000D03*
X169480000Y-62850000D03*
D89*
X40500000Y-77875000D03*
X40500000Y-74925000D03*
D34*
X94000000Y-86200000D03*
D35*
X92700000Y-86200000D03*
D82*
X41075000Y-68200000D03*
X42725000Y-68200000D03*
D31*
X190939754Y-37229999D03*
X190139754Y-37229999D03*
D32*
X190539754Y-38079999D03*
D25*
X121330000Y-61460000D03*
X121330000Y-63110000D03*
D28*
X192154999Y-19499999D03*
D29*
X189614999Y-19499999D03*
D37*
X108669999Y-83539999D03*
D38*
X108669999Y-91159999D03*
X116289999Y-91159999D03*
X116289999Y-86079999D03*
D52*
X118470000Y-89290000D03*
X118470000Y-87390000D03*
D42*
X188854754Y-55789999D03*
X188854754Y-56449999D03*
X188854754Y-57109999D03*
X188854754Y-57769999D03*
D43*
X190847254Y-56779999D03*
D44*
X191839754Y-55787499D03*
X191839754Y-56447499D03*
X191839754Y-57112499D03*
X191839754Y-57772499D03*
D40*
X189300000Y-25275000D03*
X189300000Y-22325000D03*
D27*
X108024999Y-67099999D03*
X108024999Y-69639999D03*
X108024999Y-72179999D03*
X108024999Y-74719999D03*
X116974999Y-74719999D03*
X117034999Y-72179999D03*
X117034999Y-69639999D03*
X117034999Y-67099999D03*
D22*
X154880000Y-72660000D03*
X154880000Y-74485000D03*
D36*
X37345000Y-63070000D03*
X37345000Y-64620000D03*
D40*
X209100000Y-25275000D03*
X209100000Y-22325000D03*
D33*
X122600000Y-91465000D03*
X122600000Y-101465000D03*
D34*
X71000000Y-86200000D03*
D35*
X69700000Y-86200000D03*
D42*
X193997254Y-42389999D03*
X193997254Y-43049999D03*
X193997254Y-43709999D03*
X193997254Y-44369999D03*
D43*
X195989754Y-43379999D03*
D44*
X196982254Y-42387499D03*
X196982254Y-43047499D03*
X196982254Y-43712499D03*
X196982254Y-44372499D03*
D23*
X207734755Y-32870000D03*
X210684755Y-32870000D03*
D36*
X119780000Y-64160000D03*
X119780000Y-65710000D03*
D27*
X108024999Y-56129999D03*
X108024999Y-58669999D03*
X108024999Y-61209999D03*
X108024999Y-63749999D03*
X116974999Y-63749999D03*
X117034999Y-61209999D03*
X117034999Y-58669999D03*
X117034999Y-56129999D03*
D31*
X259749999Y-44074999D03*
X258949999Y-44074999D03*
D32*
X259349999Y-44924999D03*
D49*
X260300000Y-35725000D03*
X260300000Y-33900000D03*
D27*
X303754999Y-36359999D03*
X303754999Y-33819999D03*
X303754999Y-31279999D03*
X303754999Y-28739999D03*
X294804999Y-28739999D03*
X294744999Y-31279999D03*
X294744999Y-33819999D03*
X294744999Y-36359999D03*
D39*
X154230000Y-57210000D03*
X154230000Y-55660000D03*
D25*
X259150000Y-41175000D03*
X259150000Y-42825000D03*
D40*
X273400000Y-25275000D03*
X273400000Y-22325000D03*
D87*
X17599999Y-76499999D03*
X13199999Y-76499999D03*
D94*
X96650000Y-83562500D03*
D95*
X95715000Y-84000000D03*
X95715000Y-84500000D03*
X95715000Y-85000000D03*
D96*
X95715000Y-85500000D03*
X95715000Y-86000000D03*
X95715000Y-86500000D03*
D97*
X96899999Y-85249999D03*
D98*
X96650000Y-86937500D03*
D94*
X97150000Y-86937500D03*
D99*
X98085000Y-86500000D03*
X98085000Y-86000000D03*
X98085000Y-85500000D03*
D100*
X98085000Y-85000000D03*
X98085000Y-84500000D03*
X98085000Y-84000000D03*
D98*
X97150000Y-83562500D03*
D25*
X190639755Y-68305000D03*
X190639755Y-69955000D03*
D53*
X284899999Y-72899999D03*
X287199999Y-72899999D03*
D54*
X287199999Y-66599999D03*
D53*
X289499999Y-72899999D03*
X151779999Y-29997499D03*
X149479999Y-29997499D03*
D54*
X149479999Y-36297499D03*
D53*
X147179999Y-29997499D03*
D22*
X190039755Y-73530000D03*
X190039755Y-75355000D03*
D15*
X197239755Y-32130000D03*
X202239755Y-32130000D03*
D28*
X144999999Y-81974999D03*
D29*
X144999999Y-84514999D03*
X144999999Y-87054999D03*
D23*
X139225000Y-60000000D03*
X142175000Y-60000000D03*
D36*
X28400000Y-86925000D03*
X28400000Y-88475000D03*
D24*
X125480000Y-48760000D03*
X129580000Y-48760000D03*
D33*
X157240000Y-91550000D03*
X167240000Y-91550000D03*
D28*
X270824999Y-19499999D03*
D29*
X268284999Y-19499999D03*
D42*
X262507499Y-69259999D03*
X262507499Y-69919999D03*
X262507499Y-70579999D03*
X262507499Y-71239999D03*
D43*
X264499999Y-70249999D03*
D44*
X265492499Y-69257499D03*
X265492499Y-69917499D03*
X265492499Y-70582499D03*
X265492499Y-71242499D03*
D20*
X256800000Y-62200000D03*
X256800000Y-60550000D03*
D23*
X207735000Y-86870000D03*
X210685000Y-86870000D03*
D27*
X303754999Y-74359999D03*
X303754999Y-71819999D03*
X303754999Y-69279999D03*
X303754999Y-66739999D03*
X294804999Y-66739999D03*
X294744999Y-69279999D03*
X294744999Y-71819999D03*
X294744999Y-74359999D03*
X176534754Y-66969999D03*
X176534754Y-69509999D03*
X176534754Y-72049999D03*
X176534754Y-74589999D03*
X185484754Y-74589999D03*
X185544754Y-72049999D03*
X185544754Y-69509999D03*
X185544754Y-66969999D03*
D58*
X77700000Y-83100000D03*
X75800000Y-83100000D03*
D27*
X245044999Y-39839999D03*
X245044999Y-42379999D03*
X245044999Y-44919999D03*
X245044999Y-47459999D03*
X253994999Y-47459999D03*
X254054999Y-44919999D03*
X254054999Y-42379999D03*
X254054999Y-39839999D03*
D39*
X291250000Y-56950000D03*
X291250000Y-55400000D03*
D52*
X47550000Y-31200000D03*
X47550000Y-29300000D03*
D28*
X123644999Y-19499999D03*
D29*
X121104999Y-19499999D03*
D50*
X145300000Y-48625000D03*
X145300000Y-51575000D03*
D25*
X306400000Y-72200000D03*
X306400000Y-73850000D03*
D27*
X166734999Y-47619999D03*
X166734999Y-45079999D03*
X166734999Y-42539999D03*
X166734999Y-39999999D03*
X157784999Y-39999999D03*
X157724999Y-42539999D03*
X157724999Y-45079999D03*
X157724999Y-47619999D03*
D26*
X46100000Y-14000000D03*
X46100000Y-15900000D03*
D101*
X43000000Y-43450000D03*
X44800000Y-43450000D03*
D27*
X245044999Y-66839999D03*
X245044999Y-69379999D03*
X245044999Y-71919999D03*
X245044999Y-74459999D03*
X253994999Y-74459999D03*
X254054999Y-71919999D03*
X254054999Y-69379999D03*
X254054999Y-66839999D03*
D42*
X188854754Y-28789999D03*
X188854754Y-29449999D03*
X188854754Y-30109999D03*
X188854754Y-30769999D03*
D43*
X190847254Y-29779999D03*
D44*
X191839754Y-28787499D03*
X191839754Y-29447499D03*
X191839754Y-30112499D03*
X191839754Y-30772499D03*
D58*
X132825000Y-90475000D03*
X130925000Y-90475000D03*
D33*
X241600000Y-40800000D03*
D25*
X258350000Y-88200000D03*
X258350000Y-89850000D03*
D102*
X20910000Y-28380000D03*
X15830000Y-36000000D03*
D103*
X24720000Y-36000000D03*
X25355000Y-28380000D03*
D104*
X29170000Y-32190000D03*
X19000000Y-40440000D03*
D15*
X203509755Y-71870000D03*
X208509755Y-71870000D03*
D25*
X306400000Y-88000000D03*
X306400000Y-89650000D03*
D33*
X244400000Y-78000000D03*
D50*
X282320000Y-102365000D03*
X282320000Y-105315000D03*
D80*
X168600000Y-109000000D03*
X169302944Y-107302944D03*
X169302944Y-110697056D03*
X171000000Y-106600000D03*
D81*
X171000000Y-109000000D03*
D80*
X171000000Y-111400000D03*
X172697056Y-107302944D03*
X172697056Y-110697056D03*
X173400000Y-109000000D03*
D15*
X272020000Y-44740000D03*
X277020000Y-44740000D03*
D53*
X288799999Y-83737499D03*
X286499999Y-83737499D03*
D54*
X286499999Y-90037499D03*
D53*
X284199999Y-83737499D03*
D82*
X44520000Y-60095000D03*
X46170000Y-60095000D03*
D20*
X67775480Y-75525000D03*
X67775480Y-73875000D03*
D30*
X84025000Y-86700000D03*
X82375000Y-86700000D03*
D39*
X36500000Y-89600000D03*
X36500000Y-88050000D03*
D76*
X98100000Y-17450000D03*
X98100000Y-13350000D03*
D42*
X262507499Y-96259999D03*
X262507499Y-96919999D03*
X262507499Y-97579999D03*
X262507499Y-98239999D03*
D43*
X264499999Y-97249999D03*
D44*
X265492499Y-96257499D03*
X265492499Y-96917499D03*
X265492499Y-97582499D03*
X265492499Y-98242499D03*
D25*
X75775480Y-73875000D03*
X75775480Y-75525000D03*
D20*
X292000000Y-90975000D03*
X292000000Y-89325000D03*
D37*
X41094999Y-54844999D03*
X37114999Y-54844999D03*
D36*
X256800000Y-36900000D03*
X256800000Y-38450000D03*
D39*
X291250000Y-29950000D03*
X291250000Y-28400000D03*
D28*
X47349999Y-24999999D03*
D29*
X44809999Y-24999999D03*
X42269999Y-24999999D03*
D31*
X259449999Y-37099999D03*
X258649999Y-37099999D03*
D32*
X259049999Y-37949999D03*
D25*
X154980000Y-42435000D03*
X154980000Y-44085000D03*
X79775480Y-73875000D03*
X79775480Y-75525000D03*
D22*
X121530000Y-46660000D03*
X121530000Y-48485000D03*
D36*
X119780000Y-37160000D03*
X119780000Y-38710000D03*
D27*
X166734999Y-63619999D03*
X166734999Y-61079999D03*
X166734999Y-58539999D03*
X166734999Y-55999999D03*
X157784999Y-55999999D03*
X157724999Y-58539999D03*
X157724999Y-61079999D03*
X157724999Y-63619999D03*
D25*
X306400000Y-99200000D03*
X306400000Y-100850000D03*
D28*
X260664999Y-19499999D03*
D29*
X258124999Y-19499999D03*
D25*
X87775480Y-73875000D03*
X87775480Y-75525000D03*
X173750000Y-39000000D03*
X173750000Y-40650000D03*
D105*
X71109999Y-102074999D03*
D106*
X73650000Y-102075000D03*
X76190000Y-102075000D03*
X78730000Y-102075000D03*
X81270000Y-102075000D03*
X83810000Y-102075000D03*
X86350000Y-102075000D03*
X88890000Y-102075000D03*
X88890000Y-89925000D03*
X86350000Y-89925000D03*
X83810000Y-89925000D03*
X81270000Y-89925000D03*
X78730000Y-89925000D03*
X76190000Y-89925000D03*
X73650000Y-89925000D03*
X71110000Y-89925000D03*
D31*
X190939999Y-91229999D03*
X190139999Y-91229999D03*
D32*
X190539999Y-92079999D03*
D20*
X223490000Y-91105000D03*
X223490000Y-89455000D03*
D33*
X79100000Y-13900000D03*
D80*
X302600000Y-114000000D03*
X303302944Y-112302944D03*
X303302944Y-115697056D03*
X305000000Y-111600000D03*
D81*
X305000000Y-114000000D03*
D80*
X305000000Y-116400000D03*
X306697056Y-112302944D03*
X306697056Y-115697056D03*
X307400000Y-114000000D03*
D42*
X188854999Y-82789999D03*
X188854999Y-83449999D03*
X188854999Y-84109999D03*
X188854999Y-84769999D03*
D43*
X190847499Y-83779999D03*
D44*
X191839999Y-82787499D03*
X191839999Y-83447499D03*
X191839999Y-84112499D03*
X191839999Y-84772499D03*
D28*
X133804999Y-19499999D03*
D29*
X131264999Y-19499999D03*
D36*
X256750000Y-43200000D03*
X256750000Y-44750000D03*
D27*
X235244754Y-36489999D03*
X235244754Y-33949999D03*
X235244754Y-31409999D03*
X235244754Y-28869999D03*
X226294754Y-28869999D03*
X226234754Y-31409999D03*
X226234754Y-33949999D03*
X226234754Y-36489999D03*
D39*
X223489755Y-40705000D03*
X223489755Y-39155000D03*
D25*
X190639755Y-41305000D03*
X190639755Y-42955000D03*
D107*
X46900000Y-55400000D03*
X48800000Y-55400000D03*
X47850000Y-53525000D03*
D39*
X223489755Y-67705000D03*
X223489755Y-66155000D03*
D25*
X89775480Y-73875000D03*
X89775480Y-75525000D03*
D49*
X222739755Y-60780000D03*
X222739755Y-58955000D03*
D33*
X152345000Y-98690000D03*
X244400000Y-106200000D03*
D80*
X34600000Y-112000000D03*
X35302944Y-110302944D03*
X35302944Y-113697056D03*
X37000000Y-109600000D03*
D81*
X37000000Y-112000000D03*
D80*
X37000000Y-114400000D03*
X38697056Y-110302944D03*
X38697056Y-113697056D03*
X39400000Y-112000000D03*
D25*
X169600000Y-102375000D03*
X169600000Y-104025000D03*
X169400000Y-45400000D03*
X169400000Y-47050000D03*
D36*
X33550000Y-42425000D03*
X33550000Y-43975000D03*
D25*
X242400000Y-43600000D03*
X242400000Y-45250000D03*
D82*
X28675000Y-85400000D03*
X30325000Y-85400000D03*
D30*
X176600000Y-80400000D03*
X174950000Y-80400000D03*
D108*
X94800000Y-21062500D03*
X94800000Y-18137500D03*
D25*
X188289755Y-67130000D03*
X188289755Y-68780000D03*
D37*
X166049999Y-87049999D03*
D38*
X166049999Y-79429999D03*
X158429999Y-79429999D03*
X158429999Y-84509999D03*
D33*
X173250000Y-45000000D03*
D28*
X202114999Y-19499999D03*
D29*
X199574999Y-19499999D03*
D53*
X220289754Y-56867499D03*
X217989754Y-56867499D03*
D54*
X217989754Y-63167499D03*
D53*
X215689754Y-56867499D03*
D25*
X154980000Y-69435000D03*
X154980000Y-71085000D03*
D40*
X281600000Y-25275000D03*
X281600000Y-22325000D03*
D25*
X189839755Y-34330000D03*
X189839755Y-35980000D03*
D95*
X80812500Y-84050000D03*
D109*
X81250000Y-84985000D03*
X81750000Y-84985000D03*
X82250000Y-84985000D03*
D98*
X82750000Y-84985000D03*
X83250000Y-84985000D03*
X83750000Y-84985000D03*
D110*
X82499999Y-83799999D03*
D100*
X84187500Y-84050000D03*
D95*
X84187500Y-83550000D03*
D94*
X83750000Y-82615000D03*
X83250000Y-82615000D03*
X82750000Y-82615000D03*
D111*
X82250000Y-82615000D03*
X81750000Y-82615000D03*
X81250000Y-82615000D03*
D100*
X80812500Y-83550000D03*
D25*
X122130000Y-41435000D03*
X122130000Y-43085000D03*
D112*
X42310000Y-61500000D03*
X42310000Y-60230000D03*
X42310000Y-58960000D03*
X42310000Y-57690000D03*
X37380000Y-57690000D03*
X37380000Y-58960000D03*
X37380000Y-60230000D03*
X37380000Y-61500000D03*
D20*
X91775480Y-75525000D03*
X91775480Y-73875000D03*
D15*
X197239755Y-59130000D03*
X202239755Y-59130000D03*
D90*
X155519999Y-100089999D03*
X155519999Y-99289999D03*
D91*
X154669999Y-99689999D03*
D28*
X45199999Y-119274999D03*
D29*
X45199999Y-116734999D03*
X45199999Y-114194999D03*
X45199999Y-111654999D03*
X45199999Y-109114999D03*
D20*
X188289755Y-35330000D03*
X188289755Y-33680000D03*
X188290000Y-89330000D03*
X188290000Y-87680000D03*
X119780000Y-75485000D03*
X119780000Y-73835000D03*
X119780000Y-35460000D03*
X119780000Y-33810000D03*
D27*
X166734999Y-36619999D03*
X166734999Y-34079999D03*
X166734999Y-31539999D03*
X166734999Y-28999999D03*
X157784999Y-28999999D03*
X157724999Y-31539999D03*
X157724999Y-34079999D03*
X157724999Y-36619999D03*
D42*
X257364999Y-55659999D03*
X257364999Y-56319999D03*
X257364999Y-56979999D03*
X257364999Y-57639999D03*
D43*
X259357499Y-56649999D03*
D44*
X260349999Y-55657499D03*
X260349999Y-56317499D03*
X260349999Y-56982499D03*
X260349999Y-57642499D03*
D23*
X276245000Y-86740000D03*
X279195000Y-86740000D03*
D36*
X256800000Y-63900000D03*
X256800000Y-65450000D03*
D33*
X62100000Y-58000000D03*
D36*
X256750000Y-70200000D03*
X256750000Y-71750000D03*
D52*
X61500000Y-85800000D03*
X61500000Y-83900000D03*
D33*
X17000000Y-94905489D03*
D113*
X21087500Y-74800000D03*
X19512500Y-74800000D03*
D40*
X120400000Y-25275000D03*
X120400000Y-22325000D03*
D15*
X128730000Y-32260000D03*
X133730000Y-32260000D03*
D84*
X60995000Y-46340000D03*
X59445000Y-46340000D03*
D31*
X259749999Y-71074999D03*
X258949999Y-71074999D03*
D32*
X259349999Y-71924999D03*
D28*
X58749999Y-109749999D03*
D51*
X65250000Y-109750000D03*
X58750000Y-114250000D03*
X65250000Y-114250000D03*
D30*
X260050000Y-39400000D03*
X258400000Y-39400000D03*
D25*
X306400000Y-61000000D03*
X306400000Y-62650000D03*
D30*
X123030000Y-66660000D03*
X121380000Y-66660000D03*
D114*
X37737500Y-69350000D03*
X37737500Y-67450000D03*
X35862500Y-68400000D03*
D25*
X237800000Y-72350000D03*
X237800000Y-74000000D03*
D109*
X67050000Y-86887500D03*
D99*
X67985000Y-86450000D03*
X67985000Y-85950000D03*
X67985000Y-85450000D03*
D100*
X67985000Y-84950000D03*
X67985000Y-84450000D03*
X67985000Y-83950000D03*
D97*
X66799999Y-85199999D03*
D111*
X67050000Y-83512500D03*
D109*
X66550000Y-83512500D03*
D95*
X65615000Y-83950000D03*
X65615000Y-84450000D03*
X65615000Y-84950000D03*
D96*
X65615000Y-85450000D03*
X65615000Y-85950000D03*
X65615000Y-86450000D03*
D111*
X66550000Y-86887500D03*
D84*
X34850000Y-102200000D03*
X33300000Y-102200000D03*
D115*
X17700000Y-104265489D03*
X17700000Y-110045489D03*
D116*
X18749999Y-103955488D03*
X18749999Y-104755488D03*
D117*
X18749999Y-105905488D03*
X18749999Y-106905488D03*
X18749999Y-107405488D03*
X18749999Y-108405488D03*
D116*
X18749999Y-109555488D03*
X18749999Y-110355488D03*
X18749999Y-110355488D03*
X18749999Y-109555488D03*
D117*
X18749999Y-108905488D03*
X18749999Y-107905488D03*
X18749999Y-106405488D03*
X18749999Y-105405488D03*
D116*
X18749999Y-104755488D03*
X18749999Y-103955488D03*
D118*
X18199999Y-102835488D03*
D119*
X14019999Y-102835488D03*
D118*
X18199999Y-111475488D03*
D119*
X14019999Y-111475488D03*
D33*
X48100000Y-50900000D03*
D22*
X190039755Y-46530000D03*
X190039755Y-48355000D03*
D39*
X28850000Y-101350000D03*
X28850000Y-99800000D03*
D20*
X256800000Y-75225000D03*
X256800000Y-73575000D03*
D120*
X81549999Y-79649999D03*
X81549999Y-81049999D03*
X78449999Y-79649999D03*
X78449999Y-81049999D03*
D15*
X128730000Y-59260000D03*
X133730000Y-59260000D03*
D25*
X242400000Y-70600000D03*
X242400000Y-72250000D03*
D31*
X122429999Y-64359999D03*
X121629999Y-64359999D03*
D32*
X122029999Y-65209999D03*
D20*
X32900000Y-68925000D03*
X32900000Y-67275000D03*
X188289755Y-48355000D03*
X188289755Y-46705000D03*
D31*
X259749999Y-98074999D03*
X258949999Y-98074999D03*
D32*
X259349999Y-98924999D03*
D27*
X303754999Y-63359999D03*
X303754999Y-60819999D03*
X303754999Y-58279999D03*
X303754999Y-55739999D03*
X294804999Y-55739999D03*
X294744999Y-58279999D03*
X294744999Y-60819999D03*
X294744999Y-63359999D03*
X245044999Y-28869999D03*
X245044999Y-31409999D03*
X245044999Y-33949999D03*
X245044999Y-36489999D03*
X253994999Y-36489999D03*
X254054999Y-33949999D03*
X254054999Y-31409999D03*
X254054999Y-28869999D03*
D39*
X154980000Y-67835000D03*
X154980000Y-66285000D03*
D25*
X173800000Y-70725000D03*
X173800000Y-72375000D03*
D33*
X22000000Y-115100000D03*
D27*
X108024999Y-40099999D03*
X108024999Y-42639999D03*
X108024999Y-45179999D03*
X108024999Y-47719999D03*
X116974999Y-47719999D03*
X117034999Y-45179999D03*
X117034999Y-42639999D03*
X117034999Y-40099999D03*
D25*
X50400000Y-52700000D03*
X50400000Y-54350000D03*
D121*
X26750000Y-82162500D03*
X24850000Y-82162500D03*
X25800000Y-84037500D03*
D49*
X154230000Y-33910000D03*
X154230000Y-32085000D03*
D36*
X119730000Y-43460000D03*
X119730000Y-45010000D03*
D82*
X151850000Y-96350000D03*
X153500000Y-96350000D03*
D34*
X46145000Y-57845000D03*
D35*
X44845000Y-57845000D03*
D33*
X56000000Y-58100000D03*
D24*
X193989755Y-75630000D03*
X198089755Y-75630000D03*
X262500000Y-48500000D03*
X266600000Y-48500000D03*
D42*
X262507499Y-42259999D03*
X262507499Y-42919999D03*
X262507499Y-43579999D03*
X262507499Y-44239999D03*
D43*
X264499999Y-43249999D03*
D44*
X265492499Y-42257499D03*
X265492499Y-42917499D03*
X265492499Y-43582499D03*
X265492499Y-44242499D03*
D15*
X197240000Y-86130000D03*
X202240000Y-86130000D03*
D25*
X259150000Y-95175000D03*
X259150000Y-96825000D03*
D23*
X207734755Y-59870000D03*
X210684755Y-59870000D03*
D30*
X191540000Y-93530000D03*
X189890000Y-93530000D03*
D22*
X258550000Y-100400000D03*
X258550000Y-102225000D03*
D83*
X42950000Y-102000000D03*
X44500000Y-102000000D03*
D33*
X86300000Y-83300000D03*
D34*
X33650000Y-116750000D03*
D35*
X32350000Y-116750000D03*
D30*
X80925000Y-86700000D03*
X79275000Y-86700000D03*
D122*
X32100000Y-13650000D03*
X32100000Y-17750000D03*
D102*
X20910000Y-57155489D03*
X15830000Y-64775489D03*
D103*
X29800000Y-57155489D03*
X29800000Y-64775489D03*
D104*
X29800000Y-60965489D03*
X24720000Y-60965489D03*
D39*
X13750000Y-99180489D03*
X13750000Y-97630489D03*
D33*
X169500000Y-114000000D03*
D25*
X223489755Y-69305000D03*
X223489755Y-70955000D03*
D33*
X104750000Y-29750000D03*
X84150000Y-80300000D03*
X13750000Y-94905489D03*
X59000000Y-57990000D03*
D42*
X125487499Y-42519999D03*
X125487499Y-43179999D03*
X125487499Y-43839999D03*
X125487499Y-44499999D03*
D43*
X127479999Y-43509999D03*
D44*
X128472499Y-42517499D03*
X128472499Y-43177499D03*
X128472499Y-43842499D03*
X128472499Y-44502499D03*
D20*
X256800000Y-89200000D03*
X256800000Y-87550000D03*
D25*
X223490000Y-96305000D03*
X223490000Y-97955000D03*
D31*
X191239754Y-44204999D03*
X190439754Y-44204999D03*
D32*
X190839754Y-45054999D03*
D80*
X34600000Y-22000000D03*
X35302944Y-20302944D03*
X35302944Y-23697056D03*
X37000000Y-19600000D03*
D81*
X37000000Y-22000000D03*
D80*
X37000000Y-24400000D03*
X38697056Y-20302944D03*
X38697056Y-23697056D03*
X39400000Y-22000000D03*
D123*
X105720000Y-83940000D03*
X105720000Y-86740000D03*
D39*
X292000000Y-67575000D03*
X292000000Y-66025000D03*
D27*
X176534754Y-55999999D03*
X176534754Y-58539999D03*
X176534754Y-61079999D03*
X176534754Y-63619999D03*
X185484754Y-63619999D03*
X185544754Y-61079999D03*
X185544754Y-58539999D03*
X185544754Y-55999999D03*
D24*
X193990000Y-102630000D03*
X198090000Y-102630000D03*
D83*
X40800000Y-96400000D03*
X42350000Y-96400000D03*
D25*
X32000000Y-109750000D03*
X32000000Y-111400000D03*
D34*
X70000000Y-105800000D03*
D35*
X68700000Y-105800000D03*
D33*
X58000000Y-96300000D03*
M02*
