%TF.GenerationSoftware,KiCad,Pcbnew,7.0.0*%
%TF.CreationDate,2023-02-17T23:54:50+01:00*%
%TF.ProjectId,ELController,454c436f-6e74-4726-9f6c-6c65722e6b69,rev?*%
%TF.SameCoordinates,Original*%
%TF.FileFunction,Drillmap*%
%TF.FilePolarity,Positive*%
%FSLAX45Y45*%
G04 Gerber Fmt 4.5, Leading zero omitted, Abs format (unit mm)*
G04 Created by KiCad (PCBNEW 7.0.0) date 2023-02-17 23:54:50*
%MOMM*%
%LPD*%
G01*
G04 APERTURE LIST*
%ADD10C,0.100000*%
%ADD11C,0.200000*%
%ADD12C,0.065000*%
%ADD13C,0.150000*%
%ADD14C,0.160000*%
G04 APERTURE END LIST*
D10*
X31200000Y-11900000D02*
X31200000Y-1500000D01*
X31200000Y-1500000D02*
G75*
G03*
X30900000Y-1200000I-300000J0D01*
G01*
X30900000Y-12200000D02*
G75*
G03*
X31200000Y-11900000I0J300000D01*
G01*
X1200000Y-11900000D02*
G75*
G03*
X1500000Y-12200000I300000J0D01*
G01*
X1200000Y-1500000D02*
X1200000Y-11900000D01*
X1500000Y-1200000D02*
G75*
G03*
X1200000Y-1500000I0J-300000D01*
G01*
X30900000Y-1200000D02*
X1500000Y-1200000D01*
X1500000Y-12200000D02*
X30900000Y-12200000D01*
D11*
D12*
X1737500Y-10394049D02*
X1802500Y-10459049D01*
X1802500Y-10394049D02*
X1737500Y-10459049D01*
D11*
X1737500Y-10426549D02*
X1737500Y-10426549D01*
X1737500Y-10426549D02*
G75*
G03*
X1802500Y-10426549I32500J0D01*
G01*
X1802500Y-10426549D02*
X1802500Y-10426549D01*
X1802500Y-10426549D02*
G75*
G03*
X1737500Y-10426549I-32500J0D01*
G01*
D12*
X1737500Y-10972049D02*
X1802500Y-11037049D01*
X1802500Y-10972049D02*
X1737500Y-11037049D01*
D11*
X1737500Y-11004549D02*
X1737500Y-11004549D01*
X1737500Y-11004549D02*
G75*
G03*
X1802500Y-11004549I32500J0D01*
G01*
X1802500Y-11004549D02*
X1802500Y-11004549D01*
X1802500Y-11004549D02*
G75*
G03*
X1737500Y-11004549I-32500J0D01*
G01*
D13*
X1465000Y-8565549D02*
G75*
G03*
X1465000Y-8565549I-75000J0D01*
G01*
D11*
X1465000Y-8590549D02*
X1465000Y-8540549D01*
X1465000Y-8540549D02*
G75*
G03*
X1315000Y-8540549I-75000J0D01*
G01*
X1315000Y-8540549D02*
X1315000Y-8590549D01*
X1315000Y-8590549D02*
G75*
G03*
X1465000Y-8590549I75000J0D01*
G01*
D14*
X1583000Y-3520000D02*
X1583000Y-3680000D01*
X1503000Y-3600000D02*
X1663000Y-3600000D01*
X1583000Y-6397549D02*
X1583000Y-6557549D01*
X1503000Y-6477549D02*
X1663000Y-6477549D01*
X2091000Y-2758000D02*
X2091000Y-2918000D01*
X2011000Y-2838000D02*
X2171000Y-2838000D01*
X2091000Y-5635549D02*
X2091000Y-5795549D01*
X2011000Y-5715549D02*
X2171000Y-5715549D01*
D11*
X1900711Y-8636260D02*
X1900711Y-8494838D01*
X1759289Y-8494838D01*
X1759289Y-8636260D01*
X1900711Y-8636260D01*
X1442619Y-12498476D02*
X1442619Y-12298476D01*
X1442619Y-12298476D02*
X1490238Y-12298476D01*
X1490238Y-12298476D02*
X1518809Y-12308000D01*
X1518809Y-12308000D02*
X1537857Y-12327048D01*
X1537857Y-12327048D02*
X1547381Y-12346095D01*
X1547381Y-12346095D02*
X1556905Y-12384190D01*
X1556905Y-12384190D02*
X1556905Y-12412762D01*
X1556905Y-12412762D02*
X1547381Y-12450857D01*
X1547381Y-12450857D02*
X1537857Y-12469905D01*
X1537857Y-12469905D02*
X1518809Y-12488952D01*
X1518809Y-12488952D02*
X1490238Y-12498476D01*
X1490238Y-12498476D02*
X1442619Y-12498476D01*
X1642619Y-12498476D02*
X1642619Y-12365143D01*
X1642619Y-12403238D02*
X1652143Y-12384190D01*
X1652143Y-12384190D02*
X1661667Y-12374667D01*
X1661667Y-12374667D02*
X1680714Y-12365143D01*
X1680714Y-12365143D02*
X1699762Y-12365143D01*
X1766428Y-12498476D02*
X1766428Y-12365143D01*
X1766428Y-12298476D02*
X1756905Y-12308000D01*
X1756905Y-12308000D02*
X1766428Y-12317524D01*
X1766428Y-12317524D02*
X1775952Y-12308000D01*
X1775952Y-12308000D02*
X1766428Y-12298476D01*
X1766428Y-12298476D02*
X1766428Y-12317524D01*
X1890238Y-12498476D02*
X1871190Y-12488952D01*
X1871190Y-12488952D02*
X1861667Y-12469905D01*
X1861667Y-12469905D02*
X1861667Y-12298476D01*
X1995000Y-12498476D02*
X1975952Y-12488952D01*
X1975952Y-12488952D02*
X1966428Y-12469905D01*
X1966428Y-12469905D02*
X1966428Y-12298476D01*
X2191190Y-12498476D02*
X2191190Y-12298476D01*
X2191190Y-12298476D02*
X2257857Y-12441333D01*
X2257857Y-12441333D02*
X2324524Y-12298476D01*
X2324524Y-12298476D02*
X2324524Y-12498476D01*
X2505476Y-12498476D02*
X2505476Y-12393714D01*
X2505476Y-12393714D02*
X2495952Y-12374667D01*
X2495952Y-12374667D02*
X2476905Y-12365143D01*
X2476905Y-12365143D02*
X2438809Y-12365143D01*
X2438809Y-12365143D02*
X2419762Y-12374667D01*
X2505476Y-12488952D02*
X2486429Y-12498476D01*
X2486429Y-12498476D02*
X2438809Y-12498476D01*
X2438809Y-12498476D02*
X2419762Y-12488952D01*
X2419762Y-12488952D02*
X2410238Y-12469905D01*
X2410238Y-12469905D02*
X2410238Y-12450857D01*
X2410238Y-12450857D02*
X2419762Y-12431809D01*
X2419762Y-12431809D02*
X2438809Y-12422286D01*
X2438809Y-12422286D02*
X2486429Y-12422286D01*
X2486429Y-12422286D02*
X2505476Y-12412762D01*
X2600714Y-12365143D02*
X2600714Y-12565143D01*
X2600714Y-12374667D02*
X2619762Y-12365143D01*
X2619762Y-12365143D02*
X2657857Y-12365143D01*
X2657857Y-12365143D02*
X2676905Y-12374667D01*
X2676905Y-12374667D02*
X2686429Y-12384190D01*
X2686429Y-12384190D02*
X2695952Y-12403238D01*
X2695952Y-12403238D02*
X2695952Y-12460381D01*
X2695952Y-12460381D02*
X2686429Y-12479428D01*
X2686429Y-12479428D02*
X2676905Y-12488952D01*
X2676905Y-12488952D02*
X2657857Y-12498476D01*
X2657857Y-12498476D02*
X2619762Y-12498476D01*
X2619762Y-12498476D02*
X2600714Y-12488952D01*
X2781667Y-12479428D02*
X2791190Y-12488952D01*
X2791190Y-12488952D02*
X2781667Y-12498476D01*
X2781667Y-12498476D02*
X2772143Y-12488952D01*
X2772143Y-12488952D02*
X2781667Y-12479428D01*
X2781667Y-12479428D02*
X2781667Y-12498476D01*
X2781667Y-12374667D02*
X2791190Y-12384190D01*
X2791190Y-12384190D02*
X2781667Y-12393714D01*
X2781667Y-12393714D02*
X2772143Y-12384190D01*
X2772143Y-12384190D02*
X2781667Y-12374667D01*
X2781667Y-12374667D02*
X2781667Y-12393714D01*
D12*
X1130000Y-12812500D02*
X1195000Y-12877500D01*
X1195000Y-12812500D02*
X1130000Y-12877500D01*
D11*
X1480714Y-12718476D02*
X1499762Y-12718476D01*
X1499762Y-12718476D02*
X1518809Y-12728000D01*
X1518809Y-12728000D02*
X1528333Y-12737524D01*
X1528333Y-12737524D02*
X1537857Y-12756571D01*
X1537857Y-12756571D02*
X1547381Y-12794667D01*
X1547381Y-12794667D02*
X1547381Y-12842286D01*
X1547381Y-12842286D02*
X1537857Y-12880381D01*
X1537857Y-12880381D02*
X1528333Y-12899428D01*
X1528333Y-12899428D02*
X1518809Y-12908952D01*
X1518809Y-12908952D02*
X1499762Y-12918476D01*
X1499762Y-12918476D02*
X1480714Y-12918476D01*
X1480714Y-12918476D02*
X1461667Y-12908952D01*
X1461667Y-12908952D02*
X1452143Y-12899428D01*
X1452143Y-12899428D02*
X1442619Y-12880381D01*
X1442619Y-12880381D02*
X1433095Y-12842286D01*
X1433095Y-12842286D02*
X1433095Y-12794667D01*
X1433095Y-12794667D02*
X1442619Y-12756571D01*
X1442619Y-12756571D02*
X1452143Y-12737524D01*
X1452143Y-12737524D02*
X1461667Y-12728000D01*
X1461667Y-12728000D02*
X1480714Y-12718476D01*
X1633095Y-12899428D02*
X1642619Y-12908952D01*
X1642619Y-12908952D02*
X1633095Y-12918476D01*
X1633095Y-12918476D02*
X1623571Y-12908952D01*
X1623571Y-12908952D02*
X1633095Y-12899428D01*
X1633095Y-12899428D02*
X1633095Y-12918476D01*
X1814048Y-12718476D02*
X1775952Y-12718476D01*
X1775952Y-12718476D02*
X1756905Y-12728000D01*
X1756905Y-12728000D02*
X1747381Y-12737524D01*
X1747381Y-12737524D02*
X1728333Y-12766095D01*
X1728333Y-12766095D02*
X1718809Y-12804190D01*
X1718809Y-12804190D02*
X1718809Y-12880381D01*
X1718809Y-12880381D02*
X1728333Y-12899428D01*
X1728333Y-12899428D02*
X1737857Y-12908952D01*
X1737857Y-12908952D02*
X1756905Y-12918476D01*
X1756905Y-12918476D02*
X1795000Y-12918476D01*
X1795000Y-12918476D02*
X1814048Y-12908952D01*
X1814048Y-12908952D02*
X1823571Y-12899428D01*
X1823571Y-12899428D02*
X1833095Y-12880381D01*
X1833095Y-12880381D02*
X1833095Y-12832762D01*
X1833095Y-12832762D02*
X1823571Y-12813714D01*
X1823571Y-12813714D02*
X1814048Y-12804190D01*
X1814048Y-12804190D02*
X1795000Y-12794667D01*
X1795000Y-12794667D02*
X1756905Y-12794667D01*
X1756905Y-12794667D02*
X1737857Y-12804190D01*
X1737857Y-12804190D02*
X1728333Y-12813714D01*
X1728333Y-12813714D02*
X1718809Y-12832762D01*
X2014048Y-12718476D02*
X1918809Y-12718476D01*
X1918809Y-12718476D02*
X1909286Y-12813714D01*
X1909286Y-12813714D02*
X1918809Y-12804190D01*
X1918809Y-12804190D02*
X1937857Y-12794667D01*
X1937857Y-12794667D02*
X1985476Y-12794667D01*
X1985476Y-12794667D02*
X2004524Y-12804190D01*
X2004524Y-12804190D02*
X2014048Y-12813714D01*
X2014048Y-12813714D02*
X2023571Y-12832762D01*
X2023571Y-12832762D02*
X2023571Y-12880381D01*
X2023571Y-12880381D02*
X2014048Y-12899428D01*
X2014048Y-12899428D02*
X2004524Y-12908952D01*
X2004524Y-12908952D02*
X1985476Y-12918476D01*
X1985476Y-12918476D02*
X1937857Y-12918476D01*
X1937857Y-12918476D02*
X1918809Y-12908952D01*
X1918809Y-12908952D02*
X1909286Y-12899428D01*
X2147381Y-12718476D02*
X2166429Y-12718476D01*
X2166429Y-12718476D02*
X2185476Y-12728000D01*
X2185476Y-12728000D02*
X2195000Y-12737524D01*
X2195000Y-12737524D02*
X2204524Y-12756571D01*
X2204524Y-12756571D02*
X2214048Y-12794667D01*
X2214048Y-12794667D02*
X2214048Y-12842286D01*
X2214048Y-12842286D02*
X2204524Y-12880381D01*
X2204524Y-12880381D02*
X2195000Y-12899428D01*
X2195000Y-12899428D02*
X2185476Y-12908952D01*
X2185476Y-12908952D02*
X2166429Y-12918476D01*
X2166429Y-12918476D02*
X2147381Y-12918476D01*
X2147381Y-12918476D02*
X2128333Y-12908952D01*
X2128333Y-12908952D02*
X2118810Y-12899428D01*
X2118810Y-12899428D02*
X2109286Y-12880381D01*
X2109286Y-12880381D02*
X2099762Y-12842286D01*
X2099762Y-12842286D02*
X2099762Y-12794667D01*
X2099762Y-12794667D02*
X2109286Y-12756571D01*
X2109286Y-12756571D02*
X2118810Y-12737524D01*
X2118810Y-12737524D02*
X2128333Y-12728000D01*
X2128333Y-12728000D02*
X2147381Y-12718476D01*
X2299762Y-12918476D02*
X2299762Y-12785143D01*
X2299762Y-12804190D02*
X2309286Y-12794667D01*
X2309286Y-12794667D02*
X2328333Y-12785143D01*
X2328333Y-12785143D02*
X2356905Y-12785143D01*
X2356905Y-12785143D02*
X2375952Y-12794667D01*
X2375952Y-12794667D02*
X2385476Y-12813714D01*
X2385476Y-12813714D02*
X2385476Y-12918476D01*
X2385476Y-12813714D02*
X2395000Y-12794667D01*
X2395000Y-12794667D02*
X2414048Y-12785143D01*
X2414048Y-12785143D02*
X2442619Y-12785143D01*
X2442619Y-12785143D02*
X2461667Y-12794667D01*
X2461667Y-12794667D02*
X2471191Y-12813714D01*
X2471191Y-12813714D02*
X2471191Y-12918476D01*
X2566429Y-12918476D02*
X2566429Y-12785143D01*
X2566429Y-12804190D02*
X2575952Y-12794667D01*
X2575952Y-12794667D02*
X2595000Y-12785143D01*
X2595000Y-12785143D02*
X2623572Y-12785143D01*
X2623572Y-12785143D02*
X2642619Y-12794667D01*
X2642619Y-12794667D02*
X2652143Y-12813714D01*
X2652143Y-12813714D02*
X2652143Y-12918476D01*
X2652143Y-12813714D02*
X2661667Y-12794667D01*
X2661667Y-12794667D02*
X2680714Y-12785143D01*
X2680714Y-12785143D02*
X2709286Y-12785143D01*
X2709286Y-12785143D02*
X2728333Y-12794667D01*
X2728333Y-12794667D02*
X2737857Y-12813714D01*
X2737857Y-12813714D02*
X2737857Y-12918476D01*
X3095952Y-12708952D02*
X2924524Y-12966095D01*
X3320714Y-12718476D02*
X3339762Y-12718476D01*
X3339762Y-12718476D02*
X3358810Y-12728000D01*
X3358810Y-12728000D02*
X3368333Y-12737524D01*
X3368333Y-12737524D02*
X3377857Y-12756571D01*
X3377857Y-12756571D02*
X3387381Y-12794667D01*
X3387381Y-12794667D02*
X3387381Y-12842286D01*
X3387381Y-12842286D02*
X3377857Y-12880381D01*
X3377857Y-12880381D02*
X3368333Y-12899428D01*
X3368333Y-12899428D02*
X3358810Y-12908952D01*
X3358810Y-12908952D02*
X3339762Y-12918476D01*
X3339762Y-12918476D02*
X3320714Y-12918476D01*
X3320714Y-12918476D02*
X3301667Y-12908952D01*
X3301667Y-12908952D02*
X3292143Y-12899428D01*
X3292143Y-12899428D02*
X3282619Y-12880381D01*
X3282619Y-12880381D02*
X3273095Y-12842286D01*
X3273095Y-12842286D02*
X3273095Y-12794667D01*
X3273095Y-12794667D02*
X3282619Y-12756571D01*
X3282619Y-12756571D02*
X3292143Y-12737524D01*
X3292143Y-12737524D02*
X3301667Y-12728000D01*
X3301667Y-12728000D02*
X3320714Y-12718476D01*
X3473095Y-12899428D02*
X3482619Y-12908952D01*
X3482619Y-12908952D02*
X3473095Y-12918476D01*
X3473095Y-12918476D02*
X3463571Y-12908952D01*
X3463571Y-12908952D02*
X3473095Y-12899428D01*
X3473095Y-12899428D02*
X3473095Y-12918476D01*
X3606429Y-12718476D02*
X3625476Y-12718476D01*
X3625476Y-12718476D02*
X3644524Y-12728000D01*
X3644524Y-12728000D02*
X3654048Y-12737524D01*
X3654048Y-12737524D02*
X3663571Y-12756571D01*
X3663571Y-12756571D02*
X3673095Y-12794667D01*
X3673095Y-12794667D02*
X3673095Y-12842286D01*
X3673095Y-12842286D02*
X3663571Y-12880381D01*
X3663571Y-12880381D02*
X3654048Y-12899428D01*
X3654048Y-12899428D02*
X3644524Y-12908952D01*
X3644524Y-12908952D02*
X3625476Y-12918476D01*
X3625476Y-12918476D02*
X3606429Y-12918476D01*
X3606429Y-12918476D02*
X3587381Y-12908952D01*
X3587381Y-12908952D02*
X3577857Y-12899428D01*
X3577857Y-12899428D02*
X3568333Y-12880381D01*
X3568333Y-12880381D02*
X3558810Y-12842286D01*
X3558810Y-12842286D02*
X3558810Y-12794667D01*
X3558810Y-12794667D02*
X3568333Y-12756571D01*
X3568333Y-12756571D02*
X3577857Y-12737524D01*
X3577857Y-12737524D02*
X3587381Y-12728000D01*
X3587381Y-12728000D02*
X3606429Y-12718476D01*
X3749286Y-12737524D02*
X3758810Y-12728000D01*
X3758810Y-12728000D02*
X3777857Y-12718476D01*
X3777857Y-12718476D02*
X3825476Y-12718476D01*
X3825476Y-12718476D02*
X3844524Y-12728000D01*
X3844524Y-12728000D02*
X3854048Y-12737524D01*
X3854048Y-12737524D02*
X3863571Y-12756571D01*
X3863571Y-12756571D02*
X3863571Y-12775619D01*
X3863571Y-12775619D02*
X3854048Y-12804190D01*
X3854048Y-12804190D02*
X3739762Y-12918476D01*
X3739762Y-12918476D02*
X3863571Y-12918476D01*
X4044524Y-12718476D02*
X3949286Y-12718476D01*
X3949286Y-12718476D02*
X3939762Y-12813714D01*
X3939762Y-12813714D02*
X3949286Y-12804190D01*
X3949286Y-12804190D02*
X3968333Y-12794667D01*
X3968333Y-12794667D02*
X4015952Y-12794667D01*
X4015952Y-12794667D02*
X4035000Y-12804190D01*
X4035000Y-12804190D02*
X4044524Y-12813714D01*
X4044524Y-12813714D02*
X4054048Y-12832762D01*
X4054048Y-12832762D02*
X4054048Y-12880381D01*
X4054048Y-12880381D02*
X4044524Y-12899428D01*
X4044524Y-12899428D02*
X4035000Y-12908952D01*
X4035000Y-12908952D02*
X4015952Y-12918476D01*
X4015952Y-12918476D02*
X3968333Y-12918476D01*
X3968333Y-12918476D02*
X3949286Y-12908952D01*
X3949286Y-12908952D02*
X3939762Y-12899428D01*
X4225476Y-12718476D02*
X4187381Y-12718476D01*
X4187381Y-12718476D02*
X4168333Y-12728000D01*
X4168333Y-12728000D02*
X4158810Y-12737524D01*
X4158810Y-12737524D02*
X4139762Y-12766095D01*
X4139762Y-12766095D02*
X4130238Y-12804190D01*
X4130238Y-12804190D02*
X4130238Y-12880381D01*
X4130238Y-12880381D02*
X4139762Y-12899428D01*
X4139762Y-12899428D02*
X4149286Y-12908952D01*
X4149286Y-12908952D02*
X4168333Y-12918476D01*
X4168333Y-12918476D02*
X4206429Y-12918476D01*
X4206429Y-12918476D02*
X4225476Y-12908952D01*
X4225476Y-12908952D02*
X4235000Y-12899428D01*
X4235000Y-12899428D02*
X4244524Y-12880381D01*
X4244524Y-12880381D02*
X4244524Y-12832762D01*
X4244524Y-12832762D02*
X4235000Y-12813714D01*
X4235000Y-12813714D02*
X4225476Y-12804190D01*
X4225476Y-12804190D02*
X4206429Y-12794667D01*
X4206429Y-12794667D02*
X4168333Y-12794667D01*
X4168333Y-12794667D02*
X4149286Y-12804190D01*
X4149286Y-12804190D02*
X4139762Y-12813714D01*
X4139762Y-12813714D02*
X4130238Y-12832762D01*
X4320714Y-12718476D02*
X4320714Y-12756571D01*
X4396905Y-12718476D02*
X4396905Y-12756571D01*
X4659762Y-12994667D02*
X4650238Y-12985143D01*
X4650238Y-12985143D02*
X4631191Y-12956571D01*
X4631191Y-12956571D02*
X4621667Y-12937524D01*
X4621667Y-12937524D02*
X4612143Y-12908952D01*
X4612143Y-12908952D02*
X4602619Y-12861333D01*
X4602619Y-12861333D02*
X4602619Y-12823238D01*
X4602619Y-12823238D02*
X4612143Y-12775619D01*
X4612143Y-12775619D02*
X4621667Y-12747048D01*
X4621667Y-12747048D02*
X4631191Y-12728000D01*
X4631191Y-12728000D02*
X4650238Y-12699428D01*
X4650238Y-12699428D02*
X4659762Y-12689905D01*
X4774048Y-12718476D02*
X4793095Y-12718476D01*
X4793095Y-12718476D02*
X4812143Y-12728000D01*
X4812143Y-12728000D02*
X4821667Y-12737524D01*
X4821667Y-12737524D02*
X4831191Y-12756571D01*
X4831191Y-12756571D02*
X4840714Y-12794667D01*
X4840714Y-12794667D02*
X4840714Y-12842286D01*
X4840714Y-12842286D02*
X4831191Y-12880381D01*
X4831191Y-12880381D02*
X4821667Y-12899428D01*
X4821667Y-12899428D02*
X4812143Y-12908952D01*
X4812143Y-12908952D02*
X4793095Y-12918476D01*
X4793095Y-12918476D02*
X4774048Y-12918476D01*
X4774048Y-12918476D02*
X4755000Y-12908952D01*
X4755000Y-12908952D02*
X4745476Y-12899428D01*
X4745476Y-12899428D02*
X4735953Y-12880381D01*
X4735953Y-12880381D02*
X4726429Y-12842286D01*
X4726429Y-12842286D02*
X4726429Y-12794667D01*
X4726429Y-12794667D02*
X4735953Y-12756571D01*
X4735953Y-12756571D02*
X4745476Y-12737524D01*
X4745476Y-12737524D02*
X4755000Y-12728000D01*
X4755000Y-12728000D02*
X4774048Y-12718476D01*
X5046429Y-12918476D02*
X5046429Y-12718476D01*
X5132143Y-12918476D02*
X5132143Y-12813714D01*
X5132143Y-12813714D02*
X5122619Y-12794667D01*
X5122619Y-12794667D02*
X5103572Y-12785143D01*
X5103572Y-12785143D02*
X5075000Y-12785143D01*
X5075000Y-12785143D02*
X5055953Y-12794667D01*
X5055953Y-12794667D02*
X5046429Y-12804190D01*
X5255953Y-12918476D02*
X5236905Y-12908952D01*
X5236905Y-12908952D02*
X5227381Y-12899428D01*
X5227381Y-12899428D02*
X5217857Y-12880381D01*
X5217857Y-12880381D02*
X5217857Y-12823238D01*
X5217857Y-12823238D02*
X5227381Y-12804190D01*
X5227381Y-12804190D02*
X5236905Y-12794667D01*
X5236905Y-12794667D02*
X5255953Y-12785143D01*
X5255953Y-12785143D02*
X5284524Y-12785143D01*
X5284524Y-12785143D02*
X5303572Y-12794667D01*
X5303572Y-12794667D02*
X5313095Y-12804190D01*
X5313095Y-12804190D02*
X5322619Y-12823238D01*
X5322619Y-12823238D02*
X5322619Y-12880381D01*
X5322619Y-12880381D02*
X5313095Y-12899428D01*
X5313095Y-12899428D02*
X5303572Y-12908952D01*
X5303572Y-12908952D02*
X5284524Y-12918476D01*
X5284524Y-12918476D02*
X5255953Y-12918476D01*
X5436905Y-12918476D02*
X5417857Y-12908952D01*
X5417857Y-12908952D02*
X5408334Y-12889905D01*
X5408334Y-12889905D02*
X5408334Y-12718476D01*
X5589286Y-12908952D02*
X5570238Y-12918476D01*
X5570238Y-12918476D02*
X5532143Y-12918476D01*
X5532143Y-12918476D02*
X5513095Y-12908952D01*
X5513095Y-12908952D02*
X5503572Y-12889905D01*
X5503572Y-12889905D02*
X5503572Y-12813714D01*
X5503572Y-12813714D02*
X5513095Y-12794667D01*
X5513095Y-12794667D02*
X5532143Y-12785143D01*
X5532143Y-12785143D02*
X5570238Y-12785143D01*
X5570238Y-12785143D02*
X5589286Y-12794667D01*
X5589286Y-12794667D02*
X5598810Y-12813714D01*
X5598810Y-12813714D02*
X5598810Y-12832762D01*
X5598810Y-12832762D02*
X5503572Y-12851809D01*
X5675000Y-12908952D02*
X5694048Y-12918476D01*
X5694048Y-12918476D02*
X5732143Y-12918476D01*
X5732143Y-12918476D02*
X5751191Y-12908952D01*
X5751191Y-12908952D02*
X5760714Y-12889905D01*
X5760714Y-12889905D02*
X5760714Y-12880381D01*
X5760714Y-12880381D02*
X5751191Y-12861333D01*
X5751191Y-12861333D02*
X5732143Y-12851809D01*
X5732143Y-12851809D02*
X5703572Y-12851809D01*
X5703572Y-12851809D02*
X5684524Y-12842286D01*
X5684524Y-12842286D02*
X5675000Y-12823238D01*
X5675000Y-12823238D02*
X5675000Y-12813714D01*
X5675000Y-12813714D02*
X5684524Y-12794667D01*
X5684524Y-12794667D02*
X5703572Y-12785143D01*
X5703572Y-12785143D02*
X5732143Y-12785143D01*
X5732143Y-12785143D02*
X5751191Y-12794667D01*
X5966429Y-12842286D02*
X6118810Y-12842286D01*
X6042619Y-12918476D02*
X6042619Y-12766095D01*
X6324524Y-12737524D02*
X6334048Y-12728000D01*
X6334048Y-12728000D02*
X6353095Y-12718476D01*
X6353095Y-12718476D02*
X6400714Y-12718476D01*
X6400714Y-12718476D02*
X6419762Y-12728000D01*
X6419762Y-12728000D02*
X6429286Y-12737524D01*
X6429286Y-12737524D02*
X6438810Y-12756571D01*
X6438810Y-12756571D02*
X6438810Y-12775619D01*
X6438810Y-12775619D02*
X6429286Y-12804190D01*
X6429286Y-12804190D02*
X6315000Y-12918476D01*
X6315000Y-12918476D02*
X6438810Y-12918476D01*
X6635000Y-12908952D02*
X6654048Y-12918476D01*
X6654048Y-12918476D02*
X6692143Y-12918476D01*
X6692143Y-12918476D02*
X6711191Y-12908952D01*
X6711191Y-12908952D02*
X6720714Y-12889905D01*
X6720714Y-12889905D02*
X6720714Y-12880381D01*
X6720714Y-12880381D02*
X6711191Y-12861333D01*
X6711191Y-12861333D02*
X6692143Y-12851809D01*
X6692143Y-12851809D02*
X6663572Y-12851809D01*
X6663572Y-12851809D02*
X6644524Y-12842286D01*
X6644524Y-12842286D02*
X6635000Y-12823238D01*
X6635000Y-12823238D02*
X6635000Y-12813714D01*
X6635000Y-12813714D02*
X6644524Y-12794667D01*
X6644524Y-12794667D02*
X6663572Y-12785143D01*
X6663572Y-12785143D02*
X6692143Y-12785143D01*
X6692143Y-12785143D02*
X6711191Y-12794667D01*
X6835000Y-12918476D02*
X6815953Y-12908952D01*
X6815953Y-12908952D02*
X6806429Y-12889905D01*
X6806429Y-12889905D02*
X6806429Y-12718476D01*
X6939762Y-12918476D02*
X6920714Y-12908952D01*
X6920714Y-12908952D02*
X6911191Y-12899428D01*
X6911191Y-12899428D02*
X6901667Y-12880381D01*
X6901667Y-12880381D02*
X6901667Y-12823238D01*
X6901667Y-12823238D02*
X6911191Y-12804190D01*
X6911191Y-12804190D02*
X6920714Y-12794667D01*
X6920714Y-12794667D02*
X6939762Y-12785143D01*
X6939762Y-12785143D02*
X6968334Y-12785143D01*
X6968334Y-12785143D02*
X6987381Y-12794667D01*
X6987381Y-12794667D02*
X6996905Y-12804190D01*
X6996905Y-12804190D02*
X7006429Y-12823238D01*
X7006429Y-12823238D02*
X7006429Y-12880381D01*
X7006429Y-12880381D02*
X6996905Y-12899428D01*
X6996905Y-12899428D02*
X6987381Y-12908952D01*
X6987381Y-12908952D02*
X6968334Y-12918476D01*
X6968334Y-12918476D02*
X6939762Y-12918476D01*
X7063572Y-12785143D02*
X7139762Y-12785143D01*
X7092143Y-12718476D02*
X7092143Y-12889905D01*
X7092143Y-12889905D02*
X7101667Y-12908952D01*
X7101667Y-12908952D02*
X7120714Y-12918476D01*
X7120714Y-12918476D02*
X7139762Y-12918476D01*
X7196905Y-12908952D02*
X7215953Y-12918476D01*
X7215953Y-12918476D02*
X7254048Y-12918476D01*
X7254048Y-12918476D02*
X7273095Y-12908952D01*
X7273095Y-12908952D02*
X7282619Y-12889905D01*
X7282619Y-12889905D02*
X7282619Y-12880381D01*
X7282619Y-12880381D02*
X7273095Y-12861333D01*
X7273095Y-12861333D02*
X7254048Y-12851809D01*
X7254048Y-12851809D02*
X7225476Y-12851809D01*
X7225476Y-12851809D02*
X7206429Y-12842286D01*
X7206429Y-12842286D02*
X7196905Y-12823238D01*
X7196905Y-12823238D02*
X7196905Y-12813714D01*
X7196905Y-12813714D02*
X7206429Y-12794667D01*
X7206429Y-12794667D02*
X7225476Y-12785143D01*
X7225476Y-12785143D02*
X7254048Y-12785143D01*
X7254048Y-12785143D02*
X7273095Y-12794667D01*
X7349286Y-12994667D02*
X7358810Y-12985143D01*
X7358810Y-12985143D02*
X7377857Y-12956571D01*
X7377857Y-12956571D02*
X7387381Y-12937524D01*
X7387381Y-12937524D02*
X7396905Y-12908952D01*
X7396905Y-12908952D02*
X7406429Y-12861333D01*
X7406429Y-12861333D02*
X7406429Y-12823238D01*
X7406429Y-12823238D02*
X7396905Y-12775619D01*
X7396905Y-12775619D02*
X7387381Y-12747048D01*
X7387381Y-12747048D02*
X7377857Y-12728000D01*
X7377857Y-12728000D02*
X7358810Y-12699428D01*
X7358810Y-12699428D02*
X7349286Y-12689905D01*
X7678810Y-12994667D02*
X7669286Y-12985143D01*
X7669286Y-12985143D02*
X7650238Y-12956571D01*
X7650238Y-12956571D02*
X7640714Y-12937524D01*
X7640714Y-12937524D02*
X7631191Y-12908952D01*
X7631191Y-12908952D02*
X7621667Y-12861333D01*
X7621667Y-12861333D02*
X7621667Y-12823238D01*
X7621667Y-12823238D02*
X7631191Y-12775619D01*
X7631191Y-12775619D02*
X7640714Y-12747048D01*
X7640714Y-12747048D02*
X7650238Y-12728000D01*
X7650238Y-12728000D02*
X7669286Y-12699428D01*
X7669286Y-12699428D02*
X7678810Y-12689905D01*
X7755000Y-12785143D02*
X7755000Y-12918476D01*
X7755000Y-12804190D02*
X7764524Y-12794667D01*
X7764524Y-12794667D02*
X7783572Y-12785143D01*
X7783572Y-12785143D02*
X7812143Y-12785143D01*
X7812143Y-12785143D02*
X7831191Y-12794667D01*
X7831191Y-12794667D02*
X7840714Y-12813714D01*
X7840714Y-12813714D02*
X7840714Y-12918476D01*
X7964524Y-12918476D02*
X7945476Y-12908952D01*
X7945476Y-12908952D02*
X7935953Y-12899428D01*
X7935953Y-12899428D02*
X7926429Y-12880381D01*
X7926429Y-12880381D02*
X7926429Y-12823238D01*
X7926429Y-12823238D02*
X7935953Y-12804190D01*
X7935953Y-12804190D02*
X7945476Y-12794667D01*
X7945476Y-12794667D02*
X7964524Y-12785143D01*
X7964524Y-12785143D02*
X7993095Y-12785143D01*
X7993095Y-12785143D02*
X8012143Y-12794667D01*
X8012143Y-12794667D02*
X8021667Y-12804190D01*
X8021667Y-12804190D02*
X8031191Y-12823238D01*
X8031191Y-12823238D02*
X8031191Y-12880381D01*
X8031191Y-12880381D02*
X8021667Y-12899428D01*
X8021667Y-12899428D02*
X8012143Y-12908952D01*
X8012143Y-12908952D02*
X7993095Y-12918476D01*
X7993095Y-12918476D02*
X7964524Y-12918476D01*
X8088334Y-12785143D02*
X8164524Y-12785143D01*
X8116905Y-12718476D02*
X8116905Y-12889905D01*
X8116905Y-12889905D02*
X8126429Y-12908952D01*
X8126429Y-12908952D02*
X8145476Y-12918476D01*
X8145476Y-12918476D02*
X8164524Y-12918476D01*
X8351191Y-12785143D02*
X8351191Y-12985143D01*
X8351191Y-12794667D02*
X8370238Y-12785143D01*
X8370238Y-12785143D02*
X8408334Y-12785143D01*
X8408334Y-12785143D02*
X8427381Y-12794667D01*
X8427381Y-12794667D02*
X8436905Y-12804190D01*
X8436905Y-12804190D02*
X8446429Y-12823238D01*
X8446429Y-12823238D02*
X8446429Y-12880381D01*
X8446429Y-12880381D02*
X8436905Y-12899428D01*
X8436905Y-12899428D02*
X8427381Y-12908952D01*
X8427381Y-12908952D02*
X8408334Y-12918476D01*
X8408334Y-12918476D02*
X8370238Y-12918476D01*
X8370238Y-12918476D02*
X8351191Y-12908952D01*
X8560715Y-12918476D02*
X8541667Y-12908952D01*
X8541667Y-12908952D02*
X8532143Y-12889905D01*
X8532143Y-12889905D02*
X8532143Y-12718476D01*
X8722619Y-12918476D02*
X8722619Y-12813714D01*
X8722619Y-12813714D02*
X8713096Y-12794667D01*
X8713096Y-12794667D02*
X8694048Y-12785143D01*
X8694048Y-12785143D02*
X8655953Y-12785143D01*
X8655953Y-12785143D02*
X8636905Y-12794667D01*
X8722619Y-12908952D02*
X8703572Y-12918476D01*
X8703572Y-12918476D02*
X8655953Y-12918476D01*
X8655953Y-12918476D02*
X8636905Y-12908952D01*
X8636905Y-12908952D02*
X8627381Y-12889905D01*
X8627381Y-12889905D02*
X8627381Y-12870857D01*
X8627381Y-12870857D02*
X8636905Y-12851809D01*
X8636905Y-12851809D02*
X8655953Y-12842286D01*
X8655953Y-12842286D02*
X8703572Y-12842286D01*
X8703572Y-12842286D02*
X8722619Y-12832762D01*
X8789286Y-12785143D02*
X8865476Y-12785143D01*
X8817857Y-12718476D02*
X8817857Y-12889905D01*
X8817857Y-12889905D02*
X8827381Y-12908952D01*
X8827381Y-12908952D02*
X8846429Y-12918476D01*
X8846429Y-12918476D02*
X8865476Y-12918476D01*
X9008334Y-12908952D02*
X8989286Y-12918476D01*
X8989286Y-12918476D02*
X8951191Y-12918476D01*
X8951191Y-12918476D02*
X8932143Y-12908952D01*
X8932143Y-12908952D02*
X8922619Y-12889905D01*
X8922619Y-12889905D02*
X8922619Y-12813714D01*
X8922619Y-12813714D02*
X8932143Y-12794667D01*
X8932143Y-12794667D02*
X8951191Y-12785143D01*
X8951191Y-12785143D02*
X8989286Y-12785143D01*
X8989286Y-12785143D02*
X9008334Y-12794667D01*
X9008334Y-12794667D02*
X9017857Y-12813714D01*
X9017857Y-12813714D02*
X9017857Y-12832762D01*
X9017857Y-12832762D02*
X8922619Y-12851809D01*
X9189286Y-12918476D02*
X9189286Y-12718476D01*
X9189286Y-12908952D02*
X9170238Y-12918476D01*
X9170238Y-12918476D02*
X9132143Y-12918476D01*
X9132143Y-12918476D02*
X9113096Y-12908952D01*
X9113096Y-12908952D02*
X9103572Y-12899428D01*
X9103572Y-12899428D02*
X9094048Y-12880381D01*
X9094048Y-12880381D02*
X9094048Y-12823238D01*
X9094048Y-12823238D02*
X9103572Y-12804190D01*
X9103572Y-12804190D02*
X9113096Y-12794667D01*
X9113096Y-12794667D02*
X9132143Y-12785143D01*
X9132143Y-12785143D02*
X9170238Y-12785143D01*
X9170238Y-12785143D02*
X9189286Y-12794667D01*
X9265477Y-12994667D02*
X9275000Y-12985143D01*
X9275000Y-12985143D02*
X9294048Y-12956571D01*
X9294048Y-12956571D02*
X9303572Y-12937524D01*
X9303572Y-12937524D02*
X9313096Y-12908952D01*
X9313096Y-12908952D02*
X9322619Y-12861333D01*
X9322619Y-12861333D02*
X9322619Y-12823238D01*
X9322619Y-12823238D02*
X9313096Y-12775619D01*
X9313096Y-12775619D02*
X9303572Y-12747048D01*
X9303572Y-12747048D02*
X9294048Y-12728000D01*
X9294048Y-12728000D02*
X9275000Y-12699428D01*
X9275000Y-12699428D02*
X9265477Y-12689905D01*
D13*
X1195000Y-13109000D02*
G75*
G03*
X1195000Y-13109000I-75000J0D01*
G01*
D11*
X1547381Y-13182476D02*
X1433095Y-13182476D01*
X1490238Y-13182476D02*
X1490238Y-12982476D01*
X1490238Y-12982476D02*
X1471190Y-13011048D01*
X1471190Y-13011048D02*
X1452143Y-13030095D01*
X1452143Y-13030095D02*
X1433095Y-13039619D01*
X1633095Y-13163428D02*
X1642619Y-13172952D01*
X1642619Y-13172952D02*
X1633095Y-13182476D01*
X1633095Y-13182476D02*
X1623571Y-13172952D01*
X1623571Y-13172952D02*
X1633095Y-13163428D01*
X1633095Y-13163428D02*
X1633095Y-13182476D01*
X1823571Y-12982476D02*
X1728333Y-12982476D01*
X1728333Y-12982476D02*
X1718809Y-13077714D01*
X1718809Y-13077714D02*
X1728333Y-13068190D01*
X1728333Y-13068190D02*
X1747381Y-13058667D01*
X1747381Y-13058667D02*
X1795000Y-13058667D01*
X1795000Y-13058667D02*
X1814048Y-13068190D01*
X1814048Y-13068190D02*
X1823571Y-13077714D01*
X1823571Y-13077714D02*
X1833095Y-13096762D01*
X1833095Y-13096762D02*
X1833095Y-13144381D01*
X1833095Y-13144381D02*
X1823571Y-13163428D01*
X1823571Y-13163428D02*
X1814048Y-13172952D01*
X1814048Y-13172952D02*
X1795000Y-13182476D01*
X1795000Y-13182476D02*
X1747381Y-13182476D01*
X1747381Y-13182476D02*
X1728333Y-13172952D01*
X1728333Y-13172952D02*
X1718809Y-13163428D01*
X1956905Y-12982476D02*
X1975952Y-12982476D01*
X1975952Y-12982476D02*
X1995000Y-12992000D01*
X1995000Y-12992000D02*
X2004524Y-13001524D01*
X2004524Y-13001524D02*
X2014048Y-13020571D01*
X2014048Y-13020571D02*
X2023571Y-13058667D01*
X2023571Y-13058667D02*
X2023571Y-13106286D01*
X2023571Y-13106286D02*
X2014048Y-13144381D01*
X2014048Y-13144381D02*
X2004524Y-13163428D01*
X2004524Y-13163428D02*
X1995000Y-13172952D01*
X1995000Y-13172952D02*
X1975952Y-13182476D01*
X1975952Y-13182476D02*
X1956905Y-13182476D01*
X1956905Y-13182476D02*
X1937857Y-13172952D01*
X1937857Y-13172952D02*
X1928333Y-13163428D01*
X1928333Y-13163428D02*
X1918809Y-13144381D01*
X1918809Y-13144381D02*
X1909286Y-13106286D01*
X1909286Y-13106286D02*
X1909286Y-13058667D01*
X1909286Y-13058667D02*
X1918809Y-13020571D01*
X1918809Y-13020571D02*
X1928333Y-13001524D01*
X1928333Y-13001524D02*
X1937857Y-12992000D01*
X1937857Y-12992000D02*
X1956905Y-12982476D01*
X2147381Y-12982476D02*
X2166429Y-12982476D01*
X2166429Y-12982476D02*
X2185476Y-12992000D01*
X2185476Y-12992000D02*
X2195000Y-13001524D01*
X2195000Y-13001524D02*
X2204524Y-13020571D01*
X2204524Y-13020571D02*
X2214048Y-13058667D01*
X2214048Y-13058667D02*
X2214048Y-13106286D01*
X2214048Y-13106286D02*
X2204524Y-13144381D01*
X2204524Y-13144381D02*
X2195000Y-13163428D01*
X2195000Y-13163428D02*
X2185476Y-13172952D01*
X2185476Y-13172952D02*
X2166429Y-13182476D01*
X2166429Y-13182476D02*
X2147381Y-13182476D01*
X2147381Y-13182476D02*
X2128333Y-13172952D01*
X2128333Y-13172952D02*
X2118810Y-13163428D01*
X2118810Y-13163428D02*
X2109286Y-13144381D01*
X2109286Y-13144381D02*
X2099762Y-13106286D01*
X2099762Y-13106286D02*
X2099762Y-13058667D01*
X2099762Y-13058667D02*
X2109286Y-13020571D01*
X2109286Y-13020571D02*
X2118810Y-13001524D01*
X2118810Y-13001524D02*
X2128333Y-12992000D01*
X2128333Y-12992000D02*
X2147381Y-12982476D01*
X2299762Y-13182476D02*
X2299762Y-13049143D01*
X2299762Y-13068190D02*
X2309286Y-13058667D01*
X2309286Y-13058667D02*
X2328333Y-13049143D01*
X2328333Y-13049143D02*
X2356905Y-13049143D01*
X2356905Y-13049143D02*
X2375952Y-13058667D01*
X2375952Y-13058667D02*
X2385476Y-13077714D01*
X2385476Y-13077714D02*
X2385476Y-13182476D01*
X2385476Y-13077714D02*
X2395000Y-13058667D01*
X2395000Y-13058667D02*
X2414048Y-13049143D01*
X2414048Y-13049143D02*
X2442619Y-13049143D01*
X2442619Y-13049143D02*
X2461667Y-13058667D01*
X2461667Y-13058667D02*
X2471191Y-13077714D01*
X2471191Y-13077714D02*
X2471191Y-13182476D01*
X2566429Y-13182476D02*
X2566429Y-13049143D01*
X2566429Y-13068190D02*
X2575952Y-13058667D01*
X2575952Y-13058667D02*
X2595000Y-13049143D01*
X2595000Y-13049143D02*
X2623572Y-13049143D01*
X2623572Y-13049143D02*
X2642619Y-13058667D01*
X2642619Y-13058667D02*
X2652143Y-13077714D01*
X2652143Y-13077714D02*
X2652143Y-13182476D01*
X2652143Y-13077714D02*
X2661667Y-13058667D01*
X2661667Y-13058667D02*
X2680714Y-13049143D01*
X2680714Y-13049143D02*
X2709286Y-13049143D01*
X2709286Y-13049143D02*
X2728333Y-13058667D01*
X2728333Y-13058667D02*
X2737857Y-13077714D01*
X2737857Y-13077714D02*
X2737857Y-13182476D01*
X3095952Y-12972952D02*
X2924524Y-13230095D01*
X3320714Y-12982476D02*
X3339762Y-12982476D01*
X3339762Y-12982476D02*
X3358810Y-12992000D01*
X3358810Y-12992000D02*
X3368333Y-13001524D01*
X3368333Y-13001524D02*
X3377857Y-13020571D01*
X3377857Y-13020571D02*
X3387381Y-13058667D01*
X3387381Y-13058667D02*
X3387381Y-13106286D01*
X3387381Y-13106286D02*
X3377857Y-13144381D01*
X3377857Y-13144381D02*
X3368333Y-13163428D01*
X3368333Y-13163428D02*
X3358810Y-13172952D01*
X3358810Y-13172952D02*
X3339762Y-13182476D01*
X3339762Y-13182476D02*
X3320714Y-13182476D01*
X3320714Y-13182476D02*
X3301667Y-13172952D01*
X3301667Y-13172952D02*
X3292143Y-13163428D01*
X3292143Y-13163428D02*
X3282619Y-13144381D01*
X3282619Y-13144381D02*
X3273095Y-13106286D01*
X3273095Y-13106286D02*
X3273095Y-13058667D01*
X3273095Y-13058667D02*
X3282619Y-13020571D01*
X3282619Y-13020571D02*
X3292143Y-13001524D01*
X3292143Y-13001524D02*
X3301667Y-12992000D01*
X3301667Y-12992000D02*
X3320714Y-12982476D01*
X3473095Y-13163428D02*
X3482619Y-13172952D01*
X3482619Y-13172952D02*
X3473095Y-13182476D01*
X3473095Y-13182476D02*
X3463571Y-13172952D01*
X3463571Y-13172952D02*
X3473095Y-13163428D01*
X3473095Y-13163428D02*
X3473095Y-13182476D01*
X3606429Y-12982476D02*
X3625476Y-12982476D01*
X3625476Y-12982476D02*
X3644524Y-12992000D01*
X3644524Y-12992000D02*
X3654048Y-13001524D01*
X3654048Y-13001524D02*
X3663571Y-13020571D01*
X3663571Y-13020571D02*
X3673095Y-13058667D01*
X3673095Y-13058667D02*
X3673095Y-13106286D01*
X3673095Y-13106286D02*
X3663571Y-13144381D01*
X3663571Y-13144381D02*
X3654048Y-13163428D01*
X3654048Y-13163428D02*
X3644524Y-13172952D01*
X3644524Y-13172952D02*
X3625476Y-13182476D01*
X3625476Y-13182476D02*
X3606429Y-13182476D01*
X3606429Y-13182476D02*
X3587381Y-13172952D01*
X3587381Y-13172952D02*
X3577857Y-13163428D01*
X3577857Y-13163428D02*
X3568333Y-13144381D01*
X3568333Y-13144381D02*
X3558810Y-13106286D01*
X3558810Y-13106286D02*
X3558810Y-13058667D01*
X3558810Y-13058667D02*
X3568333Y-13020571D01*
X3568333Y-13020571D02*
X3577857Y-13001524D01*
X3577857Y-13001524D02*
X3587381Y-12992000D01*
X3587381Y-12992000D02*
X3606429Y-12982476D01*
X3854048Y-12982476D02*
X3758810Y-12982476D01*
X3758810Y-12982476D02*
X3749286Y-13077714D01*
X3749286Y-13077714D02*
X3758810Y-13068190D01*
X3758810Y-13068190D02*
X3777857Y-13058667D01*
X3777857Y-13058667D02*
X3825476Y-13058667D01*
X3825476Y-13058667D02*
X3844524Y-13068190D01*
X3844524Y-13068190D02*
X3854048Y-13077714D01*
X3854048Y-13077714D02*
X3863571Y-13096762D01*
X3863571Y-13096762D02*
X3863571Y-13144381D01*
X3863571Y-13144381D02*
X3854048Y-13163428D01*
X3854048Y-13163428D02*
X3844524Y-13172952D01*
X3844524Y-13172952D02*
X3825476Y-13182476D01*
X3825476Y-13182476D02*
X3777857Y-13182476D01*
X3777857Y-13182476D02*
X3758810Y-13172952D01*
X3758810Y-13172952D02*
X3749286Y-13163428D01*
X3958810Y-13182476D02*
X3996905Y-13182476D01*
X3996905Y-13182476D02*
X4015952Y-13172952D01*
X4015952Y-13172952D02*
X4025476Y-13163428D01*
X4025476Y-13163428D02*
X4044524Y-13134857D01*
X4044524Y-13134857D02*
X4054048Y-13096762D01*
X4054048Y-13096762D02*
X4054048Y-13020571D01*
X4054048Y-13020571D02*
X4044524Y-13001524D01*
X4044524Y-13001524D02*
X4035000Y-12992000D01*
X4035000Y-12992000D02*
X4015952Y-12982476D01*
X4015952Y-12982476D02*
X3977857Y-12982476D01*
X3977857Y-12982476D02*
X3958810Y-12992000D01*
X3958810Y-12992000D02*
X3949286Y-13001524D01*
X3949286Y-13001524D02*
X3939762Y-13020571D01*
X3939762Y-13020571D02*
X3939762Y-13068190D01*
X3939762Y-13068190D02*
X3949286Y-13087238D01*
X3949286Y-13087238D02*
X3958810Y-13096762D01*
X3958810Y-13096762D02*
X3977857Y-13106286D01*
X3977857Y-13106286D02*
X4015952Y-13106286D01*
X4015952Y-13106286D02*
X4035000Y-13096762D01*
X4035000Y-13096762D02*
X4044524Y-13087238D01*
X4044524Y-13087238D02*
X4054048Y-13068190D01*
X4244524Y-13182476D02*
X4130238Y-13182476D01*
X4187381Y-13182476D02*
X4187381Y-12982476D01*
X4187381Y-12982476D02*
X4168333Y-13011048D01*
X4168333Y-13011048D02*
X4149286Y-13030095D01*
X4149286Y-13030095D02*
X4130238Y-13039619D01*
X4320714Y-12982476D02*
X4320714Y-13020571D01*
X4396905Y-12982476D02*
X4396905Y-13020571D01*
X4659762Y-13258667D02*
X4650238Y-13249143D01*
X4650238Y-13249143D02*
X4631191Y-13220571D01*
X4631191Y-13220571D02*
X4621667Y-13201524D01*
X4621667Y-13201524D02*
X4612143Y-13172952D01*
X4612143Y-13172952D02*
X4602619Y-13125333D01*
X4602619Y-13125333D02*
X4602619Y-13087238D01*
X4602619Y-13087238D02*
X4612143Y-13039619D01*
X4612143Y-13039619D02*
X4621667Y-13011048D01*
X4621667Y-13011048D02*
X4631191Y-12992000D01*
X4631191Y-12992000D02*
X4650238Y-12963428D01*
X4650238Y-12963428D02*
X4659762Y-12953905D01*
X4840714Y-13182476D02*
X4726429Y-13182476D01*
X4783572Y-13182476D02*
X4783572Y-12982476D01*
X4783572Y-12982476D02*
X4764524Y-13011048D01*
X4764524Y-13011048D02*
X4745476Y-13030095D01*
X4745476Y-13030095D02*
X4726429Y-13039619D01*
X5036905Y-13172952D02*
X5055953Y-13182476D01*
X5055953Y-13182476D02*
X5094048Y-13182476D01*
X5094048Y-13182476D02*
X5113095Y-13172952D01*
X5113095Y-13172952D02*
X5122619Y-13153905D01*
X5122619Y-13153905D02*
X5122619Y-13144381D01*
X5122619Y-13144381D02*
X5113095Y-13125333D01*
X5113095Y-13125333D02*
X5094048Y-13115809D01*
X5094048Y-13115809D02*
X5065476Y-13115809D01*
X5065476Y-13115809D02*
X5046429Y-13106286D01*
X5046429Y-13106286D02*
X5036905Y-13087238D01*
X5036905Y-13087238D02*
X5036905Y-13077714D01*
X5036905Y-13077714D02*
X5046429Y-13058667D01*
X5046429Y-13058667D02*
X5065476Y-13049143D01*
X5065476Y-13049143D02*
X5094048Y-13049143D01*
X5094048Y-13049143D02*
X5113095Y-13058667D01*
X5236905Y-13182476D02*
X5217857Y-13172952D01*
X5217857Y-13172952D02*
X5208334Y-13153905D01*
X5208334Y-13153905D02*
X5208334Y-12982476D01*
X5341667Y-13182476D02*
X5322619Y-13172952D01*
X5322619Y-13172952D02*
X5313095Y-13163428D01*
X5313095Y-13163428D02*
X5303572Y-13144381D01*
X5303572Y-13144381D02*
X5303572Y-13087238D01*
X5303572Y-13087238D02*
X5313095Y-13068190D01*
X5313095Y-13068190D02*
X5322619Y-13058667D01*
X5322619Y-13058667D02*
X5341667Y-13049143D01*
X5341667Y-13049143D02*
X5370238Y-13049143D01*
X5370238Y-13049143D02*
X5389286Y-13058667D01*
X5389286Y-13058667D02*
X5398810Y-13068190D01*
X5398810Y-13068190D02*
X5408334Y-13087238D01*
X5408334Y-13087238D02*
X5408334Y-13144381D01*
X5408334Y-13144381D02*
X5398810Y-13163428D01*
X5398810Y-13163428D02*
X5389286Y-13172952D01*
X5389286Y-13172952D02*
X5370238Y-13182476D01*
X5370238Y-13182476D02*
X5341667Y-13182476D01*
X5465476Y-13049143D02*
X5541667Y-13049143D01*
X5494048Y-12982476D02*
X5494048Y-13153905D01*
X5494048Y-13153905D02*
X5503572Y-13172952D01*
X5503572Y-13172952D02*
X5522619Y-13182476D01*
X5522619Y-13182476D02*
X5541667Y-13182476D01*
X5589286Y-13258667D02*
X5598810Y-13249143D01*
X5598810Y-13249143D02*
X5617857Y-13220571D01*
X5617857Y-13220571D02*
X5627381Y-13201524D01*
X5627381Y-13201524D02*
X5636905Y-13172952D01*
X5636905Y-13172952D02*
X5646429Y-13125333D01*
X5646429Y-13125333D02*
X5646429Y-13087238D01*
X5646429Y-13087238D02*
X5636905Y-13039619D01*
X5636905Y-13039619D02*
X5627381Y-13011048D01*
X5627381Y-13011048D02*
X5617857Y-12992000D01*
X5617857Y-12992000D02*
X5598810Y-12963428D01*
X5598810Y-12963428D02*
X5589286Y-12953905D01*
X5918810Y-13258667D02*
X5909286Y-13249143D01*
X5909286Y-13249143D02*
X5890238Y-13220571D01*
X5890238Y-13220571D02*
X5880714Y-13201524D01*
X5880714Y-13201524D02*
X5871191Y-13172952D01*
X5871191Y-13172952D02*
X5861667Y-13125333D01*
X5861667Y-13125333D02*
X5861667Y-13087238D01*
X5861667Y-13087238D02*
X5871191Y-13039619D01*
X5871191Y-13039619D02*
X5880714Y-13011048D01*
X5880714Y-13011048D02*
X5890238Y-12992000D01*
X5890238Y-12992000D02*
X5909286Y-12963428D01*
X5909286Y-12963428D02*
X5918810Y-12953905D01*
X5995000Y-13049143D02*
X5995000Y-13182476D01*
X5995000Y-13068190D02*
X6004524Y-13058667D01*
X6004524Y-13058667D02*
X6023571Y-13049143D01*
X6023571Y-13049143D02*
X6052143Y-13049143D01*
X6052143Y-13049143D02*
X6071191Y-13058667D01*
X6071191Y-13058667D02*
X6080714Y-13077714D01*
X6080714Y-13077714D02*
X6080714Y-13182476D01*
X6204524Y-13182476D02*
X6185476Y-13172952D01*
X6185476Y-13172952D02*
X6175952Y-13163428D01*
X6175952Y-13163428D02*
X6166429Y-13144381D01*
X6166429Y-13144381D02*
X6166429Y-13087238D01*
X6166429Y-13087238D02*
X6175952Y-13068190D01*
X6175952Y-13068190D02*
X6185476Y-13058667D01*
X6185476Y-13058667D02*
X6204524Y-13049143D01*
X6204524Y-13049143D02*
X6233095Y-13049143D01*
X6233095Y-13049143D02*
X6252143Y-13058667D01*
X6252143Y-13058667D02*
X6261667Y-13068190D01*
X6261667Y-13068190D02*
X6271191Y-13087238D01*
X6271191Y-13087238D02*
X6271191Y-13144381D01*
X6271191Y-13144381D02*
X6261667Y-13163428D01*
X6261667Y-13163428D02*
X6252143Y-13172952D01*
X6252143Y-13172952D02*
X6233095Y-13182476D01*
X6233095Y-13182476D02*
X6204524Y-13182476D01*
X6328333Y-13049143D02*
X6404524Y-13049143D01*
X6356905Y-12982476D02*
X6356905Y-13153905D01*
X6356905Y-13153905D02*
X6366429Y-13172952D01*
X6366429Y-13172952D02*
X6385476Y-13182476D01*
X6385476Y-13182476D02*
X6404524Y-13182476D01*
X6591191Y-13049143D02*
X6591191Y-13249143D01*
X6591191Y-13058667D02*
X6610238Y-13049143D01*
X6610238Y-13049143D02*
X6648333Y-13049143D01*
X6648333Y-13049143D02*
X6667381Y-13058667D01*
X6667381Y-13058667D02*
X6676905Y-13068190D01*
X6676905Y-13068190D02*
X6686429Y-13087238D01*
X6686429Y-13087238D02*
X6686429Y-13144381D01*
X6686429Y-13144381D02*
X6676905Y-13163428D01*
X6676905Y-13163428D02*
X6667381Y-13172952D01*
X6667381Y-13172952D02*
X6648333Y-13182476D01*
X6648333Y-13182476D02*
X6610238Y-13182476D01*
X6610238Y-13182476D02*
X6591191Y-13172952D01*
X6800714Y-13182476D02*
X6781667Y-13172952D01*
X6781667Y-13172952D02*
X6772143Y-13153905D01*
X6772143Y-13153905D02*
X6772143Y-12982476D01*
X6962619Y-13182476D02*
X6962619Y-13077714D01*
X6962619Y-13077714D02*
X6953095Y-13058667D01*
X6953095Y-13058667D02*
X6934048Y-13049143D01*
X6934048Y-13049143D02*
X6895952Y-13049143D01*
X6895952Y-13049143D02*
X6876905Y-13058667D01*
X6962619Y-13172952D02*
X6943572Y-13182476D01*
X6943572Y-13182476D02*
X6895952Y-13182476D01*
X6895952Y-13182476D02*
X6876905Y-13172952D01*
X6876905Y-13172952D02*
X6867381Y-13153905D01*
X6867381Y-13153905D02*
X6867381Y-13134857D01*
X6867381Y-13134857D02*
X6876905Y-13115809D01*
X6876905Y-13115809D02*
X6895952Y-13106286D01*
X6895952Y-13106286D02*
X6943572Y-13106286D01*
X6943572Y-13106286D02*
X6962619Y-13096762D01*
X7029286Y-13049143D02*
X7105476Y-13049143D01*
X7057857Y-12982476D02*
X7057857Y-13153905D01*
X7057857Y-13153905D02*
X7067381Y-13172952D01*
X7067381Y-13172952D02*
X7086429Y-13182476D01*
X7086429Y-13182476D02*
X7105476Y-13182476D01*
X7248333Y-13172952D02*
X7229286Y-13182476D01*
X7229286Y-13182476D02*
X7191191Y-13182476D01*
X7191191Y-13182476D02*
X7172143Y-13172952D01*
X7172143Y-13172952D02*
X7162619Y-13153905D01*
X7162619Y-13153905D02*
X7162619Y-13077714D01*
X7162619Y-13077714D02*
X7172143Y-13058667D01*
X7172143Y-13058667D02*
X7191191Y-13049143D01*
X7191191Y-13049143D02*
X7229286Y-13049143D01*
X7229286Y-13049143D02*
X7248333Y-13058667D01*
X7248333Y-13058667D02*
X7257857Y-13077714D01*
X7257857Y-13077714D02*
X7257857Y-13096762D01*
X7257857Y-13096762D02*
X7162619Y-13115809D01*
X7429286Y-13182476D02*
X7429286Y-12982476D01*
X7429286Y-13172952D02*
X7410238Y-13182476D01*
X7410238Y-13182476D02*
X7372143Y-13182476D01*
X7372143Y-13182476D02*
X7353095Y-13172952D01*
X7353095Y-13172952D02*
X7343572Y-13163428D01*
X7343572Y-13163428D02*
X7334048Y-13144381D01*
X7334048Y-13144381D02*
X7334048Y-13087238D01*
X7334048Y-13087238D02*
X7343572Y-13068190D01*
X7343572Y-13068190D02*
X7353095Y-13058667D01*
X7353095Y-13058667D02*
X7372143Y-13049143D01*
X7372143Y-13049143D02*
X7410238Y-13049143D01*
X7410238Y-13049143D02*
X7429286Y-13058667D01*
X7505476Y-13258667D02*
X7515000Y-13249143D01*
X7515000Y-13249143D02*
X7534048Y-13220571D01*
X7534048Y-13220571D02*
X7543572Y-13201524D01*
X7543572Y-13201524D02*
X7553095Y-13172952D01*
X7553095Y-13172952D02*
X7562619Y-13125333D01*
X7562619Y-13125333D02*
X7562619Y-13087238D01*
X7562619Y-13087238D02*
X7553095Y-13039619D01*
X7553095Y-13039619D02*
X7543572Y-13011048D01*
X7543572Y-13011048D02*
X7534048Y-12992000D01*
X7534048Y-12992000D02*
X7515000Y-12963428D01*
X7515000Y-12963428D02*
X7505476Y-12953905D01*
D14*
X1115000Y-13299000D02*
X1115000Y-13459000D01*
X1035000Y-13379000D02*
X1195000Y-13379000D01*
D11*
X1547381Y-13452476D02*
X1433095Y-13452476D01*
X1490238Y-13452476D02*
X1490238Y-13252476D01*
X1490238Y-13252476D02*
X1471190Y-13281048D01*
X1471190Y-13281048D02*
X1452143Y-13300095D01*
X1452143Y-13300095D02*
X1433095Y-13309619D01*
X1633095Y-13433428D02*
X1642619Y-13442952D01*
X1642619Y-13442952D02*
X1633095Y-13452476D01*
X1633095Y-13452476D02*
X1623571Y-13442952D01*
X1623571Y-13442952D02*
X1633095Y-13433428D01*
X1633095Y-13433428D02*
X1633095Y-13452476D01*
X1814048Y-13252476D02*
X1775952Y-13252476D01*
X1775952Y-13252476D02*
X1756905Y-13262000D01*
X1756905Y-13262000D02*
X1747381Y-13271524D01*
X1747381Y-13271524D02*
X1728333Y-13300095D01*
X1728333Y-13300095D02*
X1718809Y-13338190D01*
X1718809Y-13338190D02*
X1718809Y-13414381D01*
X1718809Y-13414381D02*
X1728333Y-13433428D01*
X1728333Y-13433428D02*
X1737857Y-13442952D01*
X1737857Y-13442952D02*
X1756905Y-13452476D01*
X1756905Y-13452476D02*
X1795000Y-13452476D01*
X1795000Y-13452476D02*
X1814048Y-13442952D01*
X1814048Y-13442952D02*
X1823571Y-13433428D01*
X1823571Y-13433428D02*
X1833095Y-13414381D01*
X1833095Y-13414381D02*
X1833095Y-13366762D01*
X1833095Y-13366762D02*
X1823571Y-13347714D01*
X1823571Y-13347714D02*
X1814048Y-13338190D01*
X1814048Y-13338190D02*
X1795000Y-13328667D01*
X1795000Y-13328667D02*
X1756905Y-13328667D01*
X1756905Y-13328667D02*
X1737857Y-13338190D01*
X1737857Y-13338190D02*
X1728333Y-13347714D01*
X1728333Y-13347714D02*
X1718809Y-13366762D01*
X1956905Y-13252476D02*
X1975952Y-13252476D01*
X1975952Y-13252476D02*
X1995000Y-13262000D01*
X1995000Y-13262000D02*
X2004524Y-13271524D01*
X2004524Y-13271524D02*
X2014048Y-13290571D01*
X2014048Y-13290571D02*
X2023571Y-13328667D01*
X2023571Y-13328667D02*
X2023571Y-13376286D01*
X2023571Y-13376286D02*
X2014048Y-13414381D01*
X2014048Y-13414381D02*
X2004524Y-13433428D01*
X2004524Y-13433428D02*
X1995000Y-13442952D01*
X1995000Y-13442952D02*
X1975952Y-13452476D01*
X1975952Y-13452476D02*
X1956905Y-13452476D01*
X1956905Y-13452476D02*
X1937857Y-13442952D01*
X1937857Y-13442952D02*
X1928333Y-13433428D01*
X1928333Y-13433428D02*
X1918809Y-13414381D01*
X1918809Y-13414381D02*
X1909286Y-13376286D01*
X1909286Y-13376286D02*
X1909286Y-13328667D01*
X1909286Y-13328667D02*
X1918809Y-13290571D01*
X1918809Y-13290571D02*
X1928333Y-13271524D01*
X1928333Y-13271524D02*
X1937857Y-13262000D01*
X1937857Y-13262000D02*
X1956905Y-13252476D01*
X2147381Y-13252476D02*
X2166429Y-13252476D01*
X2166429Y-13252476D02*
X2185476Y-13262000D01*
X2185476Y-13262000D02*
X2195000Y-13271524D01*
X2195000Y-13271524D02*
X2204524Y-13290571D01*
X2204524Y-13290571D02*
X2214048Y-13328667D01*
X2214048Y-13328667D02*
X2214048Y-13376286D01*
X2214048Y-13376286D02*
X2204524Y-13414381D01*
X2204524Y-13414381D02*
X2195000Y-13433428D01*
X2195000Y-13433428D02*
X2185476Y-13442952D01*
X2185476Y-13442952D02*
X2166429Y-13452476D01*
X2166429Y-13452476D02*
X2147381Y-13452476D01*
X2147381Y-13452476D02*
X2128333Y-13442952D01*
X2128333Y-13442952D02*
X2118810Y-13433428D01*
X2118810Y-13433428D02*
X2109286Y-13414381D01*
X2109286Y-13414381D02*
X2099762Y-13376286D01*
X2099762Y-13376286D02*
X2099762Y-13328667D01*
X2099762Y-13328667D02*
X2109286Y-13290571D01*
X2109286Y-13290571D02*
X2118810Y-13271524D01*
X2118810Y-13271524D02*
X2128333Y-13262000D01*
X2128333Y-13262000D02*
X2147381Y-13252476D01*
X2299762Y-13452476D02*
X2299762Y-13319143D01*
X2299762Y-13338190D02*
X2309286Y-13328667D01*
X2309286Y-13328667D02*
X2328333Y-13319143D01*
X2328333Y-13319143D02*
X2356905Y-13319143D01*
X2356905Y-13319143D02*
X2375952Y-13328667D01*
X2375952Y-13328667D02*
X2385476Y-13347714D01*
X2385476Y-13347714D02*
X2385476Y-13452476D01*
X2385476Y-13347714D02*
X2395000Y-13328667D01*
X2395000Y-13328667D02*
X2414048Y-13319143D01*
X2414048Y-13319143D02*
X2442619Y-13319143D01*
X2442619Y-13319143D02*
X2461667Y-13328667D01*
X2461667Y-13328667D02*
X2471191Y-13347714D01*
X2471191Y-13347714D02*
X2471191Y-13452476D01*
X2566429Y-13452476D02*
X2566429Y-13319143D01*
X2566429Y-13338190D02*
X2575952Y-13328667D01*
X2575952Y-13328667D02*
X2595000Y-13319143D01*
X2595000Y-13319143D02*
X2623572Y-13319143D01*
X2623572Y-13319143D02*
X2642619Y-13328667D01*
X2642619Y-13328667D02*
X2652143Y-13347714D01*
X2652143Y-13347714D02*
X2652143Y-13452476D01*
X2652143Y-13347714D02*
X2661667Y-13328667D01*
X2661667Y-13328667D02*
X2680714Y-13319143D01*
X2680714Y-13319143D02*
X2709286Y-13319143D01*
X2709286Y-13319143D02*
X2728333Y-13328667D01*
X2728333Y-13328667D02*
X2737857Y-13347714D01*
X2737857Y-13347714D02*
X2737857Y-13452476D01*
X3095952Y-13242952D02*
X2924524Y-13500095D01*
X3320714Y-13252476D02*
X3339762Y-13252476D01*
X3339762Y-13252476D02*
X3358810Y-13262000D01*
X3358810Y-13262000D02*
X3368333Y-13271524D01*
X3368333Y-13271524D02*
X3377857Y-13290571D01*
X3377857Y-13290571D02*
X3387381Y-13328667D01*
X3387381Y-13328667D02*
X3387381Y-13376286D01*
X3387381Y-13376286D02*
X3377857Y-13414381D01*
X3377857Y-13414381D02*
X3368333Y-13433428D01*
X3368333Y-13433428D02*
X3358810Y-13442952D01*
X3358810Y-13442952D02*
X3339762Y-13452476D01*
X3339762Y-13452476D02*
X3320714Y-13452476D01*
X3320714Y-13452476D02*
X3301667Y-13442952D01*
X3301667Y-13442952D02*
X3292143Y-13433428D01*
X3292143Y-13433428D02*
X3282619Y-13414381D01*
X3282619Y-13414381D02*
X3273095Y-13376286D01*
X3273095Y-13376286D02*
X3273095Y-13328667D01*
X3273095Y-13328667D02*
X3282619Y-13290571D01*
X3282619Y-13290571D02*
X3292143Y-13271524D01*
X3292143Y-13271524D02*
X3301667Y-13262000D01*
X3301667Y-13262000D02*
X3320714Y-13252476D01*
X3473095Y-13433428D02*
X3482619Y-13442952D01*
X3482619Y-13442952D02*
X3473095Y-13452476D01*
X3473095Y-13452476D02*
X3463571Y-13442952D01*
X3463571Y-13442952D02*
X3473095Y-13433428D01*
X3473095Y-13433428D02*
X3473095Y-13452476D01*
X3606429Y-13252476D02*
X3625476Y-13252476D01*
X3625476Y-13252476D02*
X3644524Y-13262000D01*
X3644524Y-13262000D02*
X3654048Y-13271524D01*
X3654048Y-13271524D02*
X3663571Y-13290571D01*
X3663571Y-13290571D02*
X3673095Y-13328667D01*
X3673095Y-13328667D02*
X3673095Y-13376286D01*
X3673095Y-13376286D02*
X3663571Y-13414381D01*
X3663571Y-13414381D02*
X3654048Y-13433428D01*
X3654048Y-13433428D02*
X3644524Y-13442952D01*
X3644524Y-13442952D02*
X3625476Y-13452476D01*
X3625476Y-13452476D02*
X3606429Y-13452476D01*
X3606429Y-13452476D02*
X3587381Y-13442952D01*
X3587381Y-13442952D02*
X3577857Y-13433428D01*
X3577857Y-13433428D02*
X3568333Y-13414381D01*
X3568333Y-13414381D02*
X3558810Y-13376286D01*
X3558810Y-13376286D02*
X3558810Y-13328667D01*
X3558810Y-13328667D02*
X3568333Y-13290571D01*
X3568333Y-13290571D02*
X3577857Y-13271524D01*
X3577857Y-13271524D02*
X3587381Y-13262000D01*
X3587381Y-13262000D02*
X3606429Y-13252476D01*
X3844524Y-13252476D02*
X3806429Y-13252476D01*
X3806429Y-13252476D02*
X3787381Y-13262000D01*
X3787381Y-13262000D02*
X3777857Y-13271524D01*
X3777857Y-13271524D02*
X3758810Y-13300095D01*
X3758810Y-13300095D02*
X3749286Y-13338190D01*
X3749286Y-13338190D02*
X3749286Y-13414381D01*
X3749286Y-13414381D02*
X3758810Y-13433428D01*
X3758810Y-13433428D02*
X3768333Y-13442952D01*
X3768333Y-13442952D02*
X3787381Y-13452476D01*
X3787381Y-13452476D02*
X3825476Y-13452476D01*
X3825476Y-13452476D02*
X3844524Y-13442952D01*
X3844524Y-13442952D02*
X3854048Y-13433428D01*
X3854048Y-13433428D02*
X3863571Y-13414381D01*
X3863571Y-13414381D02*
X3863571Y-13366762D01*
X3863571Y-13366762D02*
X3854048Y-13347714D01*
X3854048Y-13347714D02*
X3844524Y-13338190D01*
X3844524Y-13338190D02*
X3825476Y-13328667D01*
X3825476Y-13328667D02*
X3787381Y-13328667D01*
X3787381Y-13328667D02*
X3768333Y-13338190D01*
X3768333Y-13338190D02*
X3758810Y-13347714D01*
X3758810Y-13347714D02*
X3749286Y-13366762D01*
X3930238Y-13252476D02*
X4054048Y-13252476D01*
X4054048Y-13252476D02*
X3987381Y-13328667D01*
X3987381Y-13328667D02*
X4015952Y-13328667D01*
X4015952Y-13328667D02*
X4035000Y-13338190D01*
X4035000Y-13338190D02*
X4044524Y-13347714D01*
X4044524Y-13347714D02*
X4054048Y-13366762D01*
X4054048Y-13366762D02*
X4054048Y-13414381D01*
X4054048Y-13414381D02*
X4044524Y-13433428D01*
X4044524Y-13433428D02*
X4035000Y-13442952D01*
X4035000Y-13442952D02*
X4015952Y-13452476D01*
X4015952Y-13452476D02*
X3958810Y-13452476D01*
X3958810Y-13452476D02*
X3939762Y-13442952D01*
X3939762Y-13442952D02*
X3930238Y-13433428D01*
X4177857Y-13252476D02*
X4196905Y-13252476D01*
X4196905Y-13252476D02*
X4215953Y-13262000D01*
X4215953Y-13262000D02*
X4225476Y-13271524D01*
X4225476Y-13271524D02*
X4235000Y-13290571D01*
X4235000Y-13290571D02*
X4244524Y-13328667D01*
X4244524Y-13328667D02*
X4244524Y-13376286D01*
X4244524Y-13376286D02*
X4235000Y-13414381D01*
X4235000Y-13414381D02*
X4225476Y-13433428D01*
X4225476Y-13433428D02*
X4215953Y-13442952D01*
X4215953Y-13442952D02*
X4196905Y-13452476D01*
X4196905Y-13452476D02*
X4177857Y-13452476D01*
X4177857Y-13452476D02*
X4158810Y-13442952D01*
X4158810Y-13442952D02*
X4149286Y-13433428D01*
X4149286Y-13433428D02*
X4139762Y-13414381D01*
X4139762Y-13414381D02*
X4130238Y-13376286D01*
X4130238Y-13376286D02*
X4130238Y-13328667D01*
X4130238Y-13328667D02*
X4139762Y-13290571D01*
X4139762Y-13290571D02*
X4149286Y-13271524D01*
X4149286Y-13271524D02*
X4158810Y-13262000D01*
X4158810Y-13262000D02*
X4177857Y-13252476D01*
X4320714Y-13252476D02*
X4320714Y-13290571D01*
X4396905Y-13252476D02*
X4396905Y-13290571D01*
X4659762Y-13528667D02*
X4650238Y-13519143D01*
X4650238Y-13519143D02*
X4631191Y-13490571D01*
X4631191Y-13490571D02*
X4621667Y-13471524D01*
X4621667Y-13471524D02*
X4612143Y-13442952D01*
X4612143Y-13442952D02*
X4602619Y-13395333D01*
X4602619Y-13395333D02*
X4602619Y-13357238D01*
X4602619Y-13357238D02*
X4612143Y-13309619D01*
X4612143Y-13309619D02*
X4621667Y-13281048D01*
X4621667Y-13281048D02*
X4631191Y-13262000D01*
X4631191Y-13262000D02*
X4650238Y-13233428D01*
X4650238Y-13233428D02*
X4659762Y-13223905D01*
X4821667Y-13319143D02*
X4821667Y-13452476D01*
X4774048Y-13242952D02*
X4726429Y-13385809D01*
X4726429Y-13385809D02*
X4850238Y-13385809D01*
X5046429Y-13452476D02*
X5046429Y-13252476D01*
X5132143Y-13452476D02*
X5132143Y-13347714D01*
X5132143Y-13347714D02*
X5122619Y-13328667D01*
X5122619Y-13328667D02*
X5103572Y-13319143D01*
X5103572Y-13319143D02*
X5075000Y-13319143D01*
X5075000Y-13319143D02*
X5055953Y-13328667D01*
X5055953Y-13328667D02*
X5046429Y-13338190D01*
X5255953Y-13452476D02*
X5236905Y-13442952D01*
X5236905Y-13442952D02*
X5227381Y-13433428D01*
X5227381Y-13433428D02*
X5217857Y-13414381D01*
X5217857Y-13414381D02*
X5217857Y-13357238D01*
X5217857Y-13357238D02*
X5227381Y-13338190D01*
X5227381Y-13338190D02*
X5236905Y-13328667D01*
X5236905Y-13328667D02*
X5255953Y-13319143D01*
X5255953Y-13319143D02*
X5284524Y-13319143D01*
X5284524Y-13319143D02*
X5303572Y-13328667D01*
X5303572Y-13328667D02*
X5313095Y-13338190D01*
X5313095Y-13338190D02*
X5322619Y-13357238D01*
X5322619Y-13357238D02*
X5322619Y-13414381D01*
X5322619Y-13414381D02*
X5313095Y-13433428D01*
X5313095Y-13433428D02*
X5303572Y-13442952D01*
X5303572Y-13442952D02*
X5284524Y-13452476D01*
X5284524Y-13452476D02*
X5255953Y-13452476D01*
X5436905Y-13452476D02*
X5417857Y-13442952D01*
X5417857Y-13442952D02*
X5408334Y-13423905D01*
X5408334Y-13423905D02*
X5408334Y-13252476D01*
X5589286Y-13442952D02*
X5570238Y-13452476D01*
X5570238Y-13452476D02*
X5532143Y-13452476D01*
X5532143Y-13452476D02*
X5513095Y-13442952D01*
X5513095Y-13442952D02*
X5503572Y-13423905D01*
X5503572Y-13423905D02*
X5503572Y-13347714D01*
X5503572Y-13347714D02*
X5513095Y-13328667D01*
X5513095Y-13328667D02*
X5532143Y-13319143D01*
X5532143Y-13319143D02*
X5570238Y-13319143D01*
X5570238Y-13319143D02*
X5589286Y-13328667D01*
X5589286Y-13328667D02*
X5598810Y-13347714D01*
X5598810Y-13347714D02*
X5598810Y-13366762D01*
X5598810Y-13366762D02*
X5503572Y-13385809D01*
X5675000Y-13442952D02*
X5694048Y-13452476D01*
X5694048Y-13452476D02*
X5732143Y-13452476D01*
X5732143Y-13452476D02*
X5751191Y-13442952D01*
X5751191Y-13442952D02*
X5760714Y-13423905D01*
X5760714Y-13423905D02*
X5760714Y-13414381D01*
X5760714Y-13414381D02*
X5751191Y-13395333D01*
X5751191Y-13395333D02*
X5732143Y-13385809D01*
X5732143Y-13385809D02*
X5703572Y-13385809D01*
X5703572Y-13385809D02*
X5684524Y-13376286D01*
X5684524Y-13376286D02*
X5675000Y-13357238D01*
X5675000Y-13357238D02*
X5675000Y-13347714D01*
X5675000Y-13347714D02*
X5684524Y-13328667D01*
X5684524Y-13328667D02*
X5703572Y-13319143D01*
X5703572Y-13319143D02*
X5732143Y-13319143D01*
X5732143Y-13319143D02*
X5751191Y-13328667D01*
X5827381Y-13528667D02*
X5836905Y-13519143D01*
X5836905Y-13519143D02*
X5855953Y-13490571D01*
X5855953Y-13490571D02*
X5865476Y-13471524D01*
X5865476Y-13471524D02*
X5875000Y-13442952D01*
X5875000Y-13442952D02*
X5884524Y-13395333D01*
X5884524Y-13395333D02*
X5884524Y-13357238D01*
X5884524Y-13357238D02*
X5875000Y-13309619D01*
X5875000Y-13309619D02*
X5865476Y-13281048D01*
X5865476Y-13281048D02*
X5855953Y-13262000D01*
X5855953Y-13262000D02*
X5836905Y-13233428D01*
X5836905Y-13233428D02*
X5827381Y-13223905D01*
X6156905Y-13528667D02*
X6147381Y-13519143D01*
X6147381Y-13519143D02*
X6128333Y-13490571D01*
X6128333Y-13490571D02*
X6118810Y-13471524D01*
X6118810Y-13471524D02*
X6109286Y-13442952D01*
X6109286Y-13442952D02*
X6099762Y-13395333D01*
X6099762Y-13395333D02*
X6099762Y-13357238D01*
X6099762Y-13357238D02*
X6109286Y-13309619D01*
X6109286Y-13309619D02*
X6118810Y-13281048D01*
X6118810Y-13281048D02*
X6128333Y-13262000D01*
X6128333Y-13262000D02*
X6147381Y-13233428D01*
X6147381Y-13233428D02*
X6156905Y-13223905D01*
X6233095Y-13319143D02*
X6233095Y-13452476D01*
X6233095Y-13338190D02*
X6242619Y-13328667D01*
X6242619Y-13328667D02*
X6261667Y-13319143D01*
X6261667Y-13319143D02*
X6290238Y-13319143D01*
X6290238Y-13319143D02*
X6309286Y-13328667D01*
X6309286Y-13328667D02*
X6318810Y-13347714D01*
X6318810Y-13347714D02*
X6318810Y-13452476D01*
X6442619Y-13452476D02*
X6423572Y-13442952D01*
X6423572Y-13442952D02*
X6414048Y-13433428D01*
X6414048Y-13433428D02*
X6404524Y-13414381D01*
X6404524Y-13414381D02*
X6404524Y-13357238D01*
X6404524Y-13357238D02*
X6414048Y-13338190D01*
X6414048Y-13338190D02*
X6423572Y-13328667D01*
X6423572Y-13328667D02*
X6442619Y-13319143D01*
X6442619Y-13319143D02*
X6471191Y-13319143D01*
X6471191Y-13319143D02*
X6490238Y-13328667D01*
X6490238Y-13328667D02*
X6499762Y-13338190D01*
X6499762Y-13338190D02*
X6509286Y-13357238D01*
X6509286Y-13357238D02*
X6509286Y-13414381D01*
X6509286Y-13414381D02*
X6499762Y-13433428D01*
X6499762Y-13433428D02*
X6490238Y-13442952D01*
X6490238Y-13442952D02*
X6471191Y-13452476D01*
X6471191Y-13452476D02*
X6442619Y-13452476D01*
X6566429Y-13319143D02*
X6642619Y-13319143D01*
X6595000Y-13252476D02*
X6595000Y-13423905D01*
X6595000Y-13423905D02*
X6604524Y-13442952D01*
X6604524Y-13442952D02*
X6623572Y-13452476D01*
X6623572Y-13452476D02*
X6642619Y-13452476D01*
X6829286Y-13319143D02*
X6829286Y-13519143D01*
X6829286Y-13328667D02*
X6848333Y-13319143D01*
X6848333Y-13319143D02*
X6886429Y-13319143D01*
X6886429Y-13319143D02*
X6905476Y-13328667D01*
X6905476Y-13328667D02*
X6915000Y-13338190D01*
X6915000Y-13338190D02*
X6924524Y-13357238D01*
X6924524Y-13357238D02*
X6924524Y-13414381D01*
X6924524Y-13414381D02*
X6915000Y-13433428D01*
X6915000Y-13433428D02*
X6905476Y-13442952D01*
X6905476Y-13442952D02*
X6886429Y-13452476D01*
X6886429Y-13452476D02*
X6848333Y-13452476D01*
X6848333Y-13452476D02*
X6829286Y-13442952D01*
X7038810Y-13452476D02*
X7019762Y-13442952D01*
X7019762Y-13442952D02*
X7010238Y-13423905D01*
X7010238Y-13423905D02*
X7010238Y-13252476D01*
X7200714Y-13452476D02*
X7200714Y-13347714D01*
X7200714Y-13347714D02*
X7191191Y-13328667D01*
X7191191Y-13328667D02*
X7172143Y-13319143D01*
X7172143Y-13319143D02*
X7134048Y-13319143D01*
X7134048Y-13319143D02*
X7115000Y-13328667D01*
X7200714Y-13442952D02*
X7181667Y-13452476D01*
X7181667Y-13452476D02*
X7134048Y-13452476D01*
X7134048Y-13452476D02*
X7115000Y-13442952D01*
X7115000Y-13442952D02*
X7105476Y-13423905D01*
X7105476Y-13423905D02*
X7105476Y-13404857D01*
X7105476Y-13404857D02*
X7115000Y-13385809D01*
X7115000Y-13385809D02*
X7134048Y-13376286D01*
X7134048Y-13376286D02*
X7181667Y-13376286D01*
X7181667Y-13376286D02*
X7200714Y-13366762D01*
X7267381Y-13319143D02*
X7343572Y-13319143D01*
X7295953Y-13252476D02*
X7295953Y-13423905D01*
X7295953Y-13423905D02*
X7305476Y-13442952D01*
X7305476Y-13442952D02*
X7324524Y-13452476D01*
X7324524Y-13452476D02*
X7343572Y-13452476D01*
X7486429Y-13442952D02*
X7467381Y-13452476D01*
X7467381Y-13452476D02*
X7429286Y-13452476D01*
X7429286Y-13452476D02*
X7410238Y-13442952D01*
X7410238Y-13442952D02*
X7400714Y-13423905D01*
X7400714Y-13423905D02*
X7400714Y-13347714D01*
X7400714Y-13347714D02*
X7410238Y-13328667D01*
X7410238Y-13328667D02*
X7429286Y-13319143D01*
X7429286Y-13319143D02*
X7467381Y-13319143D01*
X7467381Y-13319143D02*
X7486429Y-13328667D01*
X7486429Y-13328667D02*
X7495953Y-13347714D01*
X7495953Y-13347714D02*
X7495953Y-13366762D01*
X7495953Y-13366762D02*
X7400714Y-13385809D01*
X7667381Y-13452476D02*
X7667381Y-13252476D01*
X7667381Y-13442952D02*
X7648334Y-13452476D01*
X7648334Y-13452476D02*
X7610238Y-13452476D01*
X7610238Y-13452476D02*
X7591191Y-13442952D01*
X7591191Y-13442952D02*
X7581667Y-13433428D01*
X7581667Y-13433428D02*
X7572143Y-13414381D01*
X7572143Y-13414381D02*
X7572143Y-13357238D01*
X7572143Y-13357238D02*
X7581667Y-13338190D01*
X7581667Y-13338190D02*
X7591191Y-13328667D01*
X7591191Y-13328667D02*
X7610238Y-13319143D01*
X7610238Y-13319143D02*
X7648334Y-13319143D01*
X7648334Y-13319143D02*
X7667381Y-13328667D01*
X7743572Y-13528667D02*
X7753095Y-13519143D01*
X7753095Y-13519143D02*
X7772143Y-13490571D01*
X7772143Y-13490571D02*
X7781667Y-13471524D01*
X7781667Y-13471524D02*
X7791191Y-13442952D01*
X7791191Y-13442952D02*
X7800714Y-13395333D01*
X7800714Y-13395333D02*
X7800714Y-13357238D01*
X7800714Y-13357238D02*
X7791191Y-13309619D01*
X7791191Y-13309619D02*
X7781667Y-13281048D01*
X7781667Y-13281048D02*
X7772143Y-13262000D01*
X7772143Y-13262000D02*
X7753095Y-13233428D01*
X7753095Y-13233428D02*
X7743572Y-13223905D01*
X1165711Y-13729711D02*
X1165711Y-13588289D01*
X1024289Y-13588289D01*
X1024289Y-13729711D01*
X1165711Y-13729711D01*
X1433095Y-13551524D02*
X1442619Y-13542000D01*
X1442619Y-13542000D02*
X1461667Y-13532476D01*
X1461667Y-13532476D02*
X1509286Y-13532476D01*
X1509286Y-13532476D02*
X1528333Y-13542000D01*
X1528333Y-13542000D02*
X1537857Y-13551524D01*
X1537857Y-13551524D02*
X1547381Y-13570571D01*
X1547381Y-13570571D02*
X1547381Y-13589619D01*
X1547381Y-13589619D02*
X1537857Y-13618190D01*
X1537857Y-13618190D02*
X1423571Y-13732476D01*
X1423571Y-13732476D02*
X1547381Y-13732476D01*
X1633095Y-13713428D02*
X1642619Y-13722952D01*
X1642619Y-13722952D02*
X1633095Y-13732476D01*
X1633095Y-13732476D02*
X1623571Y-13722952D01*
X1623571Y-13722952D02*
X1633095Y-13713428D01*
X1633095Y-13713428D02*
X1633095Y-13732476D01*
X1766428Y-13532476D02*
X1785476Y-13532476D01*
X1785476Y-13532476D02*
X1804524Y-13542000D01*
X1804524Y-13542000D02*
X1814048Y-13551524D01*
X1814048Y-13551524D02*
X1823571Y-13570571D01*
X1823571Y-13570571D02*
X1833095Y-13608667D01*
X1833095Y-13608667D02*
X1833095Y-13656286D01*
X1833095Y-13656286D02*
X1823571Y-13694381D01*
X1823571Y-13694381D02*
X1814048Y-13713428D01*
X1814048Y-13713428D02*
X1804524Y-13722952D01*
X1804524Y-13722952D02*
X1785476Y-13732476D01*
X1785476Y-13732476D02*
X1766428Y-13732476D01*
X1766428Y-13732476D02*
X1747381Y-13722952D01*
X1747381Y-13722952D02*
X1737857Y-13713428D01*
X1737857Y-13713428D02*
X1728333Y-13694381D01*
X1728333Y-13694381D02*
X1718809Y-13656286D01*
X1718809Y-13656286D02*
X1718809Y-13608667D01*
X1718809Y-13608667D02*
X1728333Y-13570571D01*
X1728333Y-13570571D02*
X1737857Y-13551524D01*
X1737857Y-13551524D02*
X1747381Y-13542000D01*
X1747381Y-13542000D02*
X1766428Y-13532476D01*
X1956905Y-13532476D02*
X1975952Y-13532476D01*
X1975952Y-13532476D02*
X1995000Y-13542000D01*
X1995000Y-13542000D02*
X2004524Y-13551524D01*
X2004524Y-13551524D02*
X2014048Y-13570571D01*
X2014048Y-13570571D02*
X2023571Y-13608667D01*
X2023571Y-13608667D02*
X2023571Y-13656286D01*
X2023571Y-13656286D02*
X2014048Y-13694381D01*
X2014048Y-13694381D02*
X2004524Y-13713428D01*
X2004524Y-13713428D02*
X1995000Y-13722952D01*
X1995000Y-13722952D02*
X1975952Y-13732476D01*
X1975952Y-13732476D02*
X1956905Y-13732476D01*
X1956905Y-13732476D02*
X1937857Y-13722952D01*
X1937857Y-13722952D02*
X1928333Y-13713428D01*
X1928333Y-13713428D02*
X1918809Y-13694381D01*
X1918809Y-13694381D02*
X1909286Y-13656286D01*
X1909286Y-13656286D02*
X1909286Y-13608667D01*
X1909286Y-13608667D02*
X1918809Y-13570571D01*
X1918809Y-13570571D02*
X1928333Y-13551524D01*
X1928333Y-13551524D02*
X1937857Y-13542000D01*
X1937857Y-13542000D02*
X1956905Y-13532476D01*
X2147381Y-13532476D02*
X2166429Y-13532476D01*
X2166429Y-13532476D02*
X2185476Y-13542000D01*
X2185476Y-13542000D02*
X2195000Y-13551524D01*
X2195000Y-13551524D02*
X2204524Y-13570571D01*
X2204524Y-13570571D02*
X2214048Y-13608667D01*
X2214048Y-13608667D02*
X2214048Y-13656286D01*
X2214048Y-13656286D02*
X2204524Y-13694381D01*
X2204524Y-13694381D02*
X2195000Y-13713428D01*
X2195000Y-13713428D02*
X2185476Y-13722952D01*
X2185476Y-13722952D02*
X2166429Y-13732476D01*
X2166429Y-13732476D02*
X2147381Y-13732476D01*
X2147381Y-13732476D02*
X2128333Y-13722952D01*
X2128333Y-13722952D02*
X2118810Y-13713428D01*
X2118810Y-13713428D02*
X2109286Y-13694381D01*
X2109286Y-13694381D02*
X2099762Y-13656286D01*
X2099762Y-13656286D02*
X2099762Y-13608667D01*
X2099762Y-13608667D02*
X2109286Y-13570571D01*
X2109286Y-13570571D02*
X2118810Y-13551524D01*
X2118810Y-13551524D02*
X2128333Y-13542000D01*
X2128333Y-13542000D02*
X2147381Y-13532476D01*
X2299762Y-13732476D02*
X2299762Y-13599143D01*
X2299762Y-13618190D02*
X2309286Y-13608667D01*
X2309286Y-13608667D02*
X2328333Y-13599143D01*
X2328333Y-13599143D02*
X2356905Y-13599143D01*
X2356905Y-13599143D02*
X2375952Y-13608667D01*
X2375952Y-13608667D02*
X2385476Y-13627714D01*
X2385476Y-13627714D02*
X2385476Y-13732476D01*
X2385476Y-13627714D02*
X2395000Y-13608667D01*
X2395000Y-13608667D02*
X2414048Y-13599143D01*
X2414048Y-13599143D02*
X2442619Y-13599143D01*
X2442619Y-13599143D02*
X2461667Y-13608667D01*
X2461667Y-13608667D02*
X2471191Y-13627714D01*
X2471191Y-13627714D02*
X2471191Y-13732476D01*
X2566429Y-13732476D02*
X2566429Y-13599143D01*
X2566429Y-13618190D02*
X2575952Y-13608667D01*
X2575952Y-13608667D02*
X2595000Y-13599143D01*
X2595000Y-13599143D02*
X2623572Y-13599143D01*
X2623572Y-13599143D02*
X2642619Y-13608667D01*
X2642619Y-13608667D02*
X2652143Y-13627714D01*
X2652143Y-13627714D02*
X2652143Y-13732476D01*
X2652143Y-13627714D02*
X2661667Y-13608667D01*
X2661667Y-13608667D02*
X2680714Y-13599143D01*
X2680714Y-13599143D02*
X2709286Y-13599143D01*
X2709286Y-13599143D02*
X2728333Y-13608667D01*
X2728333Y-13608667D02*
X2737857Y-13627714D01*
X2737857Y-13627714D02*
X2737857Y-13732476D01*
X3095952Y-13522952D02*
X2924524Y-13780095D01*
X3320714Y-13532476D02*
X3339762Y-13532476D01*
X3339762Y-13532476D02*
X3358810Y-13542000D01*
X3358810Y-13542000D02*
X3368333Y-13551524D01*
X3368333Y-13551524D02*
X3377857Y-13570571D01*
X3377857Y-13570571D02*
X3387381Y-13608667D01*
X3387381Y-13608667D02*
X3387381Y-13656286D01*
X3387381Y-13656286D02*
X3377857Y-13694381D01*
X3377857Y-13694381D02*
X3368333Y-13713428D01*
X3368333Y-13713428D02*
X3358810Y-13722952D01*
X3358810Y-13722952D02*
X3339762Y-13732476D01*
X3339762Y-13732476D02*
X3320714Y-13732476D01*
X3320714Y-13732476D02*
X3301667Y-13722952D01*
X3301667Y-13722952D02*
X3292143Y-13713428D01*
X3292143Y-13713428D02*
X3282619Y-13694381D01*
X3282619Y-13694381D02*
X3273095Y-13656286D01*
X3273095Y-13656286D02*
X3273095Y-13608667D01*
X3273095Y-13608667D02*
X3282619Y-13570571D01*
X3282619Y-13570571D02*
X3292143Y-13551524D01*
X3292143Y-13551524D02*
X3301667Y-13542000D01*
X3301667Y-13542000D02*
X3320714Y-13532476D01*
X3473095Y-13713428D02*
X3482619Y-13722952D01*
X3482619Y-13722952D02*
X3473095Y-13732476D01*
X3473095Y-13732476D02*
X3463571Y-13722952D01*
X3463571Y-13722952D02*
X3473095Y-13713428D01*
X3473095Y-13713428D02*
X3473095Y-13732476D01*
X3606429Y-13532476D02*
X3625476Y-13532476D01*
X3625476Y-13532476D02*
X3644524Y-13542000D01*
X3644524Y-13542000D02*
X3654048Y-13551524D01*
X3654048Y-13551524D02*
X3663571Y-13570571D01*
X3663571Y-13570571D02*
X3673095Y-13608667D01*
X3673095Y-13608667D02*
X3673095Y-13656286D01*
X3673095Y-13656286D02*
X3663571Y-13694381D01*
X3663571Y-13694381D02*
X3654048Y-13713428D01*
X3654048Y-13713428D02*
X3644524Y-13722952D01*
X3644524Y-13722952D02*
X3625476Y-13732476D01*
X3625476Y-13732476D02*
X3606429Y-13732476D01*
X3606429Y-13732476D02*
X3587381Y-13722952D01*
X3587381Y-13722952D02*
X3577857Y-13713428D01*
X3577857Y-13713428D02*
X3568333Y-13694381D01*
X3568333Y-13694381D02*
X3558810Y-13656286D01*
X3558810Y-13656286D02*
X3558810Y-13608667D01*
X3558810Y-13608667D02*
X3568333Y-13570571D01*
X3568333Y-13570571D02*
X3577857Y-13551524D01*
X3577857Y-13551524D02*
X3587381Y-13542000D01*
X3587381Y-13542000D02*
X3606429Y-13532476D01*
X3739762Y-13532476D02*
X3873095Y-13532476D01*
X3873095Y-13532476D02*
X3787381Y-13732476D01*
X3977857Y-13618190D02*
X3958810Y-13608667D01*
X3958810Y-13608667D02*
X3949286Y-13599143D01*
X3949286Y-13599143D02*
X3939762Y-13580095D01*
X3939762Y-13580095D02*
X3939762Y-13570571D01*
X3939762Y-13570571D02*
X3949286Y-13551524D01*
X3949286Y-13551524D02*
X3958810Y-13542000D01*
X3958810Y-13542000D02*
X3977857Y-13532476D01*
X3977857Y-13532476D02*
X4015952Y-13532476D01*
X4015952Y-13532476D02*
X4035000Y-13542000D01*
X4035000Y-13542000D02*
X4044524Y-13551524D01*
X4044524Y-13551524D02*
X4054048Y-13570571D01*
X4054048Y-13570571D02*
X4054048Y-13580095D01*
X4054048Y-13580095D02*
X4044524Y-13599143D01*
X4044524Y-13599143D02*
X4035000Y-13608667D01*
X4035000Y-13608667D02*
X4015952Y-13618190D01*
X4015952Y-13618190D02*
X3977857Y-13618190D01*
X3977857Y-13618190D02*
X3958810Y-13627714D01*
X3958810Y-13627714D02*
X3949286Y-13637238D01*
X3949286Y-13637238D02*
X3939762Y-13656286D01*
X3939762Y-13656286D02*
X3939762Y-13694381D01*
X3939762Y-13694381D02*
X3949286Y-13713428D01*
X3949286Y-13713428D02*
X3958810Y-13722952D01*
X3958810Y-13722952D02*
X3977857Y-13732476D01*
X3977857Y-13732476D02*
X4015952Y-13732476D01*
X4015952Y-13732476D02*
X4035000Y-13722952D01*
X4035000Y-13722952D02*
X4044524Y-13713428D01*
X4044524Y-13713428D02*
X4054048Y-13694381D01*
X4054048Y-13694381D02*
X4054048Y-13656286D01*
X4054048Y-13656286D02*
X4044524Y-13637238D01*
X4044524Y-13637238D02*
X4035000Y-13627714D01*
X4035000Y-13627714D02*
X4015952Y-13618190D01*
X4120714Y-13532476D02*
X4254048Y-13532476D01*
X4254048Y-13532476D02*
X4168333Y-13732476D01*
X4320714Y-13532476D02*
X4320714Y-13570571D01*
X4396905Y-13532476D02*
X4396905Y-13570571D01*
X4659762Y-13808667D02*
X4650238Y-13799143D01*
X4650238Y-13799143D02*
X4631191Y-13770571D01*
X4631191Y-13770571D02*
X4621667Y-13751524D01*
X4621667Y-13751524D02*
X4612143Y-13722952D01*
X4612143Y-13722952D02*
X4602619Y-13675333D01*
X4602619Y-13675333D02*
X4602619Y-13637238D01*
X4602619Y-13637238D02*
X4612143Y-13589619D01*
X4612143Y-13589619D02*
X4621667Y-13561048D01*
X4621667Y-13561048D02*
X4631191Y-13542000D01*
X4631191Y-13542000D02*
X4650238Y-13513428D01*
X4650238Y-13513428D02*
X4659762Y-13503905D01*
X4840714Y-13732476D02*
X4726429Y-13732476D01*
X4783572Y-13732476D02*
X4783572Y-13532476D01*
X4783572Y-13532476D02*
X4764524Y-13561048D01*
X4764524Y-13561048D02*
X4745476Y-13580095D01*
X4745476Y-13580095D02*
X4726429Y-13589619D01*
X5046429Y-13732476D02*
X5046429Y-13532476D01*
X5132143Y-13732476D02*
X5132143Y-13627714D01*
X5132143Y-13627714D02*
X5122619Y-13608667D01*
X5122619Y-13608667D02*
X5103572Y-13599143D01*
X5103572Y-13599143D02*
X5075000Y-13599143D01*
X5075000Y-13599143D02*
X5055953Y-13608667D01*
X5055953Y-13608667D02*
X5046429Y-13618190D01*
X5255953Y-13732476D02*
X5236905Y-13722952D01*
X5236905Y-13722952D02*
X5227381Y-13713428D01*
X5227381Y-13713428D02*
X5217857Y-13694381D01*
X5217857Y-13694381D02*
X5217857Y-13637238D01*
X5217857Y-13637238D02*
X5227381Y-13618190D01*
X5227381Y-13618190D02*
X5236905Y-13608667D01*
X5236905Y-13608667D02*
X5255953Y-13599143D01*
X5255953Y-13599143D02*
X5284524Y-13599143D01*
X5284524Y-13599143D02*
X5303572Y-13608667D01*
X5303572Y-13608667D02*
X5313095Y-13618190D01*
X5313095Y-13618190D02*
X5322619Y-13637238D01*
X5322619Y-13637238D02*
X5322619Y-13694381D01*
X5322619Y-13694381D02*
X5313095Y-13713428D01*
X5313095Y-13713428D02*
X5303572Y-13722952D01*
X5303572Y-13722952D02*
X5284524Y-13732476D01*
X5284524Y-13732476D02*
X5255953Y-13732476D01*
X5436905Y-13732476D02*
X5417857Y-13722952D01*
X5417857Y-13722952D02*
X5408334Y-13703905D01*
X5408334Y-13703905D02*
X5408334Y-13532476D01*
X5589286Y-13722952D02*
X5570238Y-13732476D01*
X5570238Y-13732476D02*
X5532143Y-13732476D01*
X5532143Y-13732476D02*
X5513095Y-13722952D01*
X5513095Y-13722952D02*
X5503572Y-13703905D01*
X5503572Y-13703905D02*
X5503572Y-13627714D01*
X5503572Y-13627714D02*
X5513095Y-13608667D01*
X5513095Y-13608667D02*
X5532143Y-13599143D01*
X5532143Y-13599143D02*
X5570238Y-13599143D01*
X5570238Y-13599143D02*
X5589286Y-13608667D01*
X5589286Y-13608667D02*
X5598810Y-13627714D01*
X5598810Y-13627714D02*
X5598810Y-13646762D01*
X5598810Y-13646762D02*
X5503572Y-13665809D01*
X5665476Y-13808667D02*
X5675000Y-13799143D01*
X5675000Y-13799143D02*
X5694048Y-13770571D01*
X5694048Y-13770571D02*
X5703572Y-13751524D01*
X5703572Y-13751524D02*
X5713095Y-13722952D01*
X5713095Y-13722952D02*
X5722619Y-13675333D01*
X5722619Y-13675333D02*
X5722619Y-13637238D01*
X5722619Y-13637238D02*
X5713095Y-13589619D01*
X5713095Y-13589619D02*
X5703572Y-13561048D01*
X5703572Y-13561048D02*
X5694048Y-13542000D01*
X5694048Y-13542000D02*
X5675000Y-13513428D01*
X5675000Y-13513428D02*
X5665476Y-13503905D01*
X5995000Y-13808667D02*
X5985476Y-13799143D01*
X5985476Y-13799143D02*
X5966429Y-13770571D01*
X5966429Y-13770571D02*
X5956905Y-13751524D01*
X5956905Y-13751524D02*
X5947381Y-13722952D01*
X5947381Y-13722952D02*
X5937857Y-13675333D01*
X5937857Y-13675333D02*
X5937857Y-13637238D01*
X5937857Y-13637238D02*
X5947381Y-13589619D01*
X5947381Y-13589619D02*
X5956905Y-13561048D01*
X5956905Y-13561048D02*
X5966429Y-13542000D01*
X5966429Y-13542000D02*
X5985476Y-13513428D01*
X5985476Y-13513428D02*
X5995000Y-13503905D01*
X6071191Y-13599143D02*
X6071191Y-13732476D01*
X6071191Y-13618190D02*
X6080714Y-13608667D01*
X6080714Y-13608667D02*
X6099762Y-13599143D01*
X6099762Y-13599143D02*
X6128333Y-13599143D01*
X6128333Y-13599143D02*
X6147381Y-13608667D01*
X6147381Y-13608667D02*
X6156905Y-13627714D01*
X6156905Y-13627714D02*
X6156905Y-13732476D01*
X6280714Y-13732476D02*
X6261667Y-13722952D01*
X6261667Y-13722952D02*
X6252143Y-13713428D01*
X6252143Y-13713428D02*
X6242619Y-13694381D01*
X6242619Y-13694381D02*
X6242619Y-13637238D01*
X6242619Y-13637238D02*
X6252143Y-13618190D01*
X6252143Y-13618190D02*
X6261667Y-13608667D01*
X6261667Y-13608667D02*
X6280714Y-13599143D01*
X6280714Y-13599143D02*
X6309286Y-13599143D01*
X6309286Y-13599143D02*
X6328333Y-13608667D01*
X6328333Y-13608667D02*
X6337857Y-13618190D01*
X6337857Y-13618190D02*
X6347381Y-13637238D01*
X6347381Y-13637238D02*
X6347381Y-13694381D01*
X6347381Y-13694381D02*
X6337857Y-13713428D01*
X6337857Y-13713428D02*
X6328333Y-13722952D01*
X6328333Y-13722952D02*
X6309286Y-13732476D01*
X6309286Y-13732476D02*
X6280714Y-13732476D01*
X6404524Y-13599143D02*
X6480714Y-13599143D01*
X6433095Y-13532476D02*
X6433095Y-13703905D01*
X6433095Y-13703905D02*
X6442619Y-13722952D01*
X6442619Y-13722952D02*
X6461667Y-13732476D01*
X6461667Y-13732476D02*
X6480714Y-13732476D01*
X6667381Y-13599143D02*
X6667381Y-13799143D01*
X6667381Y-13608667D02*
X6686429Y-13599143D01*
X6686429Y-13599143D02*
X6724524Y-13599143D01*
X6724524Y-13599143D02*
X6743572Y-13608667D01*
X6743572Y-13608667D02*
X6753095Y-13618190D01*
X6753095Y-13618190D02*
X6762619Y-13637238D01*
X6762619Y-13637238D02*
X6762619Y-13694381D01*
X6762619Y-13694381D02*
X6753095Y-13713428D01*
X6753095Y-13713428D02*
X6743572Y-13722952D01*
X6743572Y-13722952D02*
X6724524Y-13732476D01*
X6724524Y-13732476D02*
X6686429Y-13732476D01*
X6686429Y-13732476D02*
X6667381Y-13722952D01*
X6876905Y-13732476D02*
X6857857Y-13722952D01*
X6857857Y-13722952D02*
X6848333Y-13703905D01*
X6848333Y-13703905D02*
X6848333Y-13532476D01*
X7038810Y-13732476D02*
X7038810Y-13627714D01*
X7038810Y-13627714D02*
X7029286Y-13608667D01*
X7029286Y-13608667D02*
X7010238Y-13599143D01*
X7010238Y-13599143D02*
X6972143Y-13599143D01*
X6972143Y-13599143D02*
X6953095Y-13608667D01*
X7038810Y-13722952D02*
X7019762Y-13732476D01*
X7019762Y-13732476D02*
X6972143Y-13732476D01*
X6972143Y-13732476D02*
X6953095Y-13722952D01*
X6953095Y-13722952D02*
X6943572Y-13703905D01*
X6943572Y-13703905D02*
X6943572Y-13684857D01*
X6943572Y-13684857D02*
X6953095Y-13665809D01*
X6953095Y-13665809D02*
X6972143Y-13656286D01*
X6972143Y-13656286D02*
X7019762Y-13656286D01*
X7019762Y-13656286D02*
X7038810Y-13646762D01*
X7105476Y-13599143D02*
X7181667Y-13599143D01*
X7134048Y-13532476D02*
X7134048Y-13703905D01*
X7134048Y-13703905D02*
X7143572Y-13722952D01*
X7143572Y-13722952D02*
X7162619Y-13732476D01*
X7162619Y-13732476D02*
X7181667Y-13732476D01*
X7324524Y-13722952D02*
X7305476Y-13732476D01*
X7305476Y-13732476D02*
X7267381Y-13732476D01*
X7267381Y-13732476D02*
X7248333Y-13722952D01*
X7248333Y-13722952D02*
X7238810Y-13703905D01*
X7238810Y-13703905D02*
X7238810Y-13627714D01*
X7238810Y-13627714D02*
X7248333Y-13608667D01*
X7248333Y-13608667D02*
X7267381Y-13599143D01*
X7267381Y-13599143D02*
X7305476Y-13599143D01*
X7305476Y-13599143D02*
X7324524Y-13608667D01*
X7324524Y-13608667D02*
X7334048Y-13627714D01*
X7334048Y-13627714D02*
X7334048Y-13646762D01*
X7334048Y-13646762D02*
X7238810Y-13665809D01*
X7505476Y-13732476D02*
X7505476Y-13532476D01*
X7505476Y-13722952D02*
X7486429Y-13732476D01*
X7486429Y-13732476D02*
X7448333Y-13732476D01*
X7448333Y-13732476D02*
X7429286Y-13722952D01*
X7429286Y-13722952D02*
X7419762Y-13713428D01*
X7419762Y-13713428D02*
X7410238Y-13694381D01*
X7410238Y-13694381D02*
X7410238Y-13637238D01*
X7410238Y-13637238D02*
X7419762Y-13618190D01*
X7419762Y-13618190D02*
X7429286Y-13608667D01*
X7429286Y-13608667D02*
X7448333Y-13599143D01*
X7448333Y-13599143D02*
X7486429Y-13599143D01*
X7486429Y-13599143D02*
X7505476Y-13608667D01*
X7581667Y-13808667D02*
X7591191Y-13799143D01*
X7591191Y-13799143D02*
X7610238Y-13770571D01*
X7610238Y-13770571D02*
X7619762Y-13751524D01*
X7619762Y-13751524D02*
X7629286Y-13722952D01*
X7629286Y-13722952D02*
X7638810Y-13675333D01*
X7638810Y-13675333D02*
X7638810Y-13637238D01*
X7638810Y-13637238D02*
X7629286Y-13589619D01*
X7629286Y-13589619D02*
X7619762Y-13561048D01*
X7619762Y-13561048D02*
X7610238Y-13542000D01*
X7610238Y-13542000D02*
X7591191Y-13513428D01*
X7591191Y-13513428D02*
X7581667Y-13503905D01*
M02*
