M48
; DRILL file {KiCad 7.0.0} date Fri 17 Feb 2023 11:54:37 PM CET
; FORMAT={-:-/ absolute / metric / decimal}
; #@! TF.CreationDate,2023-02-17T23:54:37+01:00
; #@! TF.GenerationSoftware,Kicad,Pcbnew,7.0.0
; #@! TF.FileFunction,Plated,1,4,PTH
FMAT,2
METRIC
; #@! TA.AperFunction,Plated,PTH,ComponentDrill
T1C0.200
; #@! TA.AperFunction,Plated,PTH,ViaDrill
T2C0.300
; #@! TA.AperFunction,Plated,PTH,ViaDrill
T3C0.400
; #@! TA.AperFunction,Plated,PTH,ViaDrill
T4C0.500
; #@! TA.AperFunction,Plated,PTH,ComponentDrill
T5C0.500
; #@! TA.AperFunction,Plated,PTH,ComponentDrill
T6C0.600
; #@! TA.AperFunction,Plated,PTH,ComponentDrill
T7C0.650
; #@! TA.AperFunction,Plated,PTH,ComponentDrill
T8C0.800
; #@! TA.AperFunction,Plated,PTH,ComponentDrill
T9C1.000
; #@! TA.AperFunction,Plated,PTH,ComponentDrill
T10C1.200
; #@! TA.AperFunction,Plated,PTH,ComponentDrill
T11C1.600
; #@! TA.AperFunction,Plated,PTH,ComponentDrill
T12C3.200
%
G90
G05
T1
X32.65Y-94.05
X32.65Y-95.45
X32.65Y-96.85
X32.65Y-98.25
X34.05Y-94.05
X34.05Y-95.45
X34.05Y-96.85
X34.05Y-98.25
X35.45Y-94.05
X35.45Y-95.45
X35.45Y-96.85
X35.45Y-98.25
X36.85Y-94.05
X36.85Y-95.45
X36.85Y-96.85
X36.85Y-98.25
X37.1Y-42.6
X37.1Y-43.8
X37.1Y-45.0
X37.1Y-46.2
X38.3Y-42.6
X38.3Y-43.8
X38.3Y-45.0
X38.3Y-46.2
X39.5Y-42.6
X39.5Y-43.8
X39.5Y-45.0
X39.5Y-46.2
T2
X13.0Y-38.0
X13.0Y-39.5
X13.0Y-41.0
X13.0Y-42.5
X13.0Y-61.0
X13.0Y-63.0
X13.0Y-65.0
X13.0Y-67.0
X13.0Y-69.0
X13.0Y-71.0
X13.0Y-73.0
X13.5Y-114.5
X13.5Y-116.0
X13.5Y-117.5
X13.5Y-119.0
X14.5Y-38.0
X14.5Y-39.5
X14.5Y-41.0
X14.5Y-42.5
X15.0Y-61.0
X15.0Y-63.0
X15.0Y-67.0
X15.0Y-69.0
X15.0Y-71.0
X15.0Y-73.0
X15.0Y-76.0
X15.0Y-77.0
X15.0Y-82.5
X15.0Y-114.5
X15.0Y-116.0
X15.0Y-117.5
X15.0Y-119.0
X16.0Y-18.5
X16.0Y-20.0
X16.0Y-21.5
X16.0Y-23.0
X16.0Y-24.5
X16.0Y-26.0
X16.0Y-27.5
X16.0Y-76.0
X16.0Y-77.0
X16.0Y-104.5
X16.0Y-106.0
X16.0Y-107.5
X16.0Y-109.0
X16.5Y-82.5
X16.5Y-114.5
X16.5Y-116.0
X16.5Y-117.5
X16.5Y-119.0
X16.75Y-99.25
X16.75Y-100.25
X17.0Y-16.0
X17.0Y-73.0
X17.25Y-97.25
X17.75Y-100.25
X18.0Y-82.5
X18.0Y-114.5
X18.0Y-116.0
X18.0Y-117.5
X18.0Y-119.0
X18.25Y-97.25
X18.25Y-98.25
X18.5Y-64.5
X18.5Y-65.5
X18.5Y-66.5
X18.5Y-67.5
X18.5Y-68.5
X19.0Y-16.0
X19.0Y-69.5
X19.0Y-73.0
X19.5Y-82.5
X19.75Y-70.25
X20.0Y-99.0
X20.0Y-100.0
X20.0Y-114.5
X20.0Y-115.5
X20.2Y-107.6
X20.2Y-108.556
X20.227Y-105.227
X20.25Y-106.155
X20.5Y-71.0
X20.625Y-113.875
X20.9Y-109.6
X20.97Y-111.28
X20.97Y-112.28
X20.97Y-113.13
X21.0Y-16.0
X21.0Y-50.0
X21.0Y-52.0
X21.0Y-54.0
X21.25Y-101.905
X22.0Y-64.5
X22.0Y-66.0
X22.0Y-67.5
X22.0Y-86.8
X22.0Y-87.8
X22.0Y-88.8
X22.0Y-89.8
X22.0Y-90.8
X22.0Y-91.8
X22.0Y-109.75
X22.0Y-111.3
X22.0Y-112.25
X22.0Y-113.25
X22.553Y-109.053
X23.0Y-16.0
X23.0Y-50.0
X23.0Y-52.0
X23.0Y-54.0
X23.0Y-56.0
X23.0Y-101.905
X23.1Y-96.3
X23.1Y-97.7
X23.5Y-87.5
X23.5Y-111.0
X23.5Y-112.0
X23.5Y-113.0
X23.7Y-103.9
X23.9Y-88.9
X24.0Y-66.0
X24.0Y-67.5
X24.0Y-94.25
X24.1Y-106.8
X24.1Y-107.7
X24.25Y-98.5
X24.25Y-99.5
X24.25Y-100.5
X24.5Y-72.5
X24.5Y-73.5
X24.5Y-110.0
X24.5Y-111.0
X24.5Y-112.0
X24.5Y-113.0
X24.8Y-81.8
X24.8Y-106.0
X24.9Y-95.0
X25.0Y-16.0
X25.0Y-50.0
X25.0Y-52.0
X25.0Y-54.0
X25.0Y-56.0
X25.2Y-104.95
X25.25Y-98.5
X25.25Y-99.5
X25.5Y-72.5
X25.5Y-73.5
X25.5Y-77.5
X25.8Y-105.7
X25.8Y-106.5
X26.0Y-39.0
X26.0Y-41.0
X26.0Y-43.0
X26.2Y-90.3
X26.5Y-77.5
X26.5Y-100.75
X26.6Y-119.2
X26.8Y-81.8
X26.8Y-108.6
X27.0Y-16.0
X27.0Y-84.0
X27.475Y-84.975
X27.5Y-99.75
X27.5Y-100.75
X27.5Y-101.75
X27.5Y-102.9
X27.6Y-96.0
X27.75Y-91.85
X28.0Y-108.6
X28.0Y-119.2
X28.4Y-86.925
X28.475Y-83.975
X28.5Y-80.5
X28.5Y-102.5
X28.5Y-103.5
X28.625Y-110.125
X28.8Y-96.2
X29.0Y-16.0
X29.0Y-53.0
X29.0Y-90.5
X29.4Y-108.6
X29.438Y-87.438
X29.5Y-86.5
X29.5Y-104.0
X29.5Y-109.75
X29.6Y-119.2
X30.0Y-89.5
X30.0Y-90.5
X30.0Y-91.5
X30.0Y-101.6
X30.0Y-105.0
X30.2Y-74.5
X30.2Y-75.5
X30.2Y-76.5
X30.2Y-77.5
X30.2Y-102.6
X30.5Y-109.75
X31.0Y-41.0
X31.0Y-43.0
X31.0Y-49.0
X31.0Y-51.0
X31.0Y-53.0
X31.1Y-103.8
X31.1Y-104.6
X31.1Y-105.4
X31.5Y-74.5
X31.5Y-75.5
X31.5Y-76.5
X31.5Y-79.5
X31.5Y-92.9
X32.0Y-84.0
X32.5Y-103.75
X32.5Y-104.6
X32.5Y-105.5
X32.5Y-106.4
X32.6Y-92.9
X33.0Y-49.0
X33.0Y-51.0
X33.0Y-53.0
X33.5Y-65.0
X33.5Y-66.0
X33.5Y-82.0
X33.5Y-109.5
X34.0Y-63.5
X34.0Y-67.0
X34.0Y-115.0
X34.4Y-118.8
X34.485Y-43.765
X34.5Y-65.0
X34.5Y-66.0
X34.5Y-73.5
X34.5Y-74.5
X34.5Y-77.5
X34.5Y-78.5
X34.5Y-79.5
X34.5Y-80.5
X35.0Y-63.5
X35.1Y-103.4
X35.1Y-104.7
X35.2Y-105.8
X35.5Y-73.5
X35.5Y-74.5
X35.5Y-77.5
X35.5Y-78.5
X35.5Y-79.5
X35.5Y-80.5
X36.0Y-62.5
X36.0Y-63.5
X36.0Y-64.5
X36.0Y-117.0
X36.0Y-118.75
X36.0Y-120.2
X36.274Y-107.726
X36.5Y-77.5
X36.5Y-78.5
X36.5Y-79.5
X36.5Y-80.5
X37.5Y-77.5
X37.5Y-78.5
X37.5Y-79.5
X37.6Y-87.1
X37.625Y-88.825
X38.0Y-87.8
X38.0Y-117.0
X38.0Y-118.75
X38.0Y-120.2
X38.1Y-99.5
X38.125Y-97.375
X38.125Y-98.375
X38.4Y-87.1
X38.405Y-66.345
X38.5Y-77.5
X38.5Y-78.5
X39.0Y-48.0
X39.0Y-104.5
X39.15Y-91.45
X39.2Y-87.1
X39.3Y-90.2
X39.5Y-63.5
X39.5Y-80.7
X40.0Y-68.4
X40.0Y-105.5
X40.0Y-106.5
X40.4Y-79.8
X40.5Y-97.75
X40.7Y-102.7
X40.9Y-101.6
X41.0Y-51.5
X41.0Y-52.5
X41.0Y-69.5
X41.0Y-70.5
X41.0Y-105.5
X41.0Y-106.5
X41.3Y-89.7
X41.75Y-98.75
X41.9Y-69.0
X42.0Y-105.5
X42.0Y-106.5
X42.4Y-88.6
X43.0Y-53.0
X43.0Y-54.0
X43.0Y-55.0
X43.0Y-56.0
X43.0Y-105.5
X43.0Y-106.5
X43.25Y-100.25
X43.5Y-87.5
X44.0Y-54.0
X44.0Y-55.0
X44.0Y-56.0
X44.0Y-105.5
X44.0Y-106.5
X44.5Y-86.0
X44.75Y-91.25
X44.75Y-92.25
X45.0Y-54.0
X45.0Y-55.0
X45.0Y-56.0
X45.0Y-105.5
X45.0Y-106.5
X45.125Y-93.125
X45.5Y-70.8
X45.5Y-86.0
X45.5Y-90.25
X45.5Y-100.25
X45.6Y-74.8
X45.6Y-75.6
X45.6Y-76.4
X45.6Y-77.2
X45.75Y-91.25
X45.75Y-92.25
X45.75Y-95.75
X45.75Y-96.75
X45.75Y-98.5
X45.75Y-102.0
X45.8Y-69.9
X46.0Y-93.25
X46.0Y-105.5
X46.0Y-106.5
X46.4Y-75.6
X46.4Y-76.4
X46.4Y-77.2
X46.5Y-90.25
X46.6Y-86.3
X46.75Y-91.25
X46.75Y-92.25
X46.75Y-96.75
X46.75Y-98.5
X46.75Y-102.0
X46.8Y-69.3
X46.85Y-93.25
X47.0Y-105.5
X47.0Y-106.5
X47.0Y-109.5
X47.0Y-110.5
X47.1Y-115.1
X47.2Y-76.4
X47.2Y-77.2
X47.3Y-87.0
X47.455Y-57.845
X48.0Y-67.0
X48.0Y-68.0
X48.0Y-69.0
X48.0Y-70.0
X48.0Y-105.5
X48.0Y-109.5
X48.0Y-110.5
X48.9Y-82.6
X49.0Y-57.0
X49.0Y-59.0
X49.0Y-67.0
X49.0Y-68.0
X49.0Y-69.0
X49.0Y-70.0
X49.0Y-73.0
X49.0Y-108.5
X49.0Y-109.5
X49.0Y-110.5
X49.5Y-87.2
X49.6Y-93.6
X49.75Y-94.45
X49.75Y-95.35
X49.75Y-96.25
X50.0Y-98.5
X50.0Y-100.0
X50.0Y-101.5
X50.0Y-105.5
X50.0Y-106.5
X50.0Y-107.5
X50.0Y-108.5
X50.0Y-109.5
X50.0Y-110.5
X50.5Y-59.5
X50.5Y-60.5
X50.5Y-61.5
X50.5Y-62.5
X50.5Y-90.25
X50.5Y-91.25
X50.5Y-92.25
X50.5Y-93.2
X50.7Y-120.5
X50.75Y-95.25
X50.75Y-96.25
X50.8Y-87.2
X50.8Y-118.6
X51.0Y-98.5
X51.0Y-100.0
X51.1Y-117.2
X51.3Y-85.3
X51.5Y-59.5
X51.5Y-60.5
X51.5Y-61.5
X51.5Y-62.5
X51.5Y-66.0
X51.5Y-67.0
X51.5Y-68.0
X51.5Y-69.0
X51.5Y-70.0
X51.5Y-77.0
X51.5Y-78.0
X51.5Y-105.3
X51.7Y-51.2
X51.7Y-52.2
X51.7Y-53.2
X51.8Y-97.4
X51.9Y-104.2
X52.0Y-84.5
X52.1Y-120.5
X52.5Y-59.5
X52.5Y-60.5
X52.5Y-61.5
X52.5Y-62.5
X52.7Y-51.2
X52.7Y-52.2
X52.7Y-53.2
X53.3Y-89.9
X53.3Y-120.5
X53.3Y-81.1
X53.4Y-88.8
X53.5Y-59.5
X53.5Y-60.5
X53.5Y-61.5
X53.5Y-62.5
X53.7Y-51.2
X53.7Y-52.2
X53.7Y-53.2
X54.2Y-81.6
X54.25Y-88.25
X54.5Y-120.5
X54.9Y-83.4
X54.95Y-102.85
X55.445Y-50.055
X55.445Y-51.19
X55.445Y-52.39
X55.5Y-23.0
X55.5Y-24.0
X55.5Y-25.0
X55.5Y-26.0
X55.5Y-27.0
X55.5Y-28.0
X55.7Y-83.4
X56.05Y-102.85
X56.105Y-91.695
X56.25Y-85.25
X56.5Y-23.0
X56.5Y-24.0
X56.5Y-25.0
X56.5Y-26.0
X56.5Y-27.0
X56.5Y-28.0
X56.5Y-83.4
X56.55Y-92.65
X56.75Y-118.95
X57.0Y-74.0
X57.0Y-75.0
X57.0Y-76.0
X57.3Y-83.4
X57.45Y-85.25
X57.5Y-23.0
X57.5Y-24.0
X57.5Y-25.0
X57.5Y-26.0
X57.5Y-27.0
X57.5Y-28.0
X57.7Y-118.4
X58.0Y-74.0
X58.0Y-75.0
X58.0Y-76.0
X58.0Y-81.5
X58.25Y-65.0
X58.3Y-66.2
X58.3Y-67.5
X58.5Y-23.0
X58.5Y-24.0
X58.5Y-25.0
X58.5Y-26.0
X58.5Y-27.0
X58.5Y-28.0
X58.75Y-80.75
X58.8Y-118.0
X58.9Y-107.6
X59.0Y-74.0
X59.0Y-75.0
X59.0Y-76.0
X59.0Y-92.5
X59.0Y-93.5
X59.0Y-94.5
X59.4Y-66.2
X59.4Y-67.5
X59.5Y-23.0
X59.5Y-24.0
X59.5Y-25.0
X59.5Y-26.0
X59.5Y-27.0
X59.5Y-28.0
X59.5Y-65.0
X59.5Y-83.4
X59.5Y-84.2
X59.5Y-111.75
X59.75Y-86.5
X59.85Y-117.45
X60.0Y-92.5
X60.0Y-93.5
X60.0Y-94.5
X60.091Y-107.9
X60.1Y-85.5
X60.2Y-83.8
X60.5Y-23.0
X60.5Y-24.0
X60.5Y-25.0
X60.5Y-26.0
X60.5Y-27.0
X60.5Y-28.0
X60.5Y-65.0
X60.5Y-66.25
X60.5Y-67.5
X60.75Y-87.15
X61.0Y-92.5
X61.0Y-93.5
X61.0Y-94.5
X61.0Y-111.75
X61.0Y-113.25
X61.0Y-114.75
X61.2Y-107.6
X61.75Y-65.0
X61.75Y-66.25
X61.75Y-67.5
X62.0Y-87.5
X62.5Y-111.75
X62.5Y-113.25
X62.5Y-114.75
X63.0Y-87.5
X63.0Y-88.5
X63.0Y-98.0
X63.0Y-99.0
X63.0Y-102.0
X63.0Y-103.0
X63.3Y-83.2
X63.345Y-52.39
X63.345Y-53.69
X63.345Y-54.89
X64.0Y-80.0
X64.0Y-81.0
X64.0Y-88.5
X64.0Y-89.5
X64.0Y-98.0
X64.0Y-99.0
X64.0Y-102.0
X64.0Y-103.0
X64.0Y-111.75
X64.5Y-62.5
X64.5Y-69.5
X64.575Y-70.925
X64.7Y-83.8
X64.75Y-84.95
X64.75Y-85.95
X65.0Y-80.0
X65.0Y-81.0
X65.0Y-88.5
X65.0Y-89.5
X65.0Y-98.0
X65.0Y-99.0
X65.0Y-102.0
X65.0Y-103.0
X65.5Y-60.5
X65.5Y-61.5
X65.5Y-62.5
X65.5Y-111.75
X65.615Y-83.415
X65.615Y-87.185
X65.66Y-66.695
X65.66Y-68.695
X66.0Y-80.0
X66.0Y-98.0
X66.0Y-99.0
X66.0Y-102.0
X66.0Y-103.0
X66.5Y-60.5
X66.5Y-61.5
X66.5Y-62.5
X66.55Y-81.75
X66.6Y-89.4
X66.7Y-87.9
X67.0Y-80.0
X67.0Y-98.0
X67.0Y-99.0
X67.0Y-102.0
X67.0Y-103.0
X67.985Y-87.115
X68.0Y-80.0
X68.0Y-81.0
X68.6Y-76.375
X68.66Y-66.695
X68.66Y-68.695
X68.7Y-104.5
X68.925Y-87.275
X69.0Y-80.0
X69.0Y-81.0
X70.0Y-80.0
X70.0Y-81.0
X70.0Y-89.0
X70.46Y-76.375
X70.5Y-94.0
X70.5Y-95.0
X70.5Y-96.0
X70.66Y-66.695
X70.66Y-68.695
X71.0Y-80.0
X71.5Y-95.0
X71.5Y-96.0
X71.5Y-97.0
X72.0Y-88.0
X72.15Y-104.45
X72.46Y-76.375
X72.5Y-95.0
X72.5Y-96.0
X72.5Y-97.0
X73.0Y-91.5
X73.5Y-95.0
X73.5Y-96.0
X73.5Y-97.0
X73.66Y-66.695
X73.66Y-68.695
X74.0Y-37.0
X74.0Y-38.0
X74.0Y-45.0
X74.0Y-45.8
X74.0Y-46.6
X74.0Y-88.0
X74.0Y-91.5
X74.0Y-92.5
X74.2Y-49.4
X74.2Y-50.2
X74.2Y-51.0
X74.2Y-51.8
X74.2Y-52.6
X74.46Y-76.375
X75.0Y-37.0
X75.0Y-38.0
X75.2Y-87.2
X75.275Y-104.325
X75.66Y-66.695
X75.66Y-68.695
X76.0Y-37.0
X76.0Y-38.0
X76.46Y-76.375
X77.0Y-87.4
X78.0Y-94.0
X78.0Y-95.0
X78.1Y-84.45
X78.46Y-76.375
X78.66Y-66.695
X78.66Y-68.695
X79.0Y-93.0
X79.0Y-94.0
X79.0Y-95.0
X80.0Y-93.0
X80.0Y-94.0
X80.0Y-95.0
X80.025Y-104.275
X80.1Y-91.3
X80.3Y-82.1
X80.45Y-84.85
X80.46Y-76.375
X80.5Y-23.0
X80.55Y-87.75
X80.66Y-66.695
X80.66Y-68.695
X80.8Y-78.6
X81.0Y-94.0
X81.0Y-95.0
X81.5Y-21.0
X81.5Y-22.0
X81.5Y-23.0
X81.55Y-87.75
X81.6Y-78.6
X82.0Y-111.5
X82.4Y-78.6
X82.46Y-76.375
X82.5Y-21.0
X82.5Y-22.0
X82.5Y-23.0
X83.125Y-104.275
X83.35Y-87.65
X83.5Y-21.0
X83.5Y-22.0
X83.5Y-23.0
X83.5Y-91.5
X83.5Y-92.5
X83.5Y-93.5
X83.5Y-94.5
X83.5Y-111.5
X83.66Y-66.695
X83.66Y-68.695
X84.285Y-82.615
X84.35Y-85.65
X84.46Y-76.375
X84.5Y-91.5
X84.5Y-92.5
X84.5Y-93.5
X85.0Y-87.4
X85.0Y-111.5
X85.1Y-84.6
X85.5Y-91.5
X85.5Y-92.5
X85.5Y-100.4
X85.66Y-66.695
X85.66Y-68.695
X86.0Y-16.0
X86.225Y-104.275
X86.5Y-91.5
X86.5Y-111.5
X87.0Y-16.0
X87.0Y-94.5
X87.9Y-93.7
X88.0Y-13.0
X88.0Y-14.0
X88.0Y-15.0
X88.0Y-16.0
X88.0Y-94.5
X88.0Y-111.5
X88.9Y-92.7
X88.9Y-93.6
X88.9Y-94.5
X89.16Y-65.945
X89.16Y-66.945
X89.16Y-67.945
X89.16Y-68.945
X89.5Y-111.5
X90.0Y-93.5
X90.0Y-94.5
X90.16Y-65.945
X90.16Y-66.945
X90.16Y-67.945
X90.16Y-68.945
X90.4Y-105.8
X91.0Y-111.5
X91.16Y-65.945
X91.16Y-66.945
X91.16Y-67.945
X91.16Y-68.945
X91.5Y-93.5
X91.5Y-94.5
X92.4Y-84.3
X92.5Y-111.5
X93.0Y-93.5
X93.0Y-94.5
X93.5Y-84.3
X93.7Y-13.3
X94.0Y-111.5
X94.5Y-93.5
X94.5Y-94.5
X94.66Y-66.695
X94.66Y-68.695
X94.7Y-13.3
X94.85Y-82.15
X95.0Y-21.2
X95.5Y-111.5
X95.7Y-13.3
X95.8Y-22.0
X96.2Y-22.8
X96.2Y-23.8
X96.2Y-24.6
X96.6Y-17.4
X96.7Y-13.3
X97.0Y-63.5
X97.6Y-17.4
X97.7Y-13.3
X98.0Y-63.5
X98.085Y-87.115
X98.6Y-17.4
X98.7Y-13.3
X99.0Y-63.5
X99.0Y-97.75
X99.2Y-84.5
X99.2Y-85.5
X99.255Y-86.445
X99.6Y-17.4
X99.7Y-13.3
X99.825Y-98.675
X99.96Y-95.74
X100.0Y-63.5
X100.6Y-17.4
X100.7Y-13.3
X101.0Y-63.5
X101.6Y-17.4
X101.7Y-13.3
X102.0Y-63.5
X102.6Y-17.4
X102.7Y-13.3
X103.6Y-17.4
X103.7Y-13.3
X104.0Y-78.75
X104.5Y-17.4
X104.5Y-92.5
X104.5Y-94.0
X104.7Y-13.3
X104.75Y-96.0
X105.0Y-36.0
X105.0Y-37.0
X105.0Y-38.0
X105.0Y-102.0
X105.0Y-110.5
X105.0Y-111.5
X105.0Y-112.5
X105.5Y-64.0
X105.5Y-65.5
X105.5Y-67.0
X105.6Y-17.4
X105.7Y-13.3
X105.8Y-95.45
X105.83Y-58.67
X105.86Y-42.64
X105.86Y-69.64
X105.92Y-31.67
X106.0Y-47.5
X106.0Y-48.5
X106.0Y-49.5
X106.0Y-50.5
X106.0Y-103.0
X106.0Y-110.5
X106.0Y-111.5
X106.0Y-112.5
X106.2Y-55.8
X106.2Y-56.7
X106.5Y-81.0
X106.5Y-82.0
X106.6Y-17.4
X106.7Y-13.3
X107.0Y-49.5
X107.0Y-104.0
X107.0Y-110.5
X107.0Y-111.5
X107.0Y-112.5
X107.39Y-85.61
X107.5Y-81.0
X107.6Y-17.4
X107.7Y-13.3
X107.99Y-86.21
X108.0Y-105.0
X108.6Y-13.3
X108.64Y-86.86
X108.75Y-87.75
X108.75Y-88.65
X108.75Y-89.5
X108.75Y-93.5
X108.75Y-94.5
X108.75Y-95.5
X108.75Y-96.5
X108.75Y-97.5
X109.0Y-18.75
X109.0Y-106.0
X109.7Y-13.3
X110.0Y-18.75
X110.0Y-107.0
X110.7Y-13.3
X111.0Y-18.75
X111.0Y-99.5
X111.0Y-108.0
X111.7Y-13.3
X112.0Y-18.75
X112.0Y-99.5
X112.7Y-13.3
X113.0Y-99.5
X113.6Y-17.4
X113.75Y-13.25
X114.0Y-99.5
X114.6Y-17.4
X114.75Y-13.25
X115.0Y-99.5
X115.6Y-17.4
X115.75Y-13.25
X116.0Y-99.5
X116.6Y-17.4
X117.0Y-99.5
X117.48Y-81.02
X117.48Y-82.52
X117.48Y-84.02
X118.0Y-99.5
X118.49Y-40.99
X118.5Y-34.75
X118.5Y-36.75
X118.5Y-39.5
X118.5Y-61.75
X118.5Y-63.5
X118.5Y-113.5
X118.51Y-66.51
X118.51Y-67.99
X118.73Y-28.76
X118.73Y-55.76
X118.75Y-29.75
X118.75Y-30.75
X118.75Y-31.75
X118.75Y-56.75
X118.75Y-57.75
X118.75Y-58.75
X119.0Y-99.5
X120.0Y-113.5
X121.0Y-107.0
X121.03Y-45.22
X121.03Y-70.97
X121.03Y-72.22
X121.06Y-43.94
X121.5Y-113.5
X122.0Y-107.0
X122.0Y-108.0
X122.93Y-45.97
X122.93Y-48.06
X122.93Y-49.16
X122.93Y-50.26
X122.93Y-72.97
X122.93Y-75.06
X122.93Y-76.07
X122.93Y-77.06
X123.0Y-107.0
X123.0Y-108.0
X123.0Y-109.0
X123.0Y-113.5
X123.72Y-44.52
X123.82Y-71.42
X123.98Y-42.76
X123.98Y-43.72
X123.98Y-69.76
X123.98Y-70.62
X124.0Y-107.0
X124.0Y-108.0
X124.0Y-109.0
X125.0Y-107.0
X125.0Y-108.0
X125.0Y-109.0
X126.0Y-107.0
X126.0Y-108.0
X126.0Y-109.0
X127.0Y-108.0
X127.0Y-109.0
X128.0Y-108.0
X128.0Y-109.0
X128.0Y-110.0
X128.7Y-114.7
X129.0Y-108.0
X129.0Y-109.0
X129.0Y-110.0
X129.4Y-101.3
X130.0Y-100.7
X130.2Y-114.7
X130.9Y-100.5
X131.8Y-100.5
X132.75Y-100.5
X137.0Y-106.5
X137.0Y-108.0
X137.0Y-109.5
X137.0Y-111.0
X137.0Y-112.5
X137.0Y-114.0
X139.0Y-114.0
X141.0Y-114.0
X143.0Y-114.0
X145.0Y-114.0
X147.0Y-114.0
X149.0Y-114.0
X151.0Y-114.0
X153.0Y-114.0
X153.5Y-43.25
X153.5Y-44.25
X153.5Y-70.25
X153.5Y-71.25
X153.75Y-38.0
X153.75Y-65.0
X155.0Y-114.0
X155.48Y-30.77
X155.48Y-33.02
X155.48Y-57.66
X155.48Y-60.02
X155.9Y-55.5
X155.9Y-56.5
X156.1Y-28.6
X156.1Y-29.7
X156.2Y-35.0
X156.2Y-37.2
X156.2Y-39.4
X156.2Y-40.7
X156.2Y-44.9
X156.2Y-47.4
X156.2Y-61.9
X156.2Y-63.9
X156.2Y-66.4
X156.2Y-67.9
X156.2Y-72.6
X156.2Y-74.2
X156.445Y-49.195
X156.5Y-76.25
X156.5Y-97.3
X156.5Y-98.27
X156.5Y-100.5
X156.5Y-103.0
X156.5Y-103.88
X157.0Y-114.0
X157.24Y-86.36
X157.24Y-87.36
X157.24Y-88.36
X159.0Y-114.0
X161.0Y-114.0
X163.0Y-114.0
X166.4Y-81.6
X166.4Y-82.4
X166.4Y-83.2
X166.4Y-84.0
X166.4Y-84.8
X169.4Y-37.1
X169.4Y-48.4
X169.48Y-64.23
X169.5Y-29.0
X169.5Y-30.5
X169.5Y-32.0
X169.5Y-39.5
X169.5Y-41.0
X169.5Y-42.5
X169.6Y-100.8
X170.0Y-57.5
X170.0Y-59.5
X170.5Y-67.0
X170.5Y-68.75
X170.5Y-70.5
X170.75Y-74.0
X171.0Y-93.2
X171.0Y-94.6
X171.0Y-96.0
X172.0Y-57.5
X172.0Y-59.5
X172.0Y-61.5
X172.0Y-63.5
X172.0Y-65.5
X172.5Y-80.5
X172.5Y-82.0
X172.5Y-83.5
X172.5Y-85.0
X172.5Y-86.5
X172.5Y-88.0
X172.5Y-89.5
X172.5Y-91.0
X172.75Y-101.75
X172.75Y-103.5
X173.25Y-74.75
X173.25Y-76.25
X174.0Y-61.5
X174.0Y-63.5
X174.0Y-65.5
X174.25Y-113.0
X174.25Y-114.0
X174.25Y-115.0
X174.25Y-116.0
X174.25Y-117.0
X174.25Y-118.0
X174.46Y-31.54
X174.49Y-96.51
X174.51Y-42.51
X174.51Y-69.51
X174.54Y-58.54
X174.54Y-85.54
X178.5Y-114.5
X180.5Y-114.5
X182.5Y-114.5
X184.5Y-114.5
X186.5Y-114.5
X187.0Y-34.5
X187.0Y-36.25
X187.0Y-61.75
X187.0Y-63.5
X187.0Y-88.75
X187.0Y-90.5
X187.12Y-93.38
X187.12Y-94.88
X187.13Y-39.38
X187.13Y-40.87
X187.13Y-66.38
X187.13Y-67.87
X187.24Y-55.63
X187.24Y-82.63
X187.25Y-29.5
X187.25Y-30.5
X187.25Y-31.5
X187.25Y-56.75
X187.25Y-57.75
X187.25Y-58.75
X187.25Y-83.75
X187.25Y-84.75
X187.25Y-85.75
X187.37Y-28.5
X188.5Y-114.5
X189.505Y-43.745
X189.505Y-70.745
X189.54Y-44.96
X189.54Y-71.96
X189.54Y-97.78
X189.54Y-98.96
X190.5Y-114.5
X191.415Y-74.785
X191.44Y-45.86
X191.44Y-47.76
X191.44Y-48.86
X191.44Y-49.93
X191.44Y-72.81
X191.44Y-75.86
X191.44Y-76.93
X191.44Y-99.86
X191.44Y-101.76
X191.44Y-102.76
X191.44Y-103.76
X192.11Y-44.51
X192.16Y-98.46
X192.31Y-71.31
X192.49Y-42.63
X192.49Y-43.61
X192.49Y-69.63
X192.49Y-70.51
X192.49Y-96.63
X192.49Y-97.61
X192.5Y-114.5
X194.5Y-114.5
X196.5Y-114.5
X198.5Y-114.5
X200.5Y-114.5
X202.5Y-114.5
X204.5Y-114.5
X206.5Y-114.5
X208.5Y-114.5
X210.5Y-114.5
X212.5Y-114.5
X214.5Y-114.5
X216.5Y-114.5
X218.5Y-114.5
X220.5Y-114.5
X222.0Y-43.25
X222.0Y-44.25
X222.0Y-70.25
X222.0Y-71.25
X222.0Y-97.25
X222.0Y-98.25
X222.25Y-37.75
X222.25Y-64.75
X222.25Y-91.75
X222.5Y-114.5
X223.99Y-30.51
X223.99Y-32.76
X223.99Y-57.51
X223.99Y-59.76
X223.99Y-84.51
X223.99Y-86.78
X224.4Y-82.2
X224.4Y-83.2
X224.5Y-55.1
X224.5Y-56.2
X224.5Y-114.5
X224.6Y-28.2
X224.6Y-29.4
X224.6Y-34.6
X224.6Y-37.0
X224.7Y-39.3
X224.7Y-40.7
X224.7Y-45.3
X224.7Y-47.0
X224.7Y-61.8
X224.7Y-64.0
X224.7Y-88.9
X224.7Y-91.1
X224.7Y-93.2
X224.7Y-94.6
X224.7Y-99.7
X224.7Y-100.9
X224.8Y-66.4
X224.8Y-67.5
X224.8Y-72.9
X224.8Y-74.0
X225.01Y-76.01
X225.01Y-49.01
X225.01Y-103.01
X226.5Y-114.5
X228.5Y-114.5
X230.5Y-114.5
X232.5Y-114.5
X234.5Y-50.0
X234.5Y-51.0
X234.5Y-52.0
X234.5Y-53.0
X234.5Y-77.0
X234.5Y-78.0
X234.5Y-79.0
X234.5Y-80.0
X234.5Y-104.5
X234.5Y-106.5
X234.5Y-108.5
X234.5Y-110.5
X234.5Y-112.5
X234.5Y-114.5
X235.5Y-50.0
X235.5Y-51.0
X235.5Y-52.0
X235.5Y-53.0
X235.5Y-77.0
X235.5Y-78.0
X235.5Y-79.0
X235.5Y-80.0
X236.5Y-50.0
X236.5Y-51.0
X236.5Y-52.0
X236.5Y-53.0
X236.5Y-77.0
X236.5Y-78.0
X236.5Y-79.0
X236.5Y-80.0
X236.5Y-104.5
X236.5Y-106.5
X236.5Y-108.5
X236.5Y-110.5
X236.5Y-112.5
X236.5Y-114.5
X237.5Y-29.5
X237.5Y-30.5
X237.5Y-31.5
X237.5Y-38.5
X237.5Y-41.0
X237.5Y-43.5
X237.5Y-50.0
X237.5Y-51.0
X237.5Y-52.0
X237.5Y-53.0
X237.5Y-77.0
X237.5Y-78.0
X237.5Y-79.0
X237.5Y-80.0
X238.0Y-65.0
X238.0Y-67.0
X238.0Y-69.0
X238.0Y-92.0
X238.0Y-94.0
X238.0Y-96.0
X238.5Y-29.5
X240.5Y-33.0
X240.5Y-35.5
X242.0Y-36.75
X242.75Y-116.0
X242.75Y-117.0
X242.75Y-118.0
X242.75Y-119.0
X242.75Y-120.0
X242.75Y-121.0
X243.01Y-31.41
X243.01Y-58.41
X243.01Y-85.41
X243.02Y-69.38
X243.02Y-96.38
X243.18Y-42.38
X248.25Y-114.5
X248.25Y-116.0
X248.25Y-117.5
X250.0Y-114.5
X250.0Y-116.0
X250.0Y-117.5
X251.75Y-114.5
X251.75Y-116.0
X251.75Y-117.5
X253.75Y-114.5
X253.75Y-116.0
X253.75Y-117.5
X254.0Y-19.5
X254.0Y-20.5
X254.0Y-21.5
X254.0Y-22.5
X254.0Y-23.5
X254.0Y-24.5
X254.0Y-25.5
X254.0Y-26.5
X255.5Y-34.75
X255.5Y-36.0
X255.5Y-39.25
X255.5Y-40.75
X255.5Y-61.5
X255.5Y-63.5
X255.5Y-66.25
X255.5Y-67.75
X255.5Y-88.5
X255.5Y-90.25
X255.5Y-93.25
X255.5Y-94.5
X255.75Y-28.5
X255.75Y-29.5
X255.75Y-30.5
X255.75Y-31.5
X255.75Y-55.5
X255.75Y-56.5
X255.75Y-57.5
X255.75Y-58.5
X255.75Y-82.5
X255.75Y-83.5
X255.75Y-84.5
X255.75Y-85.5
X255.75Y-114.5
X255.75Y-116.0
X255.75Y-117.5
X257.75Y-114.5
X257.75Y-116.0
X257.75Y-117.5
X257.805Y-70.405
X257.95Y-97.55
X258.05Y-43.7
X258.05Y-44.95
X258.05Y-71.21
X258.05Y-72.08
X258.05Y-98.65
X259.75Y-114.5
X259.75Y-116.0
X259.75Y-117.5
X259.95Y-45.65
X259.95Y-47.8
X259.95Y-48.8
X259.95Y-49.8
X259.95Y-72.69
X259.95Y-74.66
X259.95Y-75.61
X259.95Y-76.49
X259.95Y-99.8
X259.95Y-101.8
X259.95Y-102.8
X259.95Y-103.8
X260.625Y-44.375
X260.625Y-98.375
X260.67Y-71.33
X261.0Y-42.5
X261.0Y-43.5
X261.0Y-69.5
X261.0Y-70.38
X261.0Y-96.5
X261.0Y-97.5
X290.5Y-43.0
X290.5Y-44.0
X290.5Y-70.0
X290.5Y-71.0
X290.5Y-97.0
X290.5Y-98.0
X290.75Y-37.5
X290.875Y-64.625
X290.875Y-91.625
X292.5Y-30.5
X292.5Y-32.75
X292.5Y-57.5
X292.5Y-59.75
X292.5Y-84.5
X292.5Y-86.75
X293.0Y-55.3
X293.0Y-56.2
X293.0Y-82.3
X293.0Y-83.4
X293.2Y-34.6
X293.2Y-36.6
X293.2Y-88.6
X293.2Y-90.4
X293.3Y-29.3
X293.3Y-39.8
X293.3Y-40.6
X293.3Y-44.9
X293.3Y-46.6
X293.3Y-61.8
X293.3Y-63.8
X293.3Y-66.6
X293.3Y-67.5
X293.3Y-71.8
X293.3Y-73.8
X293.3Y-93.3
X293.3Y-94.5
X293.3Y-98.6
X293.3Y-100.8
X293.5Y-30.1
X293.55Y-48.7
X293.55Y-75.85
X293.55Y-102.85
X306.5Y-28.5
X306.5Y-30.25
X306.5Y-32.0
X306.5Y-39.5
X306.5Y-41.25
X306.5Y-43.0
X306.5Y-55.0
X306.5Y-57.0
X306.5Y-58.75
X306.5Y-66.25
X306.5Y-68.25
X306.5Y-70.0
X306.5Y-82.5
X306.5Y-84.25
X306.5Y-86.0
X306.5Y-94.25
X306.5Y-95.75
X306.5Y-97.25
T3
X58.5Y-47.5
X59.5Y-47.5
X59.5Y-48.5
X59.5Y-49.5
X60.5Y-48.5
X62.0Y-46.0
X62.0Y-47.0
X63.0Y-46.0
X63.0Y-47.0
X88.0Y-83.0
X88.0Y-84.0
X89.0Y-84.0
X89.5Y-80.0
X89.5Y-81.0
X90.5Y-80.0
X90.5Y-81.0
X90.5Y-82.0
X113.125Y-115.125
X114.0Y-114.25
X116.78Y-19.72
X116.78Y-20.72
X116.78Y-21.72
X116.78Y-22.72
X116.78Y-23.72
X116.78Y-24.72
X116.78Y-38.32
X116.78Y-49.52
X116.78Y-65.32
X118.75Y-110.75
X120.0Y-110.75
X121.25Y-110.75
X123.5Y-110.75
X124.75Y-110.75
X126.25Y-110.75
X134.24Y-26.51
X135.24Y-26.51
X136.24Y-26.51
X137.24Y-26.51
X138.24Y-26.51
X138.473Y-19.277
X139.223Y-20.027
X139.973Y-20.777
X140.5Y-13.0
X140.723Y-21.527
X141.473Y-22.277
X141.5Y-13.0
X142.5Y-13.0
X143.5Y-13.0
X144.5Y-13.0
X144.5Y-17.0
X144.5Y-18.0
X144.5Y-19.0
X144.804Y-16.054
X147.25Y-88.75
X147.473Y-17.277
X148.0Y-89.5
X148.223Y-18.027
X148.473Y-88.277
X148.75Y-79.25
X148.75Y-90.25
X148.821Y-16.929
X148.973Y-18.777
X149.223Y-89.027
X149.5Y-91.0
X149.571Y-17.679
X149.723Y-19.527
X149.75Y-79.25
X149.973Y-89.777
X150.321Y-18.429
X150.723Y-90.527
X150.75Y-79.25
X151.071Y-19.179
X151.75Y-79.25
X152.75Y-79.25
X153.75Y-79.25
X154.75Y-79.25
X157.73Y-26.02
X157.73Y-27.16
X157.73Y-38.27
X157.73Y-49.52
X157.73Y-50.52
X157.73Y-51.52
X157.73Y-52.51
X157.73Y-65.27
X185.29Y-21.71
X185.29Y-22.71
X185.29Y-23.71
X185.29Y-24.71
X185.29Y-25.71
X185.29Y-26.71
X185.29Y-38.21
X185.29Y-49.21
X185.29Y-65.21
X185.29Y-76.31
X185.29Y-92.21
X185.29Y-103.21
X195.12Y-26.38
X203.12Y-26.38
X204.12Y-26.38
X205.12Y-26.38
X206.12Y-26.38
X207.305Y-26.695
X217.5Y-18.5
X218.25Y-19.25
X218.849Y-18.151
X219.0Y-20.0
X219.5Y-13.0
X219.599Y-18.901
X219.75Y-20.75
X220.349Y-19.651
X220.5Y-13.0
X220.5Y-21.5
X221.099Y-20.401
X221.25Y-22.25
X221.5Y-13.0
X221.949Y-19.949
X222.5Y-13.0
X222.699Y-19.199
X223.449Y-18.449
X223.45Y-24.55
X223.45Y-25.55
X223.495Y-23.495
X223.5Y-13.0
X224.199Y-17.699
X224.245Y-22.745
X224.995Y-21.995
X226.24Y-20.75
X226.24Y-21.76
X226.24Y-22.76
X226.24Y-23.76
X226.24Y-24.76
X226.24Y-25.76
X226.24Y-26.76
X226.24Y-38.26
X226.24Y-49.51
X226.24Y-50.51
X226.24Y-51.51
X226.24Y-52.51
X226.24Y-65.26
X226.24Y-76.51
X226.24Y-77.51
X226.24Y-78.51
X226.24Y-79.51
X226.24Y-92.26
X226.24Y-103.51
X226.24Y-104.51
X226.24Y-105.51
X226.24Y-106.51
X253.8Y-38.1
X253.8Y-49.3
X253.8Y-65.1
X253.8Y-76.2
X253.8Y-92.1
X253.8Y-103.1
X294.75Y-24.5
X294.75Y-25.5
X294.75Y-26.5
X294.75Y-38.0
X294.75Y-49.25
X294.75Y-50.25
X294.75Y-51.25
X294.75Y-52.25
X294.75Y-65.0
X294.75Y-76.25
X294.75Y-77.25
X294.75Y-78.25
X294.75Y-79.25
X294.75Y-92.0
X294.75Y-103.25
X294.75Y-104.25
X294.75Y-105.25
X294.75Y-106.25
T4
X37.3Y-29.45
X37.3Y-31.2
X37.3Y-32.95
X37.3Y-34.7
X37.3Y-36.45
X37.3Y-38.2
X37.3Y-39.95
X38.8Y-39.95
X39.05Y-29.45
X39.05Y-31.2
X39.05Y-32.95
X39.05Y-34.7
X39.05Y-36.45
X39.05Y-38.2
X39.845Y-57.845
X39.845Y-58.845
X39.845Y-59.845
X39.845Y-60.845
X40.8Y-29.45
X40.8Y-31.2
X40.8Y-32.95
X40.8Y-34.7
X40.8Y-36.45
X40.8Y-38.2
X40.8Y-39.95
X42.55Y-29.45
X42.55Y-31.2
X42.55Y-39.95
X44.3Y-29.45
X44.3Y-31.2
X44.3Y-39.95
X46.05Y-42.2
X46.05Y-43.45
X46.05Y-44.7
X46.05Y-45.95
X47.3Y-42.2
X47.3Y-43.45
X47.3Y-44.7
X47.3Y-45.95
X47.3Y-47.2
X48.55Y-42.2
X48.55Y-43.45
X48.55Y-44.7
X48.55Y-45.95
X48.55Y-47.2
T5
X34.6Y-22.0
X34.6Y-112.0
X35.303Y-20.303
X35.303Y-23.697
X35.303Y-110.303
X35.303Y-113.697
X37.0Y-19.6
X37.0Y-24.4
X37.0Y-109.6
X37.0Y-114.4
X38.697Y-20.303
X38.697Y-23.697
X38.697Y-110.303
X38.697Y-113.697
X39.4Y-22.0
X39.4Y-112.0
X168.6Y-52.0
X168.6Y-109.0
X169.303Y-50.303
X169.303Y-53.697
X169.303Y-107.303
X169.303Y-110.697
X171.0Y-49.6
X171.0Y-54.4
X171.0Y-106.6
X171.0Y-111.4
X172.697Y-50.303
X172.697Y-53.697
X172.697Y-107.303
X172.697Y-110.697
X173.4Y-52.0
X173.4Y-109.0
X302.6Y-20.0
X302.6Y-114.0
X303.303Y-18.303
X303.303Y-21.697
X303.303Y-112.303
X303.303Y-115.697
X305.0Y-17.6
X305.0Y-22.4
X305.0Y-111.6
X305.0Y-116.4
X306.697Y-18.303
X306.697Y-21.697
X306.697Y-112.303
X306.697Y-115.697
X307.4Y-20.0
X307.4Y-114.0
T7
X27.8Y-111.75
X27.8Y-113.02
X27.8Y-114.29
X27.8Y-115.56
X27.8Y-116.83
X29.07Y-111.75
X29.07Y-113.02
X29.07Y-114.29
X29.07Y-115.56
X29.07Y-116.83
T8
X66.05Y-64.38
X66.05Y-72.0
X68.59Y-64.38
X68.59Y-72.0
X71.13Y-64.38
X71.13Y-72.0
X73.67Y-64.38
X73.67Y-72.0
X76.21Y-64.38
X76.21Y-72.0
X78.75Y-64.38
X78.75Y-72.0
X81.29Y-64.38
X81.29Y-72.0
X83.83Y-64.38
X83.83Y-72.0
X86.37Y-64.38
X86.37Y-72.0
X88.91Y-64.38
X88.91Y-72.0
X91.45Y-64.38
X91.45Y-72.0
X93.99Y-64.38
X93.99Y-72.0
X108.67Y-83.54
X108.67Y-91.16
X116.29Y-86.08
X116.29Y-91.16
X127.125Y-100.275
X129.665Y-92.655
X134.745Y-92.655
X134.745Y-100.275
X158.43Y-79.43
X158.43Y-84.51
X166.05Y-79.43
X166.05Y-87.05
T9
X13.75Y-94.905
X17.0Y-94.905
X22.0Y-115.1
X34.55Y-26.7
X35.3Y-51.2
X38.3Y-51.2
X42.27Y-25.0
X43.095Y-65.845
X44.7Y-51.8
X44.81Y-25.0
X44.9Y-18.3
X45.2Y-109.115
X45.2Y-111.655
X45.2Y-114.195
X45.2Y-116.735
X45.2Y-119.275
X45.5Y-67.8
X47.35Y-25.0
X48.1Y-50.9
X48.8Y-34.7
X56.0Y-58.1
X58.0Y-96.3
X58.75Y-109.75
X58.75Y-114.25
X59.0Y-57.99
X62.1Y-58.0
X65.25Y-109.75
X65.25Y-114.25
X65.4Y-48.3
X70.75Y-109.75
X70.75Y-114.25
X71.11Y-89.925
X71.11Y-102.075
X72.3Y-82.4
X73.65Y-89.925
X73.65Y-102.075
X75.4Y-48.3
X76.19Y-89.925
X76.19Y-102.075
X77.25Y-109.75
X77.25Y-114.25
X78.73Y-89.925
X78.73Y-102.075
X79.1Y-13.9
X81.27Y-89.925
X81.27Y-102.075
X82.75Y-109.75
X82.75Y-114.25
X83.81Y-89.925
X83.81Y-102.075
X84.15Y-80.3
X86.3Y-83.3
X86.35Y-89.925
X86.35Y-102.075
X87.2Y-80.3
X88.89Y-89.925
X88.89Y-102.075
X89.25Y-109.75
X89.25Y-114.25
X94.75Y-109.75
X94.75Y-114.25
X101.25Y-109.75
X101.25Y-114.25
X104.5Y-76.75
X104.75Y-29.75
X104.75Y-40.75
X107.25Y-53.0
X107.48Y-79.09
X117.48Y-79.09
X121.105Y-19.5
X122.6Y-91.465
X122.6Y-101.465
X123.645Y-19.5
X130.75Y-87.5
X131.265Y-19.5
X133.29Y-87.5
X133.805Y-19.5
X134.875Y-103.225
X145.0Y-81.975
X145.0Y-84.515
X145.0Y-87.055
X152.25Y-93.75
X152.345Y-98.69
X157.24Y-91.55
X167.24Y-91.55
X169.5Y-114.0
X171.25Y-78.0
X173.0Y-29.2
X173.2Y-36.75
X173.2Y-67.8
X173.25Y-45.0
X173.25Y-93.5
X189.615Y-19.5
X192.155Y-19.5
X199.575Y-19.5
X202.115Y-19.5
X209.735Y-19.5
X212.275Y-19.5
X241.6Y-29.2
X241.6Y-40.8
X241.6Y-67.6
X244.4Y-51.0
X244.4Y-78.0
X244.4Y-106.2
X258.125Y-19.5
X260.665Y-19.5
X268.285Y-19.5
X270.825Y-19.5
X278.445Y-19.5
X280.985Y-19.5
T10
X19.0Y-40.44
X24.72Y-60.965
X29.17Y-32.19
X29.8Y-60.965
X83.522Y-28.8
X83.522Y-47.4
X91.022Y-28.8
X91.022Y-47.4
X128.73Y-32.26
X128.73Y-59.26
X133.73Y-32.26
X133.73Y-59.26
X135.0Y-45.0
X135.0Y-72.0
X140.0Y-45.0
X140.0Y-72.0
X197.24Y-32.13
X197.24Y-59.13
X197.24Y-86.13
X202.24Y-32.13
X202.24Y-59.13
X202.24Y-86.13
X203.51Y-44.87
X203.51Y-71.87
X203.51Y-98.87
X208.51Y-44.87
X208.51Y-71.87
X208.51Y-98.87
X265.75Y-32.0
X265.75Y-59.0
X265.75Y-86.0
X270.75Y-32.0
X270.75Y-59.0
X270.75Y-86.0
X272.02Y-44.74
X272.02Y-71.74
X272.02Y-98.74
X277.02Y-44.74
X277.02Y-71.74
X277.02Y-98.74
T11
X24.72Y-36.0
X25.355Y-28.38
X29.8Y-57.155
X29.8Y-64.775
T12
X37.0Y-22.0
X37.0Y-112.0
X171.0Y-52.0
X171.0Y-109.0
X305.0Y-20.0
X305.0Y-114.0
T6
X13.62Y-102.835G85X14.42Y-102.835
G05
X13.62Y-111.475G85X14.42Y-111.475
G05
X17.65Y-102.835G85X18.75Y-102.835
G05
X17.65Y-111.475G85X18.75Y-111.475
G05
T0
M30
