G04 #@! TF.GenerationSoftware,KiCad,Pcbnew,6.0.5*
G04 #@! TF.CreationDate,2022-06-11T02:34:19+02:00*
G04 #@! TF.ProjectId,ELController,454c436f-6e74-4726-9f6c-6c65722e6b69,rev?*
G04 #@! TF.SameCoordinates,Original*
G04 #@! TF.FileFunction,Soldermask,Top*
G04 #@! TF.FilePolarity,Negative*
%FSLAX46Y46*%
G04 Gerber Fmt 4.6, Leading zero omitted, Abs format (unit mm)*
G04 Created by KiCad (PCBNEW 6.0.5) date 2022-06-11 02:34:19*
%MOMM*%
%LPD*%
G01*
G04 APERTURE LIST*
G04 Aperture macros list*
%AMRoundRect*
0 Rectangle with rounded corners*
0 $1 Rounding radius*
0 $2 $3 $4 $5 $6 $7 $8 $9 X,Y pos of 4 corners*
0 Add a 4 corners polygon primitive as box body*
4,1,4,$2,$3,$4,$5,$6,$7,$8,$9,$2,$3,0*
0 Add four circle primitives for the rounded corners*
1,1,$1+$1,$2,$3*
1,1,$1+$1,$4,$5*
1,1,$1+$1,$6,$7*
1,1,$1+$1,$8,$9*
0 Add four rect primitives between the rounded corners*
20,1,$1+$1,$2,$3,$4,$5,0*
20,1,$1+$1,$4,$5,$6,$7,0*
20,1,$1+$1,$6,$7,$8,$9,0*
20,1,$1+$1,$8,$9,$2,$3,0*%
%AMFreePoly0*
4,1,22,0.500000,-0.750000,0.000000,-0.750000,0.000000,-0.745033,-0.079941,-0.743568,-0.215256,-0.701293,-0.333266,-0.622738,-0.424486,-0.514219,-0.481581,-0.384460,-0.499164,-0.250000,-0.500000,-0.250000,-0.500000,0.250000,-0.499164,0.250000,-0.499963,0.256109,-0.478152,0.396186,-0.417904,0.524511,-0.324060,0.630769,-0.204165,0.706417,-0.067858,0.745374,0.000000,0.744959,0.000000,0.750000,
0.500000,0.750000,0.500000,-0.750000,0.500000,-0.750000,$1*%
%AMFreePoly1*
4,1,20,0.000000,0.744959,0.073905,0.744508,0.209726,0.703889,0.328688,0.626782,0.421226,0.519385,0.479903,0.390333,0.500000,0.250000,0.500000,-0.250000,0.499851,-0.262216,0.476331,-0.402017,0.414519,-0.529596,0.319384,-0.634700,0.198574,-0.708877,0.061801,-0.746166,0.000000,-0.745033,0.000000,-0.750000,-0.500000,-0.750000,-0.500000,0.750000,0.000000,0.750000,0.000000,0.744959,
0.000000,0.744959,$1*%
G04 Aperture macros list end*
%ADD10RoundRect,0.200000X-0.275000X0.200000X-0.275000X-0.200000X0.275000X-0.200000X0.275000X0.200000X0*%
%ADD11R,2.200000X2.300000*%
%ADD12RoundRect,0.250000X-0.450000X0.262500X-0.450000X-0.262500X0.450000X-0.262500X0.450000X0.262500X0*%
%ADD13RoundRect,0.200000X0.275000X-0.200000X0.275000X0.200000X-0.275000X0.200000X-0.275000X-0.200000X0*%
%ADD14RoundRect,0.249999X-0.450001X-1.450001X0.450001X-1.450001X0.450001X1.450001X-0.450001X1.450001X0*%
%ADD15RoundRect,0.200000X0.200000X0.275000X-0.200000X0.275000X-0.200000X-0.275000X0.200000X-0.275000X0*%
%ADD16RoundRect,0.250000X-0.475000X0.250000X-0.475000X-0.250000X0.475000X-0.250000X0.475000X0.250000X0*%
%ADD17RoundRect,0.200000X-0.200000X-0.275000X0.200000X-0.275000X0.200000X0.275000X-0.200000X0.275000X0*%
%ADD18C,2.400000*%
%ADD19R,1.520000X1.780000*%
%ADD20R,1.700000X1.700000*%
%ADD21O,1.700000X1.700000*%
%ADD22R,0.400000X0.550000*%
%ADD23R,0.500000X0.550000*%
%ADD24C,2.000000*%
%ADD25R,1.200000X1.200000*%
%ADD26R,1.300000X1.400000*%
%ADD27RoundRect,0.225000X-0.250000X0.225000X-0.250000X-0.225000X0.250000X-0.225000X0.250000X0.225000X0*%
%ADD28R,1.600000X1.600000*%
%ADD29O,1.600000X1.600000*%
%ADD30RoundRect,0.225000X0.250000X-0.225000X0.250000X0.225000X-0.250000X0.225000X-0.250000X-0.225000X0*%
%ADD31R,0.990000X0.405000*%
%ADD32R,1.725000X2.235000*%
%ADD33R,0.760000X0.405000*%
%ADD34RoundRect,0.050000X0.387500X0.050000X-0.387500X0.050000X-0.387500X-0.050000X0.387500X-0.050000X0*%
%ADD35RoundRect,0.050000X0.050000X0.387500X-0.050000X0.387500X-0.050000X-0.387500X0.050000X-0.387500X0*%
%ADD36R,4.700000X4.700000*%
%ADD37RoundRect,0.250000X0.450000X-0.262500X0.450000X0.262500X-0.450000X0.262500X-0.450000X-0.262500X0*%
%ADD38C,1.700000*%
%ADD39RoundRect,0.250000X0.475000X-0.250000X0.475000X0.250000X-0.475000X0.250000X-0.475000X-0.250000X0*%
%ADD40RoundRect,0.249999X0.450001X1.450001X-0.450001X1.450001X-0.450001X-1.450001X0.450001X-1.450001X0*%
%ADD41R,1.500000X2.000000*%
%ADD42R,3.800000X2.000000*%
%ADD43FreePoly0,0.000000*%
%ADD44FreePoly1,0.000000*%
%ADD45R,2.900000X5.400000*%
%ADD46RoundRect,0.218750X-0.218750X-0.256250X0.218750X-0.256250X0.218750X0.256250X-0.218750X0.256250X0*%
%ADD47RoundRect,0.250000X0.250000X0.475000X-0.250000X0.475000X-0.250000X-0.475000X0.250000X-0.475000X0*%
%ADD48R,1.550000X2.540000*%
%ADD49RoundRect,0.077500X-0.697500X1.192500X-0.697500X-1.192500X0.697500X-1.192500X0.697500X1.192500X0*%
%ADD50RoundRect,0.250000X-0.250000X-0.475000X0.250000X-0.475000X0.250000X0.475000X-0.250000X0.475000X0*%
%ADD51RoundRect,0.250000X-0.375000X-1.075000X0.375000X-1.075000X0.375000X1.075000X-0.375000X1.075000X0*%
%ADD52FreePoly0,90.000000*%
%ADD53FreePoly1,90.000000*%
%ADD54RoundRect,0.062500X0.350000X0.062500X-0.350000X0.062500X-0.350000X-0.062500X0.350000X-0.062500X0*%
%ADD55R,1.700000X2.500000*%
%ADD56R,1.350000X0.750000*%
%ADD57R,3.200000X4.900000*%
%ADD58RoundRect,0.150000X-0.587500X-0.150000X0.587500X-0.150000X0.587500X0.150000X-0.587500X0.150000X0*%
%ADD59RoundRect,0.250000X1.075000X-0.375000X1.075000X0.375000X-1.075000X0.375000X-1.075000X-0.375000X0*%
%ADD60R,0.600000X0.450000*%
%ADD61R,0.500000X1.100000*%
%ADD62R,2.850000X2.000000*%
%ADD63R,1.200000X0.600000*%
%ADD64R,1.700000X1.300000*%
%ADD65R,1.000000X0.700000*%
%ADD66R,0.600000X0.700000*%
%ADD67C,0.800000*%
%ADD68C,6.400000*%
%ADD69RoundRect,0.225000X-0.225000X-0.250000X0.225000X-0.250000X0.225000X0.250000X-0.225000X0.250000X0*%
%ADD70RoundRect,0.225000X0.225000X0.250000X-0.225000X0.250000X-0.225000X-0.250000X0.225000X-0.250000X0*%
%ADD71R,1.000000X1.000000*%
%ADD72O,1.000000X1.000000*%
%ADD73RoundRect,0.150000X-0.825000X-0.150000X0.825000X-0.150000X0.825000X0.150000X-0.825000X0.150000X0*%
%ADD74RoundRect,0.250000X1.100000X-0.325000X1.100000X0.325000X-1.100000X0.325000X-1.100000X-0.325000X0*%
%ADD75R,0.550000X0.400000*%
%ADD76R,0.550000X0.500000*%
%ADD77O,1.500000X2.000000*%
%ADD78R,2.000000X2.500000*%
%ADD79RoundRect,0.218750X-0.256250X0.218750X-0.256250X-0.218750X0.256250X-0.218750X0.256250X0.218750X0*%
%ADD80R,1.400000X2.100000*%
%ADD81RoundRect,0.175000X-0.175000X-0.625000X0.175000X-0.625000X0.175000X0.625000X-0.175000X0.625000X0*%
%ADD82C,1.600000*%
%ADD83C,3.400000*%
%ADD84C,2.900000*%
%ADD85RoundRect,0.150000X0.587500X0.150000X-0.587500X0.150000X-0.587500X-0.150000X0.587500X-0.150000X0*%
%ADD86RoundRect,0.250000X0.312500X0.625000X-0.312500X0.625000X-0.312500X-0.625000X0.312500X-0.625000X0*%
%ADD87RoundRect,0.150000X0.840000X0.150000X-0.840000X0.150000X-0.840000X-0.150000X0.840000X-0.150000X0*%
%ADD88RoundRect,0.150000X0.150000X-0.587500X0.150000X0.587500X-0.150000X0.587500X-0.150000X-0.587500X0*%
%ADD89C,0.650000*%
%ADD90R,1.100000X0.600000*%
%ADD91R,1.100000X0.300000*%
%ADD92O,2.100000X1.000000*%
%ADD93O,1.800000X1.000000*%
%ADD94R,1.500000X0.900000*%
%ADD95FreePoly0,270.000000*%
%ADD96FreePoly1,270.000000*%
%ADD97FreePoly0,180.000000*%
%ADD98FreePoly1,180.000000*%
%ADD99RoundRect,0.250000X-1.075000X0.375000X-1.075000X-0.375000X1.075000X-0.375000X1.075000X0.375000X0*%
G04 APERTURE END LIST*
D10*
X84600000Y-82930000D03*
X84600000Y-84580000D03*
D11*
X89100000Y-23750000D03*
X94000000Y-23750000D03*
D12*
X154880000Y-45660000D03*
X154880000Y-47485000D03*
D13*
X21250000Y-100905489D03*
X21250000Y-99255489D03*
D14*
X208814275Y-28630000D03*
X212914275Y-28630000D03*
D10*
X237800000Y-88000000D03*
X237800000Y-89650000D03*
D15*
X52819760Y-50114991D03*
X51169760Y-50114991D03*
D16*
X44300000Y-94600000D03*
X44300000Y-96500000D03*
D17*
X51169760Y-38089511D03*
X52819760Y-38089511D03*
D10*
X173800000Y-32800000D03*
X173800000Y-34450000D03*
D14*
X277324520Y-55500000D03*
X281424520Y-55500000D03*
D10*
X292000000Y-42175000D03*
X292000000Y-43825000D03*
D18*
X273250000Y-71000000D03*
X278250000Y-71000000D03*
D19*
X235244755Y-47490000D03*
X235244755Y-44950000D03*
X235244755Y-42410000D03*
X235244755Y-39870000D03*
X226294755Y-39870000D03*
X226234755Y-42410000D03*
X226234755Y-44950000D03*
X226234755Y-47490000D03*
D20*
X212275000Y-19500000D03*
D21*
X209735000Y-19500000D03*
D15*
X55025000Y-26050000D03*
X53375000Y-26050000D03*
D22*
X259450000Y-64100000D03*
X258650000Y-64100000D03*
D23*
X259050000Y-64950000D03*
D19*
X303755000Y-47360000D03*
X303755000Y-44820000D03*
X303755000Y-42280000D03*
X303755000Y-39740000D03*
X294805000Y-39740000D03*
X294745000Y-42280000D03*
X294745000Y-44820000D03*
X294745000Y-47360000D03*
D24*
X43095000Y-65845000D03*
D25*
X23000000Y-76155489D03*
X25800000Y-76155489D03*
D13*
X223489755Y-64105000D03*
X223489755Y-62455000D03*
D26*
X86700000Y-25000000D03*
X83800000Y-25000000D03*
D24*
X104750000Y-40750000D03*
D27*
X256800000Y-90900000D03*
X256800000Y-92450000D03*
D13*
X155095000Y-105015000D03*
X155095000Y-103365000D03*
D24*
X173000000Y-29200000D03*
D14*
X262500000Y-102500000D03*
X266600000Y-102500000D03*
D24*
X71600000Y-20500000D03*
X81600000Y-20500000D03*
D13*
X105400000Y-73850000D03*
X105400000Y-72200000D03*
D15*
X123030000Y-39660000D03*
X121380000Y-39660000D03*
D28*
X34095000Y-58745000D03*
X34095000Y-54765000D03*
X127125000Y-100275000D03*
D29*
X134745000Y-100275000D03*
X134745000Y-92655000D03*
X129665000Y-92655000D03*
D30*
X292000000Y-40575000D03*
X292000000Y-39025000D03*
D20*
X65460000Y-53750000D03*
D21*
X68000000Y-53750000D03*
D22*
X191240000Y-98205000D03*
X190440000Y-98205000D03*
D23*
X190840000Y-99055000D03*
D18*
X273250000Y-98000000D03*
X278250000Y-98000000D03*
D19*
X245045000Y-82870000D03*
X245045000Y-85410000D03*
X245045000Y-87950000D03*
X245045000Y-90490000D03*
X253995000Y-90490000D03*
X254055000Y-87950000D03*
X254055000Y-85410000D03*
X254055000Y-82870000D03*
D30*
X223490000Y-94705000D03*
X223490000Y-93155000D03*
D15*
X52819760Y-52114991D03*
X51169760Y-52114991D03*
D18*
X265750000Y-86000000D03*
X270750000Y-86000000D03*
D31*
X125487500Y-69520000D03*
X125487500Y-70180000D03*
X125487500Y-70840000D03*
X125487500Y-71500000D03*
D32*
X127480000Y-70510000D03*
D33*
X128472500Y-70177500D03*
X128472500Y-71502500D03*
X128472500Y-70842500D03*
X128472500Y-69517500D03*
D31*
X257365000Y-28660000D03*
X257365000Y-29320000D03*
X257365000Y-29980000D03*
X257365000Y-30640000D03*
D32*
X259357500Y-29650000D03*
D33*
X260350000Y-30642500D03*
X260350000Y-29982500D03*
X260350000Y-29317500D03*
X260350000Y-28657500D03*
D19*
X176534755Y-29000000D03*
X176534755Y-31540000D03*
X176534755Y-34080000D03*
X176534755Y-36620000D03*
X185484755Y-36620000D03*
X185544755Y-34080000D03*
X185544755Y-31540000D03*
X185544755Y-29000000D03*
D27*
X188289755Y-64030000D03*
X188289755Y-65580000D03*
D18*
X265750000Y-32000000D03*
X270750000Y-32000000D03*
D19*
X235244755Y-74490000D03*
X235244755Y-71950000D03*
X235244755Y-69410000D03*
X235244755Y-66870000D03*
X226294755Y-66870000D03*
X226234755Y-69410000D03*
X226234755Y-71950000D03*
X226234755Y-74490000D03*
D34*
X39162500Y-99900000D03*
X39162500Y-99400000D03*
X39162500Y-98900000D03*
X39162500Y-98400000D03*
X39162500Y-97900000D03*
X39162500Y-97400000D03*
X39162500Y-96900000D03*
X39162500Y-96400000D03*
X39162500Y-95900000D03*
X39162500Y-95400000D03*
X39162500Y-94900000D03*
X39162500Y-94400000D03*
X39162500Y-93900000D03*
X39162500Y-93400000D03*
X39162500Y-92900000D03*
X39162500Y-92400000D03*
D35*
X38500000Y-91737500D03*
X38000000Y-91737500D03*
X37500000Y-91737500D03*
X37000000Y-91737500D03*
X36500000Y-91737500D03*
X36000000Y-91737500D03*
X35500000Y-91737500D03*
X35000000Y-91737500D03*
X34500000Y-91737500D03*
X34000000Y-91737500D03*
X33500000Y-91737500D03*
X33000000Y-91737500D03*
X32500000Y-91737500D03*
X32000000Y-91737500D03*
X31500000Y-91737500D03*
X31000000Y-91737500D03*
D34*
X30337500Y-92400000D03*
X30337500Y-92900000D03*
X30337500Y-93400000D03*
X30337500Y-93900000D03*
X30337500Y-94400000D03*
X30337500Y-94900000D03*
X30337500Y-95400000D03*
X30337500Y-95900000D03*
X30337500Y-96400000D03*
X30337500Y-96900000D03*
X30337500Y-97400000D03*
X30337500Y-97900000D03*
X30337500Y-98400000D03*
X30337500Y-98900000D03*
X30337500Y-99400000D03*
X30337500Y-99900000D03*
D35*
X31000000Y-100562500D03*
X31500000Y-100562500D03*
X32000000Y-100562500D03*
X32500000Y-100562500D03*
X33000000Y-100562500D03*
X33500000Y-100562500D03*
X34000000Y-100562500D03*
X34500000Y-100562500D03*
X35000000Y-100562500D03*
X35500000Y-100562500D03*
X36000000Y-100562500D03*
X36500000Y-100562500D03*
X37000000Y-100562500D03*
X37500000Y-100562500D03*
X38000000Y-100562500D03*
X38500000Y-100562500D03*
D36*
X34750000Y-96150000D03*
D37*
X291250000Y-87650000D03*
X291250000Y-85825000D03*
D10*
X292000000Y-96175000D03*
X292000000Y-97825000D03*
D30*
X291250000Y-83950000D03*
X291250000Y-82400000D03*
D15*
X245200000Y-53400000D03*
X243550000Y-53400000D03*
D13*
X15500000Y-99230489D03*
X15500000Y-97580489D03*
D24*
X35300000Y-51200000D03*
D10*
X256800000Y-94000000D03*
X256800000Y-95650000D03*
D15*
X67750000Y-63500000D03*
X66100000Y-63500000D03*
D28*
X54694760Y-32389511D03*
D29*
X54694760Y-34929511D03*
X54694760Y-37469511D03*
X54694760Y-40009511D03*
X54694760Y-42549511D03*
X54694760Y-45089511D03*
X54694760Y-47629511D03*
X54694760Y-50169511D03*
X54694760Y-52709511D03*
X54694760Y-55249511D03*
X54694760Y-57789511D03*
X54694760Y-60329511D03*
X62314760Y-60329511D03*
X62314760Y-57789511D03*
X62314760Y-55249511D03*
X62314760Y-52709511D03*
X62314760Y-50169511D03*
X62314760Y-47629511D03*
X62314760Y-45089511D03*
X62314760Y-42549511D03*
X62314760Y-40009511D03*
X62314760Y-37469511D03*
X62314760Y-34929511D03*
X62314760Y-32389511D03*
D19*
X176535000Y-93970000D03*
X176535000Y-96510000D03*
X176535000Y-99050000D03*
X176535000Y-101590000D03*
X185485000Y-101590000D03*
X185545000Y-99050000D03*
X185545000Y-96510000D03*
X185545000Y-93970000D03*
X235245000Y-101490000D03*
X235245000Y-98950000D03*
X235245000Y-96410000D03*
X235245000Y-93870000D03*
X226295000Y-93870000D03*
X226235000Y-96410000D03*
X226235000Y-98950000D03*
X226235000Y-101490000D03*
D20*
X56750000Y-85250000D03*
D38*
X56750000Y-78750000D03*
X61250000Y-78750000D03*
X61250000Y-85250000D03*
D27*
X256750000Y-97200000D03*
X256750000Y-98750000D03*
D13*
X75025000Y-81155000D03*
X75025000Y-79505000D03*
D39*
X105000000Y-82150000D03*
X105000000Y-80250000D03*
D27*
X188240000Y-97330000D03*
X188240000Y-98880000D03*
D10*
X119780000Y-67260000D03*
X119780000Y-68910000D03*
D14*
X277324520Y-28500000D03*
X281424520Y-28500000D03*
D40*
X33800000Y-105100000D03*
X29700000Y-105100000D03*
D41*
X147880000Y-46160000D03*
D42*
X150180000Y-39860000D03*
D41*
X150180000Y-46160000D03*
X152480000Y-46160000D03*
D43*
X20400000Y-97155489D03*
D44*
X21700000Y-97155489D03*
D40*
X87300000Y-32250000D03*
X83200000Y-32250000D03*
D45*
X34650000Y-34950000D03*
X44550000Y-34950000D03*
D31*
X193997255Y-69390000D03*
X193997255Y-70050000D03*
X193997255Y-70710000D03*
X193997255Y-71370000D03*
D33*
X196982255Y-71372500D03*
X196982255Y-70712500D03*
X196982255Y-69387500D03*
X196982255Y-70047500D03*
D32*
X195989755Y-70380000D03*
D46*
X46100000Y-94600000D03*
X47675000Y-94600000D03*
D30*
X222740000Y-84080000D03*
X222740000Y-82530000D03*
D10*
X223489755Y-42305000D03*
X223489755Y-43955000D03*
D31*
X120345000Y-55920000D03*
X120345000Y-56580000D03*
X120345000Y-57240000D03*
X120345000Y-57900000D03*
D33*
X123330000Y-56577500D03*
X123330000Y-57902500D03*
D32*
X122337500Y-56910000D03*
D33*
X123330000Y-55917500D03*
X123330000Y-57242500D03*
D15*
X52819760Y-32114991D03*
X51169760Y-32114991D03*
D10*
X105250000Y-43850000D03*
X105250000Y-45500000D03*
D19*
X245045000Y-93840000D03*
X245045000Y-96380000D03*
X245045000Y-98920000D03*
X245045000Y-101460000D03*
X253995000Y-101460000D03*
X254055000Y-98920000D03*
X254055000Y-96380000D03*
X254055000Y-93840000D03*
D16*
X156300000Y-82250000D03*
X156300000Y-84150000D03*
D15*
X245250000Y-103800000D03*
X243600000Y-103800000D03*
D41*
X216389755Y-46030000D03*
X218689755Y-46030000D03*
D42*
X218689755Y-39730000D03*
D41*
X220989755Y-46030000D03*
D47*
X83600000Y-79330000D03*
X81700000Y-79330000D03*
D15*
X52819760Y-60114991D03*
X51169760Y-60114991D03*
D47*
X106670000Y-88840000D03*
X104770000Y-88840000D03*
D41*
X147880000Y-73160000D03*
X150180000Y-73160000D03*
D42*
X150180000Y-66860000D03*
D41*
X152480000Y-73160000D03*
D10*
X237800000Y-45400000D03*
X237800000Y-47050000D03*
X237800000Y-99400000D03*
X237800000Y-101050000D03*
D22*
X122730000Y-71335000D03*
X121930000Y-71335000D03*
D23*
X122330000Y-72185000D03*
D48*
X89500000Y-53850000D03*
X82080000Y-53850000D03*
X78370000Y-53850000D03*
X78370000Y-71500000D03*
X82080000Y-71500000D03*
D49*
X89500000Y-71500000D03*
D13*
X119780000Y-62460000D03*
X119780000Y-60810000D03*
D41*
X284900000Y-45900000D03*
D42*
X287200000Y-39600000D03*
D41*
X287200000Y-45900000D03*
X289500000Y-45900000D03*
D13*
X154980000Y-37235000D03*
X154980000Y-35585000D03*
D17*
X51169760Y-48114991D03*
X52819760Y-48114991D03*
D13*
X256800000Y-48225000D03*
X256800000Y-46575000D03*
D24*
X34550000Y-26700000D03*
D37*
X123280000Y-62985000D03*
X123280000Y-61160000D03*
D10*
X169400000Y-34175000D03*
X169400000Y-35825000D03*
D15*
X176800000Y-53600000D03*
X175150000Y-53600000D03*
D24*
X241600000Y-67600000D03*
X152250000Y-93750000D03*
D50*
X67100000Y-73250000D03*
X69000000Y-73250000D03*
D51*
X127475000Y-103225000D03*
X130275000Y-103225000D03*
D15*
X52819760Y-44114991D03*
X51169760Y-44114991D03*
D10*
X40800000Y-47950000D03*
X40800000Y-49600000D03*
D52*
X40095000Y-66345000D03*
D53*
X40095000Y-65045000D03*
D19*
X303755000Y-101360000D03*
X303755000Y-98820000D03*
X303755000Y-96280000D03*
X303755000Y-93740000D03*
X294805000Y-93740000D03*
X294745000Y-96280000D03*
X294745000Y-98820000D03*
X294745000Y-101360000D03*
X176535000Y-83000000D03*
X176535000Y-85540000D03*
X176535000Y-88080000D03*
X176535000Y-90620000D03*
X185485000Y-90620000D03*
X185545000Y-88080000D03*
X185545000Y-85540000D03*
X185545000Y-83000000D03*
D52*
X28250000Y-81955489D03*
D53*
X28250000Y-80655489D03*
D15*
X191539755Y-66530000D03*
X189889755Y-66530000D03*
X191539755Y-39530000D03*
X189889755Y-39530000D03*
D10*
X242300000Y-32750000D03*
X242300000Y-34400000D03*
D54*
X69287500Y-67250000D03*
X69287500Y-66750000D03*
X69287500Y-66250000D03*
X69287500Y-65750000D03*
X69287500Y-65250000D03*
X66362500Y-65250000D03*
X66362500Y-65750000D03*
X66362500Y-66250000D03*
X66362500Y-66750000D03*
X66362500Y-67250000D03*
D55*
X67825000Y-66250000D03*
D48*
X80315000Y-25175000D03*
X72895000Y-25175000D03*
X69185000Y-25175000D03*
X69185000Y-42825000D03*
X72895000Y-42825000D03*
D49*
X80315000Y-42825000D03*
D27*
X188290000Y-91030000D03*
X188290000Y-92580000D03*
D56*
X35675000Y-42495000D03*
X35675000Y-43765000D03*
X35675000Y-45035000D03*
X35675000Y-46305000D03*
X40925000Y-46305000D03*
X40925000Y-45035000D03*
X40925000Y-43765000D03*
X40925000Y-42495000D03*
D57*
X38300000Y-44400000D03*
D12*
X291900000Y-99400000D03*
X291900000Y-101225000D03*
X190040000Y-100530000D03*
X190040000Y-102355000D03*
D13*
X119780000Y-48485000D03*
X119780000Y-46835000D03*
D10*
X306400000Y-45150000D03*
X306400000Y-46800000D03*
D20*
X280985000Y-19500000D03*
D21*
X278445000Y-19500000D03*
D58*
X28500000Y-75655489D03*
X28500000Y-77555489D03*
X30375000Y-76605489D03*
D19*
X235245000Y-90490000D03*
X235245000Y-87950000D03*
X235245000Y-85410000D03*
X235245000Y-82870000D03*
X226295000Y-82870000D03*
X226235000Y-85410000D03*
X226235000Y-87950000D03*
X226235000Y-90490000D03*
D59*
X169050000Y-86700000D03*
X169050000Y-83900000D03*
D12*
X223390000Y-99530000D03*
X223390000Y-101355000D03*
D24*
X107250000Y-53000000D03*
D41*
X220290000Y-83867500D03*
X217990000Y-83867500D03*
D42*
X217990000Y-90167500D03*
D41*
X215690000Y-83867500D03*
D15*
X260050000Y-66400000D03*
X258400000Y-66400000D03*
D12*
X291900000Y-45400000D03*
X291900000Y-47225000D03*
D10*
X292000000Y-69175000D03*
X292000000Y-70825000D03*
D60*
X69725000Y-81475000D03*
X71825000Y-81475000D03*
D61*
X71300000Y-79425000D03*
X71950000Y-79425000D03*
X72600000Y-79425000D03*
X73250000Y-79425000D03*
X73250000Y-76025000D03*
X71300000Y-76025000D03*
X72600000Y-76025000D03*
X71950000Y-76025000D03*
D62*
X72275000Y-77500000D03*
D41*
X288800000Y-56737500D03*
D42*
X286500000Y-63037500D03*
D41*
X286500000Y-56737500D03*
X284200000Y-56737500D03*
D19*
X166735000Y-74620000D03*
X166735000Y-72080000D03*
X166735000Y-69540000D03*
X166735000Y-67000000D03*
X157785000Y-67000000D03*
X157725000Y-69540000D03*
X157725000Y-72080000D03*
X157725000Y-74620000D03*
D28*
X34095000Y-61355000D03*
X34095000Y-65335000D03*
D37*
X222740000Y-87780000D03*
X222740000Y-85955000D03*
X260300000Y-62725000D03*
X260300000Y-60900000D03*
X291250000Y-60650000D03*
X291250000Y-58825000D03*
D12*
X258550000Y-46400000D03*
X258550000Y-48225000D03*
D63*
X40900000Y-100650000D03*
X47200000Y-100650000D03*
X47200000Y-99750000D03*
X40900000Y-99750000D03*
D64*
X46095000Y-65345000D03*
X46095000Y-61845000D03*
D47*
X44300000Y-49200000D03*
X42400000Y-49200000D03*
D14*
X140304520Y-55760000D03*
X144404520Y-55760000D03*
D22*
X122430000Y-37360000D03*
X121630000Y-37360000D03*
D23*
X122030000Y-38210000D03*
D38*
X56750000Y-66750000D03*
D20*
X56750000Y-73250000D03*
D38*
X61250000Y-66750000D03*
X61250000Y-73250000D03*
D17*
X51169760Y-40089511D03*
X52819760Y-40089511D03*
D24*
X173200000Y-36750000D03*
D41*
X151780000Y-56997500D03*
X149480000Y-56997500D03*
D42*
X149480000Y-63297500D03*
D41*
X147180000Y-56997500D03*
D30*
X154230000Y-30210000D03*
X154230000Y-28660000D03*
D24*
X241600000Y-29200000D03*
D10*
X188290000Y-94130000D03*
X188290000Y-95780000D03*
D20*
X133290000Y-87500000D03*
D21*
X130750000Y-87500000D03*
D22*
X259450000Y-91100000D03*
X258650000Y-91100000D03*
D23*
X259050000Y-91950000D03*
D14*
X193989755Y-48630000D03*
X198089755Y-48630000D03*
D10*
X105250000Y-60000000D03*
X105250000Y-61650000D03*
D37*
X191789755Y-62855000D03*
X191789755Y-61030000D03*
D43*
X20400000Y-94500000D03*
D44*
X21700000Y-94500000D03*
D19*
X166850000Y-103690000D03*
X166850000Y-101150000D03*
X166850000Y-98610000D03*
X166850000Y-96070000D03*
X157900000Y-96070000D03*
X157840000Y-98610000D03*
X157840000Y-101150000D03*
X157840000Y-103690000D03*
D10*
X188289755Y-40130000D03*
X188289755Y-41780000D03*
X256800000Y-67000000D03*
X256800000Y-68650000D03*
X122130000Y-68435000D03*
X122130000Y-70085000D03*
D13*
X188290000Y-102355000D03*
X188290000Y-100705000D03*
D22*
X190939755Y-64230000D03*
X190139755Y-64230000D03*
D23*
X190539755Y-65080000D03*
D14*
X262500000Y-75500000D03*
X266600000Y-75500000D03*
D40*
X87300000Y-28250000D03*
X83200000Y-28250000D03*
D10*
X119780000Y-40260000D03*
X119780000Y-41910000D03*
D17*
X51169760Y-36114991D03*
X52819760Y-36114991D03*
D18*
X136230000Y-44260000D03*
X141230000Y-44260000D03*
D10*
X258350000Y-34200000D03*
X258350000Y-35850000D03*
D50*
X35400000Y-48200000D03*
X37300000Y-48200000D03*
D26*
X90050000Y-39500000D03*
X92950000Y-39500000D03*
D65*
X23000000Y-106405489D03*
D66*
X21300000Y-106405489D03*
X21300000Y-108405489D03*
X23200000Y-108405489D03*
D67*
X172697056Y-53697056D03*
X173400000Y-52000000D03*
D68*
X171000000Y-52000000D03*
D67*
X171000000Y-54400000D03*
X169302944Y-50302944D03*
X168600000Y-52000000D03*
X171000000Y-49600000D03*
X172697056Y-50302944D03*
X169302944Y-53697056D03*
D13*
X80100000Y-81330000D03*
X80100000Y-79680000D03*
D37*
X123280000Y-35985000D03*
X123280000Y-34160000D03*
D19*
X245045000Y-55870000D03*
X245045000Y-58410000D03*
X245045000Y-60950000D03*
X245045000Y-63490000D03*
X253995000Y-63490000D03*
X254055000Y-60950000D03*
X254055000Y-58410000D03*
X254055000Y-55870000D03*
D30*
X292000000Y-94575000D03*
X292000000Y-93025000D03*
D22*
X191239755Y-71205000D03*
X190439755Y-71205000D03*
D23*
X190839755Y-72055000D03*
D10*
X258350000Y-61200000D03*
X258350000Y-62850000D03*
D24*
X117480000Y-79090000D03*
X107480000Y-79090000D03*
X38300000Y-51200000D03*
D17*
X25275000Y-112400000D03*
X26925000Y-112400000D03*
D27*
X188239755Y-70330000D03*
X188239755Y-71880000D03*
D69*
X42950000Y-98400000D03*
X44500000Y-98400000D03*
D15*
X75175000Y-86830000D03*
X73525000Y-86830000D03*
D16*
X132375000Y-102275000D03*
X132375000Y-104175000D03*
D10*
X173750000Y-98000000D03*
X173750000Y-99650000D03*
D70*
X44350000Y-47450000D03*
X42800000Y-47450000D03*
D24*
X173200000Y-67800000D03*
X41500000Y-70000000D03*
D14*
X208814520Y-82630000D03*
X212914520Y-82630000D03*
D50*
X168100000Y-81800000D03*
X170000000Y-81800000D03*
D41*
X288800000Y-29737500D03*
X286500000Y-29737500D03*
D42*
X286500000Y-36037500D03*
D41*
X284200000Y-29737500D03*
D13*
X188289755Y-75355000D03*
X188289755Y-73705000D03*
D15*
X44450000Y-45950000D03*
X42800000Y-45950000D03*
D10*
X256800000Y-40000000D03*
X256800000Y-41650000D03*
X306400000Y-33975000D03*
X306400000Y-35625000D03*
D30*
X222739755Y-57080000D03*
X222739755Y-55530000D03*
D18*
X204739755Y-44130000D03*
X209739755Y-44130000D03*
D10*
X189839755Y-61330000D03*
X189839755Y-62980000D03*
D24*
X134875000Y-103225000D03*
D12*
X121530000Y-73660000D03*
X121530000Y-75485000D03*
D71*
X32150000Y-108775000D03*
D72*
X32150000Y-110045000D03*
X30880000Y-108775000D03*
X30880000Y-110045000D03*
X29610000Y-108775000D03*
X29610000Y-110045000D03*
X28340000Y-108775000D03*
X28340000Y-110045000D03*
X27070000Y-108775000D03*
X27070000Y-110045000D03*
D19*
X176534755Y-39970000D03*
X176534755Y-42510000D03*
X176534755Y-45050000D03*
X176534755Y-47590000D03*
X185484755Y-47590000D03*
X185544755Y-45050000D03*
X185544755Y-42510000D03*
X185544755Y-39970000D03*
D30*
X28850000Y-92750000D03*
X28850000Y-91200000D03*
D37*
X154230000Y-60910000D03*
X154230000Y-59085000D03*
D50*
X127400000Y-106000000D03*
X129300000Y-106000000D03*
D10*
X68275000Y-81325000D03*
X68275000Y-82975000D03*
D31*
X257365000Y-82660000D03*
X257365000Y-83320000D03*
X257365000Y-83980000D03*
X257365000Y-84640000D03*
D33*
X260350000Y-83982500D03*
X260350000Y-82657500D03*
X260350000Y-84642500D03*
D32*
X259357500Y-83650000D03*
D33*
X260350000Y-83317500D03*
D19*
X303755000Y-90360000D03*
X303755000Y-87820000D03*
X303755000Y-85280000D03*
X303755000Y-82740000D03*
X294805000Y-82740000D03*
X294745000Y-85280000D03*
X294745000Y-87820000D03*
X294745000Y-90360000D03*
D31*
X120345000Y-28920000D03*
X120345000Y-29580000D03*
X120345000Y-30240000D03*
X120345000Y-30900000D03*
D33*
X123330000Y-30902500D03*
D32*
X122337500Y-29910000D03*
D33*
X123330000Y-30242500D03*
X123330000Y-29577500D03*
X123330000Y-28917500D03*
D13*
X256800000Y-35200000D03*
X256800000Y-33550000D03*
D24*
X48050000Y-50950000D03*
D15*
X260050000Y-93400000D03*
X258400000Y-93400000D03*
D14*
X89450000Y-32250000D03*
X93550000Y-32250000D03*
D30*
X222739755Y-30080000D03*
X222739755Y-28530000D03*
D13*
X23000000Y-100905489D03*
X23000000Y-99255489D03*
D20*
X87750000Y-39710000D03*
X87750000Y-43290000D03*
D18*
X136230000Y-71260000D03*
X141230000Y-71260000D03*
D16*
X47550000Y-38800000D03*
X47550000Y-40700000D03*
D24*
X244400000Y-51000000D03*
D37*
X291250000Y-33650000D03*
X291250000Y-31825000D03*
D17*
X53375000Y-24300000D03*
X55025000Y-24300000D03*
D65*
X22950000Y-102905489D03*
D66*
X21250000Y-102905489D03*
X21250000Y-104905489D03*
X23150000Y-104905489D03*
D13*
X292000000Y-63975000D03*
X292000000Y-62325000D03*
D41*
X216389755Y-73030000D03*
X218689755Y-73030000D03*
D42*
X218689755Y-66730000D03*
D41*
X220989755Y-73030000D03*
D24*
X66000000Y-81500000D03*
D10*
X237800000Y-61000000D03*
X237800000Y-62650000D03*
D67*
X302600000Y-20000000D03*
X306697056Y-18302944D03*
X306697056Y-21697056D03*
X303302944Y-21697056D03*
D68*
X305000000Y-20000000D03*
D67*
X305000000Y-17600000D03*
X307400000Y-20000000D03*
X305000000Y-22400000D03*
X303302944Y-18302944D03*
D18*
X265750000Y-59000000D03*
X270750000Y-59000000D03*
D10*
X121330000Y-34460000D03*
X121330000Y-36110000D03*
X190640000Y-95305000D03*
X190640000Y-96955000D03*
D14*
X125480000Y-75760000D03*
X129580000Y-75760000D03*
D13*
X169600000Y-99200000D03*
X169600000Y-97550000D03*
D24*
X84250000Y-43000000D03*
D12*
X223389755Y-45530000D03*
X223389755Y-47355000D03*
D73*
X77375000Y-83020000D03*
X77375000Y-84290000D03*
X77375000Y-85560000D03*
X77375000Y-86830000D03*
X77375000Y-88100000D03*
X77375000Y-89370000D03*
X77375000Y-90640000D03*
X82325000Y-90640000D03*
X82325000Y-89370000D03*
X82325000Y-88100000D03*
X82325000Y-86830000D03*
X82325000Y-85560000D03*
X82325000Y-84290000D03*
X82325000Y-83020000D03*
D10*
X237800000Y-34000000D03*
X237800000Y-35650000D03*
D20*
X56750000Y-97250000D03*
D38*
X56750000Y-90750000D03*
X61250000Y-90750000D03*
X61250000Y-97250000D03*
D12*
X258550000Y-73400000D03*
X258550000Y-75225000D03*
D13*
X188289755Y-62330000D03*
X188289755Y-60680000D03*
X292000000Y-36975000D03*
X292000000Y-35325000D03*
D14*
X140304520Y-28760000D03*
X144404520Y-28760000D03*
D41*
X284900000Y-99900000D03*
D42*
X287200000Y-93600000D03*
D41*
X287200000Y-99900000D03*
X289500000Y-99900000D03*
D74*
X66000000Y-59500000D03*
X66000000Y-56550000D03*
D10*
X169400000Y-72375000D03*
X169400000Y-74025000D03*
D12*
X291900000Y-72400000D03*
X291900000Y-74225000D03*
D10*
X259150000Y-68175000D03*
X259150000Y-69825000D03*
D31*
X193997500Y-96390000D03*
X193997500Y-97050000D03*
X193997500Y-97710000D03*
X193997500Y-98370000D03*
D33*
X196982500Y-98372500D03*
X196982500Y-97047500D03*
D32*
X195990000Y-97380000D03*
D33*
X196982500Y-97712500D03*
X196982500Y-96387500D03*
D75*
X155520000Y-102090000D03*
X155520000Y-101290000D03*
D76*
X154670000Y-101690000D03*
D30*
X154980000Y-40835000D03*
X154980000Y-39285000D03*
D10*
X105250000Y-32850000D03*
X105250000Y-34500000D03*
D24*
X18300000Y-85655489D03*
D77*
X13900000Y-85655489D03*
D78*
X20000000Y-80155489D03*
X13800000Y-80155489D03*
X13800000Y-91155489D03*
X20000000Y-91155489D03*
D13*
X223489755Y-37105000D03*
X223489755Y-35455000D03*
D24*
X53750000Y-66500000D03*
D37*
X222739755Y-33780000D03*
X222739755Y-31955000D03*
X191789755Y-35855000D03*
X191789755Y-34030000D03*
D30*
X155095000Y-97965000D03*
X155095000Y-96415000D03*
D14*
X208814275Y-55630000D03*
X212914275Y-55630000D03*
D24*
X173250000Y-93500000D03*
D15*
X245200000Y-80400000D03*
X243550000Y-80400000D03*
D22*
X122730000Y-44335000D03*
X121930000Y-44335000D03*
D23*
X122330000Y-45185000D03*
D27*
X119730000Y-70460000D03*
X119730000Y-72010000D03*
D10*
X189840000Y-88330000D03*
X189840000Y-89980000D03*
D15*
X75175000Y-85005000D03*
X73525000Y-85005000D03*
D19*
X108025000Y-29130000D03*
X108025000Y-31670000D03*
X108025000Y-34210000D03*
X108025000Y-36750000D03*
X116975000Y-36750000D03*
X117035000Y-34210000D03*
X117035000Y-31670000D03*
X117035000Y-29130000D03*
D27*
X188239755Y-43330000D03*
X188239755Y-44880000D03*
D79*
X46050000Y-47700000D03*
X46050000Y-49275000D03*
D41*
X216390000Y-100030000D03*
X218690000Y-100030000D03*
D42*
X218690000Y-93730000D03*
D41*
X220990000Y-100030000D03*
D13*
X256800000Y-102225000D03*
X256800000Y-100575000D03*
X154980000Y-64235000D03*
X154980000Y-62585000D03*
D39*
X48700000Y-92700000D03*
X48700000Y-90800000D03*
D37*
X191790000Y-89855000D03*
X191790000Y-88030000D03*
D17*
X42270000Y-63345000D03*
X43920000Y-63345000D03*
D41*
X220289755Y-29867500D03*
D42*
X217989755Y-36167500D03*
D41*
X217989755Y-29867500D03*
X215689755Y-29867500D03*
D14*
X277324520Y-82500000D03*
X281424520Y-82500000D03*
D17*
X84525000Y-90580000D03*
X86175000Y-90580000D03*
D12*
X223389755Y-72530000D03*
X223389755Y-74355000D03*
D37*
X260300000Y-89725000D03*
X260300000Y-87900000D03*
D19*
X235244755Y-63490000D03*
X235244755Y-60950000D03*
X235244755Y-58410000D03*
X235244755Y-55870000D03*
X226294755Y-55870000D03*
X226234755Y-58410000D03*
X226234755Y-60950000D03*
X226234755Y-63490000D03*
D16*
X170000000Y-88500000D03*
X170000000Y-90400000D03*
D24*
X104500000Y-76750000D03*
D18*
X204740000Y-98130000D03*
X209740000Y-98130000D03*
D24*
X171250000Y-78000000D03*
D27*
X188289755Y-37030000D03*
X188289755Y-38580000D03*
D10*
X169480000Y-61200000D03*
X169480000Y-62850000D03*
X34750000Y-68850000D03*
X34750000Y-70500000D03*
D22*
X190939755Y-37230000D03*
X190139755Y-37230000D03*
D23*
X190539755Y-38080000D03*
D10*
X121330000Y-61460000D03*
X121330000Y-63110000D03*
D20*
X192155000Y-19500000D03*
D21*
X189615000Y-19500000D03*
D28*
X108670000Y-83540000D03*
D29*
X108670000Y-91160000D03*
X116290000Y-91160000D03*
X116290000Y-86080000D03*
D39*
X118470000Y-89290000D03*
X118470000Y-87390000D03*
D31*
X188854755Y-55790000D03*
X188854755Y-56450000D03*
X188854755Y-57110000D03*
X188854755Y-57770000D03*
D33*
X191839755Y-55787500D03*
D32*
X190847255Y-56780000D03*
D33*
X191839755Y-57112500D03*
X191839755Y-57772500D03*
X191839755Y-56447500D03*
D14*
X89450000Y-28250000D03*
X93550000Y-28250000D03*
D19*
X108025000Y-67100000D03*
X108025000Y-69640000D03*
X108025000Y-72180000D03*
X108025000Y-74720000D03*
X116975000Y-74720000D03*
X117035000Y-72180000D03*
X117035000Y-69640000D03*
X117035000Y-67100000D03*
D12*
X154880000Y-72660000D03*
X154880000Y-74485000D03*
D27*
X37345000Y-63070000D03*
X37345000Y-64620000D03*
D17*
X84525000Y-86330000D03*
X86175000Y-86330000D03*
D24*
X122600000Y-91465000D03*
X122600000Y-101465000D03*
D31*
X193997255Y-42390000D03*
X193997255Y-43050000D03*
X193997255Y-43710000D03*
X193997255Y-44370000D03*
D33*
X196982255Y-43047500D03*
D32*
X195989755Y-43380000D03*
D33*
X196982255Y-44372500D03*
X196982255Y-43712500D03*
X196982255Y-42387500D03*
D27*
X119780000Y-64160000D03*
X119780000Y-65710000D03*
D19*
X108025000Y-56130000D03*
X108025000Y-58670000D03*
X108025000Y-61210000D03*
X108025000Y-63750000D03*
X116975000Y-63750000D03*
X117035000Y-61210000D03*
X117035000Y-58670000D03*
X117035000Y-56130000D03*
D22*
X259750000Y-44075000D03*
X258950000Y-44075000D03*
D23*
X259350000Y-44925000D03*
D15*
X75175000Y-88755000D03*
X73525000Y-88755000D03*
D37*
X260300000Y-35725000D03*
X260300000Y-33900000D03*
D19*
X303755000Y-36360000D03*
X303755000Y-33820000D03*
X303755000Y-31280000D03*
X303755000Y-28740000D03*
X294805000Y-28740000D03*
X294745000Y-31280000D03*
X294745000Y-33820000D03*
X294745000Y-36360000D03*
D30*
X154230000Y-57210000D03*
X154230000Y-55660000D03*
D10*
X259150000Y-41175000D03*
X259150000Y-42825000D03*
D80*
X19150000Y-76155489D03*
X14750000Y-76155489D03*
D10*
X190639755Y-68305000D03*
X190639755Y-69955000D03*
D41*
X284900000Y-72900000D03*
X287200000Y-72900000D03*
D42*
X287200000Y-66600000D03*
D41*
X289500000Y-72900000D03*
X151780000Y-29997500D03*
D42*
X149480000Y-36297500D03*
D41*
X149480000Y-29997500D03*
X147180000Y-29997500D03*
D12*
X190039755Y-73530000D03*
X190039755Y-75355000D03*
D18*
X197239755Y-32130000D03*
X202239755Y-32130000D03*
D20*
X145000000Y-81975000D03*
D21*
X145000000Y-84515000D03*
X145000000Y-87055000D03*
D14*
X125480000Y-48760000D03*
X129580000Y-48760000D03*
D24*
X157240000Y-91550000D03*
X167240000Y-91550000D03*
D20*
X270825000Y-19500000D03*
D21*
X268285000Y-19500000D03*
D31*
X262507500Y-69260000D03*
X262507500Y-69920000D03*
X262507500Y-70580000D03*
X262507500Y-71240000D03*
D33*
X265492500Y-69917500D03*
D32*
X264500000Y-70250000D03*
D33*
X265492500Y-71242500D03*
X265492500Y-69257500D03*
X265492500Y-70582500D03*
D13*
X256800000Y-62200000D03*
X256800000Y-60550000D03*
D30*
X25100000Y-110650000D03*
X25100000Y-109100000D03*
D19*
X303755000Y-74360000D03*
X303755000Y-71820000D03*
X303755000Y-69280000D03*
X303755000Y-66740000D03*
X294805000Y-66740000D03*
X294745000Y-69280000D03*
X294745000Y-71820000D03*
X294745000Y-74360000D03*
X176534755Y-66970000D03*
X176534755Y-69510000D03*
X176534755Y-72050000D03*
X176534755Y-74590000D03*
X185484755Y-74590000D03*
X185544755Y-72050000D03*
X185544755Y-69510000D03*
X185544755Y-66970000D03*
X245045000Y-39840000D03*
X245045000Y-42380000D03*
X245045000Y-44920000D03*
X245045000Y-47460000D03*
X253995000Y-47460000D03*
X254055000Y-44920000D03*
X254055000Y-42380000D03*
X254055000Y-39840000D03*
D17*
X84525000Y-88080000D03*
X86175000Y-88080000D03*
D30*
X291250000Y-56950000D03*
X291250000Y-55400000D03*
D39*
X47550000Y-31200000D03*
X47550000Y-29300000D03*
D20*
X123645000Y-19500000D03*
D21*
X121105000Y-19500000D03*
D10*
X306400000Y-72200000D03*
X306400000Y-73850000D03*
D19*
X166735000Y-47620000D03*
X166735000Y-45080000D03*
X166735000Y-42540000D03*
X166735000Y-40000000D03*
X157785000Y-40000000D03*
X157725000Y-42540000D03*
X157725000Y-45080000D03*
X157725000Y-47620000D03*
D50*
X65500000Y-61500000D03*
X67400000Y-61500000D03*
D81*
X43000000Y-43450000D03*
X44800000Y-43450000D03*
D19*
X245045000Y-66840000D03*
X245045000Y-69380000D03*
X245045000Y-71920000D03*
X245045000Y-74460000D03*
X253995000Y-74460000D03*
X254055000Y-71920000D03*
X254055000Y-69380000D03*
X254055000Y-66840000D03*
D31*
X188854755Y-28790000D03*
X188854755Y-29450000D03*
X188854755Y-30110000D03*
X188854755Y-30770000D03*
D33*
X191839755Y-29447500D03*
D32*
X190847255Y-29780000D03*
D33*
X191839755Y-28787500D03*
X191839755Y-30772500D03*
X191839755Y-30112500D03*
D47*
X132825000Y-90475000D03*
X130925000Y-90475000D03*
D24*
X241600000Y-40800000D03*
D10*
X258350000Y-88200000D03*
X258350000Y-89850000D03*
D82*
X15830000Y-36000000D03*
X20910000Y-28380000D03*
D83*
X24720000Y-36000000D03*
X25355000Y-28380000D03*
D84*
X29170000Y-32190000D03*
X19000000Y-40440000D03*
D18*
X204739755Y-71130000D03*
X209739755Y-71130000D03*
D10*
X306400000Y-88000000D03*
X306400000Y-89650000D03*
D24*
X244400000Y-78000000D03*
D67*
X171000000Y-106600000D03*
X172697056Y-110697056D03*
X173400000Y-109000000D03*
D68*
X171000000Y-109000000D03*
D67*
X169302944Y-107302944D03*
X172697056Y-107302944D03*
X168600000Y-109000000D03*
X169302944Y-110697056D03*
X171000000Y-111400000D03*
D18*
X273250000Y-44000000D03*
X278250000Y-44000000D03*
D41*
X288800000Y-83737500D03*
X286500000Y-83737500D03*
D42*
X286500000Y-90037500D03*
D41*
X284200000Y-83737500D03*
D17*
X44520000Y-60095000D03*
X46170000Y-60095000D03*
X51169760Y-34114991D03*
X52819760Y-34114991D03*
D13*
X25100000Y-115725000D03*
X25100000Y-114075000D03*
D30*
X36500000Y-89600000D03*
X36500000Y-88050000D03*
D14*
X89450000Y-36250000D03*
X93550000Y-36250000D03*
D31*
X262507500Y-96260000D03*
X262507500Y-96920000D03*
X262507500Y-97580000D03*
X262507500Y-98240000D03*
D33*
X265492500Y-97582500D03*
D32*
X264500000Y-97250000D03*
D33*
X265492500Y-96917500D03*
X265492500Y-96257500D03*
X265492500Y-98242500D03*
D24*
X35300000Y-76500000D03*
D15*
X52819760Y-42114991D03*
X51169760Y-42114991D03*
D13*
X292000000Y-90975000D03*
X292000000Y-89325000D03*
D28*
X41095000Y-54845000D03*
X37115000Y-54845000D03*
D27*
X256800000Y-36900000D03*
X256800000Y-38450000D03*
D30*
X291250000Y-29950000D03*
X291250000Y-28400000D03*
D20*
X47350000Y-21750000D03*
D21*
X44810000Y-21750000D03*
X42270000Y-21750000D03*
D22*
X259450000Y-37100000D03*
X258650000Y-37100000D03*
D23*
X259050000Y-37950000D03*
D10*
X154980000Y-42435000D03*
X154980000Y-44085000D03*
D15*
X52819760Y-46114991D03*
X51169760Y-46114991D03*
D12*
X121530000Y-46660000D03*
X121530000Y-48485000D03*
D27*
X119780000Y-37160000D03*
X119780000Y-38710000D03*
D19*
X166735000Y-63620000D03*
X166735000Y-61080000D03*
X166735000Y-58540000D03*
X166735000Y-56000000D03*
X157785000Y-56000000D03*
X157725000Y-58540000D03*
X157725000Y-61080000D03*
X157725000Y-63620000D03*
D10*
X306400000Y-99200000D03*
X306400000Y-100850000D03*
D20*
X260665000Y-19500000D03*
D21*
X258125000Y-19500000D03*
D15*
X52819760Y-54114991D03*
X51169760Y-54114991D03*
D10*
X173750000Y-39000000D03*
X173750000Y-40650000D03*
D22*
X190940000Y-91230000D03*
X190140000Y-91230000D03*
D23*
X190540000Y-92080000D03*
D13*
X223490000Y-91105000D03*
X223490000Y-89455000D03*
D68*
X305000000Y-114000000D03*
D67*
X306697056Y-115697056D03*
X306697056Y-112302944D03*
X302600000Y-114000000D03*
X307400000Y-114000000D03*
X303302944Y-115697056D03*
X305000000Y-111600000D03*
X303302944Y-112302944D03*
X305000000Y-116400000D03*
D31*
X188855000Y-82790000D03*
X188855000Y-83450000D03*
X188855000Y-84110000D03*
X188855000Y-84770000D03*
D33*
X191840000Y-84772500D03*
D32*
X190847500Y-83780000D03*
D33*
X191840000Y-82787500D03*
X191840000Y-83447500D03*
X191840000Y-84112500D03*
D20*
X133805000Y-19500000D03*
D21*
X131265000Y-19500000D03*
D27*
X256750000Y-43200000D03*
X256750000Y-44750000D03*
D19*
X235244755Y-36490000D03*
X235244755Y-33950000D03*
X235244755Y-31410000D03*
X235244755Y-28870000D03*
X226294755Y-28870000D03*
X226234755Y-31410000D03*
X226234755Y-33950000D03*
X226234755Y-36490000D03*
D30*
X223489755Y-40705000D03*
X223489755Y-39155000D03*
D10*
X190639755Y-41305000D03*
X190639755Y-42955000D03*
D85*
X71600000Y-86625000D03*
X71600000Y-84725000D03*
X69725000Y-85675000D03*
D30*
X223489755Y-67705000D03*
X223489755Y-66155000D03*
D15*
X52819760Y-56114991D03*
X51169760Y-56114991D03*
D37*
X222739755Y-60780000D03*
X222739755Y-58955000D03*
D24*
X152345000Y-98690000D03*
X244400000Y-106200000D03*
D67*
X39400000Y-112000000D03*
X37000000Y-114400000D03*
X35302944Y-110302944D03*
X34600000Y-112000000D03*
D68*
X37000000Y-112000000D03*
D67*
X38697056Y-110302944D03*
X35302944Y-113697056D03*
X38697056Y-113697056D03*
X37000000Y-109600000D03*
D10*
X169600000Y-102375000D03*
X169600000Y-104025000D03*
X169400000Y-45400000D03*
X169400000Y-47050000D03*
D27*
X33550000Y-42425000D03*
X33550000Y-43975000D03*
D10*
X242400000Y-43600000D03*
X242400000Y-45250000D03*
D17*
X25000000Y-78405489D03*
X26650000Y-78405489D03*
D15*
X176600000Y-80400000D03*
X174950000Y-80400000D03*
D86*
X93000000Y-20250000D03*
X90075000Y-20250000D03*
D10*
X188289755Y-67130000D03*
X188289755Y-68780000D03*
D28*
X166050000Y-87050000D03*
D29*
X166050000Y-79430000D03*
X158430000Y-79430000D03*
X158430000Y-84510000D03*
D24*
X173250000Y-45000000D03*
D20*
X202115000Y-19500000D03*
D21*
X199575000Y-19500000D03*
D41*
X220289755Y-56867500D03*
X217989755Y-56867500D03*
D42*
X217989755Y-63167500D03*
D41*
X215689755Y-56867500D03*
D10*
X154980000Y-69435000D03*
X154980000Y-71085000D03*
X189839755Y-34330000D03*
X189839755Y-35980000D03*
X122130000Y-41435000D03*
X122130000Y-43085000D03*
D87*
X42310000Y-61500000D03*
X42310000Y-60230000D03*
X42310000Y-58960000D03*
X42310000Y-57690000D03*
X37380000Y-57690000D03*
X37380000Y-58960000D03*
X37380000Y-60230000D03*
X37380000Y-61500000D03*
D17*
X51169760Y-58114991D03*
X52819760Y-58114991D03*
D18*
X197239755Y-59130000D03*
X202239755Y-59130000D03*
D75*
X155520000Y-100090000D03*
X155520000Y-99290000D03*
D76*
X154670000Y-99690000D03*
D20*
X55000000Y-112250000D03*
D21*
X55000000Y-114790000D03*
X52460000Y-112250000D03*
X52460000Y-114790000D03*
X49920000Y-112250000D03*
X49920000Y-114790000D03*
X47380000Y-112250000D03*
X47380000Y-114790000D03*
X44840000Y-112250000D03*
X44840000Y-114790000D03*
X42300000Y-112250000D03*
X42300000Y-114790000D03*
D13*
X188289755Y-35330000D03*
X188289755Y-33680000D03*
D38*
X56750000Y-102750000D03*
D20*
X56750000Y-109250000D03*
D38*
X61250000Y-109250000D03*
X61250000Y-102750000D03*
D13*
X188290000Y-89330000D03*
X188290000Y-87680000D03*
X119780000Y-75485000D03*
X119780000Y-73835000D03*
X119780000Y-35460000D03*
X119780000Y-33810000D03*
D19*
X166735000Y-36620000D03*
X166735000Y-34080000D03*
X166735000Y-31540000D03*
X166735000Y-29000000D03*
X157785000Y-29000000D03*
X157725000Y-31540000D03*
X157725000Y-34080000D03*
X157725000Y-36620000D03*
D31*
X257365000Y-55660000D03*
X257365000Y-56320000D03*
X257365000Y-56980000D03*
X257365000Y-57640000D03*
D33*
X260350000Y-56982500D03*
X260350000Y-57642500D03*
D32*
X259357500Y-56650000D03*
D33*
X260350000Y-55657500D03*
X260350000Y-56317500D03*
D27*
X256800000Y-63900000D03*
X256800000Y-65450000D03*
D24*
X73775000Y-91225000D03*
D27*
X256750000Y-70200000D03*
X256750000Y-71750000D03*
D24*
X17000000Y-94905489D03*
D79*
X21000000Y-75405489D03*
X21000000Y-76980489D03*
D18*
X128730000Y-32260000D03*
X133730000Y-32260000D03*
D70*
X83350000Y-81475000D03*
X81800000Y-81475000D03*
D22*
X259750000Y-71075000D03*
X258950000Y-71075000D03*
D23*
X259350000Y-71925000D03*
D15*
X260050000Y-39400000D03*
X258400000Y-39400000D03*
D10*
X306400000Y-61000000D03*
X306400000Y-62650000D03*
D15*
X123030000Y-66660000D03*
X121380000Y-66660000D03*
D88*
X36500000Y-70375000D03*
X38400000Y-70375000D03*
X37450000Y-68500000D03*
D10*
X237800000Y-72350000D03*
X237800000Y-74000000D03*
D70*
X34850000Y-102200000D03*
X33300000Y-102200000D03*
D89*
X17700000Y-110045489D03*
X17700000Y-104265489D03*
D90*
X18750000Y-103955489D03*
X18750000Y-104755489D03*
D91*
X18750000Y-105905489D03*
X18750000Y-106905489D03*
X18750000Y-107405489D03*
X18750000Y-108405489D03*
D90*
X18750000Y-109555489D03*
X18750000Y-110355489D03*
X18750000Y-110355489D03*
X18750000Y-109555489D03*
D91*
X18750000Y-108905489D03*
X18750000Y-107905489D03*
X18750000Y-106405489D03*
X18750000Y-105405489D03*
D90*
X18750000Y-104755489D03*
X18750000Y-103955489D03*
D92*
X18200000Y-102835489D03*
X18200000Y-111475489D03*
D93*
X14020000Y-102835489D03*
X14020000Y-111475489D03*
D24*
X70000000Y-93750000D03*
D12*
X190039755Y-46530000D03*
X190039755Y-48355000D03*
D30*
X28850000Y-101350000D03*
X28850000Y-99800000D03*
D13*
X256800000Y-75225000D03*
X256800000Y-73575000D03*
D94*
X60000000Y-24600000D03*
X60000000Y-26000000D03*
X56900000Y-24600000D03*
X56900000Y-26000000D03*
D18*
X128730000Y-59260000D03*
X133730000Y-59260000D03*
D10*
X242400000Y-70600000D03*
X242400000Y-72250000D03*
D22*
X122430000Y-64360000D03*
X121630000Y-64360000D03*
D23*
X122030000Y-65210000D03*
D13*
X33000000Y-70500000D03*
X33000000Y-68850000D03*
X188289755Y-48355000D03*
X188289755Y-46705000D03*
D22*
X259750000Y-98075000D03*
X258950000Y-98075000D03*
D23*
X259350000Y-98925000D03*
D19*
X303755000Y-63360000D03*
X303755000Y-60820000D03*
X303755000Y-58280000D03*
X303755000Y-55740000D03*
X294805000Y-55740000D03*
X294745000Y-58280000D03*
X294745000Y-60820000D03*
X294745000Y-63360000D03*
X245045000Y-28870000D03*
X245045000Y-31410000D03*
X245045000Y-33950000D03*
X245045000Y-36490000D03*
X253995000Y-36490000D03*
X254055000Y-33950000D03*
X254055000Y-31410000D03*
X254055000Y-28870000D03*
D30*
X154980000Y-67835000D03*
X154980000Y-66285000D03*
D10*
X173800000Y-70725000D03*
X173800000Y-72375000D03*
D40*
X87300000Y-36250000D03*
X83200000Y-36250000D03*
D24*
X22000000Y-115100000D03*
D19*
X108025000Y-40100000D03*
X108025000Y-42640000D03*
X108025000Y-45180000D03*
X108025000Y-47720000D03*
X116975000Y-47720000D03*
X117035000Y-45180000D03*
X117035000Y-42640000D03*
X117035000Y-40100000D03*
D13*
X73375000Y-82975000D03*
X73375000Y-81325000D03*
D85*
X26937500Y-85705489D03*
X26937500Y-83805489D03*
X25062500Y-84755489D03*
D95*
X25500000Y-80655489D03*
D96*
X25500000Y-81955489D03*
D37*
X154230000Y-33910000D03*
X154230000Y-32085000D03*
D27*
X119730000Y-43460000D03*
X119730000Y-45010000D03*
D17*
X151850000Y-96350000D03*
X153500000Y-96350000D03*
D97*
X46145000Y-57845000D03*
D98*
X44845000Y-57845000D03*
D24*
X77600000Y-80475000D03*
D14*
X193989755Y-75630000D03*
X198089755Y-75630000D03*
X262500000Y-48500000D03*
X266600000Y-48500000D03*
D31*
X262507500Y-42260000D03*
X262507500Y-42920000D03*
X262507500Y-43580000D03*
X262507500Y-44240000D03*
D33*
X265492500Y-42257500D03*
X265492500Y-42917500D03*
D32*
X264500000Y-43250000D03*
D33*
X265492500Y-44242500D03*
X265492500Y-43582500D03*
D18*
X197240000Y-86130000D03*
X202240000Y-86130000D03*
D10*
X259150000Y-95175000D03*
X259150000Y-96825000D03*
D15*
X191540000Y-93530000D03*
X189890000Y-93530000D03*
D12*
X258550000Y-100400000D03*
X258550000Y-102225000D03*
D69*
X42950000Y-102000000D03*
X44500000Y-102000000D03*
D95*
X27350000Y-104750000D03*
D96*
X27350000Y-106050000D03*
D14*
X66000000Y-70250000D03*
X70100000Y-70250000D03*
D82*
X15830000Y-64775489D03*
X20910000Y-57155489D03*
D83*
X29800000Y-57155489D03*
X29800000Y-64775489D03*
D84*
X29800000Y-60965489D03*
X24720000Y-60965489D03*
D39*
X13750000Y-99355489D03*
X13750000Y-97455489D03*
D24*
X169500000Y-114000000D03*
D10*
X223489755Y-69305000D03*
X223489755Y-70955000D03*
D24*
X104750000Y-29750000D03*
X13750000Y-94905489D03*
X79775000Y-92975000D03*
D31*
X125487500Y-42520000D03*
X125487500Y-43180000D03*
X125487500Y-43840000D03*
X125487500Y-44500000D03*
D33*
X128472500Y-42517500D03*
D32*
X127480000Y-43510000D03*
D33*
X128472500Y-44502500D03*
X128472500Y-43842500D03*
X128472500Y-43177500D03*
D13*
X256800000Y-89200000D03*
X256800000Y-87550000D03*
D10*
X223490000Y-96305000D03*
X223490000Y-97955000D03*
D22*
X191239755Y-44205000D03*
X190439755Y-44205000D03*
D23*
X190839755Y-45055000D03*
D67*
X37000000Y-19600000D03*
X35302944Y-20302944D03*
D68*
X37000000Y-22000000D03*
D67*
X37000000Y-24400000D03*
X35302944Y-23697056D03*
X34600000Y-22000000D03*
X39400000Y-22000000D03*
X38697056Y-23697056D03*
X38697056Y-20302944D03*
D99*
X105720000Y-83940000D03*
X105720000Y-86740000D03*
D30*
X292000000Y-67575000D03*
X292000000Y-66025000D03*
D19*
X176534755Y-56000000D03*
X176534755Y-58540000D03*
X176534755Y-61080000D03*
X176534755Y-63620000D03*
X185484755Y-63620000D03*
X185544755Y-61080000D03*
X185544755Y-58540000D03*
X185544755Y-56000000D03*
D14*
X193990000Y-102630000D03*
X198090000Y-102630000D03*
D69*
X40800000Y-96400000D03*
X42350000Y-96400000D03*
D17*
X29275000Y-112400000D03*
X30925000Y-112400000D03*
D24*
X64000000Y-95000000D03*
M02*
