M48
; DRILL file {KiCad 6.0.5} date Sat 11 Jun 2022 02:34:33 AM CEST
; FORMAT={-:-/ absolute / metric / decimal}
; #@! TF.CreationDate,2022-06-11T02:34:33+02:00
; #@! TF.GenerationSoftware,Kicad,Pcbnew,6.0.5
; #@! TF.FileFunction,Plated,1,4,PTH
FMAT,2
METRIC
; #@! TA.AperFunction,Plated,PTH,ComponentDrill
T1C0.200
; #@! TA.AperFunction,Plated,PTH,ViaDrill
T2C0.300
; #@! TA.AperFunction,Plated,PTH,ViaDrill
T3C0.400
; #@! TA.AperFunction,Plated,PTH,ViaDrill
T4C0.500
; #@! TA.AperFunction,Plated,PTH,ComponentDrill
T5C0.500
; #@! TA.AperFunction,Plated,PTH,ComponentDrill
T6C0.600
; #@! TA.AperFunction,Plated,PTH,ComponentDrill
T7C0.650
; #@! TA.AperFunction,Plated,PTH,ComponentDrill
T8C0.800
; #@! TA.AperFunction,Plated,PTH,ComponentDrill
T9C1.000
; #@! TA.AperFunction,Plated,PTH,ComponentDrill
T10C1.200
; #@! TA.AperFunction,Plated,PTH,ComponentDrill
T11C1.600
; #@! TA.AperFunction,Plated,PTH,ComponentDrill
T12C3.200
%
G90
G05
T1
X32.65Y-94.05
X32.65Y-95.45
X32.65Y-96.85
X32.65Y-98.25
X34.05Y-94.05
X34.05Y-95.45
X34.05Y-96.85
X34.05Y-98.25
X35.45Y-94.05
X35.45Y-95.45
X35.45Y-96.85
X35.45Y-98.25
X36.85Y-94.05
X36.85Y-95.45
X36.85Y-96.85
X36.85Y-98.25
X37.1Y-42.6
X37.1Y-43.8
X37.1Y-45.0
X37.1Y-46.2
X38.3Y-42.6
X38.3Y-43.8
X38.3Y-45.0
X38.3Y-46.2
X39.5Y-42.6
X39.5Y-43.8
X39.5Y-45.0
X39.5Y-46.2
T2
X13.0Y-67.0
X13.0Y-69.0
X13.0Y-71.0
X13.0Y-73.0
X13.5Y-114.5
X13.5Y-116.0
X13.5Y-117.5
X13.5Y-119.0
X15.0Y-67.0
X15.0Y-69.0
X15.0Y-71.0
X15.0Y-73.0
X15.0Y-114.5
X15.0Y-116.0
X15.0Y-117.5
X15.0Y-119.0
X16.0Y-25.0
X16.0Y-27.0
X16.0Y-29.0
X16.0Y-31.0
X16.0Y-104.5
X16.0Y-106.0
X16.0Y-107.5
X16.0Y-109.0
X16.5Y-114.5
X16.5Y-116.0
X16.5Y-117.5
X16.5Y-119.0
X16.75Y-99.25
X16.75Y-100.25
X17.0Y-14.0
X17.0Y-16.0
X17.25Y-97.25
X17.75Y-100.25
X18.0Y-25.0
X18.0Y-27.0
X18.0Y-29.0
X18.0Y-31.0
X18.0Y-114.5
X18.0Y-116.0
X18.0Y-117.5
X18.0Y-119.0
X18.25Y-97.25
X18.25Y-98.25
X19.0Y-14.0
X19.0Y-16.0
X20.0Y-99.0
X20.0Y-100.0
X20.0Y-114.5
X20.0Y-115.5
X20.2Y-107.6
X20.2Y-108.556
X20.227Y-105.227
X20.25Y-106.155
X20.625Y-113.875
X20.9Y-109.6
X20.97Y-111.28
X20.97Y-112.28
X20.97Y-113.13
X21.0Y-14.0
X21.0Y-16.0
X21.0Y-50.0
X21.0Y-52.0
X21.0Y-54.0
X21.25Y-101.905
X22.0Y-66.0
X22.0Y-68.0
X22.0Y-70.0
X22.0Y-86.7
X22.0Y-87.75
X22.0Y-88.75
X22.0Y-89.75
X22.0Y-90.75
X22.0Y-91.75
X22.0Y-92.75
X22.0Y-109.75
X22.0Y-111.3
X22.0Y-112.25
X22.0Y-113.25
X22.553Y-109.053
X23.0Y-14.0
X23.0Y-16.0
X23.0Y-50.0
X23.0Y-52.0
X23.0Y-54.0
X23.0Y-56.0
X23.0Y-101.905
X23.0Y-111.0
X23.0Y-112.0
X23.0Y-113.0
X23.1Y-85.6
X23.1Y-86.65
X23.1Y-87.7
X23.1Y-88.65
X23.1Y-89.65
X23.1Y-96.3
X23.1Y-97.7
X23.7Y-103.9
X23.75Y-110.5
X23.75Y-111.5
X23.75Y-112.5
X23.75Y-113.5
X24.0Y-39.0
X24.0Y-41.0
X24.0Y-43.0
X24.0Y-66.0
X24.0Y-68.0
X24.0Y-70.0
X24.0Y-94.25
X24.1Y-106.8
X24.1Y-107.7
X24.25Y-98.5
X24.25Y-99.5
X24.25Y-100.5
X24.5Y-75.75
X24.5Y-77.0
X24.8Y-106.0
X24.9Y-95.0
X25.0Y-14.0
X25.0Y-16.0
X25.0Y-50.0
X25.0Y-52.0
X25.0Y-54.0
X25.0Y-56.0
X25.2Y-104.95
X25.25Y-98.5
X25.25Y-99.5
X25.8Y-105.7
X25.8Y-106.5
X26.0Y-39.0
X26.0Y-41.0
X26.0Y-43.0
X26.25Y-79.5
X26.25Y-107.65
X26.5Y-100.75
X26.925Y-113.925
X27.0Y-14.0
X27.0Y-16.0
X27.0Y-75.25
X27.0Y-76.25
X27.0Y-77.25
X27.25Y-79.5
X27.5Y-99.75
X27.5Y-100.75
X27.5Y-101.75
X27.5Y-102.9
X27.75Y-78.5
X27.75Y-91.85
X28.044Y-115.294
X28.35Y-107.65
X28.375Y-79.375
X28.5Y-102.5
X28.669Y-114.669
X29.0Y-53.0
X29.25Y-79.0
X29.275Y-113.975
X30.0Y-89.5
X30.0Y-90.5
X30.0Y-91.5
X30.0Y-101.6
X30.0Y-117.0
X30.2Y-102.6
X30.25Y-79.0
X30.5Y-75.5
X30.5Y-77.75
X31.0Y-41.0
X31.0Y-43.0
X31.0Y-49.0
X31.0Y-51.0
X31.0Y-53.0
X31.1Y-103.8
X31.1Y-104.6
X31.1Y-105.4
X31.25Y-79.0
X31.4Y-88.4
X31.4Y-89.8
X31.522Y-92.822
X32.0Y-115.0
X32.0Y-117.0
X32.5Y-103.75
X32.5Y-104.6
X32.5Y-105.5
X32.5Y-106.4
X32.6Y-92.9
X33.0Y-49.0
X33.0Y-51.0
X33.0Y-53.0
X34.0Y-115.0
X34.0Y-117.0
X34.485Y-43.765
X35.1Y-103.4
X35.1Y-104.7
X36.0Y-117.0
X36.8Y-106.5
X37.6Y-87.1
X37.625Y-88.825
X38.0Y-87.8
X38.0Y-117.0
X38.125Y-97.375
X38.125Y-98.375
X38.4Y-87.1
X38.405Y-66.345
X39.0Y-48.0
X39.0Y-104.5
X39.2Y-87.1
X40.0Y-105.5
X40.0Y-117.0
X40.5Y-97.75
X40.7Y-102.7
X40.9Y-101.6
X41.0Y-51.5
X41.0Y-105.5
X41.0Y-106.5
X41.3Y-89.7
X41.75Y-98.75
X42.0Y-105.5
X42.0Y-106.5
X42.4Y-89.5
X43.25Y-100.25
X43.4Y-92.1
X43.5Y-89.5
X44.0Y-93.3
X44.5Y-108.0
X44.5Y-109.0
X44.75Y-91.25
X44.75Y-92.25
X45.0Y-51.5
X45.0Y-76.0
X45.0Y-77.0
X45.0Y-78.0
X45.0Y-105.5
X45.0Y-106.5
X45.125Y-93.125
X45.5Y-90.25
X45.5Y-100.25
X45.5Y-108.0
X45.5Y-109.0
X45.75Y-91.25
X45.75Y-92.25
X45.75Y-95.75
X45.75Y-96.75
X45.75Y-98.5
X45.75Y-102.0
X46.0Y-93.25
X46.0Y-105.5
X46.0Y-106.5
X46.5Y-76.0
X46.5Y-77.0
X46.5Y-90.25
X46.5Y-108.0
X46.5Y-109.0
X46.75Y-80.25
X46.75Y-91.25
X46.75Y-92.25
X46.75Y-96.75
X46.75Y-98.5
X46.75Y-102.0
X46.85Y-93.25
X47.455Y-57.845
X47.75Y-79.25
X49.0Y-53.0
X49.0Y-55.0
X49.0Y-57.0
X49.0Y-59.0
X49.3Y-84.1
X49.6Y-93.6
X49.75Y-94.45
X49.75Y-95.35
X49.75Y-96.25
X49.8Y-82.9
X50.0Y-64.0
X50.0Y-98.5
X50.0Y-100.0
X50.0Y-101.5
X50.0Y-105.5
X50.0Y-106.5
X50.0Y-107.5
X50.0Y-108.5
X50.32Y-32.965
X50.32Y-35.09
X50.32Y-37.09
X50.32Y-39.09
X50.32Y-41.09
X50.32Y-43.09
X50.32Y-45.09
X50.32Y-47.09
X50.32Y-49.09
X50.32Y-51.265
X50.5Y-85.0
X50.5Y-90.25
X50.5Y-91.25
X50.5Y-92.25
X50.5Y-93.2
X50.5Y-120.5
X50.75Y-95.25
X50.75Y-96.25
X50.8Y-82.9
X51.0Y-63.0
X51.0Y-98.5
X51.0Y-100.0
X51.8Y-107.5
X52.0Y-62.0
X52.0Y-84.5
X52.0Y-86.0
X52.0Y-120.5
X52.15Y-26.05
X52.2Y-24.3
X52.5Y-82.5
X52.75Y-108.0
X53.25Y-92.75
X53.3Y-91.3
X53.5Y-120.5
X53.75Y-83.25
X53.825Y-107.925
X54.0Y-105.5
X54.5Y-73.25
X54.75Y-108.75
X55.0Y-105.25
X55.0Y-120.5
X55.25Y-75.75
X56.5Y-119.0
X56.5Y-120.5
X56.9Y-64.2
X57.7Y-63.4
X57.7Y-65.0
X57.75Y-55.5
X57.75Y-56.5
X57.75Y-57.5
X58.0Y-14.0
X58.0Y-16.0
X58.0Y-32.0
X58.0Y-35.0
X58.0Y-37.0
X58.0Y-40.0
X58.0Y-42.0
X58.0Y-45.0
X58.0Y-47.0
X58.0Y-50.0
X58.0Y-52.0
X58.0Y-61.0
X58.0Y-80.25
X58.0Y-81.5
X58.0Y-117.5
X58.0Y-119.0
X58.0Y-120.5
X58.3Y-66.2
X58.3Y-67.5
X58.5Y-64.2
X58.75Y-55.5
X58.75Y-56.5
X58.75Y-57.5
X58.75Y-77.25
X59.0Y-92.5
X59.0Y-93.5
X59.0Y-94.5
X59.3Y-63.4
X59.3Y-65.0
X59.4Y-66.2
X59.4Y-67.5
X59.5Y-111.75
X59.5Y-113.25
X59.5Y-114.75
X59.5Y-119.0
X59.5Y-120.5
X59.75Y-55.5
X59.75Y-56.5
X59.75Y-57.5
X59.75Y-86.5
X60.0Y-14.0
X60.0Y-16.0
X60.0Y-32.0
X60.0Y-35.0
X60.0Y-37.0
X60.0Y-40.0
X60.0Y-42.0
X60.0Y-45.0
X60.0Y-47.0
X60.0Y-50.0
X60.0Y-52.0
X60.0Y-61.0
X60.0Y-81.0
X60.0Y-82.0
X60.0Y-83.0
X60.0Y-93.5
X60.0Y-94.5
X60.1Y-64.2
X60.75Y-55.5
X60.75Y-56.5
X60.75Y-57.5
X60.75Y-87.15
X60.9Y-63.4
X60.9Y-65.0
X61.0Y-94.5
X61.0Y-111.75
X61.0Y-113.25
X61.0Y-114.75
X61.0Y-116.25
X61.0Y-120.5
X61.7Y-64.2
X62.0Y-14.0
X62.0Y-16.0
X62.0Y-83.0
X62.0Y-87.25
X62.5Y-63.4
X62.5Y-65.0
X62.5Y-111.75
X62.5Y-113.25
X62.5Y-114.75
X62.5Y-116.25
X62.5Y-117.75
X63.0Y-98.0
X63.0Y-99.0
X63.0Y-102.0
X63.0Y-103.0
X63.25Y-87.25
X63.3Y-64.2
X63.3Y-65.8
X63.3Y-67.4
X63.75Y-56.0
X63.75Y-57.0
X63.75Y-58.0
X64.0Y-14.0
X64.0Y-16.0
X64.0Y-83.0
X64.0Y-84.0
X64.0Y-85.0
X64.0Y-86.0
X64.0Y-98.0
X64.0Y-99.0
X64.0Y-111.75
X64.0Y-113.25
X64.0Y-114.75
X64.0Y-116.25
X64.0Y-117.75
X64.0Y-119.25
X64.1Y-61.8
X64.1Y-63.4
X64.1Y-65.0
X64.1Y-66.6
X64.9Y-64.1
X64.9Y-65.8
X64.9Y-67.4
X64.9Y-88.6
X65.0Y-84.0
X65.0Y-85.0
X65.0Y-86.0
X65.0Y-87.0
X65.0Y-98.0
X65.0Y-99.0
X65.0Y-102.0
X65.0Y-103.0
X65.5Y-111.75
X65.5Y-113.25
X65.5Y-114.75
X65.5Y-116.25
X65.5Y-117.75
X65.5Y-119.25
X66.0Y-14.0
X66.0Y-16.0
X66.0Y-84.0
X66.0Y-85.0
X66.0Y-86.0
X66.0Y-98.0
X66.0Y-99.0
X67.0Y-84.0
X67.0Y-85.0
X67.0Y-98.0
X67.0Y-99.0
X67.0Y-102.0
X67.0Y-103.0
X67.25Y-75.0
X67.25Y-76.0
X67.5Y-70.5
X68.0Y-14.0
X68.0Y-16.0
X68.25Y-34.0
X68.25Y-35.5
X68.25Y-37.0
X68.25Y-38.5
X68.25Y-40.0
X68.25Y-75.0
X68.25Y-76.0
X68.5Y-69.5
X68.5Y-70.5
X68.5Y-71.5
X69.0Y-34.75
X69.0Y-36.25
X69.0Y-37.75
X69.0Y-39.25
X69.0Y-40.75
X69.25Y-75.0
X69.25Y-76.0
X69.5Y-82.8
X69.75Y-34.0
X69.75Y-35.5
X69.75Y-37.0
X69.75Y-38.5
X69.75Y-40.0
X70.5Y-34.75
X70.5Y-36.25
X70.5Y-37.75
X70.5Y-39.25
X70.5Y-40.75
X70.5Y-42.25
X70.5Y-43.75
X70.5Y-82.8
X70.5Y-96.0
X70.7Y-81.9
X71.25Y-34.0
X71.25Y-35.5
X71.25Y-37.0
X71.25Y-38.5
X71.25Y-40.0
X71.25Y-41.5
X71.25Y-43.0
X71.5Y-95.5
X72.0Y-34.75
X72.0Y-36.25
X72.0Y-37.75
X72.0Y-39.25
X72.0Y-40.75
X72.0Y-90.0
X72.5Y-94.0
X72.5Y-95.0
X72.5Y-97.0
X72.75Y-34.0
X72.75Y-35.5
X72.75Y-37.0
X72.75Y-38.5
X72.75Y-40.0
X73.5Y-34.75
X73.5Y-36.25
X73.5Y-37.75
X73.5Y-39.25
X73.5Y-40.75
X73.5Y-95.0
X73.5Y-97.0
X74.5Y-97.0
X74.565Y-83.965
X75.0Y-77.0
X75.025Y-82.225
X75.025Y-83.1
X76.0Y-77.0
X76.0Y-78.5
X76.0Y-92.0
X76.0Y-93.0
X76.0Y-94.0
X76.25Y-81.75
X77.0Y-77.0
X77.0Y-92.0
X77.0Y-93.0
X77.0Y-94.0
X77.0Y-95.0
X77.25Y-78.5
X77.5Y-62.75
X77.5Y-64.25
X77.5Y-65.75
X77.5Y-67.25
X77.5Y-68.75
X78.0Y-77.0
X78.0Y-94.0
X78.0Y-95.0
X78.25Y-63.5
X78.25Y-65.0
X78.25Y-66.5
X78.25Y-68.0
X78.25Y-69.5
X78.75Y-78.5
X79.0Y-62.75
X79.0Y-64.25
X79.0Y-65.75
X79.0Y-67.25
X79.0Y-68.75
X79.0Y-77.0
X79.75Y-63.5
X79.75Y-65.0
X79.75Y-66.5
X79.75Y-68.0
X79.75Y-69.5
X79.75Y-71.0
X79.75Y-72.5
X80.25Y-78.5
X80.5Y-62.75
X80.5Y-64.25
X80.5Y-65.75
X80.5Y-67.25
X80.5Y-68.75
X80.5Y-70.25
X80.5Y-71.75
X80.5Y-83.0
X81.25Y-63.5
X81.25Y-65.0
X81.25Y-66.5
X81.25Y-68.0
X81.25Y-69.5
X82.0Y-62.75
X82.0Y-64.25
X82.0Y-65.75
X82.0Y-67.25
X82.0Y-68.75
X82.0Y-111.5
X82.75Y-63.5
X82.75Y-65.0
X82.75Y-66.5
X82.75Y-68.0
X82.75Y-69.5
X83.5Y-111.5
X83.875Y-89.225
X84.675Y-89.225
X84.75Y-79.0
X84.75Y-80.0
X84.75Y-81.0
X85.0Y-111.5
X85.5Y-92.5
X85.5Y-93.5
X85.5Y-94.5
X85.5Y-95.5
X85.525Y-89.225
X85.75Y-79.0
X85.75Y-80.0
X85.75Y-81.0
X85.75Y-82.0
X85.75Y-83.0
X85.75Y-84.0
X85.75Y-85.0
X86.5Y-111.5
X86.75Y-79.0
X86.75Y-80.0
X86.75Y-81.0
X86.75Y-82.0
X86.75Y-83.0
X86.75Y-84.0
X86.75Y-85.0
X87.0Y-94.5
X87.0Y-95.5
X88.0Y-111.5
X88.5Y-94.5
X88.5Y-95.5
X89.5Y-111.5
X90.0Y-94.5
X90.0Y-95.5
X91.0Y-111.5
X91.5Y-94.5
X91.5Y-95.5
X92.5Y-111.5
X93.0Y-94.5
X93.0Y-95.5
X94.0Y-111.5
X94.5Y-94.5
X95.25Y-100.75
X96.75Y-100.5
X99.0Y-97.75
X99.825Y-98.675
X103.5Y-34.0
X103.5Y-35.5
X103.5Y-37.0
X103.5Y-44.0
X103.5Y-45.5
X103.5Y-47.0
X103.5Y-48.5
X103.5Y-50.0
X103.5Y-64.0
X103.5Y-65.5
X103.5Y-67.0
X104.0Y-78.75
X104.5Y-92.5
X104.5Y-94.0
X104.75Y-96.0
X105.5Y-64.0
X105.5Y-65.5
X105.5Y-67.0
X105.8Y-95.45
X105.83Y-58.67
X105.86Y-42.64
X105.86Y-69.64
X105.92Y-31.67
X107.39Y-85.61
X107.99Y-86.21
X108.64Y-86.86
X108.75Y-87.75
X108.75Y-88.65
X108.75Y-89.5
X108.75Y-93.5
X108.75Y-94.5
X108.75Y-95.5
X108.75Y-96.5
X108.75Y-97.5
X117.48Y-81.02
X117.48Y-82.52
X117.48Y-84.02
X118.49Y-40.99
X118.5Y-34.75
X118.5Y-36.75
X118.5Y-39.5
X118.5Y-61.75
X118.5Y-63.5
X118.5Y-113.5
X118.51Y-66.51
X118.51Y-67.99
X118.73Y-28.76
X118.73Y-55.76
X118.75Y-29.75
X118.75Y-30.75
X118.75Y-31.75
X118.75Y-56.75
X118.75Y-57.75
X118.75Y-58.75
X120.0Y-113.5
X120.0Y-114.5
X121.0Y-107.0
X121.03Y-45.22
X121.03Y-70.97
X121.03Y-72.22
X121.06Y-43.94
X121.5Y-113.5
X121.5Y-114.5
X122.0Y-107.0
X122.0Y-108.0
X122.93Y-45.97
X122.93Y-48.06
X122.93Y-49.16
X122.93Y-50.26
X122.93Y-72.97
X122.93Y-75.06
X122.93Y-76.07
X122.93Y-77.06
X123.0Y-107.0
X123.0Y-108.0
X123.0Y-109.0
X123.0Y-113.5
X123.0Y-114.5
X123.72Y-44.52
X123.82Y-71.42
X123.98Y-42.76
X123.98Y-43.72
X123.98Y-69.76
X123.98Y-70.62
X124.0Y-107.0
X124.0Y-108.0
X124.0Y-109.0
X124.5Y-114.5
X125.0Y-107.0
X125.0Y-108.0
X125.0Y-109.0
X126.0Y-107.0
X126.0Y-108.0
X126.0Y-109.0
X127.0Y-108.0
X127.0Y-109.0
X128.0Y-108.0
X128.0Y-109.0
X129.0Y-110.0
X129.4Y-101.3
X130.0Y-100.7
X130.9Y-100.5
X131.8Y-100.5
X132.75Y-100.5
X137.0Y-114.0
X139.0Y-114.0
X141.0Y-114.0
X143.0Y-114.0
X145.0Y-114.0
X147.0Y-114.0
X149.0Y-114.0
X151.0Y-114.0
X153.0Y-114.0
X153.5Y-43.25
X153.5Y-44.25
X153.5Y-70.25
X153.5Y-71.25
X153.75Y-38.0
X153.75Y-65.0
X155.0Y-114.0
X155.48Y-30.77
X155.48Y-33.02
X155.48Y-57.66
X155.48Y-60.02
X155.9Y-55.5
X155.9Y-56.5
X156.1Y-28.6
X156.1Y-29.7
X156.2Y-35.0
X156.2Y-37.2
X156.2Y-39.4
X156.2Y-40.7
X156.2Y-44.9
X156.2Y-47.4
X156.2Y-61.9
X156.2Y-63.9
X156.2Y-66.4
X156.2Y-67.9
X156.2Y-72.6
X156.2Y-74.2
X156.445Y-49.195
X156.5Y-76.25
X156.5Y-97.3
X156.5Y-98.27
X156.5Y-100.5
X156.5Y-103.0
X156.5Y-103.88
X157.0Y-114.0
X157.24Y-86.36
X157.24Y-87.36
X157.24Y-88.36
X159.0Y-114.0
X161.0Y-114.0
X163.0Y-114.0
X166.4Y-81.6
X166.4Y-82.4
X166.4Y-83.2
X166.4Y-84.0
X166.4Y-84.8
X169.4Y-37.1
X169.4Y-48.4
X169.48Y-64.23
X169.5Y-29.0
X169.5Y-30.5
X169.5Y-32.0
X169.5Y-39.5
X169.5Y-41.0
X169.5Y-42.5
X169.6Y-100.8
X170.0Y-57.5
X170.0Y-59.5
X170.5Y-67.0
X170.5Y-68.75
X170.5Y-70.5
X170.75Y-74.0
X171.0Y-93.2
X171.0Y-94.6
X171.0Y-96.0
X172.0Y-57.5
X172.0Y-59.5
X172.0Y-61.5
X172.0Y-63.5
X172.0Y-65.5
X172.5Y-80.5
X172.5Y-82.0
X172.5Y-83.5
X172.5Y-85.0
X172.5Y-86.5
X172.5Y-88.0
X172.5Y-89.5
X172.5Y-91.0
X172.75Y-101.75
X172.75Y-103.5
X173.25Y-74.75
X173.25Y-76.25
X174.0Y-61.5
X174.0Y-63.5
X174.0Y-65.5
X174.25Y-113.0
X174.25Y-114.0
X174.25Y-115.0
X174.25Y-116.0
X174.25Y-117.0
X174.25Y-118.0
X174.46Y-31.54
X174.49Y-96.51
X174.51Y-42.51
X174.51Y-69.51
X174.54Y-58.54
X174.54Y-85.54
X178.5Y-114.5
X180.5Y-114.5
X182.5Y-114.5
X184.5Y-114.5
X186.5Y-114.5
X187.0Y-34.5
X187.0Y-36.25
X187.0Y-61.75
X187.0Y-63.5
X187.0Y-88.75
X187.0Y-90.5
X187.12Y-93.38
X187.12Y-94.88
X187.13Y-39.38
X187.13Y-40.87
X187.13Y-66.38
X187.13Y-67.87
X187.24Y-55.63
X187.24Y-82.63
X187.25Y-29.5
X187.25Y-30.5
X187.25Y-31.5
X187.25Y-56.75
X187.25Y-57.75
X187.25Y-58.75
X187.25Y-83.75
X187.25Y-84.75
X187.25Y-85.75
X187.37Y-28.5
X188.5Y-114.5
X189.505Y-43.745
X189.505Y-70.745
X189.54Y-44.96
X189.54Y-71.96
X189.54Y-97.78
X189.54Y-98.96
X190.5Y-114.5
X191.415Y-74.785
X191.44Y-45.86
X191.44Y-47.76
X191.44Y-48.86
X191.44Y-49.93
X191.44Y-72.81
X191.44Y-75.86
X191.44Y-76.93
X191.44Y-99.86
X191.44Y-101.76
X191.44Y-102.76
X191.44Y-103.76
X192.11Y-44.51
X192.16Y-98.46
X192.31Y-71.31
X192.49Y-42.63
X192.49Y-43.61
X192.49Y-69.63
X192.49Y-70.51
X192.49Y-96.63
X192.49Y-97.61
X192.5Y-114.5
X194.5Y-114.5
X196.5Y-114.5
X198.5Y-114.5
X200.5Y-114.5
X202.5Y-114.5
X204.5Y-114.5
X206.5Y-114.5
X208.5Y-114.5
X210.5Y-114.5
X212.5Y-114.5
X214.5Y-114.5
X215.5Y-16.5
X216.25Y-17.25
X216.5Y-114.5
X217.0Y-18.0
X217.5Y-16.5
X217.75Y-18.75
X218.25Y-17.25
X218.5Y-19.5
X218.5Y-114.5
X219.0Y-18.0
X219.75Y-18.75
X220.5Y-19.5
X220.5Y-114.5
X222.0Y-43.25
X222.0Y-44.25
X222.0Y-70.25
X222.0Y-71.25
X222.0Y-97.25
X222.0Y-98.25
X222.25Y-37.75
X222.25Y-64.75
X222.25Y-91.75
X222.5Y-114.5
X223.99Y-30.51
X223.99Y-32.76
X223.99Y-57.51
X223.99Y-59.76
X223.99Y-84.51
X223.99Y-86.78
X224.4Y-82.2
X224.4Y-83.2
X224.5Y-55.1
X224.5Y-56.2
X224.5Y-114.5
X224.6Y-28.2
X224.6Y-29.4
X224.6Y-34.6
X224.6Y-37.0
X224.7Y-39.3
X224.7Y-40.7
X224.7Y-45.3
X224.7Y-47.0
X224.7Y-61.8
X224.7Y-64.0
X224.7Y-88.9
X224.7Y-91.1
X224.7Y-93.2
X224.7Y-94.6
X224.7Y-99.7
X224.7Y-100.9
X224.8Y-66.4
X224.8Y-67.5
X224.8Y-72.9
X224.8Y-74.0
X225.01Y-76.01
X225.01Y-49.01
X225.01Y-103.01
X226.5Y-114.5
X228.5Y-114.5
X230.5Y-114.5
X232.5Y-114.5
X234.5Y-50.0
X234.5Y-51.0
X234.5Y-52.0
X234.5Y-53.0
X234.5Y-77.0
X234.5Y-78.0
X234.5Y-79.0
X234.5Y-80.0
X234.5Y-104.5
X234.5Y-106.5
X234.5Y-108.5
X234.5Y-110.5
X234.5Y-112.5
X234.5Y-114.5
X235.5Y-50.0
X235.5Y-51.0
X235.5Y-52.0
X235.5Y-53.0
X235.5Y-77.0
X235.5Y-78.0
X235.5Y-79.0
X235.5Y-80.0
X236.5Y-50.0
X236.5Y-51.0
X236.5Y-52.0
X236.5Y-53.0
X236.5Y-77.0
X236.5Y-78.0
X236.5Y-79.0
X236.5Y-80.0
X236.5Y-104.5
X236.5Y-106.5
X236.5Y-108.5
X236.5Y-110.5
X236.5Y-112.5
X236.5Y-114.5
X237.5Y-29.5
X237.5Y-30.5
X237.5Y-31.5
X237.5Y-38.5
X237.5Y-41.0
X237.5Y-43.5
X237.5Y-50.0
X237.5Y-51.0
X237.5Y-52.0
X237.5Y-53.0
X237.5Y-77.0
X237.5Y-78.0
X237.5Y-79.0
X237.5Y-80.0
X238.0Y-65.0
X238.0Y-67.0
X238.0Y-69.0
X238.0Y-92.0
X238.0Y-94.0
X238.0Y-96.0
X238.5Y-29.5
X240.5Y-33.0
X240.5Y-35.5
X242.0Y-36.75
X242.75Y-116.0
X242.75Y-117.0
X242.75Y-118.0
X242.75Y-119.0
X242.75Y-120.0
X242.75Y-121.0
X243.01Y-31.41
X243.01Y-58.41
X243.01Y-85.41
X243.02Y-69.38
X243.02Y-96.38
X243.18Y-42.38
X248.25Y-114.5
X248.25Y-116.0
X248.25Y-117.5
X250.0Y-114.5
X250.0Y-116.0
X250.0Y-117.5
X251.75Y-114.5
X251.75Y-116.0
X251.75Y-117.5
X253.75Y-114.5
X253.75Y-116.0
X253.75Y-117.5
X255.5Y-34.75
X255.5Y-36.0
X255.5Y-39.25
X255.5Y-40.75
X255.5Y-61.5
X255.5Y-63.5
X255.5Y-66.25
X255.5Y-67.75
X255.5Y-88.5
X255.5Y-90.25
X255.5Y-93.25
X255.5Y-94.5
X255.75Y-28.5
X255.75Y-29.5
X255.75Y-30.5
X255.75Y-31.5
X255.75Y-55.5
X255.75Y-56.5
X255.75Y-57.5
X255.75Y-58.5
X255.75Y-82.5
X255.75Y-83.5
X255.75Y-84.5
X255.75Y-85.5
X255.75Y-114.5
X255.75Y-116.0
X255.75Y-117.5
X257.75Y-114.5
X257.75Y-116.0
X257.75Y-117.5
X257.805Y-70.405
X257.95Y-97.55
X258.05Y-43.7
X258.05Y-44.95
X258.05Y-71.21
X258.05Y-72.08
X258.05Y-98.65
X259.75Y-114.5
X259.75Y-116.0
X259.75Y-117.5
X259.95Y-45.65
X259.95Y-47.8
X259.95Y-48.8
X259.95Y-49.8
X259.95Y-72.69
X259.95Y-74.66
X259.95Y-75.61
X259.95Y-76.49
X259.95Y-99.8
X259.95Y-101.8
X259.95Y-102.8
X259.95Y-103.8
X260.625Y-44.375
X260.625Y-98.375
X260.67Y-71.33
X261.0Y-42.5
X261.0Y-43.5
X261.0Y-69.5
X261.0Y-70.38
X261.0Y-96.5
X261.0Y-97.5
X290.5Y-43.0
X290.5Y-44.0
X290.5Y-70.0
X290.5Y-71.0
X290.5Y-97.0
X290.5Y-98.0
X290.75Y-37.5
X290.875Y-64.625
X290.875Y-91.625
X292.5Y-30.5
X292.5Y-32.75
X292.5Y-57.5
X292.5Y-59.75
X292.5Y-84.5
X292.5Y-86.75
X293.0Y-55.3
X293.0Y-56.2
X293.0Y-82.3
X293.0Y-83.4
X293.2Y-34.6
X293.2Y-36.6
X293.2Y-88.6
X293.2Y-90.4
X293.3Y-29.3
X293.3Y-39.8
X293.3Y-40.6
X293.3Y-44.9
X293.3Y-46.6
X293.3Y-61.8
X293.3Y-63.8
X293.3Y-66.6
X293.3Y-67.5
X293.3Y-71.8
X293.3Y-73.8
X293.3Y-93.3
X293.3Y-94.5
X293.3Y-98.6
X293.3Y-100.8
X293.5Y-30.1
X293.55Y-48.7
X293.55Y-75.85
X293.55Y-102.85
X306.5Y-28.5
X306.5Y-30.25
X306.5Y-32.0
X306.5Y-39.5
X306.5Y-41.25
X306.5Y-43.0
X306.5Y-55.0
X306.5Y-57.0
X306.5Y-58.75
X306.5Y-66.25
X306.5Y-68.25
X306.5Y-70.0
X306.5Y-82.5
X306.5Y-84.25
X306.5Y-86.0
X306.5Y-94.25
X306.5Y-95.75
X306.5Y-97.25
T3
X100.0Y-106.75
X101.5Y-107.0
X104.625Y-103.625
X107.0Y-106.0
X113.125Y-115.125
X114.0Y-114.25
X116.0Y-110.75
X116.78Y-19.72
X116.78Y-20.72
X116.78Y-21.72
X116.78Y-22.72
X116.78Y-23.72
X116.78Y-24.72
X116.78Y-38.32
X116.78Y-49.52
X116.78Y-65.32
X118.75Y-110.75
X120.0Y-110.75
X121.25Y-110.75
X123.5Y-110.75
X124.75Y-110.75
X126.25Y-110.75
X134.24Y-26.51
X135.24Y-26.51
X136.24Y-26.51
X137.24Y-26.51
X138.24Y-26.51
X138.473Y-19.277
X139.223Y-20.027
X139.973Y-20.777
X140.5Y-13.0
X140.723Y-21.527
X141.473Y-22.277
X141.5Y-13.0
X142.5Y-13.0
X143.5Y-13.0
X144.5Y-13.0
X144.5Y-17.0
X144.5Y-18.0
X144.5Y-19.0
X144.804Y-16.054
X147.25Y-88.75
X147.473Y-17.277
X148.0Y-89.5
X148.223Y-18.027
X148.473Y-88.277
X148.75Y-79.25
X148.75Y-90.25
X148.821Y-16.929
X148.973Y-18.777
X149.223Y-89.027
X149.5Y-91.0
X149.571Y-17.679
X149.723Y-19.527
X149.75Y-79.25
X149.973Y-89.777
X150.321Y-18.429
X150.723Y-90.527
X150.75Y-79.25
X151.071Y-19.179
X151.75Y-79.25
X152.75Y-79.25
X153.75Y-79.25
X154.75Y-79.25
X157.73Y-26.02
X157.73Y-27.16
X157.73Y-38.27
X157.73Y-49.52
X157.73Y-50.52
X157.73Y-51.52
X157.73Y-52.51
X157.73Y-65.27
X185.29Y-38.21
X185.29Y-49.21
X185.29Y-65.21
X185.29Y-76.31
X185.29Y-92.21
X185.29Y-103.21
X186.5Y-19.75
X186.5Y-20.75
X186.5Y-21.75
X186.5Y-22.75
X186.5Y-23.75
X203.12Y-26.38
X204.12Y-26.38
X204.875Y-17.375
X205.12Y-26.38
X205.5Y-18.25
X205.5Y-19.25
X205.75Y-20.25
X206.12Y-26.38
X206.5Y-21.0
X207.305Y-26.695
X208.55Y-14.2
X209.55Y-14.2
X209.75Y-13.0
X210.55Y-14.2
X210.75Y-13.0
X211.55Y-14.2
X211.75Y-13.0
X212.55Y-14.2
X212.75Y-13.0
X213.75Y-13.0
X226.24Y-25.76
X226.24Y-26.76
X226.24Y-38.26
X226.24Y-49.51
X226.24Y-50.51
X226.24Y-51.51
X226.24Y-52.51
X226.24Y-65.26
X226.24Y-76.51
X226.24Y-77.51
X226.24Y-78.51
X226.24Y-79.51
X226.24Y-92.26
X226.24Y-103.51
X226.24Y-104.51
X226.24Y-105.51
X226.24Y-106.51
X253.8Y-38.1
X253.8Y-49.3
X253.8Y-65.1
X253.8Y-76.2
X253.8Y-92.1
X253.8Y-103.1
X255.0Y-19.25
X255.0Y-20.25
X255.0Y-21.25
X255.0Y-22.25
X255.0Y-23.25
X294.75Y-24.5
X294.75Y-25.5
X294.75Y-26.5
X294.75Y-38.0
X294.75Y-49.25
X294.75Y-50.25
X294.75Y-51.25
X294.75Y-52.25
X294.75Y-65.0
X294.75Y-76.25
X294.75Y-77.25
X294.75Y-78.25
X294.75Y-79.25
X294.75Y-92.0
X294.75Y-103.25
X294.75Y-104.25
X294.75Y-105.25
X294.75Y-106.25
T4
X13.0Y-83.0
X13.0Y-87.5
X14.5Y-83.0
X14.5Y-87.5
X16.0Y-83.0
X16.0Y-84.5
X16.0Y-86.0
X16.0Y-87.5
X16.0Y-89.0
X16.0Y-90.5
X16.0Y-92.0
X17.5Y-83.0
X17.5Y-87.5
X17.5Y-89.0
X17.5Y-90.5
X17.5Y-92.0
X19.0Y-83.0
X19.0Y-87.5
X20.5Y-83.0
X20.5Y-84.5
X20.5Y-86.0
X20.5Y-87.5
X22.0Y-81.5
X22.0Y-83.0
X22.0Y-84.5
X23.5Y-81.5
X37.3Y-29.45
X37.3Y-31.2
X37.3Y-32.95
X37.3Y-34.7
X37.3Y-36.45
X37.3Y-38.2
X37.3Y-39.95
X38.8Y-39.95
X39.05Y-29.45
X39.05Y-31.2
X39.05Y-32.95
X39.05Y-34.7
X39.05Y-36.45
X39.05Y-38.2
X39.845Y-57.845
X39.845Y-58.845
X39.845Y-59.845
X39.845Y-60.845
X40.8Y-29.45
X40.8Y-31.2
X40.8Y-32.95
X40.8Y-34.7
X40.8Y-36.45
X40.8Y-38.2
X40.8Y-39.95
X42.55Y-29.45
X42.55Y-31.2
X42.55Y-39.95
X44.3Y-29.45
X44.3Y-31.2
X44.3Y-39.95
X46.05Y-42.2
X46.05Y-43.45
X46.05Y-44.7
X46.05Y-45.95
X47.3Y-42.2
X47.3Y-43.45
X47.3Y-44.7
X47.3Y-45.95
X47.3Y-47.2
X48.55Y-42.2
X48.55Y-43.45
X48.55Y-44.7
X48.55Y-45.95
X48.55Y-47.2
X89.5Y-64.0
X89.5Y-65.25
X89.5Y-66.5
X89.5Y-67.75
X89.5Y-69.0
X90.875Y-44.125
X91.75Y-45.25
X91.75Y-46.5
X91.75Y-47.75
X91.75Y-49.0
X94.375Y-21.125
X94.5Y-20.0
X95.5Y-19.0
X96.625Y-17.875
X97.75Y-17.0
X99.0Y-17.0
X100.25Y-17.0
X101.5Y-17.0
X102.75Y-17.0
X104.0Y-17.0
X105.25Y-17.0
X106.5Y-17.0
X107.75Y-17.0
T5
X34.6Y-22.0
X34.6Y-112.0
X35.303Y-20.303
X35.303Y-23.697
X35.303Y-110.303
X35.303Y-113.697
X37.0Y-19.6
X37.0Y-24.4
X37.0Y-109.6
X37.0Y-114.4
X38.697Y-20.303
X38.697Y-23.697
X38.697Y-110.303
X38.697Y-113.697
X39.4Y-22.0
X39.4Y-112.0
X168.6Y-52.0
X168.6Y-109.0
X169.303Y-50.303
X169.303Y-53.697
X169.303Y-107.303
X169.303Y-110.697
X171.0Y-49.6
X171.0Y-54.4
X171.0Y-106.6
X171.0Y-111.4
X172.697Y-50.303
X172.697Y-53.697
X172.697Y-107.303
X172.697Y-110.697
X173.4Y-52.0
X173.4Y-109.0
X302.6Y-20.0
X302.6Y-114.0
X303.303Y-18.303
X303.303Y-21.697
X303.303Y-112.303
X303.303Y-115.697
X305.0Y-17.6
X305.0Y-22.4
X305.0Y-111.6
X305.0Y-116.4
X306.697Y-18.303
X306.697Y-21.697
X306.697Y-112.303
X306.697Y-115.697
X307.4Y-20.0
X307.4Y-114.0
T7
X27.07Y-108.775
X27.07Y-110.045
X28.34Y-108.775
X28.34Y-110.045
X29.61Y-108.775
X29.61Y-110.045
X30.88Y-108.775
X30.88Y-110.045
X32.15Y-108.775
X32.15Y-110.045
T8
X54.695Y-32.39
X54.695Y-34.93
X54.695Y-37.47
X54.695Y-40.01
X54.695Y-42.55
X54.695Y-45.09
X54.695Y-47.63
X54.695Y-50.17
X54.695Y-52.71
X54.695Y-55.25
X54.695Y-57.79
X54.695Y-60.33
X62.315Y-32.39
X62.315Y-34.93
X62.315Y-37.47
X62.315Y-40.01
X62.315Y-42.55
X62.315Y-45.09
X62.315Y-47.63
X62.315Y-50.17
X62.315Y-52.71
X62.315Y-55.25
X62.315Y-57.79
X62.315Y-60.33
X108.67Y-83.54
X108.67Y-91.16
X116.29Y-86.08
X116.29Y-91.16
X127.125Y-100.275
X129.665Y-92.655
X134.745Y-92.655
X134.745Y-100.275
X158.43Y-79.43
X158.43Y-84.51
X166.05Y-79.43
X166.05Y-87.05
T9
X13.75Y-94.905
X17.0Y-94.905
X22.0Y-115.1
X34.55Y-26.7
X35.3Y-51.2
X35.3Y-76.5
X38.3Y-51.2
X41.5Y-70.0
X42.27Y-21.75
X42.3Y-112.25
X42.3Y-114.79
X43.095Y-65.845
X44.81Y-21.75
X44.84Y-112.25
X44.84Y-114.79
X47.35Y-21.75
X47.38Y-112.25
X47.38Y-114.79
X48.05Y-50.95
X49.92Y-112.25
X49.92Y-114.79
X52.46Y-112.25
X52.46Y-114.79
X53.75Y-66.5
X55.0Y-112.25
X55.0Y-114.79
X56.75Y-66.75
X56.75Y-73.25
X56.75Y-78.75
X56.75Y-85.25
X56.75Y-90.75
X56.75Y-97.25
X56.75Y-102.75
X56.75Y-109.25
X61.25Y-66.75
X61.25Y-73.25
X61.25Y-78.75
X61.25Y-85.25
X61.25Y-90.75
X61.25Y-97.25
X61.25Y-102.75
X61.25Y-109.25
X64.0Y-95.0
X65.46Y-53.75
X66.0Y-81.5
X68.0Y-53.75
X70.0Y-93.75
X71.6Y-20.5
X73.775Y-91.225
X77.6Y-80.475
X79.775Y-92.975
X81.6Y-20.5
X84.25Y-43.0
X104.5Y-76.75
X104.75Y-29.75
X104.75Y-40.75
X107.25Y-53.0
X107.48Y-79.09
X117.48Y-79.09
X121.105Y-19.5
X122.6Y-91.465
X122.6Y-101.465
X123.645Y-19.5
X130.75Y-87.5
X131.265Y-19.5
X133.29Y-87.5
X133.805Y-19.5
X134.875Y-103.225
X145.0Y-81.975
X145.0Y-84.515
X145.0Y-87.055
X152.25Y-93.75
X152.345Y-98.69
X157.24Y-91.55
X167.24Y-91.55
X169.5Y-114.0
X171.25Y-78.0
X173.0Y-29.2
X173.2Y-36.75
X173.2Y-67.8
X173.25Y-45.0
X173.25Y-93.5
X189.615Y-19.5
X192.155Y-19.5
X199.575Y-19.5
X202.115Y-19.5
X209.735Y-19.5
X212.275Y-19.5
X241.6Y-29.2
X241.6Y-40.8
X241.6Y-67.6
X244.4Y-51.0
X244.4Y-78.0
X244.4Y-106.2
X258.125Y-19.5
X260.665Y-19.5
X268.285Y-19.5
X270.825Y-19.5
X278.445Y-19.5
X280.985Y-19.5
T10
X19.0Y-40.44
X24.72Y-60.965
X29.17Y-32.19
X29.8Y-60.965
X128.73Y-32.26
X128.73Y-59.26
X133.73Y-32.26
X133.73Y-59.26
X136.23Y-44.26
X136.23Y-71.26
X141.23Y-44.26
X141.23Y-71.26
X197.24Y-32.13
X197.24Y-59.13
X197.24Y-86.13
X202.24Y-32.13
X202.24Y-59.13
X202.24Y-86.13
X204.74Y-44.13
X204.74Y-71.13
X204.74Y-98.13
X209.74Y-44.13
X209.74Y-71.13
X209.74Y-98.13
X265.75Y-32.0
X265.75Y-59.0
X265.75Y-86.0
X270.75Y-32.0
X270.75Y-59.0
X270.75Y-86.0
X273.25Y-44.0
X273.25Y-71.0
X273.25Y-98.0
X278.25Y-44.0
X278.25Y-71.0
X278.25Y-98.0
T11
X24.72Y-36.0
X25.355Y-28.38
X29.8Y-57.155
X29.8Y-64.775
T12
X37.0Y-22.0
X37.0Y-112.0
X171.0Y-52.0
X171.0Y-109.0
X305.0Y-20.0
X305.0Y-114.0
T6
X13.62Y-102.835G85X14.42Y-102.835
G05
X13.62Y-111.475G85X14.42Y-111.475
G05
X17.65Y-102.835G85X18.75Y-102.835
G05
X17.65Y-111.475G85X18.75Y-111.475
G05
T0
M30
