%FSLAX45Y45*%
G04 Gerber Fmt 4.5, Leading zero omitted, Abs format (unit mm)*
G04 Created by KiCad (PCBNEW 6.0.5) date 2022-06-11 02:34:35*
%MOMM*%
%LPD*%
G01*
G04 APERTURE LIST*
%TA.AperFunction,Profile*%
%ADD10C,0.100000*%
%TD*%
%ADD11C,0.200000*%
%ADD12C,0.065000*%
%ADD13C,0.150000*%
%ADD14C,0.160000*%
G04 APERTURE END LIST*
D10*
X31200000Y-11900000D02*
X31200000Y-1500000D01*
X31200000Y-1500000D02*
G75*
G03*
X30900000Y-1200000I-300000J0D01*
G01*
X30900000Y-12200000D02*
G75*
G03*
X31200000Y-11900000I0J300000D01*
G01*
X1200000Y-11900000D02*
G75*
G03*
X1500000Y-12200000I300000J0D01*
G01*
X1200000Y-1500000D02*
X1200000Y-11900000D01*
X1500000Y-1200000D02*
G75*
G03*
X1200000Y-1500000I0J-300000D01*
G01*
X30900000Y-1200000D02*
X1500000Y-1200000D01*
X1500000Y-12200000D02*
X30900000Y-12200000D01*
D11*
D12*
X1737500Y-10394049D02*
X1802500Y-10459049D01*
X1802500Y-10394049D02*
X1737500Y-10459049D01*
D11*
X1747500Y-10426549D02*
X1747500Y-10426549D01*
X1792500Y-10426549D02*
X1792500Y-10426549D01*
X1747500Y-10426549D02*
G75*
G03*
X1792500Y-10426549I22500J0D01*
G01*
X1792500Y-10426549D02*
G75*
G03*
X1747500Y-10426549I-22500J0D01*
G01*
D12*
X1737500Y-10972049D02*
X1802500Y-11037049D01*
X1802500Y-10972049D02*
X1737500Y-11037049D01*
D11*
X1747500Y-11004549D02*
X1747500Y-11004549D01*
X1792500Y-11004549D02*
X1792500Y-11004549D01*
X1747500Y-11004549D02*
G75*
G03*
X1792500Y-11004549I22500J0D01*
G01*
X1792500Y-11004549D02*
G75*
G03*
X1747500Y-11004549I-22500J0D01*
G01*
D13*
X1465000Y-8565549D02*
G75*
G03*
X1465000Y-8565549I-75000J0D01*
G01*
D11*
X1455000Y-8590549D02*
X1455000Y-8540549D01*
X1325000Y-8590549D02*
X1325000Y-8540549D01*
X1455000Y-8540549D02*
G75*
G03*
X1325000Y-8540549I-65000J0D01*
G01*
X1325000Y-8590549D02*
G75*
G03*
X1455000Y-8590549I65000J0D01*
G01*
D14*
X1583000Y-3520000D02*
X1583000Y-3680000D01*
X1503000Y-3600000D02*
X1663000Y-3600000D01*
X1583000Y-6397549D02*
X1583000Y-6557549D01*
X1503000Y-6477549D02*
X1663000Y-6477549D01*
X2091000Y-2758000D02*
X2091000Y-2918000D01*
X2011000Y-2838000D02*
X2171000Y-2838000D01*
X2091000Y-5635549D02*
X2091000Y-5795549D01*
X2011000Y-5715549D02*
X2171000Y-5715549D01*
D11*
X1900711Y-8636260D02*
X1900711Y-8494838D01*
X1759289Y-8494838D01*
X1759289Y-8636260D01*
X1900711Y-8636260D01*
X1452619Y-12515476D02*
X1452619Y-12315476D01*
X1500238Y-12315476D01*
X1528809Y-12325000D01*
X1547857Y-12344048D01*
X1557381Y-12363095D01*
X1566905Y-12401190D01*
X1566905Y-12429762D01*
X1557381Y-12467857D01*
X1547857Y-12486905D01*
X1528809Y-12505952D01*
X1500238Y-12515476D01*
X1452619Y-12515476D01*
X1652619Y-12515476D02*
X1652619Y-12382143D01*
X1652619Y-12420238D02*
X1662143Y-12401190D01*
X1671667Y-12391667D01*
X1690714Y-12382143D01*
X1709762Y-12382143D01*
X1776428Y-12515476D02*
X1776428Y-12382143D01*
X1776428Y-12315476D02*
X1766905Y-12325000D01*
X1776428Y-12334524D01*
X1785952Y-12325000D01*
X1776428Y-12315476D01*
X1776428Y-12334524D01*
X1900238Y-12515476D02*
X1881190Y-12505952D01*
X1871667Y-12486905D01*
X1871667Y-12315476D01*
X2005000Y-12515476D02*
X1985952Y-12505952D01*
X1976428Y-12486905D01*
X1976428Y-12315476D01*
X2233571Y-12515476D02*
X2233571Y-12315476D01*
X2300238Y-12458333D01*
X2366905Y-12315476D01*
X2366905Y-12515476D01*
X2547857Y-12515476D02*
X2547857Y-12410714D01*
X2538333Y-12391667D01*
X2519286Y-12382143D01*
X2481190Y-12382143D01*
X2462143Y-12391667D01*
X2547857Y-12505952D02*
X2528810Y-12515476D01*
X2481190Y-12515476D01*
X2462143Y-12505952D01*
X2452619Y-12486905D01*
X2452619Y-12467857D01*
X2462143Y-12448809D01*
X2481190Y-12439286D01*
X2528810Y-12439286D01*
X2547857Y-12429762D01*
X2643095Y-12382143D02*
X2643095Y-12582143D01*
X2643095Y-12391667D02*
X2662143Y-12382143D01*
X2700238Y-12382143D01*
X2719286Y-12391667D01*
X2728810Y-12401190D01*
X2738333Y-12420238D01*
X2738333Y-12477381D01*
X2728810Y-12496428D01*
X2719286Y-12505952D01*
X2700238Y-12515476D01*
X2662143Y-12515476D01*
X2643095Y-12505952D01*
X2824048Y-12496428D02*
X2833571Y-12505952D01*
X2824048Y-12515476D01*
X2814524Y-12505952D01*
X2824048Y-12496428D01*
X2824048Y-12515476D01*
X2824048Y-12391667D02*
X2833571Y-12401190D01*
X2824048Y-12410714D01*
X2814524Y-12401190D01*
X2824048Y-12391667D01*
X2824048Y-12410714D01*
D12*
X1130000Y-12812500D02*
X1195000Y-12877500D01*
X1195000Y-12812500D02*
X1130000Y-12877500D01*
D11*
X1490714Y-12735476D02*
X1509762Y-12735476D01*
X1528809Y-12745000D01*
X1538333Y-12754524D01*
X1547857Y-12773571D01*
X1557381Y-12811667D01*
X1557381Y-12859286D01*
X1547857Y-12897381D01*
X1538333Y-12916428D01*
X1528809Y-12925952D01*
X1509762Y-12935476D01*
X1490714Y-12935476D01*
X1471667Y-12925952D01*
X1462143Y-12916428D01*
X1452619Y-12897381D01*
X1443095Y-12859286D01*
X1443095Y-12811667D01*
X1452619Y-12773571D01*
X1462143Y-12754524D01*
X1471667Y-12745000D01*
X1490714Y-12735476D01*
X1643095Y-12916428D02*
X1652619Y-12925952D01*
X1643095Y-12935476D01*
X1633571Y-12925952D01*
X1643095Y-12916428D01*
X1643095Y-12935476D01*
X1824048Y-12735476D02*
X1785952Y-12735476D01*
X1766905Y-12745000D01*
X1757381Y-12754524D01*
X1738333Y-12783095D01*
X1728809Y-12821190D01*
X1728809Y-12897381D01*
X1738333Y-12916428D01*
X1747857Y-12925952D01*
X1766905Y-12935476D01*
X1805000Y-12935476D01*
X1824048Y-12925952D01*
X1833571Y-12916428D01*
X1843095Y-12897381D01*
X1843095Y-12849762D01*
X1833571Y-12830714D01*
X1824048Y-12821190D01*
X1805000Y-12811667D01*
X1766905Y-12811667D01*
X1747857Y-12821190D01*
X1738333Y-12830714D01*
X1728809Y-12849762D01*
X2024048Y-12735476D02*
X1928809Y-12735476D01*
X1919286Y-12830714D01*
X1928809Y-12821190D01*
X1947857Y-12811667D01*
X1995476Y-12811667D01*
X2014524Y-12821190D01*
X2024048Y-12830714D01*
X2033571Y-12849762D01*
X2033571Y-12897381D01*
X2024048Y-12916428D01*
X2014524Y-12925952D01*
X1995476Y-12935476D01*
X1947857Y-12935476D01*
X1928809Y-12925952D01*
X1919286Y-12916428D01*
X2157381Y-12735476D02*
X2176429Y-12735476D01*
X2195476Y-12745000D01*
X2205000Y-12754524D01*
X2214524Y-12773571D01*
X2224048Y-12811667D01*
X2224048Y-12859286D01*
X2214524Y-12897381D01*
X2205000Y-12916428D01*
X2195476Y-12925952D01*
X2176429Y-12935476D01*
X2157381Y-12935476D01*
X2138333Y-12925952D01*
X2128810Y-12916428D01*
X2119286Y-12897381D01*
X2109762Y-12859286D01*
X2109762Y-12811667D01*
X2119286Y-12773571D01*
X2128810Y-12754524D01*
X2138333Y-12745000D01*
X2157381Y-12735476D01*
X2309762Y-12935476D02*
X2309762Y-12802143D01*
X2309762Y-12821190D02*
X2319286Y-12811667D01*
X2338333Y-12802143D01*
X2366905Y-12802143D01*
X2385952Y-12811667D01*
X2395476Y-12830714D01*
X2395476Y-12935476D01*
X2395476Y-12830714D02*
X2405000Y-12811667D01*
X2424048Y-12802143D01*
X2452619Y-12802143D01*
X2471667Y-12811667D01*
X2481190Y-12830714D01*
X2481190Y-12935476D01*
X2576429Y-12935476D02*
X2576429Y-12802143D01*
X2576429Y-12821190D02*
X2585952Y-12811667D01*
X2605000Y-12802143D01*
X2633571Y-12802143D01*
X2652619Y-12811667D01*
X2662143Y-12830714D01*
X2662143Y-12935476D01*
X2662143Y-12830714D02*
X2671667Y-12811667D01*
X2690714Y-12802143D01*
X2719286Y-12802143D01*
X2738333Y-12811667D01*
X2747857Y-12830714D01*
X2747857Y-12935476D01*
X3138333Y-12725952D02*
X2966905Y-12983095D01*
X3395476Y-12735476D02*
X3414524Y-12735476D01*
X3433571Y-12745000D01*
X3443095Y-12754524D01*
X3452619Y-12773571D01*
X3462143Y-12811667D01*
X3462143Y-12859286D01*
X3452619Y-12897381D01*
X3443095Y-12916428D01*
X3433571Y-12925952D01*
X3414524Y-12935476D01*
X3395476Y-12935476D01*
X3376428Y-12925952D01*
X3366905Y-12916428D01*
X3357381Y-12897381D01*
X3347857Y-12859286D01*
X3347857Y-12811667D01*
X3357381Y-12773571D01*
X3366905Y-12754524D01*
X3376428Y-12745000D01*
X3395476Y-12735476D01*
X3547857Y-12916428D02*
X3557381Y-12925952D01*
X3547857Y-12935476D01*
X3538333Y-12925952D01*
X3547857Y-12916428D01*
X3547857Y-12935476D01*
X3681190Y-12735476D02*
X3700238Y-12735476D01*
X3719286Y-12745000D01*
X3728809Y-12754524D01*
X3738333Y-12773571D01*
X3747857Y-12811667D01*
X3747857Y-12859286D01*
X3738333Y-12897381D01*
X3728809Y-12916428D01*
X3719286Y-12925952D01*
X3700238Y-12935476D01*
X3681190Y-12935476D01*
X3662143Y-12925952D01*
X3652619Y-12916428D01*
X3643095Y-12897381D01*
X3633571Y-12859286D01*
X3633571Y-12811667D01*
X3643095Y-12773571D01*
X3652619Y-12754524D01*
X3662143Y-12745000D01*
X3681190Y-12735476D01*
X3824048Y-12754524D02*
X3833571Y-12745000D01*
X3852619Y-12735476D01*
X3900238Y-12735476D01*
X3919286Y-12745000D01*
X3928809Y-12754524D01*
X3938333Y-12773571D01*
X3938333Y-12792619D01*
X3928809Y-12821190D01*
X3814524Y-12935476D01*
X3938333Y-12935476D01*
X4119286Y-12735476D02*
X4024048Y-12735476D01*
X4014524Y-12830714D01*
X4024048Y-12821190D01*
X4043095Y-12811667D01*
X4090714Y-12811667D01*
X4109762Y-12821190D01*
X4119286Y-12830714D01*
X4128809Y-12849762D01*
X4128809Y-12897381D01*
X4119286Y-12916428D01*
X4109762Y-12925952D01*
X4090714Y-12935476D01*
X4043095Y-12935476D01*
X4024048Y-12925952D01*
X4014524Y-12916428D01*
X4300238Y-12735476D02*
X4262143Y-12735476D01*
X4243095Y-12745000D01*
X4233571Y-12754524D01*
X4214524Y-12783095D01*
X4205000Y-12821190D01*
X4205000Y-12897381D01*
X4214524Y-12916428D01*
X4224048Y-12925952D01*
X4243095Y-12935476D01*
X4281190Y-12935476D01*
X4300238Y-12925952D01*
X4309762Y-12916428D01*
X4319286Y-12897381D01*
X4319286Y-12849762D01*
X4309762Y-12830714D01*
X4300238Y-12821190D01*
X4281190Y-12811667D01*
X4243095Y-12811667D01*
X4224048Y-12821190D01*
X4214524Y-12830714D01*
X4205000Y-12849762D01*
X4395476Y-12735476D02*
X4395476Y-12773571D01*
X4471667Y-12735476D02*
X4471667Y-12773571D01*
X4766905Y-13011667D02*
X4757381Y-13002143D01*
X4738333Y-12973571D01*
X4728810Y-12954524D01*
X4719286Y-12925952D01*
X4709762Y-12878333D01*
X4709762Y-12840238D01*
X4719286Y-12792619D01*
X4728810Y-12764048D01*
X4738333Y-12745000D01*
X4757381Y-12716428D01*
X4766905Y-12706905D01*
X4881190Y-12735476D02*
X4900238Y-12735476D01*
X4919286Y-12745000D01*
X4928810Y-12754524D01*
X4938333Y-12773571D01*
X4947857Y-12811667D01*
X4947857Y-12859286D01*
X4938333Y-12897381D01*
X4928810Y-12916428D01*
X4919286Y-12925952D01*
X4900238Y-12935476D01*
X4881190Y-12935476D01*
X4862143Y-12925952D01*
X4852619Y-12916428D01*
X4843095Y-12897381D01*
X4833571Y-12859286D01*
X4833571Y-12811667D01*
X4843095Y-12773571D01*
X4852619Y-12754524D01*
X4862143Y-12745000D01*
X4881190Y-12735476D01*
X5185952Y-12935476D02*
X5185952Y-12735476D01*
X5271667Y-12935476D02*
X5271667Y-12830714D01*
X5262143Y-12811667D01*
X5243095Y-12802143D01*
X5214524Y-12802143D01*
X5195476Y-12811667D01*
X5185952Y-12821190D01*
X5395476Y-12935476D02*
X5376429Y-12925952D01*
X5366905Y-12916428D01*
X5357381Y-12897381D01*
X5357381Y-12840238D01*
X5366905Y-12821190D01*
X5376429Y-12811667D01*
X5395476Y-12802143D01*
X5424048Y-12802143D01*
X5443095Y-12811667D01*
X5452619Y-12821190D01*
X5462143Y-12840238D01*
X5462143Y-12897381D01*
X5452619Y-12916428D01*
X5443095Y-12925952D01*
X5424048Y-12935476D01*
X5395476Y-12935476D01*
X5576429Y-12935476D02*
X5557381Y-12925952D01*
X5547857Y-12906905D01*
X5547857Y-12735476D01*
X5728809Y-12925952D02*
X5709762Y-12935476D01*
X5671667Y-12935476D01*
X5652619Y-12925952D01*
X5643095Y-12906905D01*
X5643095Y-12830714D01*
X5652619Y-12811667D01*
X5671667Y-12802143D01*
X5709762Y-12802143D01*
X5728809Y-12811667D01*
X5738333Y-12830714D01*
X5738333Y-12849762D01*
X5643095Y-12868809D01*
X5814524Y-12925952D02*
X5833571Y-12935476D01*
X5871667Y-12935476D01*
X5890714Y-12925952D01*
X5900238Y-12906905D01*
X5900238Y-12897381D01*
X5890714Y-12878333D01*
X5871667Y-12868809D01*
X5843095Y-12868809D01*
X5824048Y-12859286D01*
X5814524Y-12840238D01*
X5814524Y-12830714D01*
X5824048Y-12811667D01*
X5843095Y-12802143D01*
X5871667Y-12802143D01*
X5890714Y-12811667D01*
X6138333Y-12859286D02*
X6290714Y-12859286D01*
X6214524Y-12935476D02*
X6214524Y-12783095D01*
X6528809Y-12754524D02*
X6538333Y-12745000D01*
X6557381Y-12735476D01*
X6605000Y-12735476D01*
X6624048Y-12745000D01*
X6633571Y-12754524D01*
X6643095Y-12773571D01*
X6643095Y-12792619D01*
X6633571Y-12821190D01*
X6519286Y-12935476D01*
X6643095Y-12935476D01*
X6871667Y-12925952D02*
X6890714Y-12935476D01*
X6928809Y-12935476D01*
X6947857Y-12925952D01*
X6957381Y-12906905D01*
X6957381Y-12897381D01*
X6947857Y-12878333D01*
X6928809Y-12868809D01*
X6900238Y-12868809D01*
X6881190Y-12859286D01*
X6871667Y-12840238D01*
X6871667Y-12830714D01*
X6881190Y-12811667D01*
X6900238Y-12802143D01*
X6928809Y-12802143D01*
X6947857Y-12811667D01*
X7071667Y-12935476D02*
X7052619Y-12925952D01*
X7043095Y-12906905D01*
X7043095Y-12735476D01*
X7176428Y-12935476D02*
X7157381Y-12925952D01*
X7147857Y-12916428D01*
X7138333Y-12897381D01*
X7138333Y-12840238D01*
X7147857Y-12821190D01*
X7157381Y-12811667D01*
X7176428Y-12802143D01*
X7205000Y-12802143D01*
X7224048Y-12811667D01*
X7233571Y-12821190D01*
X7243095Y-12840238D01*
X7243095Y-12897381D01*
X7233571Y-12916428D01*
X7224048Y-12925952D01*
X7205000Y-12935476D01*
X7176428Y-12935476D01*
X7300238Y-12802143D02*
X7376428Y-12802143D01*
X7328809Y-12735476D02*
X7328809Y-12906905D01*
X7338333Y-12925952D01*
X7357381Y-12935476D01*
X7376428Y-12935476D01*
X7433571Y-12925952D02*
X7452619Y-12935476D01*
X7490714Y-12935476D01*
X7509762Y-12925952D01*
X7519286Y-12906905D01*
X7519286Y-12897381D01*
X7509762Y-12878333D01*
X7490714Y-12868809D01*
X7462143Y-12868809D01*
X7443095Y-12859286D01*
X7433571Y-12840238D01*
X7433571Y-12830714D01*
X7443095Y-12811667D01*
X7462143Y-12802143D01*
X7490714Y-12802143D01*
X7509762Y-12811667D01*
X7585952Y-13011667D02*
X7595476Y-13002143D01*
X7614524Y-12973571D01*
X7624048Y-12954524D01*
X7633571Y-12925952D01*
X7643095Y-12878333D01*
X7643095Y-12840238D01*
X7633571Y-12792619D01*
X7624048Y-12764048D01*
X7614524Y-12745000D01*
X7595476Y-12716428D01*
X7585952Y-12706905D01*
X7947857Y-13011667D02*
X7938333Y-13002143D01*
X7919286Y-12973571D01*
X7909762Y-12954524D01*
X7900238Y-12925952D01*
X7890714Y-12878333D01*
X7890714Y-12840238D01*
X7900238Y-12792619D01*
X7909762Y-12764048D01*
X7919286Y-12745000D01*
X7938333Y-12716428D01*
X7947857Y-12706905D01*
X8024048Y-12802143D02*
X8024048Y-12935476D01*
X8024048Y-12821190D02*
X8033571Y-12811667D01*
X8052619Y-12802143D01*
X8081190Y-12802143D01*
X8100238Y-12811667D01*
X8109762Y-12830714D01*
X8109762Y-12935476D01*
X8233571Y-12935476D02*
X8214524Y-12925952D01*
X8205000Y-12916428D01*
X8195476Y-12897381D01*
X8195476Y-12840238D01*
X8205000Y-12821190D01*
X8214524Y-12811667D01*
X8233571Y-12802143D01*
X8262143Y-12802143D01*
X8281190Y-12811667D01*
X8290714Y-12821190D01*
X8300238Y-12840238D01*
X8300238Y-12897381D01*
X8290714Y-12916428D01*
X8281190Y-12925952D01*
X8262143Y-12935476D01*
X8233571Y-12935476D01*
X8357381Y-12802143D02*
X8433571Y-12802143D01*
X8385952Y-12735476D02*
X8385952Y-12906905D01*
X8395476Y-12925952D01*
X8414524Y-12935476D01*
X8433571Y-12935476D01*
X8652619Y-12802143D02*
X8652619Y-13002143D01*
X8652619Y-12811667D02*
X8671667Y-12802143D01*
X8709762Y-12802143D01*
X8728810Y-12811667D01*
X8738333Y-12821190D01*
X8747857Y-12840238D01*
X8747857Y-12897381D01*
X8738333Y-12916428D01*
X8728810Y-12925952D01*
X8709762Y-12935476D01*
X8671667Y-12935476D01*
X8652619Y-12925952D01*
X8862143Y-12935476D02*
X8843095Y-12925952D01*
X8833571Y-12906905D01*
X8833571Y-12735476D01*
X9024048Y-12935476D02*
X9024048Y-12830714D01*
X9014524Y-12811667D01*
X8995476Y-12802143D01*
X8957381Y-12802143D01*
X8938333Y-12811667D01*
X9024048Y-12925952D02*
X9005000Y-12935476D01*
X8957381Y-12935476D01*
X8938333Y-12925952D01*
X8928810Y-12906905D01*
X8928810Y-12887857D01*
X8938333Y-12868809D01*
X8957381Y-12859286D01*
X9005000Y-12859286D01*
X9024048Y-12849762D01*
X9090714Y-12802143D02*
X9166905Y-12802143D01*
X9119286Y-12735476D02*
X9119286Y-12906905D01*
X9128810Y-12925952D01*
X9147857Y-12935476D01*
X9166905Y-12935476D01*
X9309762Y-12925952D02*
X9290714Y-12935476D01*
X9252619Y-12935476D01*
X9233571Y-12925952D01*
X9224048Y-12906905D01*
X9224048Y-12830714D01*
X9233571Y-12811667D01*
X9252619Y-12802143D01*
X9290714Y-12802143D01*
X9309762Y-12811667D01*
X9319286Y-12830714D01*
X9319286Y-12849762D01*
X9224048Y-12868809D01*
X9490714Y-12935476D02*
X9490714Y-12735476D01*
X9490714Y-12925952D02*
X9471667Y-12935476D01*
X9433571Y-12935476D01*
X9414524Y-12925952D01*
X9405000Y-12916428D01*
X9395476Y-12897381D01*
X9395476Y-12840238D01*
X9405000Y-12821190D01*
X9414524Y-12811667D01*
X9433571Y-12802143D01*
X9471667Y-12802143D01*
X9490714Y-12811667D01*
X9566905Y-13011667D02*
X9576429Y-13002143D01*
X9595476Y-12973571D01*
X9605000Y-12954524D01*
X9614524Y-12925952D01*
X9624048Y-12878333D01*
X9624048Y-12840238D01*
X9614524Y-12792619D01*
X9605000Y-12764048D01*
X9595476Y-12745000D01*
X9576429Y-12716428D01*
X9566905Y-12706905D01*
D13*
X1195000Y-13109000D02*
G75*
G03*
X1195000Y-13109000I-75000J0D01*
G01*
D11*
X1557381Y-13199476D02*
X1443095Y-13199476D01*
X1500238Y-13199476D02*
X1500238Y-12999476D01*
X1481190Y-13028048D01*
X1462143Y-13047095D01*
X1443095Y-13056619D01*
X1643095Y-13180428D02*
X1652619Y-13189952D01*
X1643095Y-13199476D01*
X1633571Y-13189952D01*
X1643095Y-13180428D01*
X1643095Y-13199476D01*
X1833571Y-12999476D02*
X1738333Y-12999476D01*
X1728809Y-13094714D01*
X1738333Y-13085190D01*
X1757381Y-13075667D01*
X1805000Y-13075667D01*
X1824048Y-13085190D01*
X1833571Y-13094714D01*
X1843095Y-13113762D01*
X1843095Y-13161381D01*
X1833571Y-13180428D01*
X1824048Y-13189952D01*
X1805000Y-13199476D01*
X1757381Y-13199476D01*
X1738333Y-13189952D01*
X1728809Y-13180428D01*
X1966905Y-12999476D02*
X1985952Y-12999476D01*
X2005000Y-13009000D01*
X2014524Y-13018524D01*
X2024048Y-13037571D01*
X2033571Y-13075667D01*
X2033571Y-13123286D01*
X2024048Y-13161381D01*
X2014524Y-13180428D01*
X2005000Y-13189952D01*
X1985952Y-13199476D01*
X1966905Y-13199476D01*
X1947857Y-13189952D01*
X1938333Y-13180428D01*
X1928809Y-13161381D01*
X1919286Y-13123286D01*
X1919286Y-13075667D01*
X1928809Y-13037571D01*
X1938333Y-13018524D01*
X1947857Y-13009000D01*
X1966905Y-12999476D01*
X2157381Y-12999476D02*
X2176429Y-12999476D01*
X2195476Y-13009000D01*
X2205000Y-13018524D01*
X2214524Y-13037571D01*
X2224048Y-13075667D01*
X2224048Y-13123286D01*
X2214524Y-13161381D01*
X2205000Y-13180428D01*
X2195476Y-13189952D01*
X2176429Y-13199476D01*
X2157381Y-13199476D01*
X2138333Y-13189952D01*
X2128810Y-13180428D01*
X2119286Y-13161381D01*
X2109762Y-13123286D01*
X2109762Y-13075667D01*
X2119286Y-13037571D01*
X2128810Y-13018524D01*
X2138333Y-13009000D01*
X2157381Y-12999476D01*
X2309762Y-13199476D02*
X2309762Y-13066143D01*
X2309762Y-13085190D02*
X2319286Y-13075667D01*
X2338333Y-13066143D01*
X2366905Y-13066143D01*
X2385952Y-13075667D01*
X2395476Y-13094714D01*
X2395476Y-13199476D01*
X2395476Y-13094714D02*
X2405000Y-13075667D01*
X2424048Y-13066143D01*
X2452619Y-13066143D01*
X2471667Y-13075667D01*
X2481190Y-13094714D01*
X2481190Y-13199476D01*
X2576429Y-13199476D02*
X2576429Y-13066143D01*
X2576429Y-13085190D02*
X2585952Y-13075667D01*
X2605000Y-13066143D01*
X2633571Y-13066143D01*
X2652619Y-13075667D01*
X2662143Y-13094714D01*
X2662143Y-13199476D01*
X2662143Y-13094714D02*
X2671667Y-13075667D01*
X2690714Y-13066143D01*
X2719286Y-13066143D01*
X2738333Y-13075667D01*
X2747857Y-13094714D01*
X2747857Y-13199476D01*
X3138333Y-12989952D02*
X2966905Y-13247095D01*
X3395476Y-12999476D02*
X3414524Y-12999476D01*
X3433571Y-13009000D01*
X3443095Y-13018524D01*
X3452619Y-13037571D01*
X3462143Y-13075667D01*
X3462143Y-13123286D01*
X3452619Y-13161381D01*
X3443095Y-13180428D01*
X3433571Y-13189952D01*
X3414524Y-13199476D01*
X3395476Y-13199476D01*
X3376428Y-13189952D01*
X3366905Y-13180428D01*
X3357381Y-13161381D01*
X3347857Y-13123286D01*
X3347857Y-13075667D01*
X3357381Y-13037571D01*
X3366905Y-13018524D01*
X3376428Y-13009000D01*
X3395476Y-12999476D01*
X3547857Y-13180428D02*
X3557381Y-13189952D01*
X3547857Y-13199476D01*
X3538333Y-13189952D01*
X3547857Y-13180428D01*
X3547857Y-13199476D01*
X3681190Y-12999476D02*
X3700238Y-12999476D01*
X3719286Y-13009000D01*
X3728809Y-13018524D01*
X3738333Y-13037571D01*
X3747857Y-13075667D01*
X3747857Y-13123286D01*
X3738333Y-13161381D01*
X3728809Y-13180428D01*
X3719286Y-13189952D01*
X3700238Y-13199476D01*
X3681190Y-13199476D01*
X3662143Y-13189952D01*
X3652619Y-13180428D01*
X3643095Y-13161381D01*
X3633571Y-13123286D01*
X3633571Y-13075667D01*
X3643095Y-13037571D01*
X3652619Y-13018524D01*
X3662143Y-13009000D01*
X3681190Y-12999476D01*
X3928809Y-12999476D02*
X3833571Y-12999476D01*
X3824048Y-13094714D01*
X3833571Y-13085190D01*
X3852619Y-13075667D01*
X3900238Y-13075667D01*
X3919286Y-13085190D01*
X3928809Y-13094714D01*
X3938333Y-13113762D01*
X3938333Y-13161381D01*
X3928809Y-13180428D01*
X3919286Y-13189952D01*
X3900238Y-13199476D01*
X3852619Y-13199476D01*
X3833571Y-13189952D01*
X3824048Y-13180428D01*
X4033571Y-13199476D02*
X4071667Y-13199476D01*
X4090714Y-13189952D01*
X4100238Y-13180428D01*
X4119286Y-13151857D01*
X4128809Y-13113762D01*
X4128809Y-13037571D01*
X4119286Y-13018524D01*
X4109762Y-13009000D01*
X4090714Y-12999476D01*
X4052619Y-12999476D01*
X4033571Y-13009000D01*
X4024048Y-13018524D01*
X4014524Y-13037571D01*
X4014524Y-13085190D01*
X4024048Y-13104238D01*
X4033571Y-13113762D01*
X4052619Y-13123286D01*
X4090714Y-13123286D01*
X4109762Y-13113762D01*
X4119286Y-13104238D01*
X4128809Y-13085190D01*
X4319286Y-13199476D02*
X4205000Y-13199476D01*
X4262143Y-13199476D02*
X4262143Y-12999476D01*
X4243095Y-13028048D01*
X4224048Y-13047095D01*
X4205000Y-13056619D01*
X4395476Y-12999476D02*
X4395476Y-13037571D01*
X4471667Y-12999476D02*
X4471667Y-13037571D01*
X4766905Y-13275667D02*
X4757381Y-13266143D01*
X4738333Y-13237571D01*
X4728810Y-13218524D01*
X4719286Y-13189952D01*
X4709762Y-13142333D01*
X4709762Y-13104238D01*
X4719286Y-13056619D01*
X4728810Y-13028048D01*
X4738333Y-13009000D01*
X4757381Y-12980428D01*
X4766905Y-12970905D01*
X4947857Y-13199476D02*
X4833571Y-13199476D01*
X4890714Y-13199476D02*
X4890714Y-12999476D01*
X4871667Y-13028048D01*
X4852619Y-13047095D01*
X4833571Y-13056619D01*
X5176429Y-13189952D02*
X5195476Y-13199476D01*
X5233571Y-13199476D01*
X5252619Y-13189952D01*
X5262143Y-13170905D01*
X5262143Y-13161381D01*
X5252619Y-13142333D01*
X5233571Y-13132809D01*
X5205000Y-13132809D01*
X5185952Y-13123286D01*
X5176429Y-13104238D01*
X5176429Y-13094714D01*
X5185952Y-13075667D01*
X5205000Y-13066143D01*
X5233571Y-13066143D01*
X5252619Y-13075667D01*
X5376429Y-13199476D02*
X5357381Y-13189952D01*
X5347857Y-13170905D01*
X5347857Y-12999476D01*
X5481190Y-13199476D02*
X5462143Y-13189952D01*
X5452619Y-13180428D01*
X5443095Y-13161381D01*
X5443095Y-13104238D01*
X5452619Y-13085190D01*
X5462143Y-13075667D01*
X5481190Y-13066143D01*
X5509762Y-13066143D01*
X5528810Y-13075667D01*
X5538333Y-13085190D01*
X5547857Y-13104238D01*
X5547857Y-13161381D01*
X5538333Y-13180428D01*
X5528810Y-13189952D01*
X5509762Y-13199476D01*
X5481190Y-13199476D01*
X5605000Y-13066143D02*
X5681190Y-13066143D01*
X5633571Y-12999476D02*
X5633571Y-13170905D01*
X5643095Y-13189952D01*
X5662143Y-13199476D01*
X5681190Y-13199476D01*
X5728809Y-13275667D02*
X5738333Y-13266143D01*
X5757381Y-13237571D01*
X5766905Y-13218524D01*
X5776428Y-13189952D01*
X5785952Y-13142333D01*
X5785952Y-13104238D01*
X5776428Y-13056619D01*
X5766905Y-13028048D01*
X5757381Y-13009000D01*
X5738333Y-12980428D01*
X5728809Y-12970905D01*
X6090714Y-13275667D02*
X6081190Y-13266143D01*
X6062143Y-13237571D01*
X6052619Y-13218524D01*
X6043095Y-13189952D01*
X6033571Y-13142333D01*
X6033571Y-13104238D01*
X6043095Y-13056619D01*
X6052619Y-13028048D01*
X6062143Y-13009000D01*
X6081190Y-12980428D01*
X6090714Y-12970905D01*
X6166905Y-13066143D02*
X6166905Y-13199476D01*
X6166905Y-13085190D02*
X6176428Y-13075667D01*
X6195476Y-13066143D01*
X6224048Y-13066143D01*
X6243095Y-13075667D01*
X6252619Y-13094714D01*
X6252619Y-13199476D01*
X6376428Y-13199476D02*
X6357381Y-13189952D01*
X6347857Y-13180428D01*
X6338333Y-13161381D01*
X6338333Y-13104238D01*
X6347857Y-13085190D01*
X6357381Y-13075667D01*
X6376428Y-13066143D01*
X6405000Y-13066143D01*
X6424048Y-13075667D01*
X6433571Y-13085190D01*
X6443095Y-13104238D01*
X6443095Y-13161381D01*
X6433571Y-13180428D01*
X6424048Y-13189952D01*
X6405000Y-13199476D01*
X6376428Y-13199476D01*
X6500238Y-13066143D02*
X6576428Y-13066143D01*
X6528809Y-12999476D02*
X6528809Y-13170905D01*
X6538333Y-13189952D01*
X6557381Y-13199476D01*
X6576428Y-13199476D01*
X6795476Y-13066143D02*
X6795476Y-13266143D01*
X6795476Y-13075667D02*
X6814524Y-13066143D01*
X6852619Y-13066143D01*
X6871667Y-13075667D01*
X6881190Y-13085190D01*
X6890714Y-13104238D01*
X6890714Y-13161381D01*
X6881190Y-13180428D01*
X6871667Y-13189952D01*
X6852619Y-13199476D01*
X6814524Y-13199476D01*
X6795476Y-13189952D01*
X7005000Y-13199476D02*
X6985952Y-13189952D01*
X6976428Y-13170905D01*
X6976428Y-12999476D01*
X7166905Y-13199476D02*
X7166905Y-13094714D01*
X7157381Y-13075667D01*
X7138333Y-13066143D01*
X7100238Y-13066143D01*
X7081190Y-13075667D01*
X7166905Y-13189952D02*
X7147857Y-13199476D01*
X7100238Y-13199476D01*
X7081190Y-13189952D01*
X7071667Y-13170905D01*
X7071667Y-13151857D01*
X7081190Y-13132809D01*
X7100238Y-13123286D01*
X7147857Y-13123286D01*
X7166905Y-13113762D01*
X7233571Y-13066143D02*
X7309762Y-13066143D01*
X7262143Y-12999476D02*
X7262143Y-13170905D01*
X7271667Y-13189952D01*
X7290714Y-13199476D01*
X7309762Y-13199476D01*
X7452619Y-13189952D02*
X7433571Y-13199476D01*
X7395476Y-13199476D01*
X7376428Y-13189952D01*
X7366905Y-13170905D01*
X7366905Y-13094714D01*
X7376428Y-13075667D01*
X7395476Y-13066143D01*
X7433571Y-13066143D01*
X7452619Y-13075667D01*
X7462143Y-13094714D01*
X7462143Y-13113762D01*
X7366905Y-13132809D01*
X7633571Y-13199476D02*
X7633571Y-12999476D01*
X7633571Y-13189952D02*
X7614524Y-13199476D01*
X7576428Y-13199476D01*
X7557381Y-13189952D01*
X7547857Y-13180428D01*
X7538333Y-13161381D01*
X7538333Y-13104238D01*
X7547857Y-13085190D01*
X7557381Y-13075667D01*
X7576428Y-13066143D01*
X7614524Y-13066143D01*
X7633571Y-13075667D01*
X7709762Y-13275667D02*
X7719286Y-13266143D01*
X7738333Y-13237571D01*
X7747857Y-13218524D01*
X7757381Y-13189952D01*
X7766905Y-13142333D01*
X7766905Y-13104238D01*
X7757381Y-13056619D01*
X7747857Y-13028048D01*
X7738333Y-13009000D01*
X7719286Y-12980428D01*
X7709762Y-12970905D01*
D14*
X1115000Y-13299000D02*
X1115000Y-13459000D01*
X1035000Y-13379000D02*
X1195000Y-13379000D01*
D11*
X1557381Y-13469476D02*
X1443095Y-13469476D01*
X1500238Y-13469476D02*
X1500238Y-13269476D01*
X1481190Y-13298048D01*
X1462143Y-13317095D01*
X1443095Y-13326619D01*
X1643095Y-13450428D02*
X1652619Y-13459952D01*
X1643095Y-13469476D01*
X1633571Y-13459952D01*
X1643095Y-13450428D01*
X1643095Y-13469476D01*
X1824048Y-13269476D02*
X1785952Y-13269476D01*
X1766905Y-13279000D01*
X1757381Y-13288524D01*
X1738333Y-13317095D01*
X1728809Y-13355190D01*
X1728809Y-13431381D01*
X1738333Y-13450428D01*
X1747857Y-13459952D01*
X1766905Y-13469476D01*
X1805000Y-13469476D01*
X1824048Y-13459952D01*
X1833571Y-13450428D01*
X1843095Y-13431381D01*
X1843095Y-13383762D01*
X1833571Y-13364714D01*
X1824048Y-13355190D01*
X1805000Y-13345667D01*
X1766905Y-13345667D01*
X1747857Y-13355190D01*
X1738333Y-13364714D01*
X1728809Y-13383762D01*
X1966905Y-13269476D02*
X1985952Y-13269476D01*
X2005000Y-13279000D01*
X2014524Y-13288524D01*
X2024048Y-13307571D01*
X2033571Y-13345667D01*
X2033571Y-13393286D01*
X2024048Y-13431381D01*
X2014524Y-13450428D01*
X2005000Y-13459952D01*
X1985952Y-13469476D01*
X1966905Y-13469476D01*
X1947857Y-13459952D01*
X1938333Y-13450428D01*
X1928809Y-13431381D01*
X1919286Y-13393286D01*
X1919286Y-13345667D01*
X1928809Y-13307571D01*
X1938333Y-13288524D01*
X1947857Y-13279000D01*
X1966905Y-13269476D01*
X2157381Y-13269476D02*
X2176429Y-13269476D01*
X2195476Y-13279000D01*
X2205000Y-13288524D01*
X2214524Y-13307571D01*
X2224048Y-13345667D01*
X2224048Y-13393286D01*
X2214524Y-13431381D01*
X2205000Y-13450428D01*
X2195476Y-13459952D01*
X2176429Y-13469476D01*
X2157381Y-13469476D01*
X2138333Y-13459952D01*
X2128810Y-13450428D01*
X2119286Y-13431381D01*
X2109762Y-13393286D01*
X2109762Y-13345667D01*
X2119286Y-13307571D01*
X2128810Y-13288524D01*
X2138333Y-13279000D01*
X2157381Y-13269476D01*
X2309762Y-13469476D02*
X2309762Y-13336143D01*
X2309762Y-13355190D02*
X2319286Y-13345667D01*
X2338333Y-13336143D01*
X2366905Y-13336143D01*
X2385952Y-13345667D01*
X2395476Y-13364714D01*
X2395476Y-13469476D01*
X2395476Y-13364714D02*
X2405000Y-13345667D01*
X2424048Y-13336143D01*
X2452619Y-13336143D01*
X2471667Y-13345667D01*
X2481190Y-13364714D01*
X2481190Y-13469476D01*
X2576429Y-13469476D02*
X2576429Y-13336143D01*
X2576429Y-13355190D02*
X2585952Y-13345667D01*
X2605000Y-13336143D01*
X2633571Y-13336143D01*
X2652619Y-13345667D01*
X2662143Y-13364714D01*
X2662143Y-13469476D01*
X2662143Y-13364714D02*
X2671667Y-13345667D01*
X2690714Y-13336143D01*
X2719286Y-13336143D01*
X2738333Y-13345667D01*
X2747857Y-13364714D01*
X2747857Y-13469476D01*
X3138333Y-13259952D02*
X2966905Y-13517095D01*
X3395476Y-13269476D02*
X3414524Y-13269476D01*
X3433571Y-13279000D01*
X3443095Y-13288524D01*
X3452619Y-13307571D01*
X3462143Y-13345667D01*
X3462143Y-13393286D01*
X3452619Y-13431381D01*
X3443095Y-13450428D01*
X3433571Y-13459952D01*
X3414524Y-13469476D01*
X3395476Y-13469476D01*
X3376428Y-13459952D01*
X3366905Y-13450428D01*
X3357381Y-13431381D01*
X3347857Y-13393286D01*
X3347857Y-13345667D01*
X3357381Y-13307571D01*
X3366905Y-13288524D01*
X3376428Y-13279000D01*
X3395476Y-13269476D01*
X3547857Y-13450428D02*
X3557381Y-13459952D01*
X3547857Y-13469476D01*
X3538333Y-13459952D01*
X3547857Y-13450428D01*
X3547857Y-13469476D01*
X3681190Y-13269476D02*
X3700238Y-13269476D01*
X3719286Y-13279000D01*
X3728809Y-13288524D01*
X3738333Y-13307571D01*
X3747857Y-13345667D01*
X3747857Y-13393286D01*
X3738333Y-13431381D01*
X3728809Y-13450428D01*
X3719286Y-13459952D01*
X3700238Y-13469476D01*
X3681190Y-13469476D01*
X3662143Y-13459952D01*
X3652619Y-13450428D01*
X3643095Y-13431381D01*
X3633571Y-13393286D01*
X3633571Y-13345667D01*
X3643095Y-13307571D01*
X3652619Y-13288524D01*
X3662143Y-13279000D01*
X3681190Y-13269476D01*
X3919286Y-13269476D02*
X3881190Y-13269476D01*
X3862143Y-13279000D01*
X3852619Y-13288524D01*
X3833571Y-13317095D01*
X3824048Y-13355190D01*
X3824048Y-13431381D01*
X3833571Y-13450428D01*
X3843095Y-13459952D01*
X3862143Y-13469476D01*
X3900238Y-13469476D01*
X3919286Y-13459952D01*
X3928809Y-13450428D01*
X3938333Y-13431381D01*
X3938333Y-13383762D01*
X3928809Y-13364714D01*
X3919286Y-13355190D01*
X3900238Y-13345667D01*
X3862143Y-13345667D01*
X3843095Y-13355190D01*
X3833571Y-13364714D01*
X3824048Y-13383762D01*
X4005000Y-13269476D02*
X4128809Y-13269476D01*
X4062143Y-13345667D01*
X4090714Y-13345667D01*
X4109762Y-13355190D01*
X4119286Y-13364714D01*
X4128809Y-13383762D01*
X4128809Y-13431381D01*
X4119286Y-13450428D01*
X4109762Y-13459952D01*
X4090714Y-13469476D01*
X4033571Y-13469476D01*
X4014524Y-13459952D01*
X4005000Y-13450428D01*
X4252619Y-13269476D02*
X4271667Y-13269476D01*
X4290714Y-13279000D01*
X4300238Y-13288524D01*
X4309762Y-13307571D01*
X4319286Y-13345667D01*
X4319286Y-13393286D01*
X4309762Y-13431381D01*
X4300238Y-13450428D01*
X4290714Y-13459952D01*
X4271667Y-13469476D01*
X4252619Y-13469476D01*
X4233571Y-13459952D01*
X4224048Y-13450428D01*
X4214524Y-13431381D01*
X4205000Y-13393286D01*
X4205000Y-13345667D01*
X4214524Y-13307571D01*
X4224048Y-13288524D01*
X4233571Y-13279000D01*
X4252619Y-13269476D01*
X4395476Y-13269476D02*
X4395476Y-13307571D01*
X4471667Y-13269476D02*
X4471667Y-13307571D01*
X4766905Y-13545667D02*
X4757381Y-13536143D01*
X4738333Y-13507571D01*
X4728810Y-13488524D01*
X4719286Y-13459952D01*
X4709762Y-13412333D01*
X4709762Y-13374238D01*
X4719286Y-13326619D01*
X4728810Y-13298048D01*
X4738333Y-13279000D01*
X4757381Y-13250428D01*
X4766905Y-13240905D01*
X4928810Y-13336143D02*
X4928810Y-13469476D01*
X4881190Y-13259952D02*
X4833571Y-13402809D01*
X4957381Y-13402809D01*
X5185952Y-13469476D02*
X5185952Y-13269476D01*
X5271667Y-13469476D02*
X5271667Y-13364714D01*
X5262143Y-13345667D01*
X5243095Y-13336143D01*
X5214524Y-13336143D01*
X5195476Y-13345667D01*
X5185952Y-13355190D01*
X5395476Y-13469476D02*
X5376429Y-13459952D01*
X5366905Y-13450428D01*
X5357381Y-13431381D01*
X5357381Y-13374238D01*
X5366905Y-13355190D01*
X5376429Y-13345667D01*
X5395476Y-13336143D01*
X5424048Y-13336143D01*
X5443095Y-13345667D01*
X5452619Y-13355190D01*
X5462143Y-13374238D01*
X5462143Y-13431381D01*
X5452619Y-13450428D01*
X5443095Y-13459952D01*
X5424048Y-13469476D01*
X5395476Y-13469476D01*
X5576429Y-13469476D02*
X5557381Y-13459952D01*
X5547857Y-13440905D01*
X5547857Y-13269476D01*
X5728809Y-13459952D02*
X5709762Y-13469476D01*
X5671667Y-13469476D01*
X5652619Y-13459952D01*
X5643095Y-13440905D01*
X5643095Y-13364714D01*
X5652619Y-13345667D01*
X5671667Y-13336143D01*
X5709762Y-13336143D01*
X5728809Y-13345667D01*
X5738333Y-13364714D01*
X5738333Y-13383762D01*
X5643095Y-13402809D01*
X5814524Y-13459952D02*
X5833571Y-13469476D01*
X5871667Y-13469476D01*
X5890714Y-13459952D01*
X5900238Y-13440905D01*
X5900238Y-13431381D01*
X5890714Y-13412333D01*
X5871667Y-13402809D01*
X5843095Y-13402809D01*
X5824048Y-13393286D01*
X5814524Y-13374238D01*
X5814524Y-13364714D01*
X5824048Y-13345667D01*
X5843095Y-13336143D01*
X5871667Y-13336143D01*
X5890714Y-13345667D01*
X5966905Y-13545667D02*
X5976428Y-13536143D01*
X5995476Y-13507571D01*
X6005000Y-13488524D01*
X6014524Y-13459952D01*
X6024048Y-13412333D01*
X6024048Y-13374238D01*
X6014524Y-13326619D01*
X6005000Y-13298048D01*
X5995476Y-13279000D01*
X5976428Y-13250428D01*
X5966905Y-13240905D01*
X6328809Y-13545667D02*
X6319286Y-13536143D01*
X6300238Y-13507571D01*
X6290714Y-13488524D01*
X6281190Y-13459952D01*
X6271667Y-13412333D01*
X6271667Y-13374238D01*
X6281190Y-13326619D01*
X6290714Y-13298048D01*
X6300238Y-13279000D01*
X6319286Y-13250428D01*
X6328809Y-13240905D01*
X6405000Y-13336143D02*
X6405000Y-13469476D01*
X6405000Y-13355190D02*
X6414524Y-13345667D01*
X6433571Y-13336143D01*
X6462143Y-13336143D01*
X6481190Y-13345667D01*
X6490714Y-13364714D01*
X6490714Y-13469476D01*
X6614524Y-13469476D02*
X6595476Y-13459952D01*
X6585952Y-13450428D01*
X6576428Y-13431381D01*
X6576428Y-13374238D01*
X6585952Y-13355190D01*
X6595476Y-13345667D01*
X6614524Y-13336143D01*
X6643095Y-13336143D01*
X6662143Y-13345667D01*
X6671667Y-13355190D01*
X6681190Y-13374238D01*
X6681190Y-13431381D01*
X6671667Y-13450428D01*
X6662143Y-13459952D01*
X6643095Y-13469476D01*
X6614524Y-13469476D01*
X6738333Y-13336143D02*
X6814524Y-13336143D01*
X6766905Y-13269476D02*
X6766905Y-13440905D01*
X6776428Y-13459952D01*
X6795476Y-13469476D01*
X6814524Y-13469476D01*
X7033571Y-13336143D02*
X7033571Y-13536143D01*
X7033571Y-13345667D02*
X7052619Y-13336143D01*
X7090714Y-13336143D01*
X7109762Y-13345667D01*
X7119286Y-13355190D01*
X7128809Y-13374238D01*
X7128809Y-13431381D01*
X7119286Y-13450428D01*
X7109762Y-13459952D01*
X7090714Y-13469476D01*
X7052619Y-13469476D01*
X7033571Y-13459952D01*
X7243095Y-13469476D02*
X7224048Y-13459952D01*
X7214524Y-13440905D01*
X7214524Y-13269476D01*
X7405000Y-13469476D02*
X7405000Y-13364714D01*
X7395476Y-13345667D01*
X7376428Y-13336143D01*
X7338333Y-13336143D01*
X7319286Y-13345667D01*
X7405000Y-13459952D02*
X7385952Y-13469476D01*
X7338333Y-13469476D01*
X7319286Y-13459952D01*
X7309762Y-13440905D01*
X7309762Y-13421857D01*
X7319286Y-13402809D01*
X7338333Y-13393286D01*
X7385952Y-13393286D01*
X7405000Y-13383762D01*
X7471667Y-13336143D02*
X7547857Y-13336143D01*
X7500238Y-13269476D02*
X7500238Y-13440905D01*
X7509762Y-13459952D01*
X7528809Y-13469476D01*
X7547857Y-13469476D01*
X7690714Y-13459952D02*
X7671667Y-13469476D01*
X7633571Y-13469476D01*
X7614524Y-13459952D01*
X7605000Y-13440905D01*
X7605000Y-13364714D01*
X7614524Y-13345667D01*
X7633571Y-13336143D01*
X7671667Y-13336143D01*
X7690714Y-13345667D01*
X7700238Y-13364714D01*
X7700238Y-13383762D01*
X7605000Y-13402809D01*
X7871667Y-13469476D02*
X7871667Y-13269476D01*
X7871667Y-13459952D02*
X7852619Y-13469476D01*
X7814524Y-13469476D01*
X7795476Y-13459952D01*
X7785952Y-13450428D01*
X7776428Y-13431381D01*
X7776428Y-13374238D01*
X7785952Y-13355190D01*
X7795476Y-13345667D01*
X7814524Y-13336143D01*
X7852619Y-13336143D01*
X7871667Y-13345667D01*
X7947857Y-13545667D02*
X7957381Y-13536143D01*
X7976428Y-13507571D01*
X7985952Y-13488524D01*
X7995476Y-13459952D01*
X8005000Y-13412333D01*
X8005000Y-13374238D01*
X7995476Y-13326619D01*
X7985952Y-13298048D01*
X7976428Y-13279000D01*
X7957381Y-13250428D01*
X7947857Y-13240905D01*
X1165711Y-13729711D02*
X1165711Y-13588289D01*
X1024289Y-13588289D01*
X1024289Y-13729711D01*
X1165711Y-13729711D01*
X1443095Y-13568524D02*
X1452619Y-13559000D01*
X1471667Y-13549476D01*
X1519286Y-13549476D01*
X1538333Y-13559000D01*
X1547857Y-13568524D01*
X1557381Y-13587571D01*
X1557381Y-13606619D01*
X1547857Y-13635190D01*
X1433571Y-13749476D01*
X1557381Y-13749476D01*
X1643095Y-13730428D02*
X1652619Y-13739952D01*
X1643095Y-13749476D01*
X1633571Y-13739952D01*
X1643095Y-13730428D01*
X1643095Y-13749476D01*
X1776428Y-13549476D02*
X1795476Y-13549476D01*
X1814524Y-13559000D01*
X1824048Y-13568524D01*
X1833571Y-13587571D01*
X1843095Y-13625667D01*
X1843095Y-13673286D01*
X1833571Y-13711381D01*
X1824048Y-13730428D01*
X1814524Y-13739952D01*
X1795476Y-13749476D01*
X1776428Y-13749476D01*
X1757381Y-13739952D01*
X1747857Y-13730428D01*
X1738333Y-13711381D01*
X1728809Y-13673286D01*
X1728809Y-13625667D01*
X1738333Y-13587571D01*
X1747857Y-13568524D01*
X1757381Y-13559000D01*
X1776428Y-13549476D01*
X1966905Y-13549476D02*
X1985952Y-13549476D01*
X2005000Y-13559000D01*
X2014524Y-13568524D01*
X2024048Y-13587571D01*
X2033571Y-13625667D01*
X2033571Y-13673286D01*
X2024048Y-13711381D01*
X2014524Y-13730428D01*
X2005000Y-13739952D01*
X1985952Y-13749476D01*
X1966905Y-13749476D01*
X1947857Y-13739952D01*
X1938333Y-13730428D01*
X1928809Y-13711381D01*
X1919286Y-13673286D01*
X1919286Y-13625667D01*
X1928809Y-13587571D01*
X1938333Y-13568524D01*
X1947857Y-13559000D01*
X1966905Y-13549476D01*
X2157381Y-13549476D02*
X2176429Y-13549476D01*
X2195476Y-13559000D01*
X2205000Y-13568524D01*
X2214524Y-13587571D01*
X2224048Y-13625667D01*
X2224048Y-13673286D01*
X2214524Y-13711381D01*
X2205000Y-13730428D01*
X2195476Y-13739952D01*
X2176429Y-13749476D01*
X2157381Y-13749476D01*
X2138333Y-13739952D01*
X2128810Y-13730428D01*
X2119286Y-13711381D01*
X2109762Y-13673286D01*
X2109762Y-13625667D01*
X2119286Y-13587571D01*
X2128810Y-13568524D01*
X2138333Y-13559000D01*
X2157381Y-13549476D01*
X2309762Y-13749476D02*
X2309762Y-13616143D01*
X2309762Y-13635190D02*
X2319286Y-13625667D01*
X2338333Y-13616143D01*
X2366905Y-13616143D01*
X2385952Y-13625667D01*
X2395476Y-13644714D01*
X2395476Y-13749476D01*
X2395476Y-13644714D02*
X2405000Y-13625667D01*
X2424048Y-13616143D01*
X2452619Y-13616143D01*
X2471667Y-13625667D01*
X2481190Y-13644714D01*
X2481190Y-13749476D01*
X2576429Y-13749476D02*
X2576429Y-13616143D01*
X2576429Y-13635190D02*
X2585952Y-13625667D01*
X2605000Y-13616143D01*
X2633571Y-13616143D01*
X2652619Y-13625667D01*
X2662143Y-13644714D01*
X2662143Y-13749476D01*
X2662143Y-13644714D02*
X2671667Y-13625667D01*
X2690714Y-13616143D01*
X2719286Y-13616143D01*
X2738333Y-13625667D01*
X2747857Y-13644714D01*
X2747857Y-13749476D01*
X3138333Y-13539952D02*
X2966905Y-13797095D01*
X3395476Y-13549476D02*
X3414524Y-13549476D01*
X3433571Y-13559000D01*
X3443095Y-13568524D01*
X3452619Y-13587571D01*
X3462143Y-13625667D01*
X3462143Y-13673286D01*
X3452619Y-13711381D01*
X3443095Y-13730428D01*
X3433571Y-13739952D01*
X3414524Y-13749476D01*
X3395476Y-13749476D01*
X3376428Y-13739952D01*
X3366905Y-13730428D01*
X3357381Y-13711381D01*
X3347857Y-13673286D01*
X3347857Y-13625667D01*
X3357381Y-13587571D01*
X3366905Y-13568524D01*
X3376428Y-13559000D01*
X3395476Y-13549476D01*
X3547857Y-13730428D02*
X3557381Y-13739952D01*
X3547857Y-13749476D01*
X3538333Y-13739952D01*
X3547857Y-13730428D01*
X3547857Y-13749476D01*
X3681190Y-13549476D02*
X3700238Y-13549476D01*
X3719286Y-13559000D01*
X3728809Y-13568524D01*
X3738333Y-13587571D01*
X3747857Y-13625667D01*
X3747857Y-13673286D01*
X3738333Y-13711381D01*
X3728809Y-13730428D01*
X3719286Y-13739952D01*
X3700238Y-13749476D01*
X3681190Y-13749476D01*
X3662143Y-13739952D01*
X3652619Y-13730428D01*
X3643095Y-13711381D01*
X3633571Y-13673286D01*
X3633571Y-13625667D01*
X3643095Y-13587571D01*
X3652619Y-13568524D01*
X3662143Y-13559000D01*
X3681190Y-13549476D01*
X3814524Y-13549476D02*
X3947857Y-13549476D01*
X3862143Y-13749476D01*
X4052619Y-13635190D02*
X4033571Y-13625667D01*
X4024048Y-13616143D01*
X4014524Y-13597095D01*
X4014524Y-13587571D01*
X4024048Y-13568524D01*
X4033571Y-13559000D01*
X4052619Y-13549476D01*
X4090714Y-13549476D01*
X4109762Y-13559000D01*
X4119286Y-13568524D01*
X4128809Y-13587571D01*
X4128809Y-13597095D01*
X4119286Y-13616143D01*
X4109762Y-13625667D01*
X4090714Y-13635190D01*
X4052619Y-13635190D01*
X4033571Y-13644714D01*
X4024048Y-13654238D01*
X4014524Y-13673286D01*
X4014524Y-13711381D01*
X4024048Y-13730428D01*
X4033571Y-13739952D01*
X4052619Y-13749476D01*
X4090714Y-13749476D01*
X4109762Y-13739952D01*
X4119286Y-13730428D01*
X4128809Y-13711381D01*
X4128809Y-13673286D01*
X4119286Y-13654238D01*
X4109762Y-13644714D01*
X4090714Y-13635190D01*
X4195476Y-13549476D02*
X4328810Y-13549476D01*
X4243095Y-13749476D01*
X4395476Y-13549476D02*
X4395476Y-13587571D01*
X4471667Y-13549476D02*
X4471667Y-13587571D01*
X4766905Y-13825667D02*
X4757381Y-13816143D01*
X4738333Y-13787571D01*
X4728810Y-13768524D01*
X4719286Y-13739952D01*
X4709762Y-13692333D01*
X4709762Y-13654238D01*
X4719286Y-13606619D01*
X4728810Y-13578048D01*
X4738333Y-13559000D01*
X4757381Y-13530428D01*
X4766905Y-13520905D01*
X4947857Y-13749476D02*
X4833571Y-13749476D01*
X4890714Y-13749476D02*
X4890714Y-13549476D01*
X4871667Y-13578048D01*
X4852619Y-13597095D01*
X4833571Y-13606619D01*
X5185952Y-13749476D02*
X5185952Y-13549476D01*
X5271667Y-13749476D02*
X5271667Y-13644714D01*
X5262143Y-13625667D01*
X5243095Y-13616143D01*
X5214524Y-13616143D01*
X5195476Y-13625667D01*
X5185952Y-13635190D01*
X5395476Y-13749476D02*
X5376429Y-13739952D01*
X5366905Y-13730428D01*
X5357381Y-13711381D01*
X5357381Y-13654238D01*
X5366905Y-13635190D01*
X5376429Y-13625667D01*
X5395476Y-13616143D01*
X5424048Y-13616143D01*
X5443095Y-13625667D01*
X5452619Y-13635190D01*
X5462143Y-13654238D01*
X5462143Y-13711381D01*
X5452619Y-13730428D01*
X5443095Y-13739952D01*
X5424048Y-13749476D01*
X5395476Y-13749476D01*
X5576429Y-13749476D02*
X5557381Y-13739952D01*
X5547857Y-13720905D01*
X5547857Y-13549476D01*
X5728809Y-13739952D02*
X5709762Y-13749476D01*
X5671667Y-13749476D01*
X5652619Y-13739952D01*
X5643095Y-13720905D01*
X5643095Y-13644714D01*
X5652619Y-13625667D01*
X5671667Y-13616143D01*
X5709762Y-13616143D01*
X5728809Y-13625667D01*
X5738333Y-13644714D01*
X5738333Y-13663762D01*
X5643095Y-13682809D01*
X5805000Y-13825667D02*
X5814524Y-13816143D01*
X5833571Y-13787571D01*
X5843095Y-13768524D01*
X5852619Y-13739952D01*
X5862143Y-13692333D01*
X5862143Y-13654238D01*
X5852619Y-13606619D01*
X5843095Y-13578048D01*
X5833571Y-13559000D01*
X5814524Y-13530428D01*
X5805000Y-13520905D01*
X6166905Y-13825667D02*
X6157381Y-13816143D01*
X6138333Y-13787571D01*
X6128809Y-13768524D01*
X6119286Y-13739952D01*
X6109762Y-13692333D01*
X6109762Y-13654238D01*
X6119286Y-13606619D01*
X6128809Y-13578048D01*
X6138333Y-13559000D01*
X6157381Y-13530428D01*
X6166905Y-13520905D01*
X6243095Y-13616143D02*
X6243095Y-13749476D01*
X6243095Y-13635190D02*
X6252619Y-13625667D01*
X6271667Y-13616143D01*
X6300238Y-13616143D01*
X6319286Y-13625667D01*
X6328809Y-13644714D01*
X6328809Y-13749476D01*
X6452619Y-13749476D02*
X6433571Y-13739952D01*
X6424048Y-13730428D01*
X6414524Y-13711381D01*
X6414524Y-13654238D01*
X6424048Y-13635190D01*
X6433571Y-13625667D01*
X6452619Y-13616143D01*
X6481190Y-13616143D01*
X6500238Y-13625667D01*
X6509762Y-13635190D01*
X6519286Y-13654238D01*
X6519286Y-13711381D01*
X6509762Y-13730428D01*
X6500238Y-13739952D01*
X6481190Y-13749476D01*
X6452619Y-13749476D01*
X6576428Y-13616143D02*
X6652619Y-13616143D01*
X6605000Y-13549476D02*
X6605000Y-13720905D01*
X6614524Y-13739952D01*
X6633571Y-13749476D01*
X6652619Y-13749476D01*
X6871667Y-13616143D02*
X6871667Y-13816143D01*
X6871667Y-13625667D02*
X6890714Y-13616143D01*
X6928809Y-13616143D01*
X6947857Y-13625667D01*
X6957381Y-13635190D01*
X6966905Y-13654238D01*
X6966905Y-13711381D01*
X6957381Y-13730428D01*
X6947857Y-13739952D01*
X6928809Y-13749476D01*
X6890714Y-13749476D01*
X6871667Y-13739952D01*
X7081190Y-13749476D02*
X7062143Y-13739952D01*
X7052619Y-13720905D01*
X7052619Y-13549476D01*
X7243095Y-13749476D02*
X7243095Y-13644714D01*
X7233571Y-13625667D01*
X7214524Y-13616143D01*
X7176428Y-13616143D01*
X7157381Y-13625667D01*
X7243095Y-13739952D02*
X7224048Y-13749476D01*
X7176428Y-13749476D01*
X7157381Y-13739952D01*
X7147857Y-13720905D01*
X7147857Y-13701857D01*
X7157381Y-13682809D01*
X7176428Y-13673286D01*
X7224048Y-13673286D01*
X7243095Y-13663762D01*
X7309762Y-13616143D02*
X7385952Y-13616143D01*
X7338333Y-13549476D02*
X7338333Y-13720905D01*
X7347857Y-13739952D01*
X7366905Y-13749476D01*
X7385952Y-13749476D01*
X7528809Y-13739952D02*
X7509762Y-13749476D01*
X7471667Y-13749476D01*
X7452619Y-13739952D01*
X7443095Y-13720905D01*
X7443095Y-13644714D01*
X7452619Y-13625667D01*
X7471667Y-13616143D01*
X7509762Y-13616143D01*
X7528809Y-13625667D01*
X7538333Y-13644714D01*
X7538333Y-13663762D01*
X7443095Y-13682809D01*
X7709762Y-13749476D02*
X7709762Y-13549476D01*
X7709762Y-13739952D02*
X7690714Y-13749476D01*
X7652619Y-13749476D01*
X7633571Y-13739952D01*
X7624048Y-13730428D01*
X7614524Y-13711381D01*
X7614524Y-13654238D01*
X7624048Y-13635190D01*
X7633571Y-13625667D01*
X7652619Y-13616143D01*
X7690714Y-13616143D01*
X7709762Y-13625667D01*
X7785952Y-13825667D02*
X7795476Y-13816143D01*
X7814524Y-13787571D01*
X7824048Y-13768524D01*
X7833571Y-13739952D01*
X7843095Y-13692333D01*
X7843095Y-13654238D01*
X7833571Y-13606619D01*
X7824048Y-13578048D01*
X7814524Y-13559000D01*
X7795476Y-13530428D01*
X7785952Y-13520905D01*
M02*
