G04 #@! TF.GenerationSoftware,KiCad,Pcbnew,6.0.10*
G04 #@! TF.CreationDate,2023-01-08T03:35:34+01:00*
G04 #@! TF.ProjectId,ideal_diode,69646561-6c5f-4646-996f-64652e6b6963,rev?*
G04 #@! TF.SameCoordinates,Original*
G04 #@! TF.FileFunction,Copper,L1,Top*
G04 #@! TF.FilePolarity,Positive*
%FSLAX46Y46*%
G04 Gerber Fmt 4.6, Leading zero omitted, Abs format (unit mm)*
G04 Created by KiCad (PCBNEW 6.0.10) date 2023-01-08 03:35:34*
%MOMM*%
%LPD*%
G01*
G04 APERTURE LIST*
G04 Aperture macros list*
%AMRoundRect*
0 Rectangle with rounded corners*
0 $1 Rounding radius*
0 $2 $3 $4 $5 $6 $7 $8 $9 X,Y pos of 4 corners*
0 Add a 4 corners polygon primitive as box body*
4,1,4,$2,$3,$4,$5,$6,$7,$8,$9,$2,$3,0*
0 Add four circle primitives for the rounded corners*
1,1,$1+$1,$2,$3*
1,1,$1+$1,$4,$5*
1,1,$1+$1,$6,$7*
1,1,$1+$1,$8,$9*
0 Add four rect primitives between the rounded corners*
20,1,$1+$1,$2,$3,$4,$5,0*
20,1,$1+$1,$4,$5,$6,$7,0*
20,1,$1+$1,$6,$7,$8,$9,0*
20,1,$1+$1,$8,$9,$2,$3,0*%
G04 Aperture macros list end*
G04 #@! TA.AperFunction,SMDPad,CuDef*
%ADD10RoundRect,0.250000X0.625000X-0.312500X0.625000X0.312500X-0.625000X0.312500X-0.625000X-0.312500X0*%
G04 #@! TD*
G04 #@! TA.AperFunction,SMDPad,CuDef*
%ADD11RoundRect,0.250000X-0.625000X0.312500X-0.625000X-0.312500X0.625000X-0.312500X0.625000X0.312500X0*%
G04 #@! TD*
G04 #@! TA.AperFunction,ComponentPad*
%ADD12C,2.000000*%
G04 #@! TD*
G04 #@! TA.AperFunction,SMDPad,CuDef*
%ADD13R,0.600000X0.400000*%
G04 #@! TD*
G04 #@! TA.AperFunction,ComponentPad*
%ADD14C,0.800000*%
G04 #@! TD*
G04 #@! TA.AperFunction,ComponentPad*
%ADD15C,6.400000*%
G04 #@! TD*
G04 #@! TA.AperFunction,SMDPad,CuDef*
%ADD16RoundRect,0.250000X0.312500X0.625000X-0.312500X0.625000X-0.312500X-0.625000X0.312500X-0.625000X0*%
G04 #@! TD*
G04 #@! TA.AperFunction,SMDPad,CuDef*
%ADD17RoundRect,0.150000X0.150000X-0.587500X0.150000X0.587500X-0.150000X0.587500X-0.150000X-0.587500X0*%
G04 #@! TD*
G04 #@! TA.AperFunction,SMDPad,CuDef*
%ADD18RoundRect,0.225000X0.225000X0.250000X-0.225000X0.250000X-0.225000X-0.250000X0.225000X-0.250000X0*%
G04 #@! TD*
G04 #@! TA.AperFunction,SMDPad,CuDef*
%ADD19R,1.250000X2.850000*%
G04 #@! TD*
G04 #@! TA.AperFunction,SMDPad,CuDef*
%ADD20R,5.550000X6.500000*%
G04 #@! TD*
G04 #@! TA.AperFunction,ComponentPad*
%ADD21R,1.600000X1.600000*%
G04 #@! TD*
G04 #@! TA.AperFunction,ComponentPad*
%ADD22O,1.600000X1.600000*%
G04 #@! TD*
G04 #@! TA.AperFunction,SMDPad,CuDef*
%ADD23RoundRect,0.150000X-0.150000X0.587500X-0.150000X-0.587500X0.150000X-0.587500X0.150000X0.587500X0*%
G04 #@! TD*
G04 #@! TA.AperFunction,ViaPad*
%ADD24C,1.000000*%
G04 #@! TD*
G04 #@! TA.AperFunction,Conductor*
%ADD25C,0.300000*%
G04 #@! TD*
G04 #@! TA.AperFunction,Conductor*
%ADD26C,3.000000*%
G04 #@! TD*
G04 APERTURE END LIST*
D10*
X35799770Y-39712500D03*
X35799770Y-36787500D03*
D11*
X25700000Y-22775000D03*
X25700000Y-25700000D03*
D12*
X35699770Y-34354770D03*
X25899770Y-28100000D03*
D13*
X31499770Y-29329770D03*
X31499770Y-30279770D03*
X31499770Y-31229770D03*
X33699770Y-31229770D03*
X33699770Y-29329770D03*
D14*
X33699770Y-18599770D03*
X33699770Y-13799770D03*
X32002714Y-17896826D03*
X35396826Y-14502714D03*
D15*
X33699770Y-16199770D03*
D14*
X36099770Y-16199770D03*
X35396826Y-17896826D03*
X31299770Y-16199770D03*
X32002714Y-14502714D03*
D11*
X35699770Y-24354770D03*
X35699770Y-27279770D03*
D16*
X29999770Y-30779770D03*
X27074770Y-30779770D03*
D17*
X28217270Y-28442270D03*
X30117270Y-28442270D03*
X29167270Y-26567270D03*
D18*
X30200000Y-24800000D03*
X28650000Y-24800000D03*
D19*
X32267270Y-34004770D03*
D20*
X29987270Y-40404770D03*
D19*
X27707270Y-34004770D03*
D14*
X17896826Y-17896826D03*
X16199770Y-13799770D03*
X18599770Y-16199770D03*
X17896826Y-14502714D03*
X14502714Y-14502714D03*
X14502714Y-17896826D03*
D15*
X16199770Y-16199770D03*
D14*
X16199770Y-18599770D03*
X13799770Y-16199770D03*
D10*
X35799770Y-44462500D03*
X35799770Y-41537500D03*
D14*
X17896826Y-37082714D03*
X14502714Y-40476826D03*
X16199770Y-41179770D03*
X18599770Y-38779770D03*
X14502714Y-37082714D03*
X13799770Y-38779770D03*
X17896826Y-40476826D03*
D15*
X16199770Y-38779770D03*
D14*
X16199770Y-36379770D03*
D11*
X35699770Y-29054770D03*
X35699770Y-31979770D03*
D15*
X16199770Y-48779770D03*
D14*
X16199770Y-46379770D03*
X13799770Y-48779770D03*
X17896826Y-50476826D03*
X18599770Y-48779770D03*
X16199770Y-51179770D03*
X14502714Y-50476826D03*
X17896826Y-47082714D03*
X14502714Y-47082714D03*
D21*
X15479770Y-22439770D03*
D22*
X15479770Y-30059770D03*
X23099770Y-30059770D03*
X23099770Y-24979770D03*
D23*
X33717270Y-25667270D03*
X31817270Y-25667270D03*
X32767270Y-27542270D03*
D14*
X31299770Y-48779770D03*
X32002714Y-47082714D03*
X33699770Y-46379770D03*
X33699770Y-51179770D03*
X36099770Y-48779770D03*
X35396826Y-47082714D03*
X35396826Y-50476826D03*
D15*
X33699770Y-48779770D03*
D14*
X32002714Y-50476826D03*
D12*
X25700000Y-20300000D03*
D24*
X22750000Y-21750000D03*
X22750000Y-20000000D03*
X21500000Y-21250000D03*
X21500000Y-47500000D03*
X20000000Y-26000000D03*
X15500000Y-43500000D03*
X14000000Y-35000000D03*
X21099770Y-39900230D03*
X18500000Y-27500000D03*
X17500000Y-43500000D03*
X21500000Y-50500000D03*
X20000000Y-29000000D03*
X20000000Y-32000000D03*
X15500000Y-26000000D03*
X20000000Y-23000000D03*
X21500000Y-49000000D03*
X21099770Y-43400230D03*
X21500000Y-13000000D03*
X21500000Y-52000000D03*
X14000000Y-43500000D03*
X18500000Y-32000000D03*
X18500000Y-26000000D03*
X18500000Y-30500000D03*
X14000000Y-33500000D03*
X20000000Y-24500000D03*
X20000000Y-27500000D03*
X15500000Y-33500000D03*
X18500000Y-24500000D03*
X17000000Y-26000000D03*
X21099770Y-41900230D03*
X21099770Y-37900230D03*
X20000000Y-30500000D03*
X18500000Y-23000000D03*
X19739770Y-45239770D03*
X17000000Y-33500000D03*
X18500000Y-33500000D03*
X21500000Y-23000000D03*
X18500000Y-29000000D03*
X22247918Y-36747918D03*
X17000000Y-27500000D03*
X20000000Y-52000000D03*
X29000000Y-50000000D03*
X29987270Y-40404770D03*
X30000000Y-38000000D03*
X30460000Y-45540000D03*
X29500000Y-20000000D03*
X32000000Y-38000000D03*
X29987270Y-44012730D03*
X31000000Y-21500000D03*
X27500000Y-47500000D03*
X34500000Y-22000000D03*
X29000000Y-52000000D03*
X32000000Y-40500000D03*
X33000000Y-22000000D03*
X32000000Y-42500000D03*
X37000000Y-22000000D03*
X37000000Y-20500000D03*
X27500000Y-50000000D03*
X29987270Y-42512730D03*
X27500000Y-52000000D03*
X29000000Y-47500000D03*
X30000000Y-36500000D03*
D25*
X21007717Y-16250000D02*
X21253859Y-16003859D01*
X20849770Y-18125864D02*
X20849770Y-16407948D01*
X20849770Y-16407948D02*
X21253859Y-16003859D01*
X21253859Y-16003859D02*
X23277947Y-13979770D01*
X15479770Y-22439770D02*
X17069770Y-20849770D01*
X17069770Y-20849770D02*
X18125864Y-20849770D01*
X18125864Y-20849770D02*
X20849770Y-18125864D01*
X31399770Y-13979770D02*
X33699770Y-16279770D01*
X23277947Y-13979770D02*
X31399770Y-13979770D01*
X31499770Y-28380163D02*
X31499770Y-29329770D01*
X32629770Y-24579770D02*
X33717270Y-25667270D01*
X34474770Y-30811876D02*
X34474770Y-32540798D01*
X34387270Y-25667270D02*
X35699770Y-24354770D01*
X30663173Y-23975000D02*
X31267943Y-24579770D01*
X29582106Y-23475000D02*
X30082106Y-23975000D01*
X34863742Y-32929770D02*
X37049770Y-32929770D01*
X29167270Y-26567270D02*
X29686877Y-26567270D01*
X33571217Y-29908323D02*
X34474770Y-30811876D01*
X28875000Y-23475000D02*
X29582106Y-23475000D01*
X35799770Y-36767270D02*
X37049770Y-35517270D01*
X35699770Y-24354770D02*
X37049770Y-25704770D01*
X33078323Y-29908323D02*
X33571217Y-29908323D01*
X25700000Y-20300000D02*
X28875000Y-23475000D01*
X37049770Y-35517270D02*
X37049770Y-34104770D01*
X33717270Y-25667270D02*
X34387270Y-25667270D01*
X37049770Y-25704770D02*
X37049770Y-32929770D01*
X30082106Y-23975000D02*
X30663173Y-23975000D01*
X31499770Y-29329770D02*
X32499770Y-29329770D01*
X37049770Y-34104770D02*
X37049770Y-32929770D01*
X31267943Y-24579770D02*
X32629770Y-24579770D01*
X32499770Y-29329770D02*
X33078323Y-29908323D01*
X29686877Y-26567270D02*
X31499770Y-28380163D01*
X34474770Y-32540798D02*
X34863742Y-32929770D01*
X35699770Y-34354770D02*
X32617270Y-34354770D01*
X32617270Y-34354770D02*
X32267270Y-34004770D01*
X33699770Y-31229770D02*
X33699770Y-32572270D01*
X33699770Y-32572270D02*
X32267270Y-34004770D01*
D26*
X21099770Y-43879770D02*
X21099770Y-43400230D01*
D25*
X32417270Y-30654770D02*
X32417270Y-31654770D01*
X31874376Y-31804770D02*
X29674376Y-34004770D01*
X32017270Y-30254770D02*
X32417270Y-30654770D01*
D26*
X21099770Y-43400230D02*
X21099770Y-41900230D01*
D25*
X28217270Y-28442270D02*
X28217270Y-25232730D01*
D26*
X16199770Y-48779770D02*
X19739770Y-45239770D01*
D25*
X31767270Y-30254770D02*
X32017270Y-30254770D01*
X29674376Y-34004770D02*
X27707270Y-34004770D01*
X30717270Y-30254770D02*
X30267270Y-30704770D01*
D26*
X19739770Y-45239770D02*
X21099770Y-43879770D01*
D25*
X30267270Y-30704770D02*
X30267270Y-30492270D01*
D26*
X21099770Y-37900230D02*
X21099770Y-37896066D01*
D25*
X32267270Y-31804770D02*
X31874376Y-31804770D01*
X30267270Y-30492270D02*
X28217270Y-28442270D01*
D26*
X25016066Y-33979770D02*
X26499770Y-33979770D01*
D25*
X31767270Y-30254770D02*
X30717270Y-30254770D01*
D26*
X21099770Y-37896066D02*
X22247918Y-36747918D01*
D25*
X28217270Y-25232730D02*
X28650000Y-24800000D01*
D26*
X22247918Y-36747918D02*
X25016066Y-33979770D01*
D25*
X32417270Y-31654770D02*
X32267270Y-31804770D01*
D26*
X21099770Y-39900230D02*
X21099770Y-37900230D01*
X21099770Y-41900230D02*
X21099770Y-39900230D01*
D25*
X25700000Y-27900230D02*
X25899770Y-28100000D01*
X27074770Y-29275000D02*
X25899770Y-28100000D01*
X27074770Y-30779770D02*
X28299770Y-32004770D01*
X30724770Y-32004770D02*
X31499770Y-31229770D01*
X27074770Y-30779770D02*
X27074770Y-29275000D01*
X25700000Y-25700000D02*
X25700000Y-27900230D01*
X28299770Y-32004770D02*
X30724770Y-32004770D01*
X35799770Y-41529770D02*
X35799770Y-39692270D01*
D26*
X29987270Y-44012730D02*
X29987270Y-45067270D01*
X29987270Y-45067270D02*
X30460000Y-45540000D01*
X29987270Y-40404770D02*
X29987270Y-42512730D01*
X29987270Y-42512730D02*
X29987270Y-44012730D01*
D25*
X35799770Y-46679770D02*
X33699770Y-48779770D01*
D26*
X30460000Y-45540000D02*
X33699770Y-48779770D01*
D25*
X35799770Y-44454770D02*
X35799770Y-46679770D01*
X35699770Y-29054770D02*
X35699770Y-27279770D01*
X35699770Y-31329770D02*
X35699770Y-31979770D01*
X23099770Y-31879770D02*
X16199770Y-38779770D01*
X23099770Y-30059770D02*
X23099770Y-31879770D01*
X21949770Y-25456116D02*
X21949770Y-24503424D01*
X29375000Y-23975000D02*
X26900000Y-23975000D01*
X33699770Y-29329770D02*
X35699770Y-31329770D01*
X30200000Y-25494607D02*
X30200000Y-24800000D01*
X32767270Y-27542270D02*
X32767270Y-28397270D01*
X30200000Y-24800000D02*
X29375000Y-23975000D01*
X23678194Y-22775000D02*
X25700000Y-22775000D01*
X32247663Y-27542270D02*
X30200000Y-25494607D01*
X21949770Y-24503424D02*
X23678194Y-22775000D01*
X23099770Y-30059770D02*
X23099770Y-26606116D01*
X26900000Y-23975000D02*
X25700000Y-22775000D01*
X32767270Y-27542270D02*
X32247663Y-27542270D01*
X23099770Y-26606116D02*
X21949770Y-25456116D01*
X32767270Y-28397270D02*
X33699770Y-29329770D01*
X15479770Y-30059770D02*
X13229770Y-27809770D01*
X13229770Y-27809770D02*
X13229770Y-19249770D01*
X13229770Y-19249770D02*
X16199770Y-16279770D01*
G04 #@! TA.AperFunction,Conductor*
G36*
X23367802Y-16045398D02*
G01*
X23424638Y-16087945D01*
X23449449Y-16154465D01*
X23449770Y-16163454D01*
X23449770Y-22455552D01*
X23429768Y-22523673D01*
X23412865Y-22544647D01*
X21737871Y-24219641D01*
X21722917Y-24231719D01*
X21719365Y-24234951D01*
X21710618Y-24240599D01*
X21704172Y-24248776D01*
X21691768Y-24264510D01*
X21688271Y-24268445D01*
X21688375Y-24268533D01*
X21685020Y-24272492D01*
X21681342Y-24276170D01*
X21678323Y-24280395D01*
X21678316Y-24280403D01*
X21671098Y-24290504D01*
X21667534Y-24295251D01*
X21638378Y-24332235D01*
X21635577Y-24340211D01*
X21630659Y-24347093D01*
X21617151Y-24392260D01*
X21615329Y-24397866D01*
X21602342Y-24434847D01*
X21602341Y-24434853D01*
X21599715Y-24442330D01*
X21599270Y-24447468D01*
X21599270Y-24450187D01*
X21599175Y-24452369D01*
X21599015Y-24452904D01*
X21598988Y-24452903D01*
X21598981Y-24453021D01*
X21597226Y-24458888D01*
X21597635Y-24469296D01*
X21599173Y-24508443D01*
X21599270Y-24513390D01*
X21599270Y-25405292D01*
X21597237Y-25424391D01*
X21597010Y-25429199D01*
X21594819Y-25439377D01*
X21596043Y-25449716D01*
X21598397Y-25469607D01*
X21598707Y-25474862D01*
X21598842Y-25474851D01*
X21599270Y-25480030D01*
X21599270Y-25485231D01*
X21600124Y-25490359D01*
X21600124Y-25490365D01*
X21602159Y-25502589D01*
X21602996Y-25508465D01*
X21608534Y-25555254D01*
X21612193Y-25562874D01*
X21613582Y-25571219D01*
X21618527Y-25580383D01*
X21635962Y-25612696D01*
X21638654Y-25617981D01*
X21659044Y-25660442D01*
X21662362Y-25664390D01*
X21664295Y-25666323D01*
X21665760Y-25667920D01*
X21666024Y-25668410D01*
X21666004Y-25668429D01*
X21666083Y-25668518D01*
X21668992Y-25673910D01*
X21676640Y-25680980D01*
X21676641Y-25680981D01*
X21705406Y-25707571D01*
X21708972Y-25711000D01*
X22712365Y-26714393D01*
X22746391Y-26776705D01*
X22749270Y-26803488D01*
X22749270Y-29037677D01*
X22729268Y-29105798D01*
X22681645Y-29149339D01*
X22554742Y-29215682D01*
X22554738Y-29215685D01*
X22549282Y-29218537D01*
X22544482Y-29222397D01*
X22544481Y-29222397D01*
X22537944Y-29227653D01*
X22396370Y-29341481D01*
X22270250Y-29491786D01*
X22267286Y-29497178D01*
X22267283Y-29497182D01*
X22266954Y-29497781D01*
X22175726Y-29663724D01*
X22116398Y-29850748D01*
X22094527Y-30045733D01*
X22110945Y-30241253D01*
X22165028Y-30429861D01*
X22167846Y-30435344D01*
X22251893Y-30598883D01*
X22251896Y-30598887D01*
X22254714Y-30604371D01*
X22376588Y-30758139D01*
X22526008Y-30885305D01*
X22531386Y-30888311D01*
X22531388Y-30888312D01*
X22684740Y-30974017D01*
X22734446Y-31024710D01*
X22749270Y-31084005D01*
X22749270Y-31682398D01*
X22729268Y-31750519D01*
X22712365Y-31771493D01*
X18422683Y-36061175D01*
X18360371Y-36095201D01*
X18289556Y-36090136D01*
X18257234Y-36072310D01*
X18116659Y-35965221D01*
X18116649Y-35965214D01*
X18113942Y-35963152D01*
X18111030Y-35961395D01*
X18111025Y-35961392D01*
X17801475Y-35774659D01*
X17801466Y-35774654D01*
X17798553Y-35772897D01*
X17795463Y-35771463D01*
X17795458Y-35771460D01*
X17631507Y-35695357D01*
X17464461Y-35617817D01*
X17461236Y-35616725D01*
X17461230Y-35616723D01*
X17118802Y-35500818D01*
X17118797Y-35500817D01*
X17115575Y-35499726D01*
X16881690Y-35447874D01*
X16759306Y-35420742D01*
X16759302Y-35420741D01*
X16755976Y-35420004D01*
X16606394Y-35403490D01*
X16393252Y-35379959D01*
X16393245Y-35379959D01*
X16389870Y-35379586D01*
X16386471Y-35379580D01*
X16386470Y-35379580D01*
X16212749Y-35379277D01*
X16021540Y-35378943D01*
X15884326Y-35393607D01*
X15658680Y-35417721D01*
X15658674Y-35417722D01*
X15655296Y-35418083D01*
X15295420Y-35496549D01*
X14946124Y-35613422D01*
X14943031Y-35614845D01*
X14943030Y-35614845D01*
X14933444Y-35619254D01*
X14611493Y-35767335D01*
X14608559Y-35769091D01*
X14608557Y-35769092D01*
X14514533Y-35825364D01*
X14295442Y-35956488D01*
X14001668Y-36178667D01*
X13733607Y-36431275D01*
X13494396Y-36711355D01*
X13492468Y-36714182D01*
X13492466Y-36714184D01*
X13486019Y-36723635D01*
X13286832Y-37015632D01*
X13113344Y-37340546D01*
X13112069Y-37343718D01*
X13112067Y-37343722D01*
X13109010Y-37351328D01*
X12975962Y-37682296D01*
X12876291Y-38036885D01*
X12875729Y-38040242D01*
X12875729Y-38040243D01*
X12873785Y-38051863D01*
X12815499Y-38400163D01*
X12794297Y-38767883D01*
X12812932Y-39135741D01*
X12813469Y-39139096D01*
X12813470Y-39139102D01*
X12853808Y-39390940D01*
X12871186Y-39499435D01*
X12968378Y-39854711D01*
X13103372Y-40197412D01*
X13274587Y-40523529D01*
X13276488Y-40526358D01*
X13276494Y-40526368D01*
X13461477Y-40801649D01*
X13480022Y-40829247D01*
X13717272Y-41110991D01*
X13819776Y-41208946D01*
X13981099Y-41363111D01*
X13981106Y-41363117D01*
X13983562Y-41365464D01*
X14275778Y-41589689D01*
X14590501Y-41781044D01*
X14924049Y-41937289D01*
X14927267Y-41938391D01*
X14927270Y-41938392D01*
X15269298Y-42055495D01*
X15269306Y-42055497D01*
X15272521Y-42056598D01*
X15631840Y-42137574D01*
X15714772Y-42147023D01*
X15994420Y-42178885D01*
X15994428Y-42178885D01*
X15997803Y-42179270D01*
X16001207Y-42179288D01*
X16001210Y-42179288D01*
X16200844Y-42180333D01*
X16366128Y-42181198D01*
X16369514Y-42180848D01*
X16369516Y-42180848D01*
X16729115Y-42143688D01*
X16729124Y-42143687D01*
X16732507Y-42143337D01*
X16735840Y-42142623D01*
X16735843Y-42142622D01*
X16913258Y-42104587D01*
X17092654Y-42066128D01*
X17442356Y-41950475D01*
X17777522Y-41797731D01*
X17874735Y-41740010D01*
X18091286Y-41611432D01*
X18091291Y-41611429D01*
X18094231Y-41609683D01*
X18120861Y-41589689D01*
X18386046Y-41390582D01*
X18388779Y-41388530D01*
X18657720Y-41136859D01*
X18897908Y-40857616D01*
X18915608Y-40831863D01*
X19104601Y-40556874D01*
X19106532Y-40554065D01*
X19108144Y-40551071D01*
X19108149Y-40551063D01*
X19279531Y-40232771D01*
X19281153Y-40229759D01*
X19419728Y-39888490D01*
X19520635Y-39534252D01*
X19582695Y-39171188D01*
X19584658Y-39139102D01*
X19605071Y-38805342D01*
X19605181Y-38803545D01*
X19605264Y-38779770D01*
X19585345Y-38411979D01*
X19525822Y-38048490D01*
X19427390Y-37693556D01*
X19424213Y-37685571D01*
X19292460Y-37354492D01*
X19291201Y-37351328D01*
X19261128Y-37294530D01*
X19120447Y-37028830D01*
X19120443Y-37028823D01*
X19118848Y-37025811D01*
X18912348Y-36720811D01*
X18910486Y-36718616D01*
X18885267Y-36652359D01*
X18899893Y-36582886D01*
X18921788Y-36553434D01*
X23234675Y-32240547D01*
X23296987Y-32206521D01*
X23367802Y-32211586D01*
X23424638Y-32254133D01*
X23449449Y-32320653D01*
X23449770Y-32329642D01*
X23449770Y-52653180D01*
X23429768Y-52721301D01*
X23376112Y-52767794D01*
X23323770Y-52779180D01*
X15037080Y-52779180D01*
X15019758Y-52777214D01*
X15014189Y-52777204D01*
X15000359Y-52774024D01*
X14986519Y-52777156D01*
X14972330Y-52777131D01*
X14972331Y-52776519D01*
X14964392Y-52777180D01*
X14797257Y-52767794D01*
X14693617Y-52761974D01*
X14679585Y-52760393D01*
X14526035Y-52734304D01*
X14384024Y-52710175D01*
X14370248Y-52707030D01*
X14082190Y-52624041D01*
X14068854Y-52619375D01*
X13955666Y-52572491D01*
X13791879Y-52504648D01*
X13779156Y-52498521D01*
X13516771Y-52353505D01*
X13504818Y-52345995D01*
X13260306Y-52172503D01*
X13249275Y-52163706D01*
X13205034Y-52124169D01*
X13062617Y-51996897D01*
X13025734Y-51963936D01*
X13015743Y-51953944D01*
X12818138Y-51732822D01*
X13959760Y-51732822D01*
X13967217Y-51743189D01*
X14014705Y-51781644D01*
X14020042Y-51785521D01*
X14340455Y-51993600D01*
X14346164Y-51996897D01*
X14686581Y-52170348D01*
X14692606Y-52173030D01*
X15049272Y-52309941D01*
X15055554Y-52311982D01*
X15424586Y-52410864D01*
X15431036Y-52412235D01*
X15808399Y-52472004D01*
X15814937Y-52472690D01*
X16196469Y-52492686D01*
X16203071Y-52492686D01*
X16584603Y-52472690D01*
X16591141Y-52472004D01*
X16968504Y-52412235D01*
X16974954Y-52410864D01*
X17343986Y-52311982D01*
X17350268Y-52309941D01*
X17706934Y-52173030D01*
X17712959Y-52170348D01*
X18053376Y-51996897D01*
X18059085Y-51993600D01*
X18379498Y-51785521D01*
X18384835Y-51781644D01*
X18431373Y-51743958D01*
X18439839Y-51731703D01*
X18433505Y-51720612D01*
X16212582Y-49499689D01*
X16198638Y-49492075D01*
X16196805Y-49492206D01*
X16190190Y-49496457D01*
X13966901Y-51719746D01*
X13959760Y-51732822D01*
X12818138Y-51732822D01*
X12815989Y-51730417D01*
X12807179Y-51719370D01*
X12633699Y-51474871D01*
X12626186Y-51462915D01*
X12481171Y-51200527D01*
X12475043Y-51187801D01*
X12360323Y-50910839D01*
X12355656Y-50897502D01*
X12322853Y-50783639D01*
X12272661Y-50609418D01*
X12269519Y-50595649D01*
X12219306Y-50300102D01*
X12217724Y-50286061D01*
X12202547Y-50015786D01*
X12203208Y-50008061D01*
X12202451Y-50008060D01*
X12202476Y-49993868D01*
X12205656Y-49980040D01*
X12202525Y-49966200D01*
X12202533Y-49961374D01*
X12200500Y-49943177D01*
X12200500Y-48783071D01*
X12486854Y-48783071D01*
X12506850Y-49164603D01*
X12507536Y-49171141D01*
X12567305Y-49548504D01*
X12568676Y-49554954D01*
X12667558Y-49923986D01*
X12669599Y-49930268D01*
X12806510Y-50286934D01*
X12809192Y-50292959D01*
X12982642Y-50633373D01*
X12985939Y-50639083D01*
X13194023Y-50959505D01*
X13197893Y-50964831D01*
X13235582Y-51011373D01*
X13247837Y-51019839D01*
X13258928Y-51013505D01*
X15479851Y-48792582D01*
X15486229Y-48780902D01*
X16912075Y-48780902D01*
X16912206Y-48782735D01*
X16916457Y-48789350D01*
X19139746Y-51012639D01*
X19152822Y-51019780D01*
X19163189Y-51012323D01*
X19201647Y-50964831D01*
X19205517Y-50959505D01*
X19413601Y-50639083D01*
X19416898Y-50633373D01*
X19590348Y-50292959D01*
X19593030Y-50286934D01*
X19729941Y-49930268D01*
X19731982Y-49923986D01*
X19830864Y-49554954D01*
X19832235Y-49548504D01*
X19892004Y-49171141D01*
X19892690Y-49164603D01*
X19912686Y-48783071D01*
X19912686Y-48776469D01*
X19892690Y-48394937D01*
X19892004Y-48388399D01*
X19832235Y-48011036D01*
X19830864Y-48004586D01*
X19731982Y-47635554D01*
X19729941Y-47629272D01*
X19593030Y-47272606D01*
X19590348Y-47266581D01*
X19416898Y-46926167D01*
X19413601Y-46920457D01*
X19205517Y-46600035D01*
X19201647Y-46594709D01*
X19163958Y-46548167D01*
X19151703Y-46539701D01*
X19140612Y-46546035D01*
X16919689Y-48766958D01*
X16912075Y-48780902D01*
X15486229Y-48780902D01*
X15487465Y-48778638D01*
X15487334Y-48776805D01*
X15483083Y-48770190D01*
X13259794Y-46546901D01*
X13246718Y-46539760D01*
X13236351Y-46547217D01*
X13197893Y-46594709D01*
X13194023Y-46600035D01*
X12985939Y-46920457D01*
X12982642Y-46926167D01*
X12809192Y-47266581D01*
X12806510Y-47272606D01*
X12669599Y-47629272D01*
X12667558Y-47635554D01*
X12568676Y-48004586D01*
X12567305Y-48011036D01*
X12507536Y-48388399D01*
X12506850Y-48394937D01*
X12486854Y-48776469D01*
X12486854Y-48783071D01*
X12200500Y-48783071D01*
X12200500Y-45827837D01*
X13959701Y-45827837D01*
X13966035Y-45838928D01*
X16186958Y-48059851D01*
X16200902Y-48067465D01*
X16202735Y-48067334D01*
X16209350Y-48063083D01*
X18432639Y-45839794D01*
X18439780Y-45826718D01*
X18432323Y-45816351D01*
X18384835Y-45777896D01*
X18379498Y-45774019D01*
X18059085Y-45565940D01*
X18053376Y-45562643D01*
X17712959Y-45389192D01*
X17706934Y-45386510D01*
X17350268Y-45249599D01*
X17343986Y-45247558D01*
X16974954Y-45148676D01*
X16968504Y-45147305D01*
X16591141Y-45087536D01*
X16584603Y-45086850D01*
X16203071Y-45066854D01*
X16196469Y-45066854D01*
X15814937Y-45086850D01*
X15808399Y-45087536D01*
X15431036Y-45147305D01*
X15424586Y-45148676D01*
X15055554Y-45247558D01*
X15049272Y-45249599D01*
X14692606Y-45386510D01*
X14686581Y-45389192D01*
X14346167Y-45562642D01*
X14340457Y-45565939D01*
X14020035Y-45774023D01*
X14014709Y-45777893D01*
X13968167Y-45815582D01*
X13959701Y-45827837D01*
X12200500Y-45827837D01*
X12200500Y-29136007D01*
X12220502Y-29067886D01*
X12274158Y-29021393D01*
X12344432Y-29011289D01*
X12409012Y-29040783D01*
X12415595Y-29046912D01*
X13338590Y-29969907D01*
X13372616Y-30032219D01*
X13375286Y-30051746D01*
X13390964Y-30323648D01*
X13391789Y-30327853D01*
X13391790Y-30327861D01*
X13410640Y-30423939D01*
X13446102Y-30604690D01*
X13447489Y-30608740D01*
X13447490Y-30608745D01*
X13500007Y-30762134D01*
X13538872Y-30875648D01*
X13555449Y-30908607D01*
X13643665Y-31084005D01*
X13667557Y-31131510D01*
X13669983Y-31135039D01*
X13669986Y-31135045D01*
X13708690Y-31191359D01*
X13829776Y-31367540D01*
X14022526Y-31579370D01*
X14242242Y-31763081D01*
X14484858Y-31915273D01*
X14488760Y-31917035D01*
X14488764Y-31917037D01*
X14741972Y-32031365D01*
X14741976Y-32031367D01*
X14745884Y-32033131D01*
X14750003Y-32034351D01*
X15016376Y-32113255D01*
X15016381Y-32113256D01*
X15020489Y-32114473D01*
X15024723Y-32115121D01*
X15024728Y-32115122D01*
X15271984Y-32152957D01*
X15303594Y-32157794D01*
X15449359Y-32160084D01*
X15585668Y-32162226D01*
X15585674Y-32162226D01*
X15589959Y-32162293D01*
X15594211Y-32161778D01*
X15594219Y-32161778D01*
X15813991Y-32135181D01*
X15874284Y-32127885D01*
X15878432Y-32126797D01*
X15878436Y-32126796D01*
X16147158Y-32056298D01*
X16151309Y-32055209D01*
X16155270Y-32053569D01*
X16155274Y-32053567D01*
X16313284Y-31988117D01*
X16415908Y-31945609D01*
X16424029Y-31940864D01*
X16659487Y-31803273D01*
X16659488Y-31803273D01*
X16663185Y-31801112D01*
X16700960Y-31771493D01*
X16885191Y-31627037D01*
X16888563Y-31624393D01*
X16935261Y-31576205D01*
X17084889Y-31421800D01*
X17087872Y-31418722D01*
X17090405Y-31415274D01*
X17090409Y-31415269D01*
X17254887Y-31191359D01*
X17257425Y-31187904D01*
X17286125Y-31135045D01*
X17392033Y-30939987D01*
X17392034Y-30939985D01*
X17394083Y-30936211D01*
X17495318Y-30668300D01*
X17512138Y-30594858D01*
X17558300Y-30393308D01*
X17558301Y-30393303D01*
X17559257Y-30389128D01*
X17584716Y-30103862D01*
X17585178Y-30059770D01*
X17584221Y-30045733D01*
X17565990Y-29778310D01*
X17565989Y-29778304D01*
X17565698Y-29774033D01*
X17507620Y-29493584D01*
X17412018Y-29223612D01*
X17331642Y-29067886D01*
X17282626Y-28972919D01*
X17282626Y-28972918D01*
X17280661Y-28969112D01*
X17229228Y-28895930D01*
X17118443Y-28738299D01*
X17118438Y-28738293D01*
X17115979Y-28734794D01*
X16921021Y-28524994D01*
X16917705Y-28522280D01*
X16917702Y-28522277D01*
X16702711Y-28346309D01*
X16699393Y-28343593D01*
X16455197Y-28193950D01*
X16451261Y-28192222D01*
X16196880Y-28080556D01*
X16196876Y-28080555D01*
X16192952Y-28078832D01*
X15917509Y-28000370D01*
X15707651Y-27970503D01*
X15638218Y-27960621D01*
X15638216Y-27960621D01*
X15633966Y-27960016D01*
X15507482Y-27959354D01*
X15482071Y-27959221D01*
X15414055Y-27938863D01*
X15393635Y-27922318D01*
X14717175Y-27245858D01*
X14683149Y-27183546D01*
X14680270Y-27156763D01*
X14680270Y-24666270D01*
X14700272Y-24598149D01*
X14753928Y-24551656D01*
X14806270Y-24540270D01*
X16336554Y-24540270D01*
X16339271Y-24540032D01*
X16339278Y-24540032D01*
X16407468Y-24534066D01*
X16506462Y-24525405D01*
X16511775Y-24523981D01*
X16511777Y-24523981D01*
X16720956Y-24467932D01*
X16720958Y-24467931D01*
X16726266Y-24466509D01*
X16731248Y-24464186D01*
X16927523Y-24372661D01*
X16927526Y-24372659D01*
X16932504Y-24370338D01*
X17118909Y-24239817D01*
X17279817Y-24078909D01*
X17410338Y-23892504D01*
X17506509Y-23686266D01*
X17565405Y-23466462D01*
X17580270Y-23296554D01*
X17580270Y-22442776D01*
X17600272Y-22374655D01*
X17617175Y-22353681D01*
X17633681Y-22337175D01*
X17695993Y-22303149D01*
X17722776Y-22300270D01*
X18013697Y-22300270D01*
X18031449Y-22301527D01*
X18032552Y-22301684D01*
X18039545Y-22302679D01*
X18044708Y-22302562D01*
X18044710Y-22302562D01*
X18144297Y-22300302D01*
X18147155Y-22300270D01*
X18186327Y-22300270D01*
X18198082Y-22299304D01*
X18205535Y-22298913D01*
X18255781Y-22297772D01*
X18278002Y-22297268D01*
X18283076Y-22296309D01*
X18283079Y-22296309D01*
X18294848Y-22294085D01*
X18314008Y-22290465D01*
X18327067Y-22288699D01*
X18338592Y-22287752D01*
X18358426Y-22286121D01*
X18358429Y-22286121D01*
X18363580Y-22285697D01*
X18368589Y-22284439D01*
X18368594Y-22284438D01*
X18433864Y-22268043D01*
X18441165Y-22266438D01*
X18512374Y-22252983D01*
X18546778Y-22240393D01*
X18559384Y-22236515D01*
X18567610Y-22234449D01*
X18594912Y-22227591D01*
X18661366Y-22198696D01*
X18668307Y-22195919D01*
X18731508Y-22172791D01*
X18736364Y-22171014D01*
X18740862Y-22168469D01*
X18740871Y-22168465D01*
X18768246Y-22152977D01*
X18780047Y-22147093D01*
X18808905Y-22134545D01*
X18808912Y-22134541D01*
X18813648Y-22132482D01*
X18874497Y-22093117D01*
X18880892Y-22089244D01*
X18939453Y-22056112D01*
X18939454Y-22056112D01*
X18943960Y-22053562D01*
X18972466Y-22030561D01*
X18983139Y-22022834D01*
X19013913Y-22002925D01*
X19067530Y-21954137D01*
X19073184Y-21949292D01*
X19093739Y-21932707D01*
X19093748Y-21932699D01*
X19096358Y-21930593D01*
X19124089Y-21902862D01*
X19128384Y-21898764D01*
X19186506Y-21845877D01*
X19186507Y-21845875D01*
X19190328Y-21842399D01*
X19193528Y-21838348D01*
X19193531Y-21838344D01*
X19207457Y-21820710D01*
X19217244Y-21809707D01*
X21796111Y-19230839D01*
X21809552Y-19219175D01*
X21811958Y-19217369D01*
X21811964Y-19217364D01*
X21816095Y-19214262D01*
X21888496Y-19138499D01*
X21890495Y-19136455D01*
X21918182Y-19108768D01*
X21925820Y-19099761D01*
X21930801Y-19094230D01*
X21980883Y-19041822D01*
X22001528Y-19011557D01*
X22009522Y-19001063D01*
X22029869Y-18977071D01*
X22033214Y-18973127D01*
X22048624Y-18947380D01*
X22070427Y-18910951D01*
X22074453Y-18904655D01*
X22112385Y-18849048D01*
X22115295Y-18844782D01*
X22130718Y-18811556D01*
X22136891Y-18799897D01*
X22153046Y-18772904D01*
X22155704Y-18768463D01*
X22182277Y-18701004D01*
X22185204Y-18694175D01*
X22213542Y-18633127D01*
X22213544Y-18633122D01*
X22215719Y-18628436D01*
X22217099Y-18623460D01*
X22217103Y-18623449D01*
X22225510Y-18593131D01*
X22229692Y-18580633D01*
X22243121Y-18546541D01*
X22258312Y-18475680D01*
X22260096Y-18468418D01*
X22278080Y-18403573D01*
X22278081Y-18403568D01*
X22279461Y-18398592D01*
X22283354Y-18362168D01*
X22285439Y-18349148D01*
X22292035Y-18318380D01*
X22292035Y-18318376D01*
X22293119Y-18313322D01*
X22296533Y-18240930D01*
X22297106Y-18233488D01*
X22299913Y-18207227D01*
X22299914Y-18207210D01*
X22300270Y-18203878D01*
X22300270Y-18164656D01*
X22300410Y-18158720D01*
X22304111Y-18080235D01*
X22304355Y-18075069D01*
X22301131Y-18047625D01*
X22300270Y-18032924D01*
X22300270Y-17060954D01*
X22320272Y-16992833D01*
X22337175Y-16971859D01*
X23234675Y-16074359D01*
X23296987Y-16040333D01*
X23367802Y-16045398D01*
G37*
G04 #@! TD.AperFunction*
G04 #@! TA.AperFunction,Conductor*
G36*
X23391891Y-12220502D02*
G01*
X23438384Y-12274158D01*
X23449770Y-12326500D01*
X23449770Y-12401748D01*
X23429768Y-12469869D01*
X23376112Y-12516362D01*
X23326629Y-12527716D01*
X23287268Y-12528609D01*
X23259556Y-12529238D01*
X23256699Y-12529270D01*
X23217484Y-12529270D01*
X23214927Y-12529480D01*
X23214906Y-12529481D01*
X23205711Y-12530237D01*
X23198254Y-12530629D01*
X23125809Y-12532273D01*
X23120737Y-12533231D01*
X23120731Y-12533232D01*
X23089815Y-12539074D01*
X23076745Y-12540841D01*
X23045382Y-12543419D01*
X23045376Y-12543420D01*
X23040231Y-12543843D01*
X22969942Y-12561498D01*
X22962642Y-12563103D01*
X22891437Y-12576557D01*
X22886577Y-12578336D01*
X22886572Y-12578337D01*
X22857036Y-12589146D01*
X22844429Y-12593025D01*
X22808899Y-12601949D01*
X22804163Y-12604008D01*
X22804158Y-12604010D01*
X22742431Y-12630850D01*
X22735491Y-12633626D01*
X22672304Y-12656749D01*
X22672298Y-12656752D01*
X22667447Y-12658527D01*
X22653660Y-12666327D01*
X22635571Y-12676561D01*
X22623770Y-12682445D01*
X22594909Y-12694994D01*
X22594904Y-12694996D01*
X22590163Y-12697058D01*
X22563596Y-12714245D01*
X22529315Y-12736422D01*
X22522920Y-12740295D01*
X22459850Y-12775978D01*
X22455826Y-12779225D01*
X22455820Y-12779229D01*
X22440105Y-12791910D01*
X22431335Y-12798987D01*
X22420668Y-12806709D01*
X22389898Y-12826615D01*
X22336295Y-12875391D01*
X22330625Y-12880250D01*
X22310071Y-12896834D01*
X22310063Y-12896841D01*
X22307452Y-12898948D01*
X22279722Y-12926678D01*
X22275427Y-12930776D01*
X22213483Y-12987141D01*
X22210283Y-12991192D01*
X22210280Y-12991196D01*
X22196358Y-13008825D01*
X22186572Y-13019828D01*
X20979005Y-14227397D01*
X20601460Y-14604942D01*
X20539147Y-14638967D01*
X20468332Y-14633903D01*
X20411496Y-14591356D01*
X20396727Y-14565888D01*
X20296235Y-14333665D01*
X20249113Y-14224773D01*
X20053449Y-13865899D01*
X19903875Y-13642468D01*
X19827656Y-13528613D01*
X19827648Y-13528602D01*
X19826064Y-13526236D01*
X19568830Y-13208579D01*
X19380208Y-13014614D01*
X19285855Y-12917589D01*
X19285851Y-12917585D01*
X19283865Y-12915543D01*
X19281707Y-12913693D01*
X19281697Y-12913684D01*
X19113665Y-12769664D01*
X18973514Y-12649540D01*
X18663475Y-12429206D01*
X18619535Y-12373441D01*
X18612719Y-12302772D01*
X18645192Y-12239637D01*
X18706643Y-12204080D01*
X18736465Y-12200500D01*
X23323770Y-12200500D01*
X23391891Y-12220502D01*
G37*
G04 #@! TD.AperFunction*
G04 #@! TA.AperFunction,Conductor*
G36*
X30300090Y-35394788D02*
G01*
X30337378Y-35455204D01*
X30341736Y-35483008D01*
X30341770Y-35483788D01*
X30341770Y-35486554D01*
X30356635Y-35656462D01*
X30415531Y-35876266D01*
X30417853Y-35881246D01*
X30417854Y-35881248D01*
X30463056Y-35978182D01*
X30511702Y-36082504D01*
X30642223Y-36268909D01*
X30803131Y-36429817D01*
X30801820Y-36431128D01*
X30836570Y-36483365D01*
X30837692Y-36554353D01*
X30800257Y-36614679D01*
X30736150Y-36645189D01*
X30716250Y-36646770D01*
X30505385Y-36646770D01*
X30490146Y-36651245D01*
X30488941Y-36652635D01*
X30487270Y-36660318D01*
X30487270Y-39886655D01*
X30491745Y-39901894D01*
X30493135Y-39903099D01*
X30500818Y-39904770D01*
X33252154Y-39904770D01*
X33267393Y-39900295D01*
X33268598Y-39898905D01*
X33270269Y-39891222D01*
X33270269Y-37110101D01*
X33269899Y-37103280D01*
X33264375Y-37052418D01*
X33260749Y-37037166D01*
X33215594Y-36916716D01*
X33207056Y-36901122D01*
X33188128Y-36875866D01*
X33163280Y-36809360D01*
X33178333Y-36739977D01*
X33228507Y-36689747D01*
X33256343Y-36678594D01*
X33333456Y-36657932D01*
X33333458Y-36657931D01*
X33338766Y-36656509D01*
X33343748Y-36654186D01*
X33343753Y-36654184D01*
X33445019Y-36606962D01*
X33515211Y-36596300D01*
X33580024Y-36625279D01*
X33618880Y-36684699D01*
X33624270Y-36721156D01*
X33624271Y-36948065D01*
X33624271Y-37170364D01*
X33635130Y-37321866D01*
X33690407Y-37565171D01*
X33783874Y-37796509D01*
X33913125Y-38009927D01*
X33916401Y-38013777D01*
X33916403Y-38013779D01*
X34047941Y-38168337D01*
X34076859Y-38233178D01*
X34066131Y-38303359D01*
X34047941Y-38331663D01*
X33913125Y-38490073D01*
X33783874Y-38703491D01*
X33690407Y-38934829D01*
X33635130Y-39178134D01*
X33624270Y-39329635D01*
X33624271Y-40095364D01*
X33635130Y-40246866D01*
X33690407Y-40490171D01*
X33692303Y-40494863D01*
X33692304Y-40494867D01*
X33725811Y-40577800D01*
X33732784Y-40648453D01*
X33725811Y-40672200D01*
X33692304Y-40755133D01*
X33690407Y-40759829D01*
X33635130Y-41003134D01*
X33624270Y-41154635D01*
X33624271Y-41920364D01*
X33635130Y-42071866D01*
X33690407Y-42315171D01*
X33783874Y-42546509D01*
X33913125Y-42759927D01*
X34074834Y-42949936D01*
X34264843Y-43111645D01*
X34478261Y-43240896D01*
X34686240Y-43324925D01*
X34686408Y-43324993D01*
X34742075Y-43369057D01*
X34765083Y-43436222D01*
X34748126Y-43505164D01*
X34711847Y-43542450D01*
X34712695Y-43543520D01*
X34695562Y-43557099D01*
X34581031Y-43671829D01*
X34572019Y-43683240D01*
X34486952Y-43821245D01*
X34480808Y-43834423D01*
X34444029Y-43945306D01*
X34443540Y-43959399D01*
X34449751Y-43962500D01*
X37143199Y-43962500D01*
X37156730Y-43958527D01*
X37157711Y-43951701D01*
X37118182Y-43833216D01*
X37112009Y-43820038D01*
X37026707Y-43682193D01*
X37017671Y-43670792D01*
X36902941Y-43556261D01*
X36885785Y-43542712D01*
X36887157Y-43540974D01*
X36846897Y-43496247D01*
X36835468Y-43426176D01*
X36863737Y-43361050D01*
X36913301Y-43324925D01*
X37116591Y-43242790D01*
X37116590Y-43242790D01*
X37121279Y-43240896D01*
X37334697Y-43111645D01*
X37491838Y-42977908D01*
X37556677Y-42948991D01*
X37626859Y-42959719D01*
X37680099Y-43006687D01*
X37699500Y-43073863D01*
X37699500Y-49942600D01*
X37697534Y-49959922D01*
X37697524Y-49965491D01*
X37694344Y-49979321D01*
X37697476Y-49993161D01*
X37697451Y-50007350D01*
X37696839Y-50007349D01*
X37697500Y-50015288D01*
X37682294Y-50286060D01*
X37680713Y-50300096D01*
X37630497Y-50595648D01*
X37627353Y-50609423D01*
X37544359Y-50897500D01*
X37539694Y-50910831D01*
X37494566Y-51019780D01*
X37424970Y-51187801D01*
X37418839Y-51200532D01*
X37273828Y-51462908D01*
X37266311Y-51474872D01*
X37092830Y-51719371D01*
X37084020Y-51730418D01*
X36884260Y-51953949D01*
X36874269Y-51963940D01*
X36650738Y-52163700D01*
X36639691Y-52172510D01*
X36395192Y-52345991D01*
X36383228Y-52353508D01*
X36368987Y-52361379D01*
X36120848Y-52498521D01*
X36108125Y-52504648D01*
X35831151Y-52619374D01*
X35817820Y-52624039D01*
X35529743Y-52707033D01*
X35515972Y-52710176D01*
X35220416Y-52760393D01*
X35206384Y-52761974D01*
X34936172Y-52777149D01*
X34928379Y-52776483D01*
X34928378Y-52777229D01*
X34914187Y-52777204D01*
X34900359Y-52774024D01*
X34886520Y-52777155D01*
X34881689Y-52777147D01*
X34863496Y-52779180D01*
X26575770Y-52779180D01*
X26507649Y-52759178D01*
X26461156Y-52705522D01*
X26449770Y-52653180D01*
X26449770Y-51732822D01*
X31459760Y-51732822D01*
X31467217Y-51743189D01*
X31514705Y-51781644D01*
X31520042Y-51785521D01*
X31840455Y-51993600D01*
X31846164Y-51996897D01*
X32186581Y-52170348D01*
X32192606Y-52173030D01*
X32549272Y-52309941D01*
X32555554Y-52311982D01*
X32924586Y-52410864D01*
X32931036Y-52412235D01*
X33308399Y-52472004D01*
X33314937Y-52472690D01*
X33696469Y-52492686D01*
X33703071Y-52492686D01*
X34084603Y-52472690D01*
X34091141Y-52472004D01*
X34468504Y-52412235D01*
X34474954Y-52410864D01*
X34843986Y-52311982D01*
X34850268Y-52309941D01*
X35206934Y-52173030D01*
X35212959Y-52170348D01*
X35553376Y-51996897D01*
X35559085Y-51993600D01*
X35879498Y-51785521D01*
X35884835Y-51781644D01*
X35931373Y-51743958D01*
X35939839Y-51731703D01*
X35933505Y-51720612D01*
X33712582Y-49499689D01*
X33698638Y-49492075D01*
X33696805Y-49492206D01*
X33690190Y-49496457D01*
X31466901Y-51719746D01*
X31459760Y-51732822D01*
X26449770Y-51732822D01*
X26449770Y-48783071D01*
X29986854Y-48783071D01*
X30006850Y-49164603D01*
X30007536Y-49171141D01*
X30067305Y-49548504D01*
X30068676Y-49554954D01*
X30167558Y-49923986D01*
X30169599Y-49930268D01*
X30306510Y-50286934D01*
X30309192Y-50292959D01*
X30482642Y-50633373D01*
X30485939Y-50639083D01*
X30694023Y-50959505D01*
X30697893Y-50964831D01*
X30735582Y-51011373D01*
X30747837Y-51019839D01*
X30758928Y-51013505D01*
X32979851Y-48792582D01*
X32986229Y-48780902D01*
X34412075Y-48780902D01*
X34412206Y-48782735D01*
X34416457Y-48789350D01*
X36639746Y-51012639D01*
X36652822Y-51019780D01*
X36663189Y-51012323D01*
X36701647Y-50964831D01*
X36705517Y-50959505D01*
X36913601Y-50639083D01*
X36916898Y-50633373D01*
X37090348Y-50292959D01*
X37093030Y-50286934D01*
X37229941Y-49930268D01*
X37231982Y-49923986D01*
X37330864Y-49554954D01*
X37332235Y-49548504D01*
X37392004Y-49171141D01*
X37392690Y-49164603D01*
X37412686Y-48783071D01*
X37412686Y-48776469D01*
X37392690Y-48394937D01*
X37392004Y-48388399D01*
X37332235Y-48011036D01*
X37330864Y-48004586D01*
X37231982Y-47635554D01*
X37229941Y-47629272D01*
X37093030Y-47272606D01*
X37090348Y-47266581D01*
X36916898Y-46926167D01*
X36913601Y-46920457D01*
X36705517Y-46600035D01*
X36701647Y-46594709D01*
X36663958Y-46548167D01*
X36651703Y-46539701D01*
X36640612Y-46546035D01*
X34419689Y-48766958D01*
X34412075Y-48780902D01*
X32986229Y-48780902D01*
X32987465Y-48778638D01*
X32987334Y-48776805D01*
X32983083Y-48770190D01*
X30759794Y-46546901D01*
X30746718Y-46539760D01*
X30736351Y-46547217D01*
X30697893Y-46594709D01*
X30694023Y-46600035D01*
X30485939Y-46920457D01*
X30482642Y-46926167D01*
X30309192Y-47266581D01*
X30306510Y-47272606D01*
X30169599Y-47629272D01*
X30167558Y-47635554D01*
X30068676Y-48004586D01*
X30067305Y-48011036D01*
X30007536Y-48388399D01*
X30006850Y-48394937D01*
X29986854Y-48776469D01*
X29986854Y-48783071D01*
X26449770Y-48783071D01*
X26449770Y-45827837D01*
X31459701Y-45827837D01*
X31466035Y-45838928D01*
X33686958Y-48059851D01*
X33700902Y-48067465D01*
X33702735Y-48067334D01*
X33709350Y-48063083D01*
X35932639Y-45839794D01*
X35939780Y-45826718D01*
X35932323Y-45816351D01*
X35884835Y-45777896D01*
X35879508Y-45774026D01*
X35865107Y-45764674D01*
X35818869Y-45710798D01*
X35809099Y-45640477D01*
X35838898Y-45576037D01*
X35898805Y-45537937D01*
X35933730Y-45533000D01*
X36471865Y-45532999D01*
X36478384Y-45532662D01*
X36573976Y-45522743D01*
X36587370Y-45519851D01*
X36741554Y-45468412D01*
X36754732Y-45462239D01*
X36892577Y-45376937D01*
X36903978Y-45367901D01*
X37018509Y-45253171D01*
X37027521Y-45241760D01*
X37112588Y-45103755D01*
X37118732Y-45090577D01*
X37155511Y-44979694D01*
X37156000Y-44965601D01*
X37149789Y-44962500D01*
X34456341Y-44962500D01*
X34442810Y-44966473D01*
X34438225Y-44998364D01*
X34438066Y-44998341D01*
X34435975Y-45037632D01*
X34394471Y-45095234D01*
X34328414Y-45121253D01*
X34297426Y-45120208D01*
X34091144Y-45087537D01*
X34084603Y-45086850D01*
X33703071Y-45066854D01*
X33696469Y-45066854D01*
X33314937Y-45086850D01*
X33308399Y-45087536D01*
X32931036Y-45147305D01*
X32924586Y-45148676D01*
X32555554Y-45247558D01*
X32549272Y-45249599D01*
X32192606Y-45386510D01*
X32186581Y-45389192D01*
X31846167Y-45562642D01*
X31840457Y-45565939D01*
X31520035Y-45774023D01*
X31514709Y-45777893D01*
X31468167Y-45815582D01*
X31459701Y-45827837D01*
X26449770Y-45827837D01*
X26449770Y-43699439D01*
X26704271Y-43699439D01*
X26704641Y-43706260D01*
X26710165Y-43757122D01*
X26713791Y-43772374D01*
X26758946Y-43892824D01*
X26767484Y-43908419D01*
X26843985Y-44010494D01*
X26856546Y-44023055D01*
X26958621Y-44099556D01*
X26974216Y-44108094D01*
X27094664Y-44153248D01*
X27109919Y-44156875D01*
X27160784Y-44162401D01*
X27167598Y-44162770D01*
X29469155Y-44162770D01*
X29484394Y-44158295D01*
X29485599Y-44156905D01*
X29487270Y-44149222D01*
X29487270Y-44144654D01*
X30487270Y-44144654D01*
X30491745Y-44159893D01*
X30493135Y-44161098D01*
X30500818Y-44162769D01*
X32806939Y-44162769D01*
X32813760Y-44162399D01*
X32864622Y-44156875D01*
X32879874Y-44153249D01*
X33000324Y-44108094D01*
X33015919Y-44099556D01*
X33117994Y-44023055D01*
X33130555Y-44010494D01*
X33207056Y-43908419D01*
X33215594Y-43892824D01*
X33260748Y-43772376D01*
X33264375Y-43757121D01*
X33269901Y-43706256D01*
X33270270Y-43699442D01*
X33270270Y-40922885D01*
X33265795Y-40907646D01*
X33264405Y-40906441D01*
X33256722Y-40904770D01*
X30505385Y-40904770D01*
X30490146Y-40909245D01*
X30488941Y-40910635D01*
X30487270Y-40918318D01*
X30487270Y-44144654D01*
X29487270Y-44144654D01*
X29487270Y-40922885D01*
X29482795Y-40907646D01*
X29481405Y-40906441D01*
X29473722Y-40904770D01*
X26722386Y-40904770D01*
X26707147Y-40909245D01*
X26705942Y-40910635D01*
X26704271Y-40918318D01*
X26704271Y-43699439D01*
X26449770Y-43699439D01*
X26449770Y-36906270D01*
X26469772Y-36838149D01*
X26523428Y-36791656D01*
X26575770Y-36780270D01*
X26583943Y-36780270D01*
X26585747Y-36780164D01*
X26585761Y-36780164D01*
X26606661Y-36778940D01*
X26621848Y-36778051D01*
X26691021Y-36794038D01*
X26740570Y-36844885D01*
X26754763Y-36914448D01*
X26747193Y-36948065D01*
X26713792Y-37037161D01*
X26710165Y-37052419D01*
X26704639Y-37103284D01*
X26704270Y-37110098D01*
X26704270Y-39886655D01*
X26708745Y-39901894D01*
X26710135Y-39903099D01*
X26717818Y-39904770D01*
X29469155Y-39904770D01*
X29484394Y-39900295D01*
X29485599Y-39898905D01*
X29487270Y-39891222D01*
X29487270Y-36664886D01*
X29482795Y-36649647D01*
X29481405Y-36648442D01*
X29473722Y-36646771D01*
X29258289Y-36646771D01*
X29190168Y-36626769D01*
X29143675Y-36573113D01*
X29133571Y-36502839D01*
X29163065Y-36438259D01*
X29171524Y-36429932D01*
X29171409Y-36429817D01*
X29332317Y-36268909D01*
X29462838Y-36082504D01*
X29511485Y-35978182D01*
X29556686Y-35881248D01*
X29556687Y-35881246D01*
X29559009Y-35876266D01*
X29617905Y-35656462D01*
X29618385Y-35650976D01*
X29618386Y-35650970D01*
X29625525Y-35569380D01*
X29651388Y-35503262D01*
X29708892Y-35461622D01*
X29740732Y-35454786D01*
X29746605Y-35454303D01*
X29754047Y-35453913D01*
X29804293Y-35452772D01*
X29826514Y-35452268D01*
X29831588Y-35451309D01*
X29831591Y-35451309D01*
X29843360Y-35449085D01*
X29862520Y-35445465D01*
X29875579Y-35443699D01*
X29887104Y-35442752D01*
X29906938Y-35441121D01*
X29906941Y-35441121D01*
X29912092Y-35440697D01*
X29917101Y-35439439D01*
X29917106Y-35439438D01*
X29982376Y-35423043D01*
X29989677Y-35421438D01*
X30060886Y-35407983D01*
X30095290Y-35395393D01*
X30107896Y-35391515D01*
X30116122Y-35389449D01*
X30143424Y-35382591D01*
X30165613Y-35372943D01*
X30236057Y-35364122D01*
X30300090Y-35394788D01*
G37*
G04 #@! TD.AperFunction*
G04 #@! TA.AperFunction,Conductor*
G36*
X29182779Y-15450272D02*
G01*
X29229272Y-15503928D01*
X29240013Y-15569002D01*
X29201488Y-15948277D01*
X29197208Y-16357003D01*
X29229989Y-16764435D01*
X29299562Y-17167219D01*
X29405353Y-17562039D01*
X29546493Y-17945647D01*
X29547718Y-17948227D01*
X29547721Y-17948234D01*
X29716383Y-18303434D01*
X29721820Y-18314884D01*
X29812776Y-18468682D01*
X29926863Y-18661591D01*
X29929890Y-18666710D01*
X30168990Y-18998231D01*
X30170865Y-19000387D01*
X30170865Y-19000388D01*
X30301778Y-19150986D01*
X30437153Y-19306718D01*
X30439218Y-19308698D01*
X30730116Y-19587659D01*
X30730123Y-19587666D01*
X30732172Y-19589630D01*
X30734390Y-19591400D01*
X30734395Y-19591405D01*
X30869673Y-19699396D01*
X31051617Y-19844640D01*
X31392860Y-20069648D01*
X31753091Y-20262802D01*
X32129346Y-20422513D01*
X32132055Y-20423383D01*
X32132061Y-20423385D01*
X32515807Y-20546593D01*
X32515813Y-20546595D01*
X32518527Y-20547466D01*
X32521300Y-20548086D01*
X32521308Y-20548088D01*
X32863675Y-20624615D01*
X32917432Y-20636631D01*
X33322776Y-20689276D01*
X33731223Y-20704967D01*
X33734085Y-20704817D01*
X33734086Y-20704817D01*
X34136555Y-20683725D01*
X34136562Y-20683724D01*
X34139411Y-20683575D01*
X34142234Y-20683168D01*
X34142236Y-20683168D01*
X34541158Y-20625683D01*
X34541165Y-20625682D01*
X34543980Y-20625276D01*
X34941601Y-20530549D01*
X34944299Y-20529641D01*
X34944306Y-20529639D01*
X35326288Y-20401088D01*
X35326294Y-20401086D01*
X35329000Y-20400175D01*
X35702988Y-20235226D01*
X36060487Y-20037061D01*
X36062849Y-20035456D01*
X36062860Y-20035449D01*
X36396170Y-19808932D01*
X36396172Y-19808930D01*
X36398555Y-19807311D01*
X36714409Y-19547866D01*
X36716446Y-19545857D01*
X36716454Y-19545850D01*
X36958947Y-19306718D01*
X37005448Y-19260862D01*
X37098300Y-19150986D01*
X37267432Y-18950846D01*
X37267437Y-18950840D01*
X37269278Y-18948661D01*
X37470287Y-18661591D01*
X37525744Y-18617263D01*
X37596364Y-18609954D01*
X37659724Y-18641985D01*
X37695709Y-18703186D01*
X37699500Y-18733862D01*
X37699500Y-22922758D01*
X37679498Y-22990879D01*
X37625842Y-23037372D01*
X37555568Y-23047476D01*
X37490988Y-23017982D01*
X37477546Y-23004421D01*
X37427980Y-22946181D01*
X37424706Y-22942334D01*
X37280398Y-22819519D01*
X37238549Y-22783903D01*
X37238547Y-22783901D01*
X37234697Y-22780625D01*
X37188129Y-22752422D01*
X37025602Y-22653992D01*
X37025601Y-22653991D01*
X37021279Y-22651374D01*
X36921920Y-22611230D01*
X36794632Y-22559802D01*
X36794629Y-22559801D01*
X36789941Y-22557907D01*
X36785011Y-22556787D01*
X36785008Y-22556786D01*
X36679145Y-22532735D01*
X36546636Y-22502630D01*
X36541869Y-22502288D01*
X36541867Y-22502288D01*
X36397385Y-22491931D01*
X36397377Y-22491931D01*
X36395135Y-22491770D01*
X36392872Y-22491770D01*
X35699771Y-22491771D01*
X35004406Y-22491771D01*
X35002164Y-22491932D01*
X35002155Y-22491932D01*
X34857672Y-22502288D01*
X34857669Y-22502288D01*
X34852904Y-22502630D01*
X34848246Y-22503688D01*
X34848241Y-22503689D01*
X34614532Y-22556786D01*
X34614529Y-22556787D01*
X34609599Y-22557907D01*
X34604911Y-22559801D01*
X34604908Y-22559802D01*
X34477620Y-22611230D01*
X34378261Y-22651374D01*
X34373939Y-22653991D01*
X34373938Y-22653992D01*
X34211412Y-22752422D01*
X34164843Y-22780625D01*
X34160993Y-22783901D01*
X34160991Y-22783903D01*
X34119142Y-22819519D01*
X33974834Y-22942334D01*
X33971560Y-22946181D01*
X33818704Y-23125788D01*
X33813125Y-23132343D01*
X33810508Y-23136665D01*
X33810506Y-23136667D01*
X33763780Y-23213821D01*
X33683874Y-23345761D01*
X33681980Y-23350450D01*
X33681977Y-23350455D01*
X33681195Y-23352391D01*
X33680686Y-23353034D01*
X33679714Y-23354975D01*
X33679310Y-23354773D01*
X33637129Y-23408057D01*
X33569963Y-23431062D01*
X33501021Y-23414102D01*
X33482884Y-23401288D01*
X33477033Y-23396326D01*
X33414844Y-23359106D01*
X33408547Y-23355078D01*
X33352963Y-23317161D01*
X33352961Y-23317160D01*
X33348688Y-23314245D01*
X33344003Y-23312070D01*
X33343999Y-23312068D01*
X33332958Y-23306943D01*
X33315459Y-23298820D01*
X33303811Y-23292653D01*
X33276807Y-23276491D01*
X33276803Y-23276489D01*
X33272370Y-23273836D01*
X33204919Y-23247267D01*
X33198069Y-23244331D01*
X33132342Y-23213821D01*
X33127359Y-23212439D01*
X33127356Y-23212438D01*
X33097043Y-23204032D01*
X33084542Y-23199849D01*
X33050448Y-23186419D01*
X32999145Y-23175421D01*
X32979575Y-23171225D01*
X32972315Y-23169441D01*
X32944534Y-23161737D01*
X32902498Y-23150079D01*
X32897357Y-23149530D01*
X32897354Y-23149529D01*
X32866075Y-23146186D01*
X32853056Y-23144101D01*
X32822287Y-23137505D01*
X32822281Y-23137504D01*
X32817228Y-23136421D01*
X32812067Y-23136178D01*
X32812062Y-23136177D01*
X32744844Y-23133008D01*
X32737389Y-23132434D01*
X32721579Y-23130744D01*
X32707784Y-23129270D01*
X32668548Y-23129270D01*
X32662613Y-23129130D01*
X32584135Y-23125429D01*
X32584131Y-23125429D01*
X32578975Y-23125186D01*
X32573851Y-23125788D01*
X32573848Y-23125788D01*
X32551530Y-23128410D01*
X32536830Y-23129270D01*
X31920950Y-23129270D01*
X31852829Y-23109268D01*
X31831855Y-23092365D01*
X31768145Y-23028655D01*
X31756481Y-23015214D01*
X31754678Y-23012812D01*
X31754673Y-23012806D01*
X31751571Y-23008675D01*
X31675830Y-22936295D01*
X31673786Y-22934296D01*
X31646078Y-22906588D01*
X31644120Y-22904928D01*
X31644113Y-22904921D01*
X31637073Y-22898951D01*
X31631519Y-22893950D01*
X31582868Y-22847458D01*
X31582867Y-22847457D01*
X31579131Y-22843887D01*
X31548856Y-22823235D01*
X31538382Y-22815256D01*
X31510436Y-22791556D01*
X31448247Y-22754336D01*
X31441950Y-22750308D01*
X31386366Y-22712391D01*
X31386364Y-22712390D01*
X31382091Y-22709475D01*
X31377406Y-22707300D01*
X31377402Y-22707298D01*
X31366361Y-22702173D01*
X31348862Y-22694050D01*
X31337214Y-22687883D01*
X31310210Y-22671721D01*
X31310206Y-22671719D01*
X31305773Y-22669066D01*
X31238322Y-22642497D01*
X31231472Y-22639561D01*
X31165745Y-22609051D01*
X31160762Y-22607669D01*
X31160759Y-22607668D01*
X31130446Y-22599262D01*
X31117945Y-22595079D01*
X31083851Y-22581649D01*
X31032548Y-22570651D01*
X31012978Y-22566455D01*
X31005718Y-22564671D01*
X30977285Y-22556786D01*
X30935901Y-22545309D01*
X30930760Y-22544760D01*
X30930757Y-22544759D01*
X30899478Y-22541416D01*
X30886459Y-22539331D01*
X30855690Y-22532735D01*
X30855684Y-22532734D01*
X30850631Y-22531651D01*
X30845470Y-22531408D01*
X30845465Y-22531407D01*
X30778247Y-22528238D01*
X30770792Y-22527664D01*
X30754982Y-22525974D01*
X30741187Y-22524500D01*
X30737588Y-22524500D01*
X30737533Y-22524484D01*
X30734478Y-22524321D01*
X30734517Y-22523598D01*
X30669467Y-22504498D01*
X30650537Y-22489594D01*
X30594763Y-22436295D01*
X30592719Y-22434296D01*
X30565011Y-22406588D01*
X30563053Y-22404928D01*
X30563046Y-22404921D01*
X30556006Y-22398951D01*
X30550452Y-22393950D01*
X30501801Y-22347458D01*
X30501800Y-22347457D01*
X30498064Y-22343887D01*
X30467789Y-22323235D01*
X30457315Y-22315256D01*
X30429369Y-22291556D01*
X30367180Y-22254336D01*
X30360883Y-22250308D01*
X30305299Y-22212391D01*
X30305297Y-22212390D01*
X30301024Y-22209475D01*
X30296339Y-22207300D01*
X30296335Y-22207298D01*
X30285294Y-22202173D01*
X30267795Y-22194050D01*
X30256147Y-22187883D01*
X30229143Y-22171721D01*
X30229139Y-22171719D01*
X30224706Y-22169066D01*
X30157255Y-22142497D01*
X30150405Y-22139561D01*
X30084678Y-22109051D01*
X30079695Y-22107669D01*
X30079692Y-22107668D01*
X30049379Y-22099262D01*
X30036878Y-22095079D01*
X30002784Y-22081649D01*
X29951481Y-22070651D01*
X29931911Y-22066455D01*
X29924651Y-22064671D01*
X29896870Y-22056967D01*
X29854834Y-22045309D01*
X29849693Y-22044760D01*
X29849690Y-22044759D01*
X29818411Y-22041416D01*
X29805392Y-22039331D01*
X29774623Y-22032735D01*
X29774617Y-22032734D01*
X29769564Y-22031651D01*
X29764403Y-22031408D01*
X29764398Y-22031407D01*
X29697180Y-22028238D01*
X29689725Y-22027664D01*
X29673915Y-22025974D01*
X29660120Y-22024500D01*
X29620884Y-22024500D01*
X29614949Y-22024360D01*
X29531311Y-22020416D01*
X29528296Y-22020770D01*
X29460120Y-22003306D01*
X29435412Y-21984095D01*
X28030174Y-20578857D01*
X27996148Y-20516545D01*
X27993539Y-20481522D01*
X28005166Y-20304121D01*
X28005166Y-20304119D01*
X28005436Y-20300000D01*
X27990427Y-20070998D01*
X27985983Y-20003192D01*
X27985982Y-20003185D01*
X27985713Y-19999080D01*
X27955304Y-19846201D01*
X27927686Y-19707359D01*
X27927684Y-19707353D01*
X27926880Y-19703309D01*
X27829945Y-19417748D01*
X27753571Y-19262876D01*
X27698393Y-19150986D01*
X27698390Y-19150981D01*
X27696566Y-19147282D01*
X27598415Y-19000388D01*
X27531318Y-18899970D01*
X27531314Y-18899965D01*
X27529025Y-18896539D01*
X27526311Y-18893445D01*
X27526307Y-18893439D01*
X27332898Y-18672900D01*
X27330189Y-18669811D01*
X27266360Y-18613834D01*
X27106561Y-18473693D01*
X27106555Y-18473689D01*
X27103461Y-18470975D01*
X27100035Y-18468686D01*
X27100030Y-18468682D01*
X26856151Y-18305728D01*
X26852718Y-18303434D01*
X26849019Y-18301610D01*
X26849014Y-18301607D01*
X26585947Y-18171877D01*
X26585945Y-18171876D01*
X26582252Y-18170055D01*
X26535268Y-18154106D01*
X26477192Y-18113269D01*
X26450414Y-18047516D01*
X26449770Y-18034793D01*
X26449770Y-15556270D01*
X26469772Y-15488149D01*
X26523428Y-15441656D01*
X26575770Y-15430270D01*
X29114658Y-15430270D01*
X29182779Y-15450272D01*
G37*
G04 #@! TD.AperFunction*
M02*
