%TF.GenerationSoftware,KiCad,Pcbnew,6.0.10*%
%TF.CreationDate,2023-01-08T03:38:05+01:00*%
%TF.ProjectId,ideal_diode,69646561-6c5f-4646-996f-64652e6b6963,rev?*%
%TF.SameCoordinates,Original*%
%TF.FileFunction,Drillmap*%
%TF.FilePolarity,Positive*%
%FSLAX45Y45*%
G04 Gerber Fmt 4.5, Leading zero omitted, Abs format (unit mm)*
G04 Created by KiCad (PCBNEW 6.0.10) date 2023-01-08 03:38:05*
%MOMM*%
%LPD*%
G01*
G04 APERTURE LIST*
%ADD10C,0.100000*%
%ADD11C,0.200000*%
%ADD12C,0.050000*%
%ADD13C,0.080000*%
%ADD14C,0.320000*%
G04 APERTURE END LIST*
D10*
X3790000Y-4997968D02*
X3790000Y-1500000D01*
X3790000Y-1500000D02*
G75*
G03*
X3490000Y-1200000I-299999J1D01*
G01*
X3490000Y-5297968D02*
G75*
G03*
X3790000Y-4997968I0J300000D01*
G01*
X1200000Y-4997968D02*
G75*
G03*
X1500000Y-5297968I299999J-1D01*
G01*
X1200000Y-1500000D02*
X1200000Y-4997968D01*
X1500000Y-1200000D02*
G75*
G03*
X1200000Y-1500000I0J-300000D01*
G01*
X3490000Y-1200000D02*
X1500000Y-1200000D01*
X1500000Y-5297968D02*
X3490000Y-5297968D01*
D11*
D12*
X1375000Y-3325000D02*
X1425000Y-3375000D01*
X1425000Y-3325000D02*
X1375000Y-3375000D01*
X1375000Y-3475000D02*
X1425000Y-3525000D01*
X1425000Y-3475000D02*
X1375000Y-3525000D01*
X1375000Y-4325000D02*
X1425000Y-4375000D01*
X1425000Y-4325000D02*
X1375000Y-4375000D01*
X1525000Y-2575000D02*
X1575000Y-2625000D01*
X1575000Y-2575000D02*
X1525000Y-2625000D01*
X1525000Y-3325000D02*
X1575000Y-3375000D01*
X1575000Y-3325000D02*
X1525000Y-3375000D01*
X1525000Y-4325000D02*
X1575000Y-4375000D01*
X1575000Y-4325000D02*
X1525000Y-4375000D01*
X1675000Y-2575000D02*
X1725000Y-2625000D01*
X1725000Y-2575000D02*
X1675000Y-2625000D01*
X1675000Y-2725000D02*
X1725000Y-2775000D01*
X1725000Y-2725000D02*
X1675000Y-2775000D01*
X1675000Y-3325000D02*
X1725000Y-3375000D01*
X1725000Y-3325000D02*
X1675000Y-3375000D01*
X1725000Y-4325000D02*
X1775000Y-4375000D01*
X1775000Y-4325000D02*
X1725000Y-4375000D01*
X1825000Y-2275000D02*
X1875000Y-2325000D01*
X1875000Y-2275000D02*
X1825000Y-2325000D01*
X1825000Y-2425000D02*
X1875000Y-2475000D01*
X1875000Y-2425000D02*
X1825000Y-2475000D01*
X1825000Y-2575000D02*
X1875000Y-2625000D01*
X1875000Y-2575000D02*
X1825000Y-2625000D01*
X1825000Y-2725000D02*
X1875000Y-2775000D01*
X1875000Y-2725000D02*
X1825000Y-2775000D01*
X1825000Y-2875000D02*
X1875000Y-2925000D01*
X1875000Y-2875000D02*
X1825000Y-2925000D01*
X1825000Y-3025000D02*
X1875000Y-3075000D01*
X1875000Y-3025000D02*
X1825000Y-3075000D01*
X1825000Y-3175000D02*
X1875000Y-3225000D01*
X1875000Y-3175000D02*
X1825000Y-3225000D01*
X1825000Y-3325000D02*
X1875000Y-3375000D01*
X1875000Y-3325000D02*
X1825000Y-3375000D01*
X1948977Y-4498977D02*
X1998977Y-4548977D01*
X1998977Y-4498977D02*
X1948977Y-4548977D01*
X1975000Y-2275000D02*
X2025000Y-2325000D01*
X2025000Y-2275000D02*
X1975000Y-2325000D01*
X1975000Y-2425000D02*
X2025000Y-2475000D01*
X2025000Y-2425000D02*
X1975000Y-2475000D01*
X1975000Y-2575000D02*
X2025000Y-2625000D01*
X2025000Y-2575000D02*
X1975000Y-2625000D01*
X1975000Y-2725000D02*
X2025000Y-2775000D01*
X2025000Y-2725000D02*
X1975000Y-2775000D01*
X1975000Y-2875000D02*
X2025000Y-2925000D01*
X2025000Y-2875000D02*
X1975000Y-2925000D01*
X1975000Y-3025000D02*
X2025000Y-3075000D01*
X2025000Y-3025000D02*
X1975000Y-3075000D01*
X1975000Y-3175000D02*
X2025000Y-3225000D01*
X2025000Y-3175000D02*
X1975000Y-3225000D01*
X1975000Y-5175000D02*
X2025000Y-5225000D01*
X2025000Y-5175000D02*
X1975000Y-5225000D01*
X2084977Y-3765023D02*
X2134977Y-3815023D01*
X2134977Y-3765023D02*
X2084977Y-3815023D01*
X2084977Y-3965023D02*
X2134977Y-4015023D01*
X2134977Y-3965023D02*
X2084977Y-4015023D01*
X2084977Y-4165023D02*
X2134977Y-4215023D01*
X2134977Y-4165023D02*
X2084977Y-4215023D01*
X2084977Y-4315023D02*
X2134977Y-4365023D01*
X2134977Y-4315023D02*
X2084977Y-4365023D01*
X2125000Y-1275000D02*
X2175000Y-1325000D01*
X2175000Y-1275000D02*
X2125000Y-1325000D01*
X2125000Y-2100000D02*
X2175000Y-2150000D01*
X2175000Y-2100000D02*
X2125000Y-2150000D01*
X2125000Y-2275000D02*
X2175000Y-2325000D01*
X2175000Y-2275000D02*
X2125000Y-2325000D01*
X2125000Y-4725000D02*
X2175000Y-4775000D01*
X2175000Y-4725000D02*
X2125000Y-4775000D01*
X2125000Y-4875000D02*
X2175000Y-4925000D01*
X2175000Y-4875000D02*
X2125000Y-4925000D01*
X2125000Y-5025000D02*
X2175000Y-5075000D01*
X2175000Y-5025000D02*
X2125000Y-5075000D01*
X2125000Y-5175000D02*
X2175000Y-5225000D01*
X2175000Y-5175000D02*
X2125000Y-5225000D01*
X2199792Y-3649792D02*
X2249792Y-3699792D01*
X2249792Y-3649792D02*
X2199792Y-3699792D01*
X2250000Y-1975000D02*
X2300000Y-2025000D01*
X2300000Y-1975000D02*
X2250000Y-2025000D01*
X2250000Y-2150000D02*
X2300000Y-2200000D01*
X2300000Y-2150000D02*
X2250000Y-2200000D01*
X2725000Y-4725000D02*
X2775000Y-4775000D01*
X2775000Y-4725000D02*
X2725000Y-4775000D01*
X2725000Y-4975000D02*
X2775000Y-5025000D01*
X2775000Y-4975000D02*
X2725000Y-5025000D01*
X2725000Y-5175000D02*
X2775000Y-5225000D01*
X2775000Y-5175000D02*
X2725000Y-5225000D01*
X2875000Y-4725000D02*
X2925000Y-4775000D01*
X2925000Y-4725000D02*
X2875000Y-4775000D01*
X2875000Y-4975000D02*
X2925000Y-5025000D01*
X2925000Y-4975000D02*
X2875000Y-5025000D01*
X2875000Y-5175000D02*
X2925000Y-5225000D01*
X2925000Y-5175000D02*
X2875000Y-5225000D01*
X2925000Y-1975000D02*
X2975000Y-2025000D01*
X2975000Y-1975000D02*
X2925000Y-2025000D01*
X2973727Y-4015477D02*
X3023727Y-4065477D01*
X3023727Y-4015477D02*
X2973727Y-4065477D01*
X2973727Y-4226273D02*
X3023727Y-4276273D01*
X3023727Y-4226273D02*
X2973727Y-4276273D01*
X2973727Y-4376273D02*
X3023727Y-4426273D01*
X3023727Y-4376273D02*
X2973727Y-4426273D01*
X2975000Y-3625000D02*
X3025000Y-3675000D01*
X3025000Y-3625000D02*
X2975000Y-3675000D01*
X2975000Y-3775000D02*
X3025000Y-3825000D01*
X3025000Y-3775000D02*
X2975000Y-3825000D01*
X3021000Y-4529000D02*
X3071000Y-4579000D01*
X3071000Y-4529000D02*
X3021000Y-4579000D01*
X3075000Y-2125000D02*
X3125000Y-2175000D01*
X3125000Y-2125000D02*
X3075000Y-2175000D01*
X3175000Y-3775000D02*
X3225000Y-3825000D01*
X3225000Y-3775000D02*
X3175000Y-3825000D01*
X3175000Y-4025000D02*
X3225000Y-4075000D01*
X3225000Y-4025000D02*
X3175000Y-4075000D01*
X3175000Y-4225000D02*
X3225000Y-4275000D01*
X3225000Y-4225000D02*
X3175000Y-4275000D01*
X3275000Y-2175000D02*
X3325000Y-2225000D01*
X3325000Y-2175000D02*
X3275000Y-2225000D01*
X3425000Y-2175000D02*
X3475000Y-2225000D01*
X3475000Y-2175000D02*
X3425000Y-2225000D01*
X3675000Y-2025000D02*
X3725000Y-2075000D01*
X3725000Y-2025000D02*
X3675000Y-2075000D01*
X3675000Y-2175000D02*
X3725000Y-2225000D01*
X3725000Y-2175000D02*
X3675000Y-2225000D01*
X1404977Y-1619977D02*
G75*
G03*
X1404977Y-1619977I-25000J0D01*
G01*
X1404977Y-3877977D02*
G75*
G03*
X1404977Y-3877977I-25000J0D01*
G01*
X1404977Y-4877977D02*
G75*
G03*
X1404977Y-4877977I-25000J0D01*
G01*
X1475271Y-1450271D02*
G75*
G03*
X1475271Y-1450271I-25000J0D01*
G01*
X1475271Y-1789683D02*
G75*
G03*
X1475271Y-1789683I-25000J0D01*
G01*
X1475271Y-3708271D02*
G75*
G03*
X1475271Y-3708271I-25000J0D01*
G01*
X1475271Y-4047683D02*
G75*
G03*
X1475271Y-4047683I-25000J0D01*
G01*
X1475271Y-4708271D02*
G75*
G03*
X1475271Y-4708271I-25000J0D01*
G01*
X1475271Y-5047683D02*
G75*
G03*
X1475271Y-5047683I-25000J0D01*
G01*
X1644977Y-1379977D02*
G75*
G03*
X1644977Y-1379977I-25000J0D01*
G01*
X1644977Y-1859977D02*
G75*
G03*
X1644977Y-1859977I-25000J0D01*
G01*
X1644977Y-3637977D02*
G75*
G03*
X1644977Y-3637977I-25000J0D01*
G01*
X1644977Y-4117977D02*
G75*
G03*
X1644977Y-4117977I-25000J0D01*
G01*
X1644977Y-4637977D02*
G75*
G03*
X1644977Y-4637977I-25000J0D01*
G01*
X1644977Y-5117977D02*
G75*
G03*
X1644977Y-5117977I-25000J0D01*
G01*
X1814683Y-1450271D02*
G75*
G03*
X1814683Y-1450271I-25000J0D01*
G01*
X1814683Y-1789683D02*
G75*
G03*
X1814683Y-1789683I-25000J0D01*
G01*
X1814683Y-3708271D02*
G75*
G03*
X1814683Y-3708271I-25000J0D01*
G01*
X1814683Y-4047683D02*
G75*
G03*
X1814683Y-4047683I-25000J0D01*
G01*
X1814683Y-4708271D02*
G75*
G03*
X1814683Y-4708271I-25000J0D01*
G01*
X1814683Y-5047683D02*
G75*
G03*
X1814683Y-5047683I-25000J0D01*
G01*
X1884977Y-1619977D02*
G75*
G03*
X1884977Y-1619977I-25000J0D01*
G01*
X1884977Y-3877977D02*
G75*
G03*
X1884977Y-3877977I-25000J0D01*
G01*
X1884977Y-4877977D02*
G75*
G03*
X1884977Y-4877977I-25000J0D01*
G01*
X3154977Y-1619977D02*
G75*
G03*
X3154977Y-1619977I-25000J0D01*
G01*
X3154977Y-4877977D02*
G75*
G03*
X3154977Y-4877977I-25000J0D01*
G01*
X3225271Y-1450271D02*
G75*
G03*
X3225271Y-1450271I-25000J0D01*
G01*
X3225271Y-1789683D02*
G75*
G03*
X3225271Y-1789683I-25000J0D01*
G01*
X3225271Y-4708271D02*
G75*
G03*
X3225271Y-4708271I-25000J0D01*
G01*
X3225271Y-5047683D02*
G75*
G03*
X3225271Y-5047683I-25000J0D01*
G01*
X3394977Y-1379977D02*
G75*
G03*
X3394977Y-1379977I-25000J0D01*
G01*
X3394977Y-1859977D02*
G75*
G03*
X3394977Y-1859977I-25000J0D01*
G01*
X3394977Y-4637977D02*
G75*
G03*
X3394977Y-4637977I-25000J0D01*
G01*
X3394977Y-5117977D02*
G75*
G03*
X3394977Y-5117977I-25000J0D01*
G01*
X3564683Y-1450271D02*
G75*
G03*
X3564683Y-1450271I-25000J0D01*
G01*
X3564683Y-1789683D02*
G75*
G03*
X3564683Y-1789683I-25000J0D01*
G01*
X3564683Y-4708271D02*
G75*
G03*
X3564683Y-4708271I-25000J0D01*
G01*
X3564683Y-5047683D02*
G75*
G03*
X3564683Y-5047683I-25000J0D01*
G01*
X3634977Y-1619977D02*
G75*
G03*
X3634977Y-1619977I-25000J0D01*
G01*
X3634977Y-4877977D02*
G75*
G03*
X3634977Y-4877977I-25000J0D01*
G01*
D13*
X1547977Y-2203977D02*
X1547977Y-2283977D01*
X1507977Y-2243977D02*
X1587977Y-2243977D01*
X1547977Y-2965977D02*
X1547977Y-3045977D01*
X1507977Y-3005977D02*
X1587977Y-3005977D01*
X2309977Y-2457977D02*
X2309977Y-2537977D01*
X2269977Y-2497977D02*
X2349977Y-2497977D01*
X2309977Y-2965977D02*
X2309977Y-3045977D01*
X2269977Y-3005977D02*
X2349977Y-3005977D01*
D10*
X2605356Y-2065356D02*
X2605356Y-1994644D01*
X2534644Y-1994644D01*
X2534644Y-2065356D01*
X2605356Y-2065356D01*
X2625333Y-2845356D02*
X2625333Y-2774644D01*
X2554621Y-2774644D01*
X2554621Y-2845356D01*
X2625333Y-2845356D01*
X3605333Y-3470833D02*
X3605333Y-3400121D01*
X3534621Y-3400121D01*
X3534621Y-3470833D01*
X3605333Y-3470833D01*
D14*
X1619977Y-1779977D02*
X1779977Y-1619977D01*
X1619977Y-1459977D01*
X1459977Y-1619977D01*
X1619977Y-1779977D01*
X1619977Y-4037977D02*
X1779977Y-3877977D01*
X1619977Y-3717977D01*
X1459977Y-3877977D01*
X1619977Y-4037977D01*
X1619977Y-5037977D02*
X1779977Y-4877977D01*
X1619977Y-4717977D01*
X1459977Y-4877977D01*
X1619977Y-5037977D01*
X3369977Y-1779977D02*
X3529977Y-1619977D01*
X3369977Y-1459977D01*
X3209977Y-1619977D01*
X3369977Y-1779977D01*
X3369977Y-5037977D02*
X3529977Y-4877977D01*
X3369977Y-4717977D01*
X3209977Y-4877977D01*
X3369977Y-5037977D01*
D11*
X1452619Y-5613444D02*
X1452619Y-5413444D01*
X1500238Y-5413444D01*
X1528809Y-5422968D01*
X1547857Y-5442016D01*
X1557381Y-5461063D01*
X1566905Y-5499158D01*
X1566905Y-5527730D01*
X1557381Y-5565825D01*
X1547857Y-5584873D01*
X1528809Y-5603920D01*
X1500238Y-5613444D01*
X1452619Y-5613444D01*
X1652619Y-5613444D02*
X1652619Y-5480111D01*
X1652619Y-5518206D02*
X1662143Y-5499158D01*
X1671667Y-5489635D01*
X1690714Y-5480111D01*
X1709762Y-5480111D01*
X1776428Y-5613444D02*
X1776428Y-5480111D01*
X1776428Y-5413444D02*
X1766905Y-5422968D01*
X1776428Y-5432492D01*
X1785952Y-5422968D01*
X1776428Y-5413444D01*
X1776428Y-5432492D01*
X1900238Y-5613444D02*
X1881190Y-5603920D01*
X1871667Y-5584873D01*
X1871667Y-5413444D01*
X2005000Y-5613444D02*
X1985952Y-5603920D01*
X1976428Y-5584873D01*
X1976428Y-5413444D01*
X2233571Y-5613444D02*
X2233571Y-5413444D01*
X2300238Y-5556301D01*
X2366905Y-5413444D01*
X2366905Y-5613444D01*
X2547857Y-5613444D02*
X2547857Y-5508682D01*
X2538333Y-5489635D01*
X2519286Y-5480111D01*
X2481190Y-5480111D01*
X2462143Y-5489635D01*
X2547857Y-5603920D02*
X2528810Y-5613444D01*
X2481190Y-5613444D01*
X2462143Y-5603920D01*
X2452619Y-5584873D01*
X2452619Y-5565825D01*
X2462143Y-5546778D01*
X2481190Y-5537254D01*
X2528810Y-5537254D01*
X2547857Y-5527730D01*
X2643095Y-5480111D02*
X2643095Y-5680111D01*
X2643095Y-5489635D02*
X2662143Y-5480111D01*
X2700238Y-5480111D01*
X2719286Y-5489635D01*
X2728810Y-5499158D01*
X2738333Y-5518206D01*
X2738333Y-5575349D01*
X2728810Y-5594396D01*
X2719286Y-5603920D01*
X2700238Y-5613444D01*
X2662143Y-5613444D01*
X2643095Y-5603920D01*
X2824048Y-5594396D02*
X2833571Y-5603920D01*
X2824048Y-5613444D01*
X2814524Y-5603920D01*
X2824048Y-5594396D01*
X2824048Y-5613444D01*
X2824048Y-5489635D02*
X2833571Y-5499158D01*
X2824048Y-5508682D01*
X2814524Y-5499158D01*
X2824048Y-5489635D01*
X2824048Y-5508682D01*
D12*
X1145000Y-5917968D02*
X1195000Y-5967968D01*
X1195000Y-5917968D02*
X1145000Y-5967968D01*
D11*
X1490714Y-5833444D02*
X1509762Y-5833444D01*
X1528809Y-5842968D01*
X1538333Y-5852492D01*
X1547857Y-5871539D01*
X1557381Y-5909635D01*
X1557381Y-5957254D01*
X1547857Y-5995349D01*
X1538333Y-6014396D01*
X1528809Y-6023920D01*
X1509762Y-6033444D01*
X1490714Y-6033444D01*
X1471667Y-6023920D01*
X1462143Y-6014396D01*
X1452619Y-5995349D01*
X1443095Y-5957254D01*
X1443095Y-5909635D01*
X1452619Y-5871539D01*
X1462143Y-5852492D01*
X1471667Y-5842968D01*
X1490714Y-5833444D01*
X1643095Y-6014396D02*
X1652619Y-6023920D01*
X1643095Y-6033444D01*
X1633571Y-6023920D01*
X1643095Y-6014396D01*
X1643095Y-6033444D01*
X1833571Y-5833444D02*
X1738333Y-5833444D01*
X1728809Y-5928682D01*
X1738333Y-5919158D01*
X1757381Y-5909635D01*
X1805000Y-5909635D01*
X1824048Y-5919158D01*
X1833571Y-5928682D01*
X1843095Y-5947730D01*
X1843095Y-5995349D01*
X1833571Y-6014396D01*
X1824048Y-6023920D01*
X1805000Y-6033444D01*
X1757381Y-6033444D01*
X1738333Y-6023920D01*
X1728809Y-6014396D01*
X1966905Y-5833444D02*
X1985952Y-5833444D01*
X2005000Y-5842968D01*
X2014524Y-5852492D01*
X2024048Y-5871539D01*
X2033571Y-5909635D01*
X2033571Y-5957254D01*
X2024048Y-5995349D01*
X2014524Y-6014396D01*
X2005000Y-6023920D01*
X1985952Y-6033444D01*
X1966905Y-6033444D01*
X1947857Y-6023920D01*
X1938333Y-6014396D01*
X1928809Y-5995349D01*
X1919286Y-5957254D01*
X1919286Y-5909635D01*
X1928809Y-5871539D01*
X1938333Y-5852492D01*
X1947857Y-5842968D01*
X1966905Y-5833444D01*
X2157381Y-5833444D02*
X2176429Y-5833444D01*
X2195476Y-5842968D01*
X2205000Y-5852492D01*
X2214524Y-5871539D01*
X2224048Y-5909635D01*
X2224048Y-5957254D01*
X2214524Y-5995349D01*
X2205000Y-6014396D01*
X2195476Y-6023920D01*
X2176429Y-6033444D01*
X2157381Y-6033444D01*
X2138333Y-6023920D01*
X2128810Y-6014396D01*
X2119286Y-5995349D01*
X2109762Y-5957254D01*
X2109762Y-5909635D01*
X2119286Y-5871539D01*
X2128810Y-5852492D01*
X2138333Y-5842968D01*
X2157381Y-5833444D01*
X2309762Y-6033444D02*
X2309762Y-5900111D01*
X2309762Y-5919158D02*
X2319286Y-5909635D01*
X2338333Y-5900111D01*
X2366905Y-5900111D01*
X2385952Y-5909635D01*
X2395476Y-5928682D01*
X2395476Y-6033444D01*
X2395476Y-5928682D02*
X2405000Y-5909635D01*
X2424048Y-5900111D01*
X2452619Y-5900111D01*
X2471667Y-5909635D01*
X2481190Y-5928682D01*
X2481190Y-6033444D01*
X2576429Y-6033444D02*
X2576429Y-5900111D01*
X2576429Y-5919158D02*
X2585952Y-5909635D01*
X2605000Y-5900111D01*
X2633571Y-5900111D01*
X2652619Y-5909635D01*
X2662143Y-5928682D01*
X2662143Y-6033444D01*
X2662143Y-5928682D02*
X2671667Y-5909635D01*
X2690714Y-5900111D01*
X2719286Y-5900111D01*
X2738333Y-5909635D01*
X2747857Y-5928682D01*
X2747857Y-6033444D01*
X3138333Y-5823920D02*
X2966905Y-6081063D01*
X3395476Y-5833444D02*
X3414524Y-5833444D01*
X3433571Y-5842968D01*
X3443095Y-5852492D01*
X3452619Y-5871539D01*
X3462143Y-5909635D01*
X3462143Y-5957254D01*
X3452619Y-5995349D01*
X3443095Y-6014396D01*
X3433571Y-6023920D01*
X3414524Y-6033444D01*
X3395476Y-6033444D01*
X3376428Y-6023920D01*
X3366905Y-6014396D01*
X3357381Y-5995349D01*
X3347857Y-5957254D01*
X3347857Y-5909635D01*
X3357381Y-5871539D01*
X3366905Y-5852492D01*
X3376428Y-5842968D01*
X3395476Y-5833444D01*
X3547857Y-6014396D02*
X3557381Y-6023920D01*
X3547857Y-6033444D01*
X3538333Y-6023920D01*
X3547857Y-6014396D01*
X3547857Y-6033444D01*
X3681190Y-5833444D02*
X3700238Y-5833444D01*
X3719286Y-5842968D01*
X3728809Y-5852492D01*
X3738333Y-5871539D01*
X3747857Y-5909635D01*
X3747857Y-5957254D01*
X3738333Y-5995349D01*
X3728809Y-6014396D01*
X3719286Y-6023920D01*
X3700238Y-6033444D01*
X3681190Y-6033444D01*
X3662143Y-6023920D01*
X3652619Y-6014396D01*
X3643095Y-5995349D01*
X3633571Y-5957254D01*
X3633571Y-5909635D01*
X3643095Y-5871539D01*
X3652619Y-5852492D01*
X3662143Y-5842968D01*
X3681190Y-5833444D01*
X3938333Y-6033444D02*
X3824048Y-6033444D01*
X3881190Y-6033444D02*
X3881190Y-5833444D01*
X3862143Y-5862016D01*
X3843095Y-5881063D01*
X3824048Y-5890587D01*
X4033571Y-6033444D02*
X4071667Y-6033444D01*
X4090714Y-6023920D01*
X4100238Y-6014396D01*
X4119286Y-5985825D01*
X4128809Y-5947730D01*
X4128809Y-5871539D01*
X4119286Y-5852492D01*
X4109762Y-5842968D01*
X4090714Y-5833444D01*
X4052619Y-5833444D01*
X4033571Y-5842968D01*
X4024048Y-5852492D01*
X4014524Y-5871539D01*
X4014524Y-5919158D01*
X4024048Y-5938206D01*
X4033571Y-5947730D01*
X4052619Y-5957254D01*
X4090714Y-5957254D01*
X4109762Y-5947730D01*
X4119286Y-5938206D01*
X4128809Y-5919158D01*
X4195476Y-5833444D02*
X4328810Y-5833444D01*
X4243095Y-6033444D01*
X4395476Y-5833444D02*
X4395476Y-5871539D01*
X4471667Y-5833444D02*
X4471667Y-5871539D01*
X4766905Y-6109635D02*
X4757381Y-6100111D01*
X4738333Y-6071539D01*
X4728810Y-6052492D01*
X4719286Y-6023920D01*
X4709762Y-5976301D01*
X4709762Y-5938206D01*
X4719286Y-5890587D01*
X4728810Y-5862016D01*
X4738333Y-5842968D01*
X4757381Y-5814396D01*
X4766905Y-5804873D01*
X4928810Y-5833444D02*
X4890714Y-5833444D01*
X4871667Y-5842968D01*
X4862143Y-5852492D01*
X4843095Y-5881063D01*
X4833571Y-5919158D01*
X4833571Y-5995349D01*
X4843095Y-6014396D01*
X4852619Y-6023920D01*
X4871667Y-6033444D01*
X4909762Y-6033444D01*
X4928810Y-6023920D01*
X4938333Y-6014396D01*
X4947857Y-5995349D01*
X4947857Y-5947730D01*
X4938333Y-5928682D01*
X4928810Y-5919158D01*
X4909762Y-5909635D01*
X4871667Y-5909635D01*
X4852619Y-5919158D01*
X4843095Y-5928682D01*
X4833571Y-5947730D01*
X5024048Y-5852492D02*
X5033571Y-5842968D01*
X5052619Y-5833444D01*
X5100238Y-5833444D01*
X5119286Y-5842968D01*
X5128810Y-5852492D01*
X5138333Y-5871539D01*
X5138333Y-5890587D01*
X5128810Y-5919158D01*
X5014524Y-6033444D01*
X5138333Y-6033444D01*
X5376429Y-6033444D02*
X5376429Y-5833444D01*
X5462143Y-6033444D02*
X5462143Y-5928682D01*
X5452619Y-5909635D01*
X5433571Y-5900111D01*
X5405000Y-5900111D01*
X5385952Y-5909635D01*
X5376429Y-5919158D01*
X5585952Y-6033444D02*
X5566905Y-6023920D01*
X5557381Y-6014396D01*
X5547857Y-5995349D01*
X5547857Y-5938206D01*
X5557381Y-5919158D01*
X5566905Y-5909635D01*
X5585952Y-5900111D01*
X5614524Y-5900111D01*
X5633571Y-5909635D01*
X5643095Y-5919158D01*
X5652619Y-5938206D01*
X5652619Y-5995349D01*
X5643095Y-6014396D01*
X5633571Y-6023920D01*
X5614524Y-6033444D01*
X5585952Y-6033444D01*
X5766905Y-6033444D02*
X5747857Y-6023920D01*
X5738333Y-6004873D01*
X5738333Y-5833444D01*
X5919286Y-6023920D02*
X5900238Y-6033444D01*
X5862143Y-6033444D01*
X5843095Y-6023920D01*
X5833571Y-6004873D01*
X5833571Y-5928682D01*
X5843095Y-5909635D01*
X5862143Y-5900111D01*
X5900238Y-5900111D01*
X5919286Y-5909635D01*
X5928809Y-5928682D01*
X5928809Y-5947730D01*
X5833571Y-5966777D01*
X6005000Y-6023920D02*
X6024048Y-6033444D01*
X6062143Y-6033444D01*
X6081190Y-6023920D01*
X6090714Y-6004873D01*
X6090714Y-5995349D01*
X6081190Y-5976301D01*
X6062143Y-5966777D01*
X6033571Y-5966777D01*
X6014524Y-5957254D01*
X6005000Y-5938206D01*
X6005000Y-5928682D01*
X6014524Y-5909635D01*
X6033571Y-5900111D01*
X6062143Y-5900111D01*
X6081190Y-5909635D01*
X6157381Y-6109635D02*
X6166905Y-6100111D01*
X6185952Y-6071539D01*
X6195476Y-6052492D01*
X6205000Y-6023920D01*
X6214524Y-5976301D01*
X6214524Y-5938206D01*
X6205000Y-5890587D01*
X6195476Y-5862016D01*
X6185952Y-5842968D01*
X6166905Y-5814396D01*
X6157381Y-5804873D01*
D12*
X1195000Y-6206968D02*
G75*
G03*
X1195000Y-6206968I-25000J0D01*
G01*
D11*
X1490714Y-6097444D02*
X1509762Y-6097444D01*
X1528809Y-6106968D01*
X1538333Y-6116492D01*
X1547857Y-6135539D01*
X1557381Y-6173635D01*
X1557381Y-6221254D01*
X1547857Y-6259349D01*
X1538333Y-6278396D01*
X1528809Y-6287920D01*
X1509762Y-6297444D01*
X1490714Y-6297444D01*
X1471667Y-6287920D01*
X1462143Y-6278396D01*
X1452619Y-6259349D01*
X1443095Y-6221254D01*
X1443095Y-6173635D01*
X1452619Y-6135539D01*
X1462143Y-6116492D01*
X1471667Y-6106968D01*
X1490714Y-6097444D01*
X1643095Y-6278396D02*
X1652619Y-6287920D01*
X1643095Y-6297444D01*
X1633571Y-6287920D01*
X1643095Y-6278396D01*
X1643095Y-6297444D01*
X1833571Y-6097444D02*
X1738333Y-6097444D01*
X1728809Y-6192682D01*
X1738333Y-6183158D01*
X1757381Y-6173635D01*
X1805000Y-6173635D01*
X1824048Y-6183158D01*
X1833571Y-6192682D01*
X1843095Y-6211730D01*
X1843095Y-6259349D01*
X1833571Y-6278396D01*
X1824048Y-6287920D01*
X1805000Y-6297444D01*
X1757381Y-6297444D01*
X1738333Y-6287920D01*
X1728809Y-6278396D01*
X1966905Y-6097444D02*
X1985952Y-6097444D01*
X2005000Y-6106968D01*
X2014524Y-6116492D01*
X2024048Y-6135539D01*
X2033571Y-6173635D01*
X2033571Y-6221254D01*
X2024048Y-6259349D01*
X2014524Y-6278396D01*
X2005000Y-6287920D01*
X1985952Y-6297444D01*
X1966905Y-6297444D01*
X1947857Y-6287920D01*
X1938333Y-6278396D01*
X1928809Y-6259349D01*
X1919286Y-6221254D01*
X1919286Y-6173635D01*
X1928809Y-6135539D01*
X1938333Y-6116492D01*
X1947857Y-6106968D01*
X1966905Y-6097444D01*
X2157381Y-6097444D02*
X2176429Y-6097444D01*
X2195476Y-6106968D01*
X2205000Y-6116492D01*
X2214524Y-6135539D01*
X2224048Y-6173635D01*
X2224048Y-6221254D01*
X2214524Y-6259349D01*
X2205000Y-6278396D01*
X2195476Y-6287920D01*
X2176429Y-6297444D01*
X2157381Y-6297444D01*
X2138333Y-6287920D01*
X2128810Y-6278396D01*
X2119286Y-6259349D01*
X2109762Y-6221254D01*
X2109762Y-6173635D01*
X2119286Y-6135539D01*
X2128810Y-6116492D01*
X2138333Y-6106968D01*
X2157381Y-6097444D01*
X2309762Y-6297444D02*
X2309762Y-6164111D01*
X2309762Y-6183158D02*
X2319286Y-6173635D01*
X2338333Y-6164111D01*
X2366905Y-6164111D01*
X2385952Y-6173635D01*
X2395476Y-6192682D01*
X2395476Y-6297444D01*
X2395476Y-6192682D02*
X2405000Y-6173635D01*
X2424048Y-6164111D01*
X2452619Y-6164111D01*
X2471667Y-6173635D01*
X2481190Y-6192682D01*
X2481190Y-6297444D01*
X2576429Y-6297444D02*
X2576429Y-6164111D01*
X2576429Y-6183158D02*
X2585952Y-6173635D01*
X2605000Y-6164111D01*
X2633571Y-6164111D01*
X2652619Y-6173635D01*
X2662143Y-6192682D01*
X2662143Y-6297444D01*
X2662143Y-6192682D02*
X2671667Y-6173635D01*
X2690714Y-6164111D01*
X2719286Y-6164111D01*
X2738333Y-6173635D01*
X2747857Y-6192682D01*
X2747857Y-6297444D01*
X3138333Y-6087920D02*
X2966905Y-6345063D01*
X3395476Y-6097444D02*
X3414524Y-6097444D01*
X3433571Y-6106968D01*
X3443095Y-6116492D01*
X3452619Y-6135539D01*
X3462143Y-6173635D01*
X3462143Y-6221254D01*
X3452619Y-6259349D01*
X3443095Y-6278396D01*
X3433571Y-6287920D01*
X3414524Y-6297444D01*
X3395476Y-6297444D01*
X3376428Y-6287920D01*
X3366905Y-6278396D01*
X3357381Y-6259349D01*
X3347857Y-6221254D01*
X3347857Y-6173635D01*
X3357381Y-6135539D01*
X3366905Y-6116492D01*
X3376428Y-6106968D01*
X3395476Y-6097444D01*
X3547857Y-6278396D02*
X3557381Y-6287920D01*
X3547857Y-6297444D01*
X3538333Y-6287920D01*
X3547857Y-6278396D01*
X3547857Y-6297444D01*
X3681190Y-6097444D02*
X3700238Y-6097444D01*
X3719286Y-6106968D01*
X3728809Y-6116492D01*
X3738333Y-6135539D01*
X3747857Y-6173635D01*
X3747857Y-6221254D01*
X3738333Y-6259349D01*
X3728809Y-6278396D01*
X3719286Y-6287920D01*
X3700238Y-6297444D01*
X3681190Y-6297444D01*
X3662143Y-6287920D01*
X3652619Y-6278396D01*
X3643095Y-6259349D01*
X3633571Y-6221254D01*
X3633571Y-6173635D01*
X3643095Y-6135539D01*
X3652619Y-6116492D01*
X3662143Y-6106968D01*
X3681190Y-6097444D01*
X3938333Y-6297444D02*
X3824048Y-6297444D01*
X3881190Y-6297444D02*
X3881190Y-6097444D01*
X3862143Y-6126016D01*
X3843095Y-6145063D01*
X3824048Y-6154587D01*
X4033571Y-6297444D02*
X4071667Y-6297444D01*
X4090714Y-6287920D01*
X4100238Y-6278396D01*
X4119286Y-6249825D01*
X4128809Y-6211730D01*
X4128809Y-6135539D01*
X4119286Y-6116492D01*
X4109762Y-6106968D01*
X4090714Y-6097444D01*
X4052619Y-6097444D01*
X4033571Y-6106968D01*
X4024048Y-6116492D01*
X4014524Y-6135539D01*
X4014524Y-6183158D01*
X4024048Y-6202206D01*
X4033571Y-6211730D01*
X4052619Y-6221254D01*
X4090714Y-6221254D01*
X4109762Y-6211730D01*
X4119286Y-6202206D01*
X4128809Y-6183158D01*
X4195476Y-6097444D02*
X4328810Y-6097444D01*
X4243095Y-6297444D01*
X4395476Y-6097444D02*
X4395476Y-6135539D01*
X4471667Y-6097444D02*
X4471667Y-6135539D01*
X4766905Y-6373635D02*
X4757381Y-6364111D01*
X4738333Y-6335539D01*
X4728810Y-6316492D01*
X4719286Y-6287920D01*
X4709762Y-6240301D01*
X4709762Y-6202206D01*
X4719286Y-6154587D01*
X4728810Y-6126016D01*
X4738333Y-6106968D01*
X4757381Y-6078396D01*
X4766905Y-6068873D01*
X4928810Y-6164111D02*
X4928810Y-6297444D01*
X4881190Y-6087920D02*
X4833571Y-6230777D01*
X4957381Y-6230777D01*
X5071667Y-6097444D02*
X5090714Y-6097444D01*
X5109762Y-6106968D01*
X5119286Y-6116492D01*
X5128810Y-6135539D01*
X5138333Y-6173635D01*
X5138333Y-6221254D01*
X5128810Y-6259349D01*
X5119286Y-6278396D01*
X5109762Y-6287920D01*
X5090714Y-6297444D01*
X5071667Y-6297444D01*
X5052619Y-6287920D01*
X5043095Y-6278396D01*
X5033571Y-6259349D01*
X5024048Y-6221254D01*
X5024048Y-6173635D01*
X5033571Y-6135539D01*
X5043095Y-6116492D01*
X5052619Y-6106968D01*
X5071667Y-6097444D01*
X5376429Y-6297444D02*
X5376429Y-6097444D01*
X5462143Y-6297444D02*
X5462143Y-6192682D01*
X5452619Y-6173635D01*
X5433571Y-6164111D01*
X5405000Y-6164111D01*
X5385952Y-6173635D01*
X5376429Y-6183158D01*
X5585952Y-6297444D02*
X5566905Y-6287920D01*
X5557381Y-6278396D01*
X5547857Y-6259349D01*
X5547857Y-6202206D01*
X5557381Y-6183158D01*
X5566905Y-6173635D01*
X5585952Y-6164111D01*
X5614524Y-6164111D01*
X5633571Y-6173635D01*
X5643095Y-6183158D01*
X5652619Y-6202206D01*
X5652619Y-6259349D01*
X5643095Y-6278396D01*
X5633571Y-6287920D01*
X5614524Y-6297444D01*
X5585952Y-6297444D01*
X5766905Y-6297444D02*
X5747857Y-6287920D01*
X5738333Y-6268873D01*
X5738333Y-6097444D01*
X5919286Y-6287920D02*
X5900238Y-6297444D01*
X5862143Y-6297444D01*
X5843095Y-6287920D01*
X5833571Y-6268873D01*
X5833571Y-6192682D01*
X5843095Y-6173635D01*
X5862143Y-6164111D01*
X5900238Y-6164111D01*
X5919286Y-6173635D01*
X5928809Y-6192682D01*
X5928809Y-6211730D01*
X5833571Y-6230777D01*
X6005000Y-6287920D02*
X6024048Y-6297444D01*
X6062143Y-6297444D01*
X6081190Y-6287920D01*
X6090714Y-6268873D01*
X6090714Y-6259349D01*
X6081190Y-6240301D01*
X6062143Y-6230777D01*
X6033571Y-6230777D01*
X6014524Y-6221254D01*
X6005000Y-6202206D01*
X6005000Y-6192682D01*
X6014524Y-6173635D01*
X6033571Y-6164111D01*
X6062143Y-6164111D01*
X6081190Y-6173635D01*
X6157381Y-6373635D02*
X6166905Y-6364111D01*
X6185952Y-6335539D01*
X6195476Y-6316492D01*
X6205000Y-6287920D01*
X6214524Y-6240301D01*
X6214524Y-6202206D01*
X6205000Y-6154587D01*
X6195476Y-6126016D01*
X6185952Y-6106968D01*
X6166905Y-6078396D01*
X6157381Y-6068873D01*
D13*
X1155000Y-6430968D02*
X1155000Y-6510968D01*
X1115000Y-6470968D02*
X1195000Y-6470968D01*
D11*
X1490714Y-6361444D02*
X1509762Y-6361444D01*
X1528809Y-6370968D01*
X1538333Y-6380492D01*
X1547857Y-6399539D01*
X1557381Y-6437635D01*
X1557381Y-6485254D01*
X1547857Y-6523349D01*
X1538333Y-6542396D01*
X1528809Y-6551920D01*
X1509762Y-6561444D01*
X1490714Y-6561444D01*
X1471667Y-6551920D01*
X1462143Y-6542396D01*
X1452619Y-6523349D01*
X1443095Y-6485254D01*
X1443095Y-6437635D01*
X1452619Y-6399539D01*
X1462143Y-6380492D01*
X1471667Y-6370968D01*
X1490714Y-6361444D01*
X1643095Y-6542396D02*
X1652619Y-6551920D01*
X1643095Y-6561444D01*
X1633571Y-6551920D01*
X1643095Y-6542396D01*
X1643095Y-6561444D01*
X1766905Y-6447158D02*
X1747857Y-6437635D01*
X1738333Y-6428111D01*
X1728809Y-6409063D01*
X1728809Y-6399539D01*
X1738333Y-6380492D01*
X1747857Y-6370968D01*
X1766905Y-6361444D01*
X1805000Y-6361444D01*
X1824048Y-6370968D01*
X1833571Y-6380492D01*
X1843095Y-6399539D01*
X1843095Y-6409063D01*
X1833571Y-6428111D01*
X1824048Y-6437635D01*
X1805000Y-6447158D01*
X1766905Y-6447158D01*
X1747857Y-6456682D01*
X1738333Y-6466206D01*
X1728809Y-6485254D01*
X1728809Y-6523349D01*
X1738333Y-6542396D01*
X1747857Y-6551920D01*
X1766905Y-6561444D01*
X1805000Y-6561444D01*
X1824048Y-6551920D01*
X1833571Y-6542396D01*
X1843095Y-6523349D01*
X1843095Y-6485254D01*
X1833571Y-6466206D01*
X1824048Y-6456682D01*
X1805000Y-6447158D01*
X1966905Y-6361444D02*
X1985952Y-6361444D01*
X2005000Y-6370968D01*
X2014524Y-6380492D01*
X2024048Y-6399539D01*
X2033571Y-6437635D01*
X2033571Y-6485254D01*
X2024048Y-6523349D01*
X2014524Y-6542396D01*
X2005000Y-6551920D01*
X1985952Y-6561444D01*
X1966905Y-6561444D01*
X1947857Y-6551920D01*
X1938333Y-6542396D01*
X1928809Y-6523349D01*
X1919286Y-6485254D01*
X1919286Y-6437635D01*
X1928809Y-6399539D01*
X1938333Y-6380492D01*
X1947857Y-6370968D01*
X1966905Y-6361444D01*
X2157381Y-6361444D02*
X2176429Y-6361444D01*
X2195476Y-6370968D01*
X2205000Y-6380492D01*
X2214524Y-6399539D01*
X2224048Y-6437635D01*
X2224048Y-6485254D01*
X2214524Y-6523349D01*
X2205000Y-6542396D01*
X2195476Y-6551920D01*
X2176429Y-6561444D01*
X2157381Y-6561444D01*
X2138333Y-6551920D01*
X2128810Y-6542396D01*
X2119286Y-6523349D01*
X2109762Y-6485254D01*
X2109762Y-6437635D01*
X2119286Y-6399539D01*
X2128810Y-6380492D01*
X2138333Y-6370968D01*
X2157381Y-6361444D01*
X2309762Y-6561444D02*
X2309762Y-6428111D01*
X2309762Y-6447158D02*
X2319286Y-6437635D01*
X2338333Y-6428111D01*
X2366905Y-6428111D01*
X2385952Y-6437635D01*
X2395476Y-6456682D01*
X2395476Y-6561444D01*
X2395476Y-6456682D02*
X2405000Y-6437635D01*
X2424048Y-6428111D01*
X2452619Y-6428111D01*
X2471667Y-6437635D01*
X2481190Y-6456682D01*
X2481190Y-6561444D01*
X2576429Y-6561444D02*
X2576429Y-6428111D01*
X2576429Y-6447158D02*
X2585952Y-6437635D01*
X2605000Y-6428111D01*
X2633571Y-6428111D01*
X2652619Y-6437635D01*
X2662143Y-6456682D01*
X2662143Y-6561444D01*
X2662143Y-6456682D02*
X2671667Y-6437635D01*
X2690714Y-6428111D01*
X2719286Y-6428111D01*
X2738333Y-6437635D01*
X2747857Y-6456682D01*
X2747857Y-6561444D01*
X3138333Y-6351920D02*
X2966905Y-6609063D01*
X3395476Y-6361444D02*
X3414524Y-6361444D01*
X3433571Y-6370968D01*
X3443095Y-6380492D01*
X3452619Y-6399539D01*
X3462143Y-6437635D01*
X3462143Y-6485254D01*
X3452619Y-6523349D01*
X3443095Y-6542396D01*
X3433571Y-6551920D01*
X3414524Y-6561444D01*
X3395476Y-6561444D01*
X3376428Y-6551920D01*
X3366905Y-6542396D01*
X3357381Y-6523349D01*
X3347857Y-6485254D01*
X3347857Y-6437635D01*
X3357381Y-6399539D01*
X3366905Y-6380492D01*
X3376428Y-6370968D01*
X3395476Y-6361444D01*
X3547857Y-6542396D02*
X3557381Y-6551920D01*
X3547857Y-6561444D01*
X3538333Y-6551920D01*
X3547857Y-6542396D01*
X3547857Y-6561444D01*
X3681190Y-6361444D02*
X3700238Y-6361444D01*
X3719286Y-6370968D01*
X3728809Y-6380492D01*
X3738333Y-6399539D01*
X3747857Y-6437635D01*
X3747857Y-6485254D01*
X3738333Y-6523349D01*
X3728809Y-6542396D01*
X3719286Y-6551920D01*
X3700238Y-6561444D01*
X3681190Y-6561444D01*
X3662143Y-6551920D01*
X3652619Y-6542396D01*
X3643095Y-6523349D01*
X3633571Y-6485254D01*
X3633571Y-6437635D01*
X3643095Y-6399539D01*
X3652619Y-6380492D01*
X3662143Y-6370968D01*
X3681190Y-6361444D01*
X3814524Y-6361444D02*
X3938333Y-6361444D01*
X3871667Y-6437635D01*
X3900238Y-6437635D01*
X3919286Y-6447158D01*
X3928809Y-6456682D01*
X3938333Y-6475730D01*
X3938333Y-6523349D01*
X3928809Y-6542396D01*
X3919286Y-6551920D01*
X3900238Y-6561444D01*
X3843095Y-6561444D01*
X3824048Y-6551920D01*
X3814524Y-6542396D01*
X4128809Y-6561444D02*
X4014524Y-6561444D01*
X4071667Y-6561444D02*
X4071667Y-6361444D01*
X4052619Y-6390016D01*
X4033571Y-6409063D01*
X4014524Y-6418587D01*
X4309762Y-6361444D02*
X4214524Y-6361444D01*
X4205000Y-6456682D01*
X4214524Y-6447158D01*
X4233571Y-6437635D01*
X4281190Y-6437635D01*
X4300238Y-6447158D01*
X4309762Y-6456682D01*
X4319286Y-6475730D01*
X4319286Y-6523349D01*
X4309762Y-6542396D01*
X4300238Y-6551920D01*
X4281190Y-6561444D01*
X4233571Y-6561444D01*
X4214524Y-6551920D01*
X4205000Y-6542396D01*
X4395476Y-6361444D02*
X4395476Y-6399539D01*
X4471667Y-6361444D02*
X4471667Y-6399539D01*
X4766905Y-6637635D02*
X4757381Y-6628111D01*
X4738333Y-6599539D01*
X4728810Y-6580492D01*
X4719286Y-6551920D01*
X4709762Y-6504301D01*
X4709762Y-6466206D01*
X4719286Y-6418587D01*
X4728810Y-6390016D01*
X4738333Y-6370968D01*
X4757381Y-6342396D01*
X4766905Y-6332873D01*
X4928810Y-6428111D02*
X4928810Y-6561444D01*
X4881190Y-6351920D02*
X4833571Y-6494777D01*
X4957381Y-6494777D01*
X5185952Y-6561444D02*
X5185952Y-6361444D01*
X5271667Y-6561444D02*
X5271667Y-6456682D01*
X5262143Y-6437635D01*
X5243095Y-6428111D01*
X5214524Y-6428111D01*
X5195476Y-6437635D01*
X5185952Y-6447158D01*
X5395476Y-6561444D02*
X5376429Y-6551920D01*
X5366905Y-6542396D01*
X5357381Y-6523349D01*
X5357381Y-6466206D01*
X5366905Y-6447158D01*
X5376429Y-6437635D01*
X5395476Y-6428111D01*
X5424048Y-6428111D01*
X5443095Y-6437635D01*
X5452619Y-6447158D01*
X5462143Y-6466206D01*
X5462143Y-6523349D01*
X5452619Y-6542396D01*
X5443095Y-6551920D01*
X5424048Y-6561444D01*
X5395476Y-6561444D01*
X5576429Y-6561444D02*
X5557381Y-6551920D01*
X5547857Y-6532873D01*
X5547857Y-6361444D01*
X5728809Y-6551920D02*
X5709762Y-6561444D01*
X5671667Y-6561444D01*
X5652619Y-6551920D01*
X5643095Y-6532873D01*
X5643095Y-6456682D01*
X5652619Y-6437635D01*
X5671667Y-6428111D01*
X5709762Y-6428111D01*
X5728809Y-6437635D01*
X5738333Y-6456682D01*
X5738333Y-6475730D01*
X5643095Y-6494777D01*
X5814524Y-6551920D02*
X5833571Y-6561444D01*
X5871667Y-6561444D01*
X5890714Y-6551920D01*
X5900238Y-6532873D01*
X5900238Y-6523349D01*
X5890714Y-6504301D01*
X5871667Y-6494777D01*
X5843095Y-6494777D01*
X5824048Y-6485254D01*
X5814524Y-6466206D01*
X5814524Y-6456682D01*
X5824048Y-6437635D01*
X5843095Y-6428111D01*
X5871667Y-6428111D01*
X5890714Y-6437635D01*
X5966905Y-6637635D02*
X5976428Y-6628111D01*
X5995476Y-6599539D01*
X6005000Y-6580492D01*
X6014524Y-6551920D01*
X6024048Y-6504301D01*
X6024048Y-6466206D01*
X6014524Y-6418587D01*
X6005000Y-6390016D01*
X5995476Y-6370968D01*
X5976428Y-6342396D01*
X5966905Y-6332873D01*
D10*
X1180356Y-6770324D02*
X1180356Y-6699612D01*
X1109644Y-6699612D01*
X1109644Y-6770324D01*
X1180356Y-6770324D01*
D11*
X1557381Y-6825444D02*
X1443095Y-6825444D01*
X1500238Y-6825444D02*
X1500238Y-6625444D01*
X1481190Y-6654016D01*
X1462143Y-6673063D01*
X1443095Y-6682587D01*
X1643095Y-6806396D02*
X1652619Y-6815920D01*
X1643095Y-6825444D01*
X1633571Y-6815920D01*
X1643095Y-6806396D01*
X1643095Y-6825444D01*
X1776428Y-6625444D02*
X1795476Y-6625444D01*
X1814524Y-6634968D01*
X1824048Y-6644492D01*
X1833571Y-6663539D01*
X1843095Y-6701635D01*
X1843095Y-6749254D01*
X1833571Y-6787349D01*
X1824048Y-6806396D01*
X1814524Y-6815920D01*
X1795476Y-6825444D01*
X1776428Y-6825444D01*
X1757381Y-6815920D01*
X1747857Y-6806396D01*
X1738333Y-6787349D01*
X1728809Y-6749254D01*
X1728809Y-6701635D01*
X1738333Y-6663539D01*
X1747857Y-6644492D01*
X1757381Y-6634968D01*
X1776428Y-6625444D01*
X1966905Y-6625444D02*
X1985952Y-6625444D01*
X2005000Y-6634968D01*
X2014524Y-6644492D01*
X2024048Y-6663539D01*
X2033571Y-6701635D01*
X2033571Y-6749254D01*
X2024048Y-6787349D01*
X2014524Y-6806396D01*
X2005000Y-6815920D01*
X1985952Y-6825444D01*
X1966905Y-6825444D01*
X1947857Y-6815920D01*
X1938333Y-6806396D01*
X1928809Y-6787349D01*
X1919286Y-6749254D01*
X1919286Y-6701635D01*
X1928809Y-6663539D01*
X1938333Y-6644492D01*
X1947857Y-6634968D01*
X1966905Y-6625444D01*
X2157381Y-6625444D02*
X2176429Y-6625444D01*
X2195476Y-6634968D01*
X2205000Y-6644492D01*
X2214524Y-6663539D01*
X2224048Y-6701635D01*
X2224048Y-6749254D01*
X2214524Y-6787349D01*
X2205000Y-6806396D01*
X2195476Y-6815920D01*
X2176429Y-6825444D01*
X2157381Y-6825444D01*
X2138333Y-6815920D01*
X2128810Y-6806396D01*
X2119286Y-6787349D01*
X2109762Y-6749254D01*
X2109762Y-6701635D01*
X2119286Y-6663539D01*
X2128810Y-6644492D01*
X2138333Y-6634968D01*
X2157381Y-6625444D01*
X2309762Y-6825444D02*
X2309762Y-6692111D01*
X2309762Y-6711158D02*
X2319286Y-6701635D01*
X2338333Y-6692111D01*
X2366905Y-6692111D01*
X2385952Y-6701635D01*
X2395476Y-6720682D01*
X2395476Y-6825444D01*
X2395476Y-6720682D02*
X2405000Y-6701635D01*
X2424048Y-6692111D01*
X2452619Y-6692111D01*
X2471667Y-6701635D01*
X2481190Y-6720682D01*
X2481190Y-6825444D01*
X2576429Y-6825444D02*
X2576429Y-6692111D01*
X2576429Y-6711158D02*
X2585952Y-6701635D01*
X2605000Y-6692111D01*
X2633571Y-6692111D01*
X2652619Y-6701635D01*
X2662143Y-6720682D01*
X2662143Y-6825444D01*
X2662143Y-6720682D02*
X2671667Y-6701635D01*
X2690714Y-6692111D01*
X2719286Y-6692111D01*
X2738333Y-6701635D01*
X2747857Y-6720682D01*
X2747857Y-6825444D01*
X3138333Y-6615920D02*
X2966905Y-6873063D01*
X3395476Y-6625444D02*
X3414524Y-6625444D01*
X3433571Y-6634968D01*
X3443095Y-6644492D01*
X3452619Y-6663539D01*
X3462143Y-6701635D01*
X3462143Y-6749254D01*
X3452619Y-6787349D01*
X3443095Y-6806396D01*
X3433571Y-6815920D01*
X3414524Y-6825444D01*
X3395476Y-6825444D01*
X3376428Y-6815920D01*
X3366905Y-6806396D01*
X3357381Y-6787349D01*
X3347857Y-6749254D01*
X3347857Y-6701635D01*
X3357381Y-6663539D01*
X3366905Y-6644492D01*
X3376428Y-6634968D01*
X3395476Y-6625444D01*
X3547857Y-6806396D02*
X3557381Y-6815920D01*
X3547857Y-6825444D01*
X3538333Y-6815920D01*
X3547857Y-6806396D01*
X3547857Y-6825444D01*
X3681190Y-6625444D02*
X3700238Y-6625444D01*
X3719286Y-6634968D01*
X3728809Y-6644492D01*
X3738333Y-6663539D01*
X3747857Y-6701635D01*
X3747857Y-6749254D01*
X3738333Y-6787349D01*
X3728809Y-6806396D01*
X3719286Y-6815920D01*
X3700238Y-6825444D01*
X3681190Y-6825444D01*
X3662143Y-6815920D01*
X3652619Y-6806396D01*
X3643095Y-6787349D01*
X3633571Y-6749254D01*
X3633571Y-6701635D01*
X3643095Y-6663539D01*
X3652619Y-6644492D01*
X3662143Y-6634968D01*
X3681190Y-6625444D01*
X3814524Y-6625444D02*
X3938333Y-6625444D01*
X3871667Y-6701635D01*
X3900238Y-6701635D01*
X3919286Y-6711158D01*
X3928809Y-6720682D01*
X3938333Y-6739730D01*
X3938333Y-6787349D01*
X3928809Y-6806396D01*
X3919286Y-6815920D01*
X3900238Y-6825444D01*
X3843095Y-6825444D01*
X3824048Y-6815920D01*
X3814524Y-6806396D01*
X4033571Y-6825444D02*
X4071667Y-6825444D01*
X4090714Y-6815920D01*
X4100238Y-6806396D01*
X4119286Y-6777825D01*
X4128809Y-6739730D01*
X4128809Y-6663539D01*
X4119286Y-6644492D01*
X4109762Y-6634968D01*
X4090714Y-6625444D01*
X4052619Y-6625444D01*
X4033571Y-6634968D01*
X4024048Y-6644492D01*
X4014524Y-6663539D01*
X4014524Y-6711158D01*
X4024048Y-6730206D01*
X4033571Y-6739730D01*
X4052619Y-6749254D01*
X4090714Y-6749254D01*
X4109762Y-6739730D01*
X4119286Y-6730206D01*
X4128809Y-6711158D01*
X4300238Y-6692111D02*
X4300238Y-6825444D01*
X4252619Y-6615920D02*
X4205000Y-6758777D01*
X4328810Y-6758777D01*
X4395476Y-6625444D02*
X4395476Y-6663539D01*
X4471667Y-6625444D02*
X4471667Y-6663539D01*
X4766905Y-6901635D02*
X4757381Y-6892111D01*
X4738333Y-6863539D01*
X4728810Y-6844492D01*
X4719286Y-6815920D01*
X4709762Y-6768301D01*
X4709762Y-6730206D01*
X4719286Y-6682587D01*
X4728810Y-6654016D01*
X4738333Y-6634968D01*
X4757381Y-6606396D01*
X4766905Y-6596873D01*
X4824048Y-6625444D02*
X4947857Y-6625444D01*
X4881190Y-6701635D01*
X4909762Y-6701635D01*
X4928810Y-6711158D01*
X4938333Y-6720682D01*
X4947857Y-6739730D01*
X4947857Y-6787349D01*
X4938333Y-6806396D01*
X4928810Y-6815920D01*
X4909762Y-6825444D01*
X4852619Y-6825444D01*
X4833571Y-6815920D01*
X4824048Y-6806396D01*
X5185952Y-6825444D02*
X5185952Y-6625444D01*
X5271667Y-6825444D02*
X5271667Y-6720682D01*
X5262143Y-6701635D01*
X5243095Y-6692111D01*
X5214524Y-6692111D01*
X5195476Y-6701635D01*
X5185952Y-6711158D01*
X5395476Y-6825444D02*
X5376429Y-6815920D01*
X5366905Y-6806396D01*
X5357381Y-6787349D01*
X5357381Y-6730206D01*
X5366905Y-6711158D01*
X5376429Y-6701635D01*
X5395476Y-6692111D01*
X5424048Y-6692111D01*
X5443095Y-6701635D01*
X5452619Y-6711158D01*
X5462143Y-6730206D01*
X5462143Y-6787349D01*
X5452619Y-6806396D01*
X5443095Y-6815920D01*
X5424048Y-6825444D01*
X5395476Y-6825444D01*
X5576429Y-6825444D02*
X5557381Y-6815920D01*
X5547857Y-6796873D01*
X5547857Y-6625444D01*
X5728809Y-6815920D02*
X5709762Y-6825444D01*
X5671667Y-6825444D01*
X5652619Y-6815920D01*
X5643095Y-6796873D01*
X5643095Y-6720682D01*
X5652619Y-6701635D01*
X5671667Y-6692111D01*
X5709762Y-6692111D01*
X5728809Y-6701635D01*
X5738333Y-6720682D01*
X5738333Y-6739730D01*
X5643095Y-6758777D01*
X5814524Y-6815920D02*
X5833571Y-6825444D01*
X5871667Y-6825444D01*
X5890714Y-6815920D01*
X5900238Y-6796873D01*
X5900238Y-6787349D01*
X5890714Y-6768301D01*
X5871667Y-6758777D01*
X5843095Y-6758777D01*
X5824048Y-6749254D01*
X5814524Y-6730206D01*
X5814524Y-6720682D01*
X5824048Y-6701635D01*
X5843095Y-6692111D01*
X5871667Y-6692111D01*
X5890714Y-6701635D01*
X5966905Y-6901635D02*
X5976428Y-6892111D01*
X5995476Y-6863539D01*
X6005000Y-6844492D01*
X6014524Y-6815920D01*
X6024048Y-6768301D01*
X6024048Y-6730206D01*
X6014524Y-6682587D01*
X6005000Y-6654016D01*
X5995476Y-6634968D01*
X5976428Y-6606396D01*
X5966905Y-6596873D01*
X1095000Y-7098968D02*
X1195000Y-6998968D01*
X1095000Y-6898968D01*
X995000Y-6998968D01*
X1095000Y-7098968D01*
X1433571Y-6889444D02*
X1557381Y-6889444D01*
X1490714Y-6965635D01*
X1519286Y-6965635D01*
X1538333Y-6975158D01*
X1547857Y-6984682D01*
X1557381Y-7003730D01*
X1557381Y-7051349D01*
X1547857Y-7070396D01*
X1538333Y-7079920D01*
X1519286Y-7089444D01*
X1462143Y-7089444D01*
X1443095Y-7079920D01*
X1433571Y-7070396D01*
X1643095Y-7070396D02*
X1652619Y-7079920D01*
X1643095Y-7089444D01*
X1633571Y-7079920D01*
X1643095Y-7070396D01*
X1643095Y-7089444D01*
X1728809Y-6908492D02*
X1738333Y-6898968D01*
X1757381Y-6889444D01*
X1805000Y-6889444D01*
X1824048Y-6898968D01*
X1833571Y-6908492D01*
X1843095Y-6927539D01*
X1843095Y-6946587D01*
X1833571Y-6975158D01*
X1719286Y-7089444D01*
X1843095Y-7089444D01*
X1966905Y-6889444D02*
X1985952Y-6889444D01*
X2005000Y-6898968D01*
X2014524Y-6908492D01*
X2024048Y-6927539D01*
X2033571Y-6965635D01*
X2033571Y-7013254D01*
X2024048Y-7051349D01*
X2014524Y-7070396D01*
X2005000Y-7079920D01*
X1985952Y-7089444D01*
X1966905Y-7089444D01*
X1947857Y-7079920D01*
X1938333Y-7070396D01*
X1928809Y-7051349D01*
X1919286Y-7013254D01*
X1919286Y-6965635D01*
X1928809Y-6927539D01*
X1938333Y-6908492D01*
X1947857Y-6898968D01*
X1966905Y-6889444D01*
X2157381Y-6889444D02*
X2176429Y-6889444D01*
X2195476Y-6898968D01*
X2205000Y-6908492D01*
X2214524Y-6927539D01*
X2224048Y-6965635D01*
X2224048Y-7013254D01*
X2214524Y-7051349D01*
X2205000Y-7070396D01*
X2195476Y-7079920D01*
X2176429Y-7089444D01*
X2157381Y-7089444D01*
X2138333Y-7079920D01*
X2128810Y-7070396D01*
X2119286Y-7051349D01*
X2109762Y-7013254D01*
X2109762Y-6965635D01*
X2119286Y-6927539D01*
X2128810Y-6908492D01*
X2138333Y-6898968D01*
X2157381Y-6889444D01*
X2309762Y-7089444D02*
X2309762Y-6956111D01*
X2309762Y-6975158D02*
X2319286Y-6965635D01*
X2338333Y-6956111D01*
X2366905Y-6956111D01*
X2385952Y-6965635D01*
X2395476Y-6984682D01*
X2395476Y-7089444D01*
X2395476Y-6984682D02*
X2405000Y-6965635D01*
X2424048Y-6956111D01*
X2452619Y-6956111D01*
X2471667Y-6965635D01*
X2481190Y-6984682D01*
X2481190Y-7089444D01*
X2576429Y-7089444D02*
X2576429Y-6956111D01*
X2576429Y-6975158D02*
X2585952Y-6965635D01*
X2605000Y-6956111D01*
X2633571Y-6956111D01*
X2652619Y-6965635D01*
X2662143Y-6984682D01*
X2662143Y-7089444D01*
X2662143Y-6984682D02*
X2671667Y-6965635D01*
X2690714Y-6956111D01*
X2719286Y-6956111D01*
X2738333Y-6965635D01*
X2747857Y-6984682D01*
X2747857Y-7089444D01*
X3138333Y-6879920D02*
X2966905Y-7137063D01*
X3395476Y-6889444D02*
X3414524Y-6889444D01*
X3433571Y-6898968D01*
X3443095Y-6908492D01*
X3452619Y-6927539D01*
X3462143Y-6965635D01*
X3462143Y-7013254D01*
X3452619Y-7051349D01*
X3443095Y-7070396D01*
X3433571Y-7079920D01*
X3414524Y-7089444D01*
X3395476Y-7089444D01*
X3376428Y-7079920D01*
X3366905Y-7070396D01*
X3357381Y-7051349D01*
X3347857Y-7013254D01*
X3347857Y-6965635D01*
X3357381Y-6927539D01*
X3366905Y-6908492D01*
X3376428Y-6898968D01*
X3395476Y-6889444D01*
X3547857Y-7070396D02*
X3557381Y-7079920D01*
X3547857Y-7089444D01*
X3538333Y-7079920D01*
X3547857Y-7070396D01*
X3547857Y-7089444D01*
X3747857Y-7089444D02*
X3633571Y-7089444D01*
X3690714Y-7089444D02*
X3690714Y-6889444D01*
X3671667Y-6918016D01*
X3652619Y-6937063D01*
X3633571Y-6946587D01*
X3824048Y-6908492D02*
X3833571Y-6898968D01*
X3852619Y-6889444D01*
X3900238Y-6889444D01*
X3919286Y-6898968D01*
X3928809Y-6908492D01*
X3938333Y-6927539D01*
X3938333Y-6946587D01*
X3928809Y-6975158D01*
X3814524Y-7089444D01*
X3938333Y-7089444D01*
X4109762Y-6889444D02*
X4071667Y-6889444D01*
X4052619Y-6898968D01*
X4043095Y-6908492D01*
X4024048Y-6937063D01*
X4014524Y-6975158D01*
X4014524Y-7051349D01*
X4024048Y-7070396D01*
X4033571Y-7079920D01*
X4052619Y-7089444D01*
X4090714Y-7089444D01*
X4109762Y-7079920D01*
X4119286Y-7070396D01*
X4128809Y-7051349D01*
X4128809Y-7003730D01*
X4119286Y-6984682D01*
X4109762Y-6975158D01*
X4090714Y-6965635D01*
X4052619Y-6965635D01*
X4033571Y-6975158D01*
X4024048Y-6984682D01*
X4014524Y-7003730D01*
X4252619Y-6889444D02*
X4271667Y-6889444D01*
X4290714Y-6898968D01*
X4300238Y-6908492D01*
X4309762Y-6927539D01*
X4319286Y-6965635D01*
X4319286Y-7013254D01*
X4309762Y-7051349D01*
X4300238Y-7070396D01*
X4290714Y-7079920D01*
X4271667Y-7089444D01*
X4252619Y-7089444D01*
X4233571Y-7079920D01*
X4224048Y-7070396D01*
X4214524Y-7051349D01*
X4205000Y-7013254D01*
X4205000Y-6965635D01*
X4214524Y-6927539D01*
X4224048Y-6908492D01*
X4233571Y-6898968D01*
X4252619Y-6889444D01*
X4395476Y-6889444D02*
X4395476Y-6927539D01*
X4471667Y-6889444D02*
X4471667Y-6927539D01*
X4766905Y-7165635D02*
X4757381Y-7156111D01*
X4738333Y-7127539D01*
X4728810Y-7108492D01*
X4719286Y-7079920D01*
X4709762Y-7032301D01*
X4709762Y-6994206D01*
X4719286Y-6946587D01*
X4728810Y-6918016D01*
X4738333Y-6898968D01*
X4757381Y-6870396D01*
X4766905Y-6860873D01*
X4938333Y-6889444D02*
X4843095Y-6889444D01*
X4833571Y-6984682D01*
X4843095Y-6975158D01*
X4862143Y-6965635D01*
X4909762Y-6965635D01*
X4928810Y-6975158D01*
X4938333Y-6984682D01*
X4947857Y-7003730D01*
X4947857Y-7051349D01*
X4938333Y-7070396D01*
X4928810Y-7079920D01*
X4909762Y-7089444D01*
X4862143Y-7089444D01*
X4843095Y-7079920D01*
X4833571Y-7070396D01*
X5185952Y-7089444D02*
X5185952Y-6889444D01*
X5271667Y-7089444D02*
X5271667Y-6984682D01*
X5262143Y-6965635D01*
X5243095Y-6956111D01*
X5214524Y-6956111D01*
X5195476Y-6965635D01*
X5185952Y-6975158D01*
X5395476Y-7089444D02*
X5376429Y-7079920D01*
X5366905Y-7070396D01*
X5357381Y-7051349D01*
X5357381Y-6994206D01*
X5366905Y-6975158D01*
X5376429Y-6965635D01*
X5395476Y-6956111D01*
X5424048Y-6956111D01*
X5443095Y-6965635D01*
X5452619Y-6975158D01*
X5462143Y-6994206D01*
X5462143Y-7051349D01*
X5452619Y-7070396D01*
X5443095Y-7079920D01*
X5424048Y-7089444D01*
X5395476Y-7089444D01*
X5576429Y-7089444D02*
X5557381Y-7079920D01*
X5547857Y-7060873D01*
X5547857Y-6889444D01*
X5728809Y-7079920D02*
X5709762Y-7089444D01*
X5671667Y-7089444D01*
X5652619Y-7079920D01*
X5643095Y-7060873D01*
X5643095Y-6984682D01*
X5652619Y-6965635D01*
X5671667Y-6956111D01*
X5709762Y-6956111D01*
X5728809Y-6965635D01*
X5738333Y-6984682D01*
X5738333Y-7003730D01*
X5643095Y-7022777D01*
X5814524Y-7079920D02*
X5833571Y-7089444D01*
X5871667Y-7089444D01*
X5890714Y-7079920D01*
X5900238Y-7060873D01*
X5900238Y-7051349D01*
X5890714Y-7032301D01*
X5871667Y-7022777D01*
X5843095Y-7022777D01*
X5824048Y-7013254D01*
X5814524Y-6994206D01*
X5814524Y-6984682D01*
X5824048Y-6965635D01*
X5843095Y-6956111D01*
X5871667Y-6956111D01*
X5890714Y-6965635D01*
X5966905Y-7165635D02*
X5976428Y-7156111D01*
X5995476Y-7127539D01*
X6005000Y-7108492D01*
X6014524Y-7079920D01*
X6024048Y-7032301D01*
X6024048Y-6994206D01*
X6014524Y-6946587D01*
X6005000Y-6918016D01*
X5995476Y-6898968D01*
X5976428Y-6870396D01*
X5966905Y-6860873D01*
M02*
