G04 #@! TF.GenerationSoftware,KiCad,Pcbnew,6.0.10*
G04 #@! TF.CreationDate,2023-01-08T03:35:34+01:00*
G04 #@! TF.ProjectId,ideal_diode,69646561-6c5f-4646-996f-64652e6b6963,rev?*
G04 #@! TF.SameCoordinates,Original*
G04 #@! TF.FileFunction,Legend,Top*
G04 #@! TF.FilePolarity,Positive*
%FSLAX46Y46*%
G04 Gerber Fmt 4.6, Leading zero omitted, Abs format (unit mm)*
G04 Created by KiCad (PCBNEW 6.0.10) date 2023-01-08 03:35:34*
%MOMM*%
%LPD*%
G01*
G04 APERTURE LIST*
G04 Aperture macros list*
%AMRoundRect*
0 Rectangle with rounded corners*
0 $1 Rounding radius*
0 $2 $3 $4 $5 $6 $7 $8 $9 X,Y pos of 4 corners*
0 Add a 4 corners polygon primitive as box body*
4,1,4,$2,$3,$4,$5,$6,$7,$8,$9,$2,$3,0*
0 Add four circle primitives for the rounded corners*
1,1,$1+$1,$2,$3*
1,1,$1+$1,$4,$5*
1,1,$1+$1,$6,$7*
1,1,$1+$1,$8,$9*
0 Add four rect primitives between the rounded corners*
20,1,$1+$1,$2,$3,$4,$5,0*
20,1,$1+$1,$4,$5,$6,$7,0*
20,1,$1+$1,$6,$7,$8,$9,0*
20,1,$1+$1,$8,$9,$2,$3,0*%
G04 Aperture macros list end*
%ADD10C,0.150000*%
%ADD11C,0.120000*%
%ADD12RoundRect,0.250000X0.625000X-0.312500X0.625000X0.312500X-0.625000X0.312500X-0.625000X-0.312500X0*%
%ADD13RoundRect,0.250000X-0.625000X0.312500X-0.625000X-0.312500X0.625000X-0.312500X0.625000X0.312500X0*%
%ADD14C,2.000000*%
%ADD15R,0.600000X0.400000*%
%ADD16C,0.800000*%
%ADD17C,6.400000*%
%ADD18RoundRect,0.250000X0.312500X0.625000X-0.312500X0.625000X-0.312500X-0.625000X0.312500X-0.625000X0*%
%ADD19RoundRect,0.150000X0.150000X-0.587500X0.150000X0.587500X-0.150000X0.587500X-0.150000X-0.587500X0*%
%ADD20RoundRect,0.225000X0.225000X0.250000X-0.225000X0.250000X-0.225000X-0.250000X0.225000X-0.250000X0*%
%ADD21R,1.250000X2.850000*%
%ADD22R,5.550000X6.500000*%
%ADD23R,1.600000X1.600000*%
%ADD24O,1.600000X1.600000*%
%ADD25RoundRect,0.150000X-0.150000X0.587500X-0.150000X-0.587500X0.150000X-0.587500X0.150000X0.587500X0*%
G04 APERTURE END LIST*
D10*
X19700000Y-16250000D02*
X23298989Y-16250000D01*
X23750000Y-47000000D02*
X26250000Y-48750000D01*
X26250000Y-48750000D02*
X30000000Y-48750000D01*
X26250000Y-48750000D02*
X23750000Y-50500000D01*
X30250000Y-16250000D02*
X26500551Y-16250000D01*
X20750000Y-42149219D02*
X20750000Y-38750000D01*
X20750000Y-45350781D02*
X20750000Y-48750000D01*
X20750000Y-38750000D02*
X19750000Y-38750000D01*
X20000000Y-48750000D02*
X23750000Y-48750000D01*
X23750000Y-47000000D02*
X23750000Y-50500000D01*
X26250000Y-47000000D02*
X26250000Y-50500000D01*
X22350781Y-43750000D02*
G75*
G03*
X22350781Y-43750000I-1600781J0D01*
G01*
X26500551Y-16250000D02*
G75*
G03*
X26500551Y-16250000I-1600781J0D01*
G01*
X20369047Y-43016428D02*
X21130952Y-43016428D01*
X20750000Y-43397380D02*
X20750000Y-42635476D01*
X20369047Y-44626428D02*
X21130952Y-44626428D01*
X24166198Y-16630952D02*
X24166198Y-15869047D01*
X24547150Y-16250000D02*
X23785246Y-16250000D01*
X25776198Y-16630952D02*
X25776198Y-15869047D01*
X17500000Y-34147380D02*
X17500000Y-33147380D01*
X18404761Y-34147380D02*
X18404761Y-33147380D01*
X18404761Y-34099761D02*
X18309523Y-34147380D01*
X18119047Y-34147380D01*
X18023809Y-34099761D01*
X17976190Y-34052142D01*
X17928571Y-33956904D01*
X17928571Y-33671190D01*
X17976190Y-33575952D01*
X18023809Y-33528333D01*
X18119047Y-33480714D01*
X18309523Y-33480714D01*
X18404761Y-33528333D01*
X19261904Y-34099761D02*
X19166666Y-34147380D01*
X18976190Y-34147380D01*
X18880952Y-34099761D01*
X18833333Y-34004523D01*
X18833333Y-33623571D01*
X18880952Y-33528333D01*
X18976190Y-33480714D01*
X19166666Y-33480714D01*
X19261904Y-33528333D01*
X19309523Y-33623571D01*
X19309523Y-33718809D01*
X18833333Y-33814047D01*
X20166666Y-34147380D02*
X20166666Y-33623571D01*
X20119047Y-33528333D01*
X20023809Y-33480714D01*
X19833333Y-33480714D01*
X19738095Y-33528333D01*
X20166666Y-34099761D02*
X20071428Y-34147380D01*
X19833333Y-34147380D01*
X19738095Y-34099761D01*
X19690476Y-34004523D01*
X19690476Y-33909285D01*
X19738095Y-33814047D01*
X19833333Y-33766428D01*
X20071428Y-33766428D01*
X20166666Y-33718809D01*
X20785714Y-34147380D02*
X20690476Y-34099761D01*
X20642857Y-34004523D01*
X20642857Y-33147380D01*
X22357142Y-34147380D02*
X22357142Y-33147380D01*
X22357142Y-34099761D02*
X22261904Y-34147380D01*
X22071428Y-34147380D01*
X21976190Y-34099761D01*
X21928571Y-34052142D01*
X21880952Y-33956904D01*
X21880952Y-33671190D01*
X21928571Y-33575952D01*
X21976190Y-33528333D01*
X22071428Y-33480714D01*
X22261904Y-33480714D01*
X22357142Y-33528333D01*
X22833333Y-34147380D02*
X22833333Y-33480714D01*
X22833333Y-33147380D02*
X22785714Y-33195000D01*
X22833333Y-33242619D01*
X22880952Y-33195000D01*
X22833333Y-33147380D01*
X22833333Y-33242619D01*
X23452380Y-34147380D02*
X23357142Y-34099761D01*
X23309523Y-34052142D01*
X23261904Y-33956904D01*
X23261904Y-33671190D01*
X23309523Y-33575952D01*
X23357142Y-33528333D01*
X23452380Y-33480714D01*
X23595238Y-33480714D01*
X23690476Y-33528333D01*
X23738095Y-33575952D01*
X23785714Y-33671190D01*
X23785714Y-33956904D01*
X23738095Y-34052142D01*
X23690476Y-34099761D01*
X23595238Y-34147380D01*
X23452380Y-34147380D01*
X24642857Y-34147380D02*
X24642857Y-33147380D01*
X24642857Y-34099761D02*
X24547619Y-34147380D01*
X24357142Y-34147380D01*
X24261904Y-34099761D01*
X24214285Y-34052142D01*
X24166666Y-33956904D01*
X24166666Y-33671190D01*
X24214285Y-33575952D01*
X24261904Y-33528333D01*
X24357142Y-33480714D01*
X24547619Y-33480714D01*
X24642857Y-33528333D01*
X25500000Y-34099761D02*
X25404761Y-34147380D01*
X25214285Y-34147380D01*
X25119047Y-34099761D01*
X25071428Y-34004523D01*
X25071428Y-33623571D01*
X25119047Y-33528333D01*
X25214285Y-33480714D01*
X25404761Y-33480714D01*
X25500000Y-33528333D01*
X25547619Y-33623571D01*
X25547619Y-33718809D01*
X25071428Y-33814047D01*
X19023809Y-34757380D02*
X18833333Y-34757380D01*
X18738095Y-34805000D01*
X18690476Y-34852619D01*
X18595238Y-34995476D01*
X18547619Y-35185952D01*
X18547619Y-35566904D01*
X18595238Y-35662142D01*
X18642857Y-35709761D01*
X18738095Y-35757380D01*
X18928571Y-35757380D01*
X19023809Y-35709761D01*
X19071428Y-35662142D01*
X19119047Y-35566904D01*
X19119047Y-35328809D01*
X19071428Y-35233571D01*
X19023809Y-35185952D01*
X18928571Y-35138333D01*
X18738095Y-35138333D01*
X18642857Y-35185952D01*
X18595238Y-35233571D01*
X18547619Y-35328809D01*
X19738095Y-34757380D02*
X19833333Y-34757380D01*
X19928571Y-34805000D01*
X19976190Y-34852619D01*
X20023809Y-34947857D01*
X20071428Y-35138333D01*
X20071428Y-35376428D01*
X20023809Y-35566904D01*
X19976190Y-35662142D01*
X19928571Y-35709761D01*
X19833333Y-35757380D01*
X19738095Y-35757380D01*
X19642857Y-35709761D01*
X19595238Y-35662142D01*
X19547619Y-35566904D01*
X19500000Y-35376428D01*
X19500000Y-35138333D01*
X19547619Y-34947857D01*
X19595238Y-34852619D01*
X19642857Y-34805000D01*
X19738095Y-34757380D01*
X20690476Y-34757380D02*
X20785714Y-34757380D01*
X20880952Y-34805000D01*
X20928571Y-34852619D01*
X20976190Y-34947857D01*
X21023809Y-35138333D01*
X21023809Y-35376428D01*
X20976190Y-35566904D01*
X20928571Y-35662142D01*
X20880952Y-35709761D01*
X20785714Y-35757380D01*
X20690476Y-35757380D01*
X20595238Y-35709761D01*
X20547619Y-35662142D01*
X20500000Y-35566904D01*
X20452380Y-35376428D01*
X20452380Y-35138333D01*
X20500000Y-34947857D01*
X20547619Y-34852619D01*
X20595238Y-34805000D01*
X20690476Y-34757380D01*
X21309523Y-34757380D02*
X21642857Y-35757380D01*
X21976190Y-34757380D01*
X23023809Y-34852619D02*
X23071428Y-34805000D01*
X23166666Y-34757380D01*
X23404761Y-34757380D01*
X23500000Y-34805000D01*
X23547619Y-34852619D01*
X23595238Y-34947857D01*
X23595238Y-35043095D01*
X23547619Y-35185952D01*
X22976190Y-35757380D01*
X23595238Y-35757380D01*
X23976190Y-35471666D02*
X24452380Y-35471666D01*
X23880952Y-35757380D02*
X24214285Y-34757380D01*
X24547619Y-35757380D01*
X24709293Y-13202380D02*
X24233103Y-13202380D01*
X24185484Y-13678571D01*
X24233103Y-13630952D01*
X24328341Y-13583333D01*
X24566436Y-13583333D01*
X24661674Y-13630952D01*
X24709293Y-13678571D01*
X24756912Y-13773809D01*
X24756912Y-14011904D01*
X24709293Y-14107142D01*
X24661674Y-14154761D01*
X24566436Y-14202380D01*
X24328341Y-14202380D01*
X24233103Y-14154761D01*
X24185484Y-14107142D01*
X25042627Y-13202380D02*
X25375960Y-14202380D01*
X25709293Y-13202380D01*
X23559523Y-43202380D02*
X23083333Y-43202380D01*
X23035714Y-43678571D01*
X23083333Y-43630952D01*
X23178571Y-43583333D01*
X23416666Y-43583333D01*
X23511904Y-43630952D01*
X23559523Y-43678571D01*
X23607142Y-43773809D01*
X23607142Y-44011904D01*
X23559523Y-44107142D01*
X23511904Y-44154761D01*
X23416666Y-44202380D01*
X23178571Y-44202380D01*
X23083333Y-44154761D01*
X23035714Y-44107142D01*
X23892857Y-43202380D02*
X24226190Y-44202380D01*
X24559523Y-43202380D01*
D11*
X34889770Y-38977064D02*
X34889770Y-37522936D01*
X36709770Y-38977064D02*
X36709770Y-37522936D01*
X26610000Y-23510436D02*
X26610000Y-24964564D01*
X24790000Y-23510436D02*
X24790000Y-24964564D01*
X37099770Y-34354770D02*
G75*
G03*
X37099770Y-34354770I-1400000J0D01*
G01*
X27299770Y-28100000D02*
G75*
G03*
X27299770Y-28100000I-1400000J0D01*
G01*
X33399770Y-28769770D02*
X31199770Y-28769770D01*
X31739770Y-31789770D02*
X33459770Y-31789770D01*
X34789770Y-25090206D02*
X34789770Y-26544334D01*
X36609770Y-25090206D02*
X36609770Y-26544334D01*
X29264334Y-31689770D02*
X27810206Y-31689770D01*
X29264334Y-29869770D02*
X27810206Y-29869770D01*
X27607270Y-27504770D02*
X27607270Y-29179770D01*
X27607270Y-27504770D02*
X27607270Y-26854770D01*
X30727270Y-27504770D02*
X30727270Y-28154770D01*
X30727270Y-27504770D02*
X30727270Y-26854770D01*
X29565580Y-24290000D02*
X29284420Y-24290000D01*
X29565580Y-25310000D02*
X29284420Y-25310000D01*
X26537270Y-35834770D02*
X26807270Y-35834770D01*
X33167270Y-35834770D02*
X33167270Y-33004770D01*
X33437270Y-35834770D02*
X33167270Y-35834770D01*
X26807270Y-35834770D02*
X26807270Y-34734770D01*
X26537270Y-37334770D02*
X26537270Y-35834770D01*
X33437270Y-37334770D02*
X33437270Y-35834770D01*
X34889770Y-43727064D02*
X34889770Y-42272936D01*
X36709770Y-43727064D02*
X36709770Y-42272936D01*
X36609770Y-29790206D02*
X36609770Y-31244334D01*
X34789770Y-29790206D02*
X34789770Y-31244334D01*
X18289770Y-21109770D02*
X16639770Y-21109770D01*
X16639770Y-21109770D02*
X16639770Y-31389770D01*
X21939770Y-31389770D02*
X21939770Y-21109770D01*
X16639770Y-31389770D02*
X21939770Y-31389770D01*
X21939770Y-21109770D02*
X20289770Y-21109770D01*
X18289770Y-21109770D02*
G75*
G03*
X20289770Y-21109770I1000000J0D01*
G01*
X31207270Y-26604770D02*
X31207270Y-25954770D01*
X34327270Y-26604770D02*
X34327270Y-24929770D01*
X31207270Y-26604770D02*
X31207270Y-27254770D01*
X34327270Y-26604770D02*
X34327270Y-27254770D01*
X27100000Y-20300000D02*
G75*
G03*
X27100000Y-20300000I-1400000J0D01*
G01*
%LPC*%
D12*
X35799770Y-39712500D03*
X35799770Y-36787500D03*
D13*
X25700000Y-22775000D03*
X25700000Y-25700000D03*
D14*
X35699770Y-34354770D03*
X25899770Y-28100000D03*
D15*
X31499770Y-29329770D03*
X31499770Y-30279770D03*
X31499770Y-31229770D03*
X33699770Y-31229770D03*
X33699770Y-29329770D03*
D16*
X33699770Y-18599770D03*
X33699770Y-13799770D03*
X32002714Y-17896826D03*
X35396826Y-14502714D03*
D17*
X33699770Y-16199770D03*
D16*
X36099770Y-16199770D03*
X35396826Y-17896826D03*
X31299770Y-16199770D03*
X32002714Y-14502714D03*
D13*
X35699770Y-24354770D03*
X35699770Y-27279770D03*
D18*
X29999770Y-30779770D03*
X27074770Y-30779770D03*
D19*
X28217270Y-28442270D03*
X30117270Y-28442270D03*
X29167270Y-26567270D03*
D20*
X30200000Y-24800000D03*
X28650000Y-24800000D03*
D21*
X32267270Y-34004770D03*
D22*
X29987270Y-40404770D03*
D21*
X27707270Y-34004770D03*
D16*
X17896826Y-17896826D03*
X16199770Y-13799770D03*
X18599770Y-16199770D03*
X17896826Y-14502714D03*
X14502714Y-14502714D03*
X14502714Y-17896826D03*
D17*
X16199770Y-16199770D03*
D16*
X16199770Y-18599770D03*
X13799770Y-16199770D03*
D12*
X35799770Y-44462500D03*
X35799770Y-41537500D03*
D16*
X17896826Y-37082714D03*
X14502714Y-40476826D03*
X16199770Y-41179770D03*
X18599770Y-38779770D03*
X14502714Y-37082714D03*
X13799770Y-38779770D03*
X17896826Y-40476826D03*
D17*
X16199770Y-38779770D03*
D16*
X16199770Y-36379770D03*
D13*
X35699770Y-29054770D03*
X35699770Y-31979770D03*
D17*
X16199770Y-48779770D03*
D16*
X16199770Y-46379770D03*
X13799770Y-48779770D03*
X17896826Y-50476826D03*
X18599770Y-48779770D03*
X16199770Y-51179770D03*
X14502714Y-50476826D03*
X17896826Y-47082714D03*
X14502714Y-47082714D03*
D23*
X15479770Y-22439770D03*
D24*
X15479770Y-30059770D03*
X23099770Y-30059770D03*
X23099770Y-24979770D03*
D25*
X33717270Y-25667270D03*
X31817270Y-25667270D03*
X32767270Y-27542270D03*
D16*
X31299770Y-48779770D03*
X32002714Y-47082714D03*
X33699770Y-46379770D03*
X33699770Y-51179770D03*
X36099770Y-48779770D03*
X35396826Y-47082714D03*
X35396826Y-50476826D03*
D17*
X33699770Y-48779770D03*
D16*
X32002714Y-50476826D03*
D14*
X25700000Y-20300000D03*
M02*
