G04 #@! TF.GenerationSoftware,KiCad,Pcbnew,6.0.10*
G04 #@! TF.CreationDate,2023-01-08T03:35:34+01:00*
G04 #@! TF.ProjectId,ideal_diode,69646561-6c5f-4646-996f-64652e6b6963,rev?*
G04 #@! TF.SameCoordinates,Original*
G04 #@! TF.FileFunction,Soldermask,Top*
G04 #@! TF.FilePolarity,Negative*
%FSLAX46Y46*%
G04 Gerber Fmt 4.6, Leading zero omitted, Abs format (unit mm)*
G04 Created by KiCad (PCBNEW 6.0.10) date 2023-01-08 03:35:34*
%MOMM*%
%LPD*%
G01*
G04 APERTURE LIST*
G04 Aperture macros list*
%AMRoundRect*
0 Rectangle with rounded corners*
0 $1 Rounding radius*
0 $2 $3 $4 $5 $6 $7 $8 $9 X,Y pos of 4 corners*
0 Add a 4 corners polygon primitive as box body*
4,1,4,$2,$3,$4,$5,$6,$7,$8,$9,$2,$3,0*
0 Add four circle primitives for the rounded corners*
1,1,$1+$1,$2,$3*
1,1,$1+$1,$4,$5*
1,1,$1+$1,$6,$7*
1,1,$1+$1,$8,$9*
0 Add four rect primitives between the rounded corners*
20,1,$1+$1,$2,$3,$4,$5,0*
20,1,$1+$1,$4,$5,$6,$7,0*
20,1,$1+$1,$6,$7,$8,$9,0*
20,1,$1+$1,$8,$9,$2,$3,0*%
G04 Aperture macros list end*
%ADD10RoundRect,0.250000X0.625000X-0.312500X0.625000X0.312500X-0.625000X0.312500X-0.625000X-0.312500X0*%
%ADD11RoundRect,0.250000X-0.625000X0.312500X-0.625000X-0.312500X0.625000X-0.312500X0.625000X0.312500X0*%
%ADD12C,2.000000*%
%ADD13R,0.600000X0.400000*%
%ADD14C,0.800000*%
%ADD15C,6.400000*%
%ADD16RoundRect,0.250000X0.312500X0.625000X-0.312500X0.625000X-0.312500X-0.625000X0.312500X-0.625000X0*%
%ADD17RoundRect,0.150000X0.150000X-0.587500X0.150000X0.587500X-0.150000X0.587500X-0.150000X-0.587500X0*%
%ADD18RoundRect,0.225000X0.225000X0.250000X-0.225000X0.250000X-0.225000X-0.250000X0.225000X-0.250000X0*%
%ADD19R,1.250000X2.850000*%
%ADD20R,5.550000X6.500000*%
%ADD21R,1.600000X1.600000*%
%ADD22O,1.600000X1.600000*%
%ADD23RoundRect,0.150000X-0.150000X0.587500X-0.150000X-0.587500X0.150000X-0.587500X0.150000X0.587500X0*%
G04 APERTURE END LIST*
D10*
X35799770Y-39712500D03*
X35799770Y-36787500D03*
D11*
X25700000Y-22775000D03*
X25700000Y-25700000D03*
D12*
X35699770Y-34354770D03*
X25899770Y-28100000D03*
D13*
X31499770Y-29329770D03*
X31499770Y-30279770D03*
X31499770Y-31229770D03*
X33699770Y-31229770D03*
X33699770Y-29329770D03*
D14*
X33699770Y-18599770D03*
X33699770Y-13799770D03*
X32002714Y-17896826D03*
X35396826Y-14502714D03*
D15*
X33699770Y-16199770D03*
D14*
X36099770Y-16199770D03*
X35396826Y-17896826D03*
X31299770Y-16199770D03*
X32002714Y-14502714D03*
D11*
X35699770Y-24354770D03*
X35699770Y-27279770D03*
D16*
X29999770Y-30779770D03*
X27074770Y-30779770D03*
D17*
X28217270Y-28442270D03*
X30117270Y-28442270D03*
X29167270Y-26567270D03*
D18*
X30200000Y-24800000D03*
X28650000Y-24800000D03*
D19*
X32267270Y-34004770D03*
D20*
X29987270Y-40404770D03*
D19*
X27707270Y-34004770D03*
D14*
X17896826Y-17896826D03*
X16199770Y-13799770D03*
X18599770Y-16199770D03*
X17896826Y-14502714D03*
X14502714Y-14502714D03*
X14502714Y-17896826D03*
D15*
X16199770Y-16199770D03*
D14*
X16199770Y-18599770D03*
X13799770Y-16199770D03*
D10*
X35799770Y-44462500D03*
X35799770Y-41537500D03*
D14*
X17896826Y-37082714D03*
X14502714Y-40476826D03*
X16199770Y-41179770D03*
X18599770Y-38779770D03*
X14502714Y-37082714D03*
X13799770Y-38779770D03*
X17896826Y-40476826D03*
D15*
X16199770Y-38779770D03*
D14*
X16199770Y-36379770D03*
D11*
X35699770Y-29054770D03*
X35699770Y-31979770D03*
D15*
X16199770Y-48779770D03*
D14*
X16199770Y-46379770D03*
X13799770Y-48779770D03*
X17896826Y-50476826D03*
X18599770Y-48779770D03*
X16199770Y-51179770D03*
X14502714Y-50476826D03*
X17896826Y-47082714D03*
X14502714Y-47082714D03*
D21*
X15479770Y-22439770D03*
D22*
X15479770Y-30059770D03*
X23099770Y-30059770D03*
X23099770Y-24979770D03*
D23*
X33717270Y-25667270D03*
X31817270Y-25667270D03*
X32767270Y-27542270D03*
D14*
X31299770Y-48779770D03*
X32002714Y-47082714D03*
X33699770Y-46379770D03*
X33699770Y-51179770D03*
X36099770Y-48779770D03*
X35396826Y-47082714D03*
X35396826Y-50476826D03*
D15*
X33699770Y-48779770D03*
D14*
X32002714Y-50476826D03*
D12*
X25700000Y-20300000D03*
M02*
