M48
; DRILL file {KiCad 6.0.10} date Sun 08 Jan 2023 03:37:35 AM CET
; FORMAT={-:-/ absolute / metric / decimal}
; #@! TF.CreationDate,2023-01-08T03:37:35+01:00
; #@! TF.GenerationSoftware,Kicad,Pcbnew,6.0.10
; #@! TF.FileFunction,Plated,1,4,PTH
FMAT,2
METRIC
; #@! TA.AperFunction,Plated,PTH,ViaDrill
T1C0.500
; #@! TA.AperFunction,Plated,PTH,ComponentDrill
T2C0.500
; #@! TA.AperFunction,Plated,PTH,ComponentDrill
T3C0.800
; #@! TA.AperFunction,Plated,PTH,ComponentDrill
T4C1.000
; #@! TA.AperFunction,Plated,PTH,ComponentDrill
T5C3.200
%
G90
G05
T1
X14.0Y-33.5
X14.0Y-35.0
X14.0Y-43.5
X15.5Y-26.0
X15.5Y-33.5
X15.5Y-43.5
X17.0Y-26.0
X17.0Y-27.5
X17.0Y-33.5
X17.5Y-43.5
X18.5Y-23.0
X18.5Y-24.5
X18.5Y-26.0
X18.5Y-27.5
X18.5Y-29.0
X18.5Y-30.5
X18.5Y-32.0
X18.5Y-33.5
X19.74Y-45.24
X20.0Y-23.0
X20.0Y-24.5
X20.0Y-26.0
X20.0Y-27.5
X20.0Y-29.0
X20.0Y-30.5
X20.0Y-32.0
X20.0Y-52.0
X21.1Y-37.9
X21.1Y-39.9
X21.1Y-41.9
X21.1Y-43.4
X21.5Y-13.0
X21.5Y-21.25
X21.5Y-23.0
X21.5Y-47.5
X21.5Y-49.0
X21.5Y-50.5
X21.5Y-52.0
X22.248Y-36.748
X22.75Y-20.0
X22.75Y-21.75
X27.5Y-47.5
X27.5Y-50.0
X27.5Y-52.0
X29.0Y-47.5
X29.0Y-50.0
X29.0Y-52.0
X29.5Y-20.0
X29.987Y-40.405
X29.987Y-42.513
X29.987Y-44.013
X30.0Y-36.5
X30.0Y-38.0
X30.46Y-45.54
X31.0Y-21.5
X32.0Y-38.0
X32.0Y-40.5
X32.0Y-42.5
X33.0Y-22.0
X34.5Y-22.0
X37.0Y-20.5
X37.0Y-22.0
T2
X13.8Y-16.2
X13.8Y-38.78
X13.8Y-48.78
X14.503Y-14.503
X14.503Y-17.897
X14.503Y-37.083
X14.503Y-40.477
X14.503Y-47.083
X14.503Y-50.477
X16.2Y-13.8
X16.2Y-18.6
X16.2Y-36.38
X16.2Y-41.18
X16.2Y-46.38
X16.2Y-51.18
X17.897Y-14.503
X17.897Y-17.897
X17.897Y-37.083
X17.897Y-40.477
X17.897Y-47.083
X17.897Y-50.477
X18.6Y-16.2
X18.6Y-38.78
X18.6Y-48.78
X31.3Y-16.2
X31.3Y-48.78
X32.003Y-14.503
X32.003Y-17.897
X32.003Y-47.083
X32.003Y-50.477
X33.7Y-13.8
X33.7Y-18.6
X33.7Y-46.38
X33.7Y-51.18
X35.397Y-14.503
X35.397Y-17.897
X35.397Y-47.083
X35.397Y-50.477
X36.1Y-16.2
X36.1Y-48.78
T3
X15.48Y-22.44
X15.48Y-30.06
X23.1Y-24.98
X23.1Y-30.06
T4
X25.7Y-20.3
X25.9Y-28.1
X35.7Y-34.355
T5
X16.2Y-16.2
X16.2Y-38.78
X16.2Y-48.78
X33.7Y-16.2
X33.7Y-48.78
T0
M30
