G04 #@! TF.GenerationSoftware,KiCad,Pcbnew,6.0.10*
G04 #@! TF.CreationDate,2023-01-08T03:35:34+01:00*
G04 #@! TF.ProjectId,ideal_diode,69646561-6c5f-4646-996f-64652e6b6963,rev?*
G04 #@! TF.SameCoordinates,Original*
G04 #@! TF.FileFunction,Copper,L4,Bot*
G04 #@! TF.FilePolarity,Positive*
%FSLAX46Y46*%
G04 Gerber Fmt 4.6, Leading zero omitted, Abs format (unit mm)*
G04 Created by KiCad (PCBNEW 6.0.10) date 2023-01-08 03:35:34*
%MOMM*%
%LPD*%
G01*
G04 APERTURE LIST*
G04 #@! TA.AperFunction,ComponentPad*
%ADD10C,2.000000*%
G04 #@! TD*
G04 #@! TA.AperFunction,ComponentPad*
%ADD11C,0.800000*%
G04 #@! TD*
G04 #@! TA.AperFunction,ComponentPad*
%ADD12C,6.400000*%
G04 #@! TD*
G04 #@! TA.AperFunction,ComponentPad*
%ADD13R,1.600000X1.600000*%
G04 #@! TD*
G04 #@! TA.AperFunction,ComponentPad*
%ADD14O,1.600000X1.600000*%
G04 #@! TD*
G04 #@! TA.AperFunction,SMDPad,CuDef*
%ADD15R,1.400000X2.100000*%
G04 #@! TD*
G04 #@! TA.AperFunction,ViaPad*
%ADD16C,1.000000*%
G04 #@! TD*
G04 APERTURE END LIST*
D10*
X35699770Y-34354770D03*
X25899770Y-28100000D03*
D11*
X33699770Y-18599770D03*
X33699770Y-13799770D03*
X32002714Y-17896826D03*
X35396826Y-14502714D03*
D12*
X33699770Y-16199770D03*
D11*
X36099770Y-16199770D03*
X35396826Y-17896826D03*
X31299770Y-16199770D03*
X32002714Y-14502714D03*
X17896826Y-17896826D03*
X16199770Y-13799770D03*
X18599770Y-16199770D03*
X17896826Y-14502714D03*
X14502714Y-14502714D03*
X14502714Y-17896826D03*
D12*
X16199770Y-16199770D03*
D11*
X16199770Y-18599770D03*
X13799770Y-16199770D03*
X17896826Y-37082714D03*
X14502714Y-40476826D03*
X16199770Y-41179770D03*
X18599770Y-38779770D03*
X14502714Y-37082714D03*
X13799770Y-38779770D03*
X17896826Y-40476826D03*
D12*
X16199770Y-38779770D03*
D11*
X16199770Y-36379770D03*
D12*
X16199770Y-48779770D03*
D11*
X16199770Y-46379770D03*
X13799770Y-48779770D03*
X17896826Y-50476826D03*
X18599770Y-48779770D03*
X16199770Y-51179770D03*
X14502714Y-50476826D03*
X17896826Y-47082714D03*
X14502714Y-47082714D03*
D13*
X15479770Y-22439770D03*
D14*
X15479770Y-30059770D03*
X23099770Y-30059770D03*
X23099770Y-24979770D03*
D11*
X31299770Y-48779770D03*
X32002714Y-47082714D03*
X33699770Y-46379770D03*
X33699770Y-51179770D03*
X36099770Y-48779770D03*
X35396826Y-47082714D03*
X35396826Y-50476826D03*
D12*
X33699770Y-48779770D03*
D11*
X32002714Y-50476826D03*
D10*
X25700000Y-20300000D03*
D15*
X27150000Y-39500000D03*
X22750000Y-39500000D03*
X27099770Y-16250000D03*
X22699770Y-16250000D03*
X27150000Y-45000000D03*
X22750000Y-45000000D03*
X27150000Y-34000000D03*
X22750000Y-34000000D03*
D16*
X22750000Y-21750000D03*
X22750000Y-20000000D03*
X21500000Y-21250000D03*
X21500000Y-47500000D03*
X20000000Y-26000000D03*
X15500000Y-43500000D03*
X14000000Y-35000000D03*
X21099770Y-39900230D03*
X18500000Y-27500000D03*
X17500000Y-43500000D03*
X21500000Y-50500000D03*
X20000000Y-29000000D03*
X20000000Y-32000000D03*
X15500000Y-26000000D03*
X20000000Y-23000000D03*
X21500000Y-49000000D03*
X21099770Y-43400230D03*
X21500000Y-13000000D03*
X21500000Y-52000000D03*
X14000000Y-43500000D03*
X18500000Y-32000000D03*
X18500000Y-26000000D03*
X18500000Y-30500000D03*
X14000000Y-33500000D03*
X20000000Y-24500000D03*
X20000000Y-27500000D03*
X15500000Y-33500000D03*
X18500000Y-24500000D03*
X17000000Y-26000000D03*
X21099770Y-41900230D03*
X21099770Y-37900230D03*
X20000000Y-30500000D03*
X18500000Y-23000000D03*
X19739770Y-45239770D03*
X17000000Y-33500000D03*
X18500000Y-33500000D03*
X21500000Y-23000000D03*
X18500000Y-29000000D03*
X22247918Y-36747918D03*
X17000000Y-27500000D03*
X20000000Y-52000000D03*
X29000000Y-50000000D03*
X29987270Y-40404770D03*
X30000000Y-38000000D03*
X30460000Y-45540000D03*
X29500000Y-20000000D03*
X32000000Y-38000000D03*
X29987270Y-44012730D03*
X31000000Y-21500000D03*
X27500000Y-47500000D03*
X34500000Y-22000000D03*
X29000000Y-52000000D03*
X32000000Y-40500000D03*
X33000000Y-22000000D03*
X32000000Y-42500000D03*
X37000000Y-22000000D03*
X37000000Y-20500000D03*
X27500000Y-50000000D03*
X29987270Y-42512730D03*
X27500000Y-52000000D03*
X29000000Y-47500000D03*
X30000000Y-36500000D03*
G04 #@! TA.AperFunction,Conductor*
G36*
X23391891Y-12220502D02*
G01*
X23438384Y-12274158D01*
X23449770Y-12326500D01*
X23449770Y-14566000D01*
X23429768Y-14634121D01*
X23376112Y-14680614D01*
X23323770Y-14692000D01*
X23217885Y-14692000D01*
X23202646Y-14696475D01*
X23201441Y-14697865D01*
X23199770Y-14705548D01*
X23199770Y-17789884D01*
X23204245Y-17805123D01*
X23205635Y-17806328D01*
X23213318Y-17807999D01*
X23323770Y-17807999D01*
X23391891Y-17828001D01*
X23438384Y-17881657D01*
X23449770Y-17933999D01*
X23449770Y-28951434D01*
X23429768Y-29019555D01*
X23376112Y-29066048D01*
X23305838Y-29076152D01*
X23305666Y-29076122D01*
X23301922Y-29074963D01*
X23295797Y-29074319D01*
X23295796Y-29074319D01*
X23112917Y-29055097D01*
X23112916Y-29055097D01*
X23106789Y-29054453D01*
X22984153Y-29065614D01*
X22917529Y-29071677D01*
X22917528Y-29071677D01*
X22911388Y-29072236D01*
X22905474Y-29073977D01*
X22905472Y-29073977D01*
X22776504Y-29111935D01*
X22723163Y-29127634D01*
X22717698Y-29130491D01*
X22554742Y-29215682D01*
X22554738Y-29215685D01*
X22549282Y-29218537D01*
X22544482Y-29222397D01*
X22544481Y-29222397D01*
X22537944Y-29227653D01*
X22396370Y-29341481D01*
X22270250Y-29491786D01*
X22267286Y-29497178D01*
X22267283Y-29497182D01*
X22266954Y-29497781D01*
X22175726Y-29663724D01*
X22173865Y-29669591D01*
X22173864Y-29669593D01*
X22147658Y-29752206D01*
X22116398Y-29850748D01*
X22094527Y-30045733D01*
X22110945Y-30241253D01*
X22165028Y-30429861D01*
X22167846Y-30435344D01*
X22251893Y-30598883D01*
X22251896Y-30598887D01*
X22254714Y-30604371D01*
X22376588Y-30758139D01*
X22526008Y-30885305D01*
X22697283Y-30981027D01*
X22883888Y-31041659D01*
X23078716Y-31064891D01*
X23084851Y-31064419D01*
X23084853Y-31064419D01*
X23268204Y-31050311D01*
X23268208Y-31050310D01*
X23274346Y-31049838D01*
X23289886Y-31045499D01*
X23360875Y-31046444D01*
X23420085Y-31085620D01*
X23448715Y-31150588D01*
X23449770Y-31166857D01*
X23449770Y-32316000D01*
X23429768Y-32384121D01*
X23376112Y-32430614D01*
X23323770Y-32442000D01*
X23268115Y-32442000D01*
X23252876Y-32446475D01*
X23251671Y-32447865D01*
X23250000Y-32455548D01*
X23250000Y-35539884D01*
X23254475Y-35555123D01*
X23255865Y-35556328D01*
X23263548Y-35557999D01*
X23323770Y-35557999D01*
X23391891Y-35578001D01*
X23438384Y-35631657D01*
X23449770Y-35683999D01*
X23449770Y-37816000D01*
X23429768Y-37884121D01*
X23376112Y-37930614D01*
X23323770Y-37942000D01*
X23268115Y-37942000D01*
X23252876Y-37946475D01*
X23251671Y-37947865D01*
X23250000Y-37955548D01*
X23250000Y-41039884D01*
X23254475Y-41055123D01*
X23255865Y-41056328D01*
X23263548Y-41057999D01*
X23323770Y-41057999D01*
X23391891Y-41078001D01*
X23438384Y-41131657D01*
X23449770Y-41183999D01*
X23449770Y-43316000D01*
X23429768Y-43384121D01*
X23376112Y-43430614D01*
X23323770Y-43442000D01*
X23268115Y-43442000D01*
X23252876Y-43446475D01*
X23251671Y-43447865D01*
X23250000Y-43455548D01*
X23250000Y-46539884D01*
X23254475Y-46555123D01*
X23255865Y-46556328D01*
X23263548Y-46557999D01*
X23323770Y-46557999D01*
X23391891Y-46578001D01*
X23438384Y-46631657D01*
X23449770Y-46683999D01*
X23449770Y-52653180D01*
X23429768Y-52721301D01*
X23376112Y-52767794D01*
X23323770Y-52779180D01*
X15037080Y-52779180D01*
X15019758Y-52777214D01*
X15014189Y-52777204D01*
X15000359Y-52774024D01*
X14986519Y-52777156D01*
X14972330Y-52777131D01*
X14972331Y-52776519D01*
X14964392Y-52777180D01*
X14797257Y-52767794D01*
X14693617Y-52761974D01*
X14679585Y-52760393D01*
X14526035Y-52734304D01*
X14384024Y-52710175D01*
X14370248Y-52707030D01*
X14082190Y-52624041D01*
X14068854Y-52619375D01*
X13955666Y-52572491D01*
X13791879Y-52504648D01*
X13779156Y-52498521D01*
X13516771Y-52353505D01*
X13504818Y-52345995D01*
X13260306Y-52172503D01*
X13249275Y-52163706D01*
X13205034Y-52124169D01*
X13062617Y-51996897D01*
X13025734Y-51963936D01*
X13015743Y-51953944D01*
X12818138Y-51732822D01*
X13959760Y-51732822D01*
X13967217Y-51743189D01*
X14014705Y-51781644D01*
X14020042Y-51785521D01*
X14340455Y-51993600D01*
X14346164Y-51996897D01*
X14686581Y-52170348D01*
X14692606Y-52173030D01*
X15049272Y-52309941D01*
X15055554Y-52311982D01*
X15424586Y-52410864D01*
X15431036Y-52412235D01*
X15808399Y-52472004D01*
X15814937Y-52472690D01*
X16196469Y-52492686D01*
X16203071Y-52492686D01*
X16584603Y-52472690D01*
X16591141Y-52472004D01*
X16968504Y-52412235D01*
X16974954Y-52410864D01*
X17343986Y-52311982D01*
X17350268Y-52309941D01*
X17706934Y-52173030D01*
X17712959Y-52170348D01*
X18053376Y-51996897D01*
X18059085Y-51993600D01*
X18379498Y-51785521D01*
X18384835Y-51781644D01*
X18431373Y-51743958D01*
X18439839Y-51731703D01*
X18433505Y-51720612D01*
X16212582Y-49499689D01*
X16198638Y-49492075D01*
X16196805Y-49492206D01*
X16190190Y-49496457D01*
X13966901Y-51719746D01*
X13959760Y-51732822D01*
X12818138Y-51732822D01*
X12815989Y-51730417D01*
X12807179Y-51719370D01*
X12633699Y-51474871D01*
X12626186Y-51462915D01*
X12481171Y-51200527D01*
X12475043Y-51187801D01*
X12360323Y-50910839D01*
X12355656Y-50897502D01*
X12322853Y-50783639D01*
X12272661Y-50609418D01*
X12269519Y-50595649D01*
X12219306Y-50300102D01*
X12217724Y-50286061D01*
X12202547Y-50015786D01*
X12203208Y-50008061D01*
X12202451Y-50008060D01*
X12202476Y-49993868D01*
X12205656Y-49980040D01*
X12202525Y-49966200D01*
X12202533Y-49961374D01*
X12200500Y-49943177D01*
X12200500Y-48783071D01*
X12486854Y-48783071D01*
X12506850Y-49164603D01*
X12507536Y-49171141D01*
X12567305Y-49548504D01*
X12568676Y-49554954D01*
X12667558Y-49923986D01*
X12669599Y-49930268D01*
X12806510Y-50286934D01*
X12809192Y-50292959D01*
X12982642Y-50633373D01*
X12985939Y-50639083D01*
X13194023Y-50959505D01*
X13197893Y-50964831D01*
X13235582Y-51011373D01*
X13247837Y-51019839D01*
X13258928Y-51013505D01*
X15479851Y-48792582D01*
X15486229Y-48780902D01*
X16912075Y-48780902D01*
X16912206Y-48782735D01*
X16916457Y-48789350D01*
X19139746Y-51012639D01*
X19152822Y-51019780D01*
X19163189Y-51012323D01*
X19201647Y-50964831D01*
X19205517Y-50959505D01*
X19413601Y-50639083D01*
X19416898Y-50633373D01*
X19590348Y-50292959D01*
X19593030Y-50286934D01*
X19729941Y-49930268D01*
X19731982Y-49923986D01*
X19830864Y-49554954D01*
X19832235Y-49548504D01*
X19892004Y-49171141D01*
X19892690Y-49164603D01*
X19912686Y-48783071D01*
X19912686Y-48776469D01*
X19892690Y-48394937D01*
X19892004Y-48388399D01*
X19832235Y-48011036D01*
X19830864Y-48004586D01*
X19731982Y-47635554D01*
X19729941Y-47629272D01*
X19593030Y-47272606D01*
X19590348Y-47266581D01*
X19416898Y-46926167D01*
X19413601Y-46920457D01*
X19205517Y-46600035D01*
X19201647Y-46594709D01*
X19163958Y-46548167D01*
X19151703Y-46539701D01*
X19140612Y-46546035D01*
X16919689Y-48766958D01*
X16912075Y-48780902D01*
X15486229Y-48780902D01*
X15487465Y-48778638D01*
X15487334Y-48776805D01*
X15483083Y-48770190D01*
X13259794Y-46546901D01*
X13246718Y-46539760D01*
X13236351Y-46547217D01*
X13197893Y-46594709D01*
X13194023Y-46600035D01*
X12985939Y-46920457D01*
X12982642Y-46926167D01*
X12809192Y-47266581D01*
X12806510Y-47272606D01*
X12669599Y-47629272D01*
X12667558Y-47635554D01*
X12568676Y-48004586D01*
X12567305Y-48011036D01*
X12507536Y-48388399D01*
X12506850Y-48394937D01*
X12486854Y-48776469D01*
X12486854Y-48783071D01*
X12200500Y-48783071D01*
X12200500Y-45827837D01*
X13959701Y-45827837D01*
X13966035Y-45838928D01*
X16186958Y-48059851D01*
X16200902Y-48067465D01*
X16202735Y-48067334D01*
X16209350Y-48063083D01*
X18177764Y-46094669D01*
X21542001Y-46094669D01*
X21542371Y-46101490D01*
X21547895Y-46152352D01*
X21551521Y-46167604D01*
X21596676Y-46288054D01*
X21605214Y-46303649D01*
X21681715Y-46405724D01*
X21694276Y-46418285D01*
X21796351Y-46494786D01*
X21811946Y-46503324D01*
X21932394Y-46548478D01*
X21947649Y-46552105D01*
X21998514Y-46557631D01*
X22005328Y-46558000D01*
X22231885Y-46558000D01*
X22247124Y-46553525D01*
X22248329Y-46552135D01*
X22250000Y-46544452D01*
X22250000Y-45518115D01*
X22245525Y-45502876D01*
X22244135Y-45501671D01*
X22236452Y-45500000D01*
X21560116Y-45500000D01*
X21544877Y-45504475D01*
X21543672Y-45505865D01*
X21542001Y-45513548D01*
X21542001Y-46094669D01*
X18177764Y-46094669D01*
X18432639Y-45839794D01*
X18439780Y-45826718D01*
X18432323Y-45816351D01*
X18384835Y-45777896D01*
X18379498Y-45774019D01*
X18059085Y-45565940D01*
X18053376Y-45562643D01*
X17712959Y-45389192D01*
X17706934Y-45386510D01*
X17350268Y-45249599D01*
X17343986Y-45247558D01*
X16974954Y-45148676D01*
X16968504Y-45147305D01*
X16591141Y-45087536D01*
X16584603Y-45086850D01*
X16203071Y-45066854D01*
X16196469Y-45066854D01*
X15814937Y-45086850D01*
X15808399Y-45087536D01*
X15431036Y-45147305D01*
X15424586Y-45148676D01*
X15055554Y-45247558D01*
X15049272Y-45249599D01*
X14692606Y-45386510D01*
X14686581Y-45389192D01*
X14346167Y-45562642D01*
X14340457Y-45565939D01*
X14020035Y-45774023D01*
X14014709Y-45777893D01*
X13968167Y-45815582D01*
X13959701Y-45827837D01*
X12200500Y-45827837D01*
X12200500Y-44481885D01*
X21542000Y-44481885D01*
X21546475Y-44497124D01*
X21547865Y-44498329D01*
X21555548Y-44500000D01*
X22231885Y-44500000D01*
X22247124Y-44495525D01*
X22248329Y-44494135D01*
X22250000Y-44486452D01*
X22250000Y-43460116D01*
X22245525Y-43444877D01*
X22244135Y-43443672D01*
X22236452Y-43442001D01*
X22005331Y-43442001D01*
X21998510Y-43442371D01*
X21947648Y-43447895D01*
X21932396Y-43451521D01*
X21811946Y-43496676D01*
X21796351Y-43505214D01*
X21694276Y-43581715D01*
X21681715Y-43594276D01*
X21605214Y-43696351D01*
X21596676Y-43711946D01*
X21551522Y-43832394D01*
X21547895Y-43847649D01*
X21542369Y-43898514D01*
X21542000Y-43905328D01*
X21542000Y-44481885D01*
X12200500Y-44481885D01*
X12200500Y-38767883D01*
X12794297Y-38767883D01*
X12794469Y-38771278D01*
X12794469Y-38771279D01*
X12805829Y-38995525D01*
X12812932Y-39135741D01*
X12813469Y-39139096D01*
X12813470Y-39139102D01*
X12853808Y-39390940D01*
X12871186Y-39499435D01*
X12968378Y-39854711D01*
X13103372Y-40197412D01*
X13274587Y-40523529D01*
X13276488Y-40526358D01*
X13276494Y-40526368D01*
X13371402Y-40667604D01*
X13480022Y-40829247D01*
X13717272Y-41110991D01*
X13793670Y-41183999D01*
X13981099Y-41363111D01*
X13981106Y-41363117D01*
X13983562Y-41365464D01*
X14275778Y-41589689D01*
X14590501Y-41781044D01*
X14924049Y-41937289D01*
X14927267Y-41938391D01*
X14927270Y-41938392D01*
X15269298Y-42055495D01*
X15269306Y-42055497D01*
X15272521Y-42056598D01*
X15631840Y-42137574D01*
X15714772Y-42147023D01*
X15994420Y-42178885D01*
X15994428Y-42178885D01*
X15997803Y-42179270D01*
X16001207Y-42179288D01*
X16001210Y-42179288D01*
X16200844Y-42180333D01*
X16366128Y-42181198D01*
X16369514Y-42180848D01*
X16369516Y-42180848D01*
X16729115Y-42143688D01*
X16729124Y-42143687D01*
X16732507Y-42143337D01*
X16735840Y-42142623D01*
X16735843Y-42142622D01*
X16913258Y-42104587D01*
X17092654Y-42066128D01*
X17442356Y-41950475D01*
X17777522Y-41797731D01*
X17874735Y-41740010D01*
X18091286Y-41611432D01*
X18091291Y-41611429D01*
X18094231Y-41609683D01*
X18120861Y-41589689D01*
X18386046Y-41390582D01*
X18388779Y-41388530D01*
X18657720Y-41136859D01*
X18845724Y-40918285D01*
X18895689Y-40860196D01*
X18895690Y-40860194D01*
X18897908Y-40857616D01*
X18915608Y-40831863D01*
X19038981Y-40652352D01*
X19078626Y-40594669D01*
X21542001Y-40594669D01*
X21542371Y-40601490D01*
X21547895Y-40652352D01*
X21551521Y-40667604D01*
X21596676Y-40788054D01*
X21605214Y-40803649D01*
X21681715Y-40905724D01*
X21694276Y-40918285D01*
X21796351Y-40994786D01*
X21811946Y-41003324D01*
X21932394Y-41048478D01*
X21947649Y-41052105D01*
X21998514Y-41057631D01*
X22005328Y-41058000D01*
X22231885Y-41058000D01*
X22247124Y-41053525D01*
X22248329Y-41052135D01*
X22250000Y-41044452D01*
X22250000Y-40018115D01*
X22245525Y-40002876D01*
X22244135Y-40001671D01*
X22236452Y-40000000D01*
X21560116Y-40000000D01*
X21544877Y-40004475D01*
X21543672Y-40005865D01*
X21542001Y-40013548D01*
X21542001Y-40594669D01*
X19078626Y-40594669D01*
X19106532Y-40554065D01*
X19108144Y-40551071D01*
X19108149Y-40551063D01*
X19279531Y-40232771D01*
X19281153Y-40229759D01*
X19419728Y-39888490D01*
X19520635Y-39534252D01*
X19582695Y-39171188D01*
X19584658Y-39139102D01*
X19594274Y-38981885D01*
X21542000Y-38981885D01*
X21546475Y-38997124D01*
X21547865Y-38998329D01*
X21555548Y-39000000D01*
X22231885Y-39000000D01*
X22247124Y-38995525D01*
X22248329Y-38994135D01*
X22250000Y-38986452D01*
X22250000Y-37960116D01*
X22245525Y-37944877D01*
X22244135Y-37943672D01*
X22236452Y-37942001D01*
X22005331Y-37942001D01*
X21998510Y-37942371D01*
X21947648Y-37947895D01*
X21932396Y-37951521D01*
X21811946Y-37996676D01*
X21796351Y-38005214D01*
X21694276Y-38081715D01*
X21681715Y-38094276D01*
X21605214Y-38196351D01*
X21596676Y-38211946D01*
X21551522Y-38332394D01*
X21547895Y-38347649D01*
X21542369Y-38398514D01*
X21542000Y-38405328D01*
X21542000Y-38981885D01*
X19594274Y-38981885D01*
X19605071Y-38805342D01*
X19605181Y-38803545D01*
X19605264Y-38779770D01*
X19585345Y-38411979D01*
X19525822Y-38048490D01*
X19427390Y-37693556D01*
X19424213Y-37685571D01*
X19292460Y-37354492D01*
X19291201Y-37351328D01*
X19261128Y-37294530D01*
X19120447Y-37028830D01*
X19120443Y-37028823D01*
X19118848Y-37025811D01*
X18912348Y-36720811D01*
X18674116Y-36439898D01*
X18406938Y-36186356D01*
X18113942Y-35963152D01*
X18111030Y-35961395D01*
X18111025Y-35961392D01*
X17801475Y-35774659D01*
X17801466Y-35774654D01*
X17798553Y-35772897D01*
X17795463Y-35771463D01*
X17795458Y-35771460D01*
X17607038Y-35683999D01*
X17464461Y-35617817D01*
X17461236Y-35616725D01*
X17461230Y-35616723D01*
X17118802Y-35500818D01*
X17118797Y-35500817D01*
X17115575Y-35499726D01*
X16881690Y-35447874D01*
X16759306Y-35420742D01*
X16759302Y-35420741D01*
X16755976Y-35420004D01*
X16606394Y-35403490D01*
X16393252Y-35379959D01*
X16393245Y-35379959D01*
X16389870Y-35379586D01*
X16386471Y-35379580D01*
X16386470Y-35379580D01*
X16212749Y-35379277D01*
X16021540Y-35378943D01*
X15884326Y-35393607D01*
X15658680Y-35417721D01*
X15658674Y-35417722D01*
X15655296Y-35418083D01*
X15295420Y-35496549D01*
X14946124Y-35613422D01*
X14943031Y-35614845D01*
X14943030Y-35614845D01*
X14754596Y-35701515D01*
X14611493Y-35767335D01*
X14608559Y-35769091D01*
X14608557Y-35769092D01*
X14514533Y-35825364D01*
X14295442Y-35956488D01*
X14001668Y-36178667D01*
X13733607Y-36431275D01*
X13494396Y-36711355D01*
X13492468Y-36714182D01*
X13492466Y-36714184D01*
X13486021Y-36723632D01*
X13286832Y-37015632D01*
X13113344Y-37340546D01*
X13112069Y-37343718D01*
X13112067Y-37343722D01*
X13109010Y-37351328D01*
X12975962Y-37682296D01*
X12975043Y-37685564D01*
X12975041Y-37685571D01*
X12887593Y-37996676D01*
X12876291Y-38036885D01*
X12875729Y-38040242D01*
X12875729Y-38040243D01*
X12873785Y-38051863D01*
X12815499Y-38400163D01*
X12794297Y-38767883D01*
X12200500Y-38767883D01*
X12200500Y-35094669D01*
X21542001Y-35094669D01*
X21542371Y-35101490D01*
X21547895Y-35152352D01*
X21551521Y-35167604D01*
X21596676Y-35288054D01*
X21605214Y-35303649D01*
X21681715Y-35405724D01*
X21694276Y-35418285D01*
X21796351Y-35494786D01*
X21811946Y-35503324D01*
X21932394Y-35548478D01*
X21947649Y-35552105D01*
X21998514Y-35557631D01*
X22005328Y-35558000D01*
X22231885Y-35558000D01*
X22247124Y-35553525D01*
X22248329Y-35552135D01*
X22250000Y-35544452D01*
X22250000Y-34518115D01*
X22245525Y-34502876D01*
X22244135Y-34501671D01*
X22236452Y-34500000D01*
X21560116Y-34500000D01*
X21544877Y-34504475D01*
X21543672Y-34505865D01*
X21542001Y-34513548D01*
X21542001Y-35094669D01*
X12200500Y-35094669D01*
X12200500Y-33481885D01*
X21542000Y-33481885D01*
X21546475Y-33497124D01*
X21547865Y-33498329D01*
X21555548Y-33500000D01*
X22231885Y-33500000D01*
X22247124Y-33495525D01*
X22248329Y-33494135D01*
X22250000Y-33486452D01*
X22250000Y-32460116D01*
X22245525Y-32444877D01*
X22244135Y-32443672D01*
X22236452Y-32442001D01*
X22005331Y-32442001D01*
X21998510Y-32442371D01*
X21947648Y-32447895D01*
X21932396Y-32451521D01*
X21811946Y-32496676D01*
X21796351Y-32505214D01*
X21694276Y-32581715D01*
X21681715Y-32594276D01*
X21605214Y-32696351D01*
X21596676Y-32711946D01*
X21551522Y-32832394D01*
X21547895Y-32847649D01*
X21542369Y-32898514D01*
X21542000Y-32905328D01*
X21542000Y-33481885D01*
X12200500Y-33481885D01*
X12200500Y-30037723D01*
X13374477Y-30037723D01*
X13390964Y-30323648D01*
X13391789Y-30327853D01*
X13391790Y-30327861D01*
X13410640Y-30423939D01*
X13446102Y-30604690D01*
X13447489Y-30608740D01*
X13447490Y-30608745D01*
X13500007Y-30762134D01*
X13538872Y-30875648D01*
X13555449Y-30908607D01*
X13633685Y-31064162D01*
X13667557Y-31131510D01*
X13669983Y-31135039D01*
X13669986Y-31135045D01*
X13708690Y-31191359D01*
X13829776Y-31367540D01*
X14022526Y-31579370D01*
X14242242Y-31763081D01*
X14484858Y-31915273D01*
X14488760Y-31917035D01*
X14488764Y-31917037D01*
X14741972Y-32031365D01*
X14741976Y-32031367D01*
X14745884Y-32033131D01*
X14750003Y-32034351D01*
X15016376Y-32113255D01*
X15016381Y-32113256D01*
X15020489Y-32114473D01*
X15024723Y-32115121D01*
X15024728Y-32115122D01*
X15271984Y-32152957D01*
X15303594Y-32157794D01*
X15449359Y-32160084D01*
X15585668Y-32162226D01*
X15585674Y-32162226D01*
X15589959Y-32162293D01*
X15594211Y-32161778D01*
X15594219Y-32161778D01*
X15813991Y-32135181D01*
X15874284Y-32127885D01*
X15878432Y-32126797D01*
X15878436Y-32126796D01*
X16147158Y-32056298D01*
X16151309Y-32055209D01*
X16155270Y-32053569D01*
X16155274Y-32053567D01*
X16298140Y-31994390D01*
X16415908Y-31945609D01*
X16464804Y-31917037D01*
X16659487Y-31803273D01*
X16659488Y-31803273D01*
X16663185Y-31801112D01*
X16888563Y-31624393D01*
X16935261Y-31576205D01*
X17084889Y-31421800D01*
X17087872Y-31418722D01*
X17090405Y-31415274D01*
X17090409Y-31415269D01*
X17254887Y-31191359D01*
X17257425Y-31187904D01*
X17286125Y-31135045D01*
X17392033Y-30939987D01*
X17392034Y-30939985D01*
X17394083Y-30936211D01*
X17495318Y-30668300D01*
X17512138Y-30594858D01*
X17558300Y-30393308D01*
X17558301Y-30393303D01*
X17559257Y-30389128D01*
X17584716Y-30103862D01*
X17585178Y-30059770D01*
X17583967Y-30042003D01*
X17565990Y-29778310D01*
X17565989Y-29778304D01*
X17565698Y-29774033D01*
X17507620Y-29493584D01*
X17412018Y-29223612D01*
X17280661Y-28969112D01*
X17278198Y-28965607D01*
X17118443Y-28738299D01*
X17118438Y-28738293D01*
X17115979Y-28734794D01*
X16921021Y-28524994D01*
X16917705Y-28522280D01*
X16917702Y-28522277D01*
X16702711Y-28346309D01*
X16699393Y-28343593D01*
X16455197Y-28193950D01*
X16437189Y-28186045D01*
X16196880Y-28080556D01*
X16196876Y-28080555D01*
X16192952Y-28078832D01*
X15917509Y-28000370D01*
X15707651Y-27970503D01*
X15638218Y-27960621D01*
X15638216Y-27960621D01*
X15633966Y-27960016D01*
X15482103Y-27959221D01*
X15351856Y-27958539D01*
X15351850Y-27958539D01*
X15347570Y-27958517D01*
X15343326Y-27959076D01*
X15343322Y-27959076D01*
X15218801Y-27975469D01*
X15063621Y-27995899D01*
X15059481Y-27997032D01*
X15059479Y-27997032D01*
X15042979Y-28001546D01*
X14787372Y-28071472D01*
X14783424Y-28073156D01*
X14527887Y-28182152D01*
X14527883Y-28182154D01*
X14523935Y-28183838D01*
X14278185Y-28330916D01*
X14054670Y-28509985D01*
X13857525Y-28717732D01*
X13690399Y-28950313D01*
X13556384Y-29203423D01*
X13547517Y-29227653D01*
X13502243Y-29351372D01*
X13457960Y-29472380D01*
X13396948Y-29752206D01*
X13374477Y-30037723D01*
X12200500Y-30037723D01*
X12200500Y-25488220D01*
X21893647Y-25488220D01*
X21960356Y-25631281D01*
X21965839Y-25640777D01*
X22090798Y-25819237D01*
X22097854Y-25827645D01*
X22251895Y-25981686D01*
X22260303Y-25988742D01*
X22438763Y-26113701D01*
X22448259Y-26119184D01*
X22583353Y-26182179D01*
X22597293Y-26184296D01*
X22599770Y-26180508D01*
X22599770Y-25497885D01*
X22595295Y-25482646D01*
X22593905Y-25481441D01*
X22586222Y-25479770D01*
X21907821Y-25479770D01*
X21894290Y-25483743D01*
X21893647Y-25488220D01*
X12200500Y-25488220D01*
X12200500Y-18738587D01*
X12220502Y-18670466D01*
X12274158Y-18623973D01*
X12344432Y-18613869D01*
X12409012Y-18643363D01*
X12429596Y-18666922D01*
X12429890Y-18666710D01*
X12668990Y-18998231D01*
X12937153Y-19306718D01*
X12939218Y-19308698D01*
X13230116Y-19587659D01*
X13230123Y-19587666D01*
X13232172Y-19589630D01*
X13234390Y-19591400D01*
X13234395Y-19591405D01*
X13299478Y-19643360D01*
X13551617Y-19844640D01*
X13892860Y-20069648D01*
X14171977Y-20219309D01*
X14222560Y-20269127D01*
X14238180Y-20338384D01*
X14213876Y-20405092D01*
X14165686Y-20444548D01*
X14032017Y-20506879D01*
X14032014Y-20506881D01*
X14027036Y-20509202D01*
X13840631Y-20639723D01*
X13679723Y-20800631D01*
X13549202Y-20987036D01*
X13453031Y-21193274D01*
X13394135Y-21413078D01*
X13379270Y-21582986D01*
X13379270Y-23296554D01*
X13394135Y-23466462D01*
X13453031Y-23686266D01*
X13455353Y-23691246D01*
X13455354Y-23691248D01*
X13527442Y-23845839D01*
X13549202Y-23892504D01*
X13679723Y-24078909D01*
X13840631Y-24239817D01*
X14027036Y-24370338D01*
X14032014Y-24372659D01*
X14032017Y-24372661D01*
X14226506Y-24463353D01*
X14233274Y-24466509D01*
X14238582Y-24467931D01*
X14238584Y-24467932D01*
X14447763Y-24523981D01*
X14447765Y-24523981D01*
X14453078Y-24525405D01*
X14552072Y-24534066D01*
X14620262Y-24540032D01*
X14620269Y-24540032D01*
X14622986Y-24540270D01*
X16336554Y-24540270D01*
X16339271Y-24540032D01*
X16339278Y-24540032D01*
X16407468Y-24534066D01*
X16506462Y-24525405D01*
X16511775Y-24523981D01*
X16511777Y-24523981D01*
X16686020Y-24477293D01*
X21895244Y-24477293D01*
X21899032Y-24479770D01*
X22581655Y-24479770D01*
X22596894Y-24475295D01*
X22598099Y-24473905D01*
X22599770Y-24466222D01*
X22599770Y-23787821D01*
X22595797Y-23774290D01*
X22591320Y-23773647D01*
X22448259Y-23840356D01*
X22438763Y-23845839D01*
X22260303Y-23970798D01*
X22251895Y-23977854D01*
X22097854Y-24131895D01*
X22090798Y-24140303D01*
X21965839Y-24318763D01*
X21960356Y-24328259D01*
X21897361Y-24463353D01*
X21895244Y-24477293D01*
X16686020Y-24477293D01*
X16720956Y-24467932D01*
X16720958Y-24467931D01*
X16726266Y-24466509D01*
X16733034Y-24463353D01*
X16927523Y-24372661D01*
X16927526Y-24372659D01*
X16932504Y-24370338D01*
X17118909Y-24239817D01*
X17279817Y-24078909D01*
X17410338Y-23892504D01*
X17432099Y-23845839D01*
X17504186Y-23691248D01*
X17504187Y-23691246D01*
X17506509Y-23686266D01*
X17565405Y-23466462D01*
X17580270Y-23296554D01*
X17580270Y-21582986D01*
X17565405Y-21413078D01*
X17506509Y-21193274D01*
X17410338Y-20987036D01*
X17279817Y-20800631D01*
X17252243Y-20773057D01*
X17218217Y-20710745D01*
X17223282Y-20639930D01*
X17265829Y-20583094D01*
X17312137Y-20561392D01*
X17438832Y-20531209D01*
X17438839Y-20531207D01*
X17441601Y-20530549D01*
X17697148Y-20444548D01*
X17826288Y-20401088D01*
X17826294Y-20401086D01*
X17829000Y-20400175D01*
X18202988Y-20235226D01*
X18560487Y-20037061D01*
X18562849Y-20035456D01*
X18562860Y-20035449D01*
X18896170Y-19808932D01*
X18896172Y-19808930D01*
X18898555Y-19807311D01*
X19214409Y-19547866D01*
X19216446Y-19545857D01*
X19216454Y-19545850D01*
X19421649Y-19343499D01*
X19505448Y-19260862D01*
X19604199Y-19144006D01*
X19767432Y-18950846D01*
X19767437Y-18950840D01*
X19769278Y-18948661D01*
X20003727Y-18613834D01*
X20206864Y-18259136D01*
X20377018Y-17887488D01*
X20512788Y-17501947D01*
X20534130Y-17417604D01*
X20552585Y-17344669D01*
X21491771Y-17344669D01*
X21492141Y-17351490D01*
X21497665Y-17402352D01*
X21501291Y-17417604D01*
X21546446Y-17538054D01*
X21554984Y-17553649D01*
X21631485Y-17655724D01*
X21644046Y-17668285D01*
X21746121Y-17744786D01*
X21761716Y-17753324D01*
X21882164Y-17798478D01*
X21897419Y-17802105D01*
X21948284Y-17807631D01*
X21955098Y-17808000D01*
X22181655Y-17808000D01*
X22196894Y-17803525D01*
X22198099Y-17802135D01*
X22199770Y-17794452D01*
X22199770Y-16768115D01*
X22195295Y-16752876D01*
X22193905Y-16751671D01*
X22186222Y-16750000D01*
X21509886Y-16750000D01*
X21494647Y-16754475D01*
X21493442Y-16755865D01*
X21491771Y-16763548D01*
X21491771Y-17344669D01*
X20552585Y-17344669D01*
X20612354Y-17108467D01*
X20612355Y-17108463D01*
X20613057Y-17105688D01*
X20677000Y-16701972D01*
X20704089Y-16294122D01*
X20705077Y-16199770D01*
X20686535Y-15791442D01*
X20678377Y-15731885D01*
X21491770Y-15731885D01*
X21496245Y-15747124D01*
X21497635Y-15748329D01*
X21505318Y-15750000D01*
X22181655Y-15750000D01*
X22196894Y-15745525D01*
X22198099Y-15744135D01*
X22199770Y-15736452D01*
X22199770Y-14710116D01*
X22195295Y-14694877D01*
X22193905Y-14693672D01*
X22186222Y-14692001D01*
X21955101Y-14692001D01*
X21948280Y-14692371D01*
X21897418Y-14697895D01*
X21882166Y-14701521D01*
X21761716Y-14746676D01*
X21746121Y-14755214D01*
X21644046Y-14831715D01*
X21631485Y-14844276D01*
X21554984Y-14946351D01*
X21546446Y-14961946D01*
X21501292Y-15082394D01*
X21497665Y-15097649D01*
X21492139Y-15148514D01*
X21491770Y-15155328D01*
X21491770Y-15731885D01*
X20678377Y-15731885D01*
X20631061Y-15386476D01*
X20539113Y-14988204D01*
X20530480Y-14961946D01*
X20412340Y-14602619D01*
X20412337Y-14602612D01*
X20411447Y-14599904D01*
X20249113Y-14224773D01*
X20053449Y-13865899D01*
X19940015Y-13696453D01*
X19827656Y-13528613D01*
X19827648Y-13528602D01*
X19826064Y-13526236D01*
X19568830Y-13208579D01*
X19283865Y-12915543D01*
X19281707Y-12913693D01*
X19281697Y-12913684D01*
X19113665Y-12769664D01*
X18973514Y-12649540D01*
X18663475Y-12429206D01*
X18619535Y-12373441D01*
X18612719Y-12302772D01*
X18645192Y-12239637D01*
X18706643Y-12204080D01*
X18736465Y-12200500D01*
X23323770Y-12200500D01*
X23391891Y-12220502D01*
G37*
G04 #@! TD.AperFunction*
G04 #@! TA.AperFunction,Conductor*
G36*
X31236094Y-12220502D02*
G01*
X31282587Y-12274158D01*
X31292691Y-12344432D01*
X31263197Y-12409012D01*
X31235116Y-12433120D01*
X31130951Y-12498716D01*
X31130945Y-12498720D01*
X31128530Y-12500241D01*
X30803814Y-12748505D01*
X30502936Y-13025177D01*
X30228371Y-13327979D01*
X29982380Y-13654420D01*
X29766988Y-14001812D01*
X29765708Y-14004368D01*
X29765703Y-14004377D01*
X29763071Y-14009634D01*
X29583967Y-14367297D01*
X29582926Y-14369953D01*
X29582923Y-14369960D01*
X29449617Y-14710116D01*
X29434824Y-14747864D01*
X29434032Y-14750591D01*
X29434028Y-14750602D01*
X29321584Y-15137639D01*
X29320787Y-15140383D01*
X29242794Y-15541621D01*
X29201488Y-15948277D01*
X29197208Y-16357003D01*
X29197437Y-16359848D01*
X29197437Y-16359851D01*
X29229188Y-16754475D01*
X29229989Y-16764435D01*
X29299562Y-17167219D01*
X29405353Y-17562039D01*
X29546493Y-17945647D01*
X29547718Y-17948227D01*
X29547721Y-17948234D01*
X29716383Y-18303434D01*
X29721820Y-18314884D01*
X29812776Y-18468682D01*
X29926863Y-18661591D01*
X29929890Y-18666710D01*
X30168990Y-18998231D01*
X30170865Y-19000387D01*
X30170865Y-19000388D01*
X30301778Y-19150986D01*
X30437153Y-19306718D01*
X30439218Y-19308698D01*
X30730116Y-19587659D01*
X30730123Y-19587666D01*
X30732172Y-19589630D01*
X30734390Y-19591400D01*
X30734395Y-19591405D01*
X30869673Y-19699396D01*
X31051617Y-19844640D01*
X31392860Y-20069648D01*
X31753091Y-20262802D01*
X32129346Y-20422513D01*
X32132055Y-20423383D01*
X32132061Y-20423385D01*
X32515807Y-20546593D01*
X32515813Y-20546595D01*
X32518527Y-20547466D01*
X32521300Y-20548086D01*
X32521308Y-20548088D01*
X32863675Y-20624615D01*
X32917432Y-20636631D01*
X33322776Y-20689276D01*
X33731223Y-20704967D01*
X33734085Y-20704817D01*
X33734086Y-20704817D01*
X34136555Y-20683725D01*
X34136562Y-20683724D01*
X34139411Y-20683575D01*
X34142234Y-20683168D01*
X34142236Y-20683168D01*
X34541158Y-20625683D01*
X34541165Y-20625682D01*
X34543980Y-20625276D01*
X34941601Y-20530549D01*
X34944299Y-20529641D01*
X34944306Y-20529639D01*
X35326288Y-20401088D01*
X35326294Y-20401086D01*
X35329000Y-20400175D01*
X35702988Y-20235226D01*
X36060487Y-20037061D01*
X36062849Y-20035456D01*
X36062860Y-20035449D01*
X36396170Y-19808932D01*
X36396172Y-19808930D01*
X36398555Y-19807311D01*
X36714409Y-19547866D01*
X36716446Y-19545857D01*
X36716454Y-19545850D01*
X36958947Y-19306718D01*
X37005448Y-19260862D01*
X37098300Y-19150986D01*
X37267432Y-18950846D01*
X37267437Y-18950840D01*
X37269278Y-18948661D01*
X37470287Y-18661591D01*
X37525744Y-18617263D01*
X37596364Y-18609954D01*
X37659724Y-18641985D01*
X37695709Y-18703186D01*
X37699500Y-18733862D01*
X37699500Y-32811186D01*
X37679498Y-32879307D01*
X37625842Y-32925800D01*
X37555568Y-32935904D01*
X37490988Y-32906410D01*
X37478768Y-32894264D01*
X37332668Y-32727670D01*
X37329959Y-32724581D01*
X37297769Y-32696351D01*
X37106331Y-32528463D01*
X37106325Y-32528459D01*
X37103231Y-32525745D01*
X37099805Y-32523456D01*
X37099800Y-32523452D01*
X36855921Y-32360498D01*
X36852488Y-32358204D01*
X36848789Y-32356380D01*
X36848784Y-32356377D01*
X36709936Y-32287905D01*
X36582022Y-32224825D01*
X36578116Y-32223499D01*
X36300374Y-32129218D01*
X36300370Y-32129217D01*
X36296461Y-32127890D01*
X36292417Y-32127086D01*
X36292411Y-32127084D01*
X36004729Y-32069860D01*
X36004723Y-32069859D01*
X36000690Y-32069057D01*
X35996585Y-32068788D01*
X35996578Y-32068787D01*
X35703889Y-32049604D01*
X35699770Y-32049334D01*
X35695651Y-32049604D01*
X35402962Y-32068787D01*
X35402955Y-32068788D01*
X35398850Y-32069057D01*
X35394817Y-32069859D01*
X35394811Y-32069860D01*
X35107129Y-32127084D01*
X35107123Y-32127086D01*
X35103079Y-32127890D01*
X35099170Y-32129217D01*
X35099166Y-32129218D01*
X34821424Y-32223499D01*
X34817518Y-32224825D01*
X34689604Y-32287905D01*
X34550756Y-32356377D01*
X34550751Y-32356380D01*
X34547052Y-32358204D01*
X34543619Y-32360498D01*
X34299740Y-32523452D01*
X34299735Y-32523456D01*
X34296309Y-32525745D01*
X34293215Y-32528459D01*
X34293209Y-32528463D01*
X34101771Y-32696351D01*
X34069581Y-32724581D01*
X34066872Y-32727670D01*
X33873463Y-32948209D01*
X33873459Y-32948215D01*
X33870745Y-32951309D01*
X33703204Y-33202052D01*
X33569825Y-33472518D01*
X33472890Y-33758079D01*
X33414057Y-34053850D01*
X33394334Y-34354770D01*
X33394604Y-34358889D01*
X33404741Y-34513548D01*
X33414057Y-34655690D01*
X33472890Y-34951461D01*
X33474217Y-34955370D01*
X33474218Y-34955374D01*
X33541083Y-35152351D01*
X33569825Y-35237022D01*
X33571649Y-35240720D01*
X33701151Y-35503324D01*
X33703204Y-35507488D01*
X33705498Y-35510921D01*
X33775629Y-35615879D01*
X33870745Y-35758231D01*
X33873459Y-35761325D01*
X33873463Y-35761331D01*
X33993630Y-35898354D01*
X34069581Y-35984959D01*
X34072670Y-35987668D01*
X34293209Y-36181077D01*
X34293215Y-36181081D01*
X34296309Y-36183795D01*
X34299735Y-36186084D01*
X34299740Y-36186088D01*
X34487303Y-36311413D01*
X34547052Y-36351336D01*
X34550751Y-36353160D01*
X34550756Y-36353163D01*
X34689604Y-36421635D01*
X34817518Y-36484715D01*
X34821423Y-36486041D01*
X34821424Y-36486041D01*
X35099166Y-36580322D01*
X35099170Y-36580323D01*
X35103079Y-36581650D01*
X35107123Y-36582454D01*
X35107129Y-36582456D01*
X35394811Y-36639680D01*
X35394817Y-36639681D01*
X35398850Y-36640483D01*
X35402955Y-36640752D01*
X35402962Y-36640753D01*
X35695651Y-36659936D01*
X35699770Y-36660206D01*
X35703889Y-36659936D01*
X35996578Y-36640753D01*
X35996585Y-36640752D01*
X36000690Y-36640483D01*
X36004723Y-36639681D01*
X36004729Y-36639680D01*
X36292411Y-36582456D01*
X36292417Y-36582454D01*
X36296461Y-36581650D01*
X36300370Y-36580323D01*
X36300374Y-36580322D01*
X36578116Y-36486041D01*
X36578117Y-36486041D01*
X36582022Y-36484715D01*
X36709936Y-36421635D01*
X36848784Y-36353163D01*
X36848789Y-36353160D01*
X36852488Y-36351336D01*
X36912237Y-36311413D01*
X37099800Y-36186088D01*
X37099805Y-36186084D01*
X37103231Y-36183795D01*
X37106325Y-36181081D01*
X37106331Y-36181077D01*
X37326870Y-35987668D01*
X37329959Y-35984959D01*
X37405910Y-35898354D01*
X37478768Y-35815276D01*
X37538722Y-35777249D01*
X37609717Y-35777671D01*
X37669214Y-35816410D01*
X37698322Y-35881165D01*
X37699500Y-35898354D01*
X37699500Y-49942600D01*
X37697534Y-49959922D01*
X37697524Y-49965491D01*
X37694344Y-49979321D01*
X37697476Y-49993161D01*
X37697451Y-50007350D01*
X37696839Y-50007349D01*
X37697500Y-50015288D01*
X37682294Y-50286060D01*
X37680713Y-50300096D01*
X37630497Y-50595648D01*
X37627353Y-50609423D01*
X37544359Y-50897500D01*
X37539694Y-50910831D01*
X37494566Y-51019780D01*
X37424970Y-51187801D01*
X37418839Y-51200532D01*
X37273828Y-51462908D01*
X37266311Y-51474872D01*
X37092830Y-51719371D01*
X37084020Y-51730418D01*
X36884260Y-51953949D01*
X36874269Y-51963940D01*
X36650738Y-52163700D01*
X36639691Y-52172510D01*
X36395192Y-52345991D01*
X36383228Y-52353508D01*
X36368987Y-52361379D01*
X36120848Y-52498521D01*
X36108125Y-52504648D01*
X35831151Y-52619374D01*
X35817820Y-52624039D01*
X35529743Y-52707033D01*
X35515972Y-52710176D01*
X35220416Y-52760393D01*
X35206384Y-52761974D01*
X34936172Y-52777149D01*
X34928379Y-52776483D01*
X34928378Y-52777229D01*
X34914187Y-52777204D01*
X34900359Y-52774024D01*
X34886520Y-52777155D01*
X34881689Y-52777147D01*
X34863496Y-52779180D01*
X26575770Y-52779180D01*
X26507649Y-52759178D01*
X26461156Y-52705522D01*
X26449770Y-52653180D01*
X26449770Y-51732822D01*
X31459760Y-51732822D01*
X31467217Y-51743189D01*
X31514705Y-51781644D01*
X31520042Y-51785521D01*
X31840455Y-51993600D01*
X31846164Y-51996897D01*
X32186581Y-52170348D01*
X32192606Y-52173030D01*
X32549272Y-52309941D01*
X32555554Y-52311982D01*
X32924586Y-52410864D01*
X32931036Y-52412235D01*
X33308399Y-52472004D01*
X33314937Y-52472690D01*
X33696469Y-52492686D01*
X33703071Y-52492686D01*
X34084603Y-52472690D01*
X34091141Y-52472004D01*
X34468504Y-52412235D01*
X34474954Y-52410864D01*
X34843986Y-52311982D01*
X34850268Y-52309941D01*
X35206934Y-52173030D01*
X35212959Y-52170348D01*
X35553376Y-51996897D01*
X35559085Y-51993600D01*
X35879498Y-51785521D01*
X35884835Y-51781644D01*
X35931373Y-51743958D01*
X35939839Y-51731703D01*
X35933505Y-51720612D01*
X33712582Y-49499689D01*
X33698638Y-49492075D01*
X33696805Y-49492206D01*
X33690190Y-49496457D01*
X31466901Y-51719746D01*
X31459760Y-51732822D01*
X26449770Y-51732822D01*
X26449770Y-48783071D01*
X29986854Y-48783071D01*
X30006850Y-49164603D01*
X30007536Y-49171141D01*
X30067305Y-49548504D01*
X30068676Y-49554954D01*
X30167558Y-49923986D01*
X30169599Y-49930268D01*
X30306510Y-50286934D01*
X30309192Y-50292959D01*
X30482642Y-50633373D01*
X30485939Y-50639083D01*
X30694023Y-50959505D01*
X30697893Y-50964831D01*
X30735582Y-51011373D01*
X30747837Y-51019839D01*
X30758928Y-51013505D01*
X32979851Y-48792582D01*
X32986229Y-48780902D01*
X34412075Y-48780902D01*
X34412206Y-48782735D01*
X34416457Y-48789350D01*
X36639746Y-51012639D01*
X36652822Y-51019780D01*
X36663189Y-51012323D01*
X36701647Y-50964831D01*
X36705517Y-50959505D01*
X36913601Y-50639083D01*
X36916898Y-50633373D01*
X37090348Y-50292959D01*
X37093030Y-50286934D01*
X37229941Y-49930268D01*
X37231982Y-49923986D01*
X37330864Y-49554954D01*
X37332235Y-49548504D01*
X37392004Y-49171141D01*
X37392690Y-49164603D01*
X37412686Y-48783071D01*
X37412686Y-48776469D01*
X37392690Y-48394937D01*
X37392004Y-48388399D01*
X37332235Y-48011036D01*
X37330864Y-48004586D01*
X37231982Y-47635554D01*
X37229941Y-47629272D01*
X37093030Y-47272606D01*
X37090348Y-47266581D01*
X36916898Y-46926167D01*
X36913601Y-46920457D01*
X36705517Y-46600035D01*
X36701647Y-46594709D01*
X36663958Y-46548167D01*
X36651703Y-46539701D01*
X36640612Y-46546035D01*
X34419689Y-48766958D01*
X34412075Y-48780902D01*
X32986229Y-48780902D01*
X32987465Y-48778638D01*
X32987334Y-48776805D01*
X32983083Y-48770190D01*
X30759794Y-46546901D01*
X30746718Y-46539760D01*
X30736351Y-46547217D01*
X30697893Y-46594709D01*
X30694023Y-46600035D01*
X30485939Y-46920457D01*
X30482642Y-46926167D01*
X30309192Y-47266581D01*
X30306510Y-47272606D01*
X30169599Y-47629272D01*
X30167558Y-47635554D01*
X30068676Y-48004586D01*
X30067305Y-48011036D01*
X30007536Y-48388399D01*
X30006850Y-48394937D01*
X29986854Y-48776469D01*
X29986854Y-48783071D01*
X26449770Y-48783071D01*
X26449770Y-46684000D01*
X26469772Y-46615879D01*
X26523428Y-46569386D01*
X26575770Y-46558000D01*
X26631885Y-46558000D01*
X26647124Y-46553525D01*
X26648329Y-46552135D01*
X26650000Y-46544452D01*
X26650000Y-46539884D01*
X27650000Y-46539884D01*
X27654475Y-46555123D01*
X27655865Y-46556328D01*
X27663548Y-46557999D01*
X27894669Y-46557999D01*
X27901490Y-46557629D01*
X27952352Y-46552105D01*
X27967604Y-46548479D01*
X28088054Y-46503324D01*
X28103649Y-46494786D01*
X28205724Y-46418285D01*
X28218285Y-46405724D01*
X28294786Y-46303649D01*
X28303324Y-46288054D01*
X28348478Y-46167606D01*
X28352105Y-46152351D01*
X28357631Y-46101486D01*
X28358000Y-46094672D01*
X28358000Y-45827837D01*
X31459701Y-45827837D01*
X31466035Y-45838928D01*
X33686958Y-48059851D01*
X33700902Y-48067465D01*
X33702735Y-48067334D01*
X33709350Y-48063083D01*
X35932639Y-45839794D01*
X35939780Y-45826718D01*
X35932323Y-45816351D01*
X35884835Y-45777896D01*
X35879498Y-45774019D01*
X35559085Y-45565940D01*
X35553376Y-45562643D01*
X35212959Y-45389192D01*
X35206934Y-45386510D01*
X34850268Y-45249599D01*
X34843986Y-45247558D01*
X34474954Y-45148676D01*
X34468504Y-45147305D01*
X34091141Y-45087536D01*
X34084603Y-45086850D01*
X33703071Y-45066854D01*
X33696469Y-45066854D01*
X33314937Y-45086850D01*
X33308399Y-45087536D01*
X32931036Y-45147305D01*
X32924586Y-45148676D01*
X32555554Y-45247558D01*
X32549272Y-45249599D01*
X32192606Y-45386510D01*
X32186581Y-45389192D01*
X31846167Y-45562642D01*
X31840457Y-45565939D01*
X31520035Y-45774023D01*
X31514709Y-45777893D01*
X31468167Y-45815582D01*
X31459701Y-45827837D01*
X28358000Y-45827837D01*
X28358000Y-45518115D01*
X28353525Y-45502876D01*
X28352135Y-45501671D01*
X28344452Y-45500000D01*
X27668115Y-45500000D01*
X27652876Y-45504475D01*
X27651671Y-45505865D01*
X27650000Y-45513548D01*
X27650000Y-46539884D01*
X26650000Y-46539884D01*
X26650000Y-44481885D01*
X27650000Y-44481885D01*
X27654475Y-44497124D01*
X27655865Y-44498329D01*
X27663548Y-44500000D01*
X28339884Y-44500000D01*
X28355123Y-44495525D01*
X28356328Y-44494135D01*
X28357999Y-44486452D01*
X28357999Y-43905331D01*
X28357629Y-43898510D01*
X28352105Y-43847648D01*
X28348479Y-43832396D01*
X28303324Y-43711946D01*
X28294786Y-43696351D01*
X28218285Y-43594276D01*
X28205724Y-43581715D01*
X28103649Y-43505214D01*
X28088054Y-43496676D01*
X27967606Y-43451522D01*
X27952351Y-43447895D01*
X27901486Y-43442369D01*
X27894672Y-43442000D01*
X27668115Y-43442000D01*
X27652876Y-43446475D01*
X27651671Y-43447865D01*
X27650000Y-43455548D01*
X27650000Y-44481885D01*
X26650000Y-44481885D01*
X26650000Y-43460116D01*
X26645525Y-43444877D01*
X26644135Y-43443672D01*
X26636452Y-43442001D01*
X26575770Y-43442001D01*
X26507649Y-43421999D01*
X26461156Y-43368343D01*
X26449770Y-43316001D01*
X26449770Y-41184000D01*
X26469772Y-41115879D01*
X26523428Y-41069386D01*
X26575770Y-41058000D01*
X26631885Y-41058000D01*
X26647124Y-41053525D01*
X26648329Y-41052135D01*
X26650000Y-41044452D01*
X26650000Y-41039884D01*
X27650000Y-41039884D01*
X27654475Y-41055123D01*
X27655865Y-41056328D01*
X27663548Y-41057999D01*
X27894669Y-41057999D01*
X27901490Y-41057629D01*
X27952352Y-41052105D01*
X27967604Y-41048479D01*
X28088054Y-41003324D01*
X28103649Y-40994786D01*
X28205724Y-40918285D01*
X28218285Y-40905724D01*
X28294786Y-40803649D01*
X28303324Y-40788054D01*
X28348478Y-40667606D01*
X28352105Y-40652351D01*
X28357631Y-40601486D01*
X28358000Y-40594672D01*
X28358000Y-40018115D01*
X28353525Y-40002876D01*
X28352135Y-40001671D01*
X28344452Y-40000000D01*
X27668115Y-40000000D01*
X27652876Y-40004475D01*
X27651671Y-40005865D01*
X27650000Y-40013548D01*
X27650000Y-41039884D01*
X26650000Y-41039884D01*
X26650000Y-38981885D01*
X27650000Y-38981885D01*
X27654475Y-38997124D01*
X27655865Y-38998329D01*
X27663548Y-39000000D01*
X28339884Y-39000000D01*
X28355123Y-38995525D01*
X28356328Y-38994135D01*
X28357999Y-38986452D01*
X28357999Y-38405331D01*
X28357629Y-38398510D01*
X28352105Y-38347648D01*
X28348479Y-38332396D01*
X28303324Y-38211946D01*
X28294786Y-38196351D01*
X28218285Y-38094276D01*
X28205724Y-38081715D01*
X28103649Y-38005214D01*
X28088054Y-37996676D01*
X27967606Y-37951522D01*
X27952351Y-37947895D01*
X27901486Y-37942369D01*
X27894672Y-37942000D01*
X27668115Y-37942000D01*
X27652876Y-37946475D01*
X27651671Y-37947865D01*
X27650000Y-37955548D01*
X27650000Y-38981885D01*
X26650000Y-38981885D01*
X26650000Y-37960116D01*
X26645525Y-37944877D01*
X26644135Y-37943672D01*
X26636452Y-37942001D01*
X26575770Y-37942001D01*
X26507649Y-37921999D01*
X26461156Y-37868343D01*
X26449770Y-37816001D01*
X26449770Y-35684000D01*
X26469772Y-35615879D01*
X26523428Y-35569386D01*
X26575770Y-35558000D01*
X26631885Y-35558000D01*
X26647124Y-35553525D01*
X26648329Y-35552135D01*
X26650000Y-35544452D01*
X26650000Y-35539884D01*
X27650000Y-35539884D01*
X27654475Y-35555123D01*
X27655865Y-35556328D01*
X27663548Y-35557999D01*
X27894669Y-35557999D01*
X27901490Y-35557629D01*
X27952352Y-35552105D01*
X27967604Y-35548479D01*
X28088054Y-35503324D01*
X28103649Y-35494786D01*
X28205724Y-35418285D01*
X28218285Y-35405724D01*
X28294786Y-35303649D01*
X28303324Y-35288054D01*
X28348478Y-35167606D01*
X28352105Y-35152351D01*
X28357631Y-35101486D01*
X28358000Y-35094672D01*
X28358000Y-34518115D01*
X28353525Y-34502876D01*
X28352135Y-34501671D01*
X28344452Y-34500000D01*
X27668115Y-34500000D01*
X27652876Y-34504475D01*
X27651671Y-34505865D01*
X27650000Y-34513548D01*
X27650000Y-35539884D01*
X26650000Y-35539884D01*
X26650000Y-33481885D01*
X27650000Y-33481885D01*
X27654475Y-33497124D01*
X27655865Y-33498329D01*
X27663548Y-33500000D01*
X28339884Y-33500000D01*
X28355123Y-33495525D01*
X28356328Y-33494135D01*
X28357999Y-33486452D01*
X28357999Y-32905331D01*
X28357629Y-32898510D01*
X28352105Y-32847648D01*
X28348479Y-32832396D01*
X28303324Y-32711946D01*
X28294786Y-32696351D01*
X28218285Y-32594276D01*
X28205724Y-32581715D01*
X28103649Y-32505214D01*
X28088054Y-32496676D01*
X27967606Y-32451522D01*
X27952351Y-32447895D01*
X27901486Y-32442369D01*
X27894672Y-32442000D01*
X27668115Y-32442000D01*
X27652876Y-32446475D01*
X27651671Y-32447865D01*
X27650000Y-32455548D01*
X27650000Y-33481885D01*
X26650000Y-33481885D01*
X26650000Y-32460116D01*
X26645525Y-32444877D01*
X26644135Y-32443672D01*
X26636452Y-32442001D01*
X26575770Y-32442001D01*
X26507649Y-32421999D01*
X26461156Y-32368343D01*
X26449770Y-32316001D01*
X26449770Y-30433019D01*
X26469772Y-30364898D01*
X26523428Y-30318405D01*
X26535261Y-30313709D01*
X26782022Y-30229945D01*
X26909936Y-30166865D01*
X27048784Y-30098393D01*
X27048789Y-30098390D01*
X27052488Y-30096566D01*
X27112237Y-30056643D01*
X27299800Y-29931318D01*
X27299805Y-29931314D01*
X27303231Y-29929025D01*
X27306325Y-29926311D01*
X27306331Y-29926307D01*
X27526870Y-29732898D01*
X27529959Y-29730189D01*
X27532668Y-29727100D01*
X27726077Y-29506561D01*
X27726081Y-29506555D01*
X27728795Y-29503461D01*
X27896336Y-29252718D01*
X28029715Y-28982252D01*
X28126650Y-28696691D01*
X28185483Y-28400920D01*
X28205206Y-28100000D01*
X28185483Y-27799080D01*
X28126650Y-27503309D01*
X28029715Y-27217748D01*
X27896336Y-26947282D01*
X27728795Y-26696539D01*
X27726081Y-26693445D01*
X27726077Y-26693439D01*
X27532668Y-26472900D01*
X27529959Y-26469811D01*
X27526870Y-26467102D01*
X27306331Y-26273693D01*
X27306325Y-26273689D01*
X27303231Y-26270975D01*
X27299805Y-26268686D01*
X27299800Y-26268682D01*
X27055921Y-26105728D01*
X27052488Y-26103434D01*
X27048789Y-26101610D01*
X27048784Y-26101607D01*
X26909936Y-26033135D01*
X26782022Y-25970055D01*
X26535268Y-25886293D01*
X26477193Y-25845457D01*
X26450414Y-25779704D01*
X26449770Y-25766981D01*
X26449770Y-22565207D01*
X26469772Y-22497086D01*
X26523428Y-22450593D01*
X26535268Y-22445894D01*
X26578352Y-22431269D01*
X26578354Y-22431268D01*
X26582252Y-22429945D01*
X26585947Y-22428123D01*
X26849014Y-22298393D01*
X26849019Y-22298390D01*
X26852718Y-22296566D01*
X26912467Y-22256643D01*
X27100030Y-22131318D01*
X27100035Y-22131314D01*
X27103461Y-22129025D01*
X27106555Y-22126311D01*
X27106561Y-22126307D01*
X27327100Y-21932898D01*
X27330189Y-21930189D01*
X27332898Y-21927100D01*
X27526307Y-21706561D01*
X27526311Y-21706555D01*
X27529025Y-21703461D01*
X27696566Y-21452718D01*
X27829945Y-21182252D01*
X27926880Y-20896691D01*
X27965017Y-20704967D01*
X27984910Y-20604959D01*
X27984911Y-20604953D01*
X27985713Y-20600920D01*
X27990326Y-20530549D01*
X28005166Y-20304119D01*
X28005436Y-20300000D01*
X27990427Y-20070998D01*
X27985983Y-20003192D01*
X27985982Y-20003185D01*
X27985713Y-19999080D01*
X27955304Y-19846201D01*
X27927686Y-19707359D01*
X27927684Y-19707353D01*
X27926880Y-19703309D01*
X27829945Y-19417748D01*
X27753571Y-19262876D01*
X27698393Y-19150986D01*
X27698390Y-19150981D01*
X27696566Y-19147282D01*
X27598415Y-19000388D01*
X27531318Y-18899970D01*
X27531314Y-18899965D01*
X27529025Y-18896539D01*
X27526311Y-18893445D01*
X27526307Y-18893439D01*
X27332898Y-18672900D01*
X27330189Y-18669811D01*
X27266360Y-18613834D01*
X27106561Y-18473693D01*
X27106555Y-18473689D01*
X27103461Y-18470975D01*
X27100035Y-18468686D01*
X27100030Y-18468682D01*
X26856151Y-18305728D01*
X26852718Y-18303434D01*
X26849019Y-18301610D01*
X26849014Y-18301607D01*
X26585947Y-18171877D01*
X26585945Y-18171876D01*
X26582252Y-18170055D01*
X26535268Y-18154106D01*
X26477192Y-18113269D01*
X26450414Y-18047516D01*
X26449770Y-18034793D01*
X26449770Y-17934000D01*
X26469772Y-17865879D01*
X26523428Y-17819386D01*
X26575770Y-17808000D01*
X26581655Y-17808000D01*
X26596894Y-17803525D01*
X26598099Y-17802135D01*
X26599770Y-17794452D01*
X26599770Y-17789884D01*
X27599770Y-17789884D01*
X27604245Y-17805123D01*
X27605635Y-17806328D01*
X27613318Y-17807999D01*
X27844439Y-17807999D01*
X27851260Y-17807629D01*
X27902122Y-17802105D01*
X27917374Y-17798479D01*
X28037824Y-17753324D01*
X28053419Y-17744786D01*
X28155494Y-17668285D01*
X28168055Y-17655724D01*
X28244556Y-17553649D01*
X28253094Y-17538054D01*
X28298248Y-17417606D01*
X28301875Y-17402351D01*
X28307401Y-17351486D01*
X28307770Y-17344672D01*
X28307770Y-16768115D01*
X28303295Y-16752876D01*
X28301905Y-16751671D01*
X28294222Y-16750000D01*
X27617885Y-16750000D01*
X27602646Y-16754475D01*
X27601441Y-16755865D01*
X27599770Y-16763548D01*
X27599770Y-17789884D01*
X26599770Y-17789884D01*
X26599770Y-15731885D01*
X27599770Y-15731885D01*
X27604245Y-15747124D01*
X27605635Y-15748329D01*
X27613318Y-15750000D01*
X28289654Y-15750000D01*
X28304893Y-15745525D01*
X28306098Y-15744135D01*
X28307769Y-15736452D01*
X28307769Y-15155331D01*
X28307399Y-15148510D01*
X28301875Y-15097648D01*
X28298249Y-15082396D01*
X28253094Y-14961946D01*
X28244556Y-14946351D01*
X28168055Y-14844276D01*
X28155494Y-14831715D01*
X28053419Y-14755214D01*
X28037824Y-14746676D01*
X27917376Y-14701522D01*
X27902121Y-14697895D01*
X27851256Y-14692369D01*
X27844442Y-14692000D01*
X27617885Y-14692000D01*
X27602646Y-14696475D01*
X27601441Y-14697865D01*
X27599770Y-14705548D01*
X27599770Y-15731885D01*
X26599770Y-15731885D01*
X26599770Y-14710116D01*
X26595295Y-14694877D01*
X26593905Y-14693672D01*
X26586222Y-14692001D01*
X26575770Y-14692001D01*
X26507649Y-14671999D01*
X26461156Y-14618343D01*
X26449770Y-14566001D01*
X26449770Y-12326500D01*
X26469772Y-12258379D01*
X26523428Y-12211886D01*
X26575770Y-12200500D01*
X31167973Y-12200500D01*
X31236094Y-12220502D01*
G37*
G04 #@! TD.AperFunction*
M02*
