%TF.GenerationSoftware,KiCad,Pcbnew,6.0.10*%
%TF.CreationDate,2023-01-08T03:38:05+01:00*%
%TF.ProjectId,ideal_diode,69646561-6c5f-4646-996f-64652e6b6963,rev?*%
%TF.SameCoordinates,Original*%
%TF.FileFunction,Drillmap*%
%TF.FilePolarity,Positive*%
%FSLAX45Y45*%
G04 Gerber Fmt 4.5, Leading zero omitted, Abs format (unit mm)*
G04 Created by KiCad (PCBNEW 6.0.10) date 2023-01-08 03:38:05*
%MOMM*%
%LPD*%
G01*
G04 APERTURE LIST*
%ADD10C,0.100000*%
%ADD11C,0.200000*%
G04 APERTURE END LIST*
D10*
X3790000Y-4997968D02*
X3790000Y-1500000D01*
X3790000Y-1500000D02*
G75*
G03*
X3490000Y-1200000I-299999J1D01*
G01*
X3490000Y-5297968D02*
G75*
G03*
X3790000Y-4997968I0J300000D01*
G01*
X1200000Y-4997968D02*
G75*
G03*
X1500000Y-5297968I299999J-1D01*
G01*
X1200000Y-1500000D02*
X1200000Y-4997968D01*
X1500000Y-1200000D02*
G75*
G03*
X1200000Y-1500000I0J-300000D01*
G01*
X3490000Y-1200000D02*
X1500000Y-1200000D01*
X1500000Y-5297968D02*
X3490000Y-5297968D01*
D11*
X1452619Y-5613444D02*
X1452619Y-5413444D01*
X1500238Y-5413444D01*
X1528809Y-5422968D01*
X1547857Y-5442016D01*
X1557381Y-5461063D01*
X1566905Y-5499158D01*
X1566905Y-5527730D01*
X1557381Y-5565825D01*
X1547857Y-5584873D01*
X1528809Y-5603920D01*
X1500238Y-5613444D01*
X1452619Y-5613444D01*
X1652619Y-5613444D02*
X1652619Y-5480111D01*
X1652619Y-5518206D02*
X1662143Y-5499158D01*
X1671667Y-5489635D01*
X1690714Y-5480111D01*
X1709762Y-5480111D01*
X1776428Y-5613444D02*
X1776428Y-5480111D01*
X1776428Y-5413444D02*
X1766905Y-5422968D01*
X1776428Y-5432492D01*
X1785952Y-5422968D01*
X1776428Y-5413444D01*
X1776428Y-5432492D01*
X1900238Y-5613444D02*
X1881190Y-5603920D01*
X1871667Y-5584873D01*
X1871667Y-5413444D01*
X2005000Y-5613444D02*
X1985952Y-5603920D01*
X1976428Y-5584873D01*
X1976428Y-5413444D01*
X2233571Y-5613444D02*
X2233571Y-5413444D01*
X2300238Y-5556301D01*
X2366905Y-5413444D01*
X2366905Y-5613444D01*
X2547857Y-5613444D02*
X2547857Y-5508682D01*
X2538333Y-5489635D01*
X2519286Y-5480111D01*
X2481190Y-5480111D01*
X2462143Y-5489635D01*
X2547857Y-5603920D02*
X2528810Y-5613444D01*
X2481190Y-5613444D01*
X2462143Y-5603920D01*
X2452619Y-5584873D01*
X2452619Y-5565825D01*
X2462143Y-5546778D01*
X2481190Y-5537254D01*
X2528810Y-5537254D01*
X2547857Y-5527730D01*
X2643095Y-5480111D02*
X2643095Y-5680111D01*
X2643095Y-5489635D02*
X2662143Y-5480111D01*
X2700238Y-5480111D01*
X2719286Y-5489635D01*
X2728810Y-5499158D01*
X2738333Y-5518206D01*
X2738333Y-5575349D01*
X2728810Y-5594396D01*
X2719286Y-5603920D01*
X2700238Y-5613444D01*
X2662143Y-5613444D01*
X2643095Y-5603920D01*
X2824048Y-5594396D02*
X2833571Y-5603920D01*
X2824048Y-5613444D01*
X2814524Y-5603920D01*
X2824048Y-5594396D01*
X2824048Y-5613444D01*
X2824048Y-5489635D02*
X2833571Y-5499158D01*
X2824048Y-5508682D01*
X2814524Y-5499158D01*
X2824048Y-5489635D01*
X2824048Y-5508682D01*
M02*
